<svg xmlns="http://www.w3.org/2000/svg" width="33.5" height="33.5" viewBox="0 0 33.5 33.5">
  <g id="Group_630" data-name="Group 630" transform="translate(-139 -701.5)">
    <circle id="Ellipse_7" data-name="Ellipse 7" cx="16.75" cy="16.75" r="16.75" transform="translate(139 701.5)" fill="#dcd8cf" opacity="0.379"/>
    <g id="_49013" data-name="49013" transform="translate(143.921 706.332)">
      <g id="Group_604" data-name="Group 604" transform="translate(1.079 0)">
        <path id="Path_466" data-name="Path 466" d="M21.611,12.484a12.436,12.436,0,0,0-1.463-2.676c-.064-.089-.131-.158-.071-.305A2.3,2.3,0,0,0,19.9,7.435a2.2,2.2,0,0,1-.381-.943,7.325,7.325,0,0,0-.295-1.52A6.132,6.132,0,0,0,16.2.957,7.935,7.935,0,0,0,13.255.063a9.973,9.973,0,0,0-3.182.152A6.45,6.45,0,0,0,6.056,3.036,6.823,6.823,0,0,0,4.8,6.143c-.027.222.054.466-.089.67a1.406,1.406,0,0,0-.231.581A2.657,2.657,0,0,1,4.2,8.28,1.6,1.6,0,0,0,4.031,9.4a.284.284,0,0,1-.115.336,7.284,7.284,0,0,0-1.7,1.819,6.463,6.463,0,0,0-1.128,3.294,3.476,3.476,0,0,0,.2,1.413c.082.222.191.326.453.249a1.461,1.461,0,0,0,.575-.309,3.111,3.111,0,0,0,.819-1.087c.022-.05.016-.126.1-.122s.079.066.091.125a5.158,5.158,0,0,0,.615,1.447,5.039,5.039,0,0,0,1.09,1.249c.145.129.351.189.432.407a2.541,2.541,0,0,0-.839.132A1.351,1.351,0,0,0,3.987,20.6a2.475,2.475,0,0,0,.59.351,7.077,7.077,0,0,0,2.355.477,8.848,8.848,0,0,0,2.963-.182,5.625,5.625,0,0,0,1.576-.731c.046-.03.077-.1.143-.081.389.113.8,0,1.193.149a9.578,9.578,0,0,0,1.96.543,10.506,10.506,0,0,0,3.015.109,4.87,4.87,0,0,0,1.954-.6,1.008,1.008,0,0,0,.071-1.806,7.017,7.017,0,0,0-1.131-.663.653.653,0,0,1-.3-.194,7.029,7.029,0,0,0,1.6-2.7,6.939,6.939,0,0,0,.748,1.181c.315.376.589.367.9-.009a1.426,1.426,0,0,0,.269-.5A5.148,5.148,0,0,0,21.611,12.484ZM12.8,4.931a2.309,2.309,0,0,1,.329-1.3.958.958,0,0,1,1.765-.018,2.873,2.873,0,0,1,.213,2.268,1.261,1.261,0,0,1-.609.868.924.924,0,0,1-1.263-.289A2.33,2.33,0,0,1,12.8,4.931ZM9.627,3.464a.921.921,0,0,1,1.573,0,2.49,2.49,0,0,1,.454,1.556,2.255,2.255,0,0,1-.521,1.5.9.9,0,0,1-1.481-.05A2.718,2.718,0,0,1,9.627,3.464ZM7.6,8.506a5.976,5.976,0,0,1,2.152-.875,10.8,10.8,0,0,1,5.041.019,6.394,6.394,0,0,1,1.933.8c.368.24.364.329,0,.555A2.444,2.444,0,0,1,15.4,9.44c.186-.206.42-.321.564-.635-2.5,1.721-4.953,1.86-7.414.077l.352.566A5.457,5.457,0,0,1,7.612,9C7.3,8.838,7.309,8.706,7.6,8.506Zm3.131,12a2.12,2.12,0,0,1-1.086.477,9.191,9.191,0,0,1-4.365.009,2.6,2.6,0,0,1-1.247-.622.457.457,0,0,1,0-.743c.158-.164.342-.3.512-.465-.131.023-.263.043-.393.073-.065.015-.14.066-.179-.008a.241.241,0,0,1,.005-.194.724.724,0,0,1,.269-.295,5.716,5.716,0,0,1,.507-.273,1.042,1.042,0,0,1,1.189.112,8.32,8.32,0,0,0,2.661,1.279,14.131,14.131,0,0,0,2.061.45c.053.008.127-.02.154.043C10.86,20.433,10.776,20.463,10.731,20.507Zm7.813-2.222a4.1,4.1,0,0,1,.874.5,1.4,1.4,0,0,0-.666.148c-.037.023-.09.068-.088.1.006.081.081.057.135.057.25,0,.5-.013.75,0a.547.547,0,0,1,.522.8,1.74,1.74,0,0,1-1.252.923,7.974,7.974,0,0,1-4.839-.136c-.176-.054-.386-.047-.471-.288a8.581,8.581,0,0,0,4.424-2.033A.44.44,0,0,1,18.544,18.286Zm.6-3.482a4.564,4.564,0,0,1-1.011,2.561,7.467,7.467,0,0,1-4.387,2.75,6.345,6.345,0,0,1-2.037.01,10.22,10.22,0,0,1-3.036-.7,6.977,6.977,0,0,1-1.7-.972A5.292,5.292,0,0,1,4.924,15.38a5.477,5.477,0,0,1,.364-3.431c.036-.078.081-.151.118-.229.09-.186.179-.266.39-.105a5.357,5.357,0,0,0,.746.427c.1.051.122.094.106.218a11.23,11.23,0,0,0-.1,2.645,1.26,1.26,0,0,0,.814,1.054,3.345,3.345,0,0,0,1.9.125.778.778,0,0,0,.547-.771l-.042-1.76-.015-.366a8.6,8.6,0,0,0,2.126.274,10.477,10.477,0,0,0,4.8-1.091,10.227,10.227,0,0,0,1.3-.73c.1-.068.142-.075.219.037A4.956,4.956,0,0,1,19.146,14.8ZM8.86,14.08l-.02-.662c.013-.123-.058-.347.14-.38a.426.426,0,0,1,.495.38,14.265,14.265,0,0,1,.076,1.858.462.462,0,0,1-.5.5,5.283,5.283,0,0,1-1.437-.064c-.665-.148-.9-.474-.919-1.227A9.948,9.948,0,0,1,6.977,12.4c.02-.11.063-.106.153-.068a9.192,9.192,0,0,0,1.281.5c.135.035.114.128.118.223a4.312,4.312,0,0,0,.224,1.3c.025.069.061.134.114.255ZM19.937,9.117a2.793,2.793,0,0,1-1.358,1.918,14.1,14.1,0,0,1-4.909,2.007,10.007,10.007,0,0,1-3.1.048,12.418,12.418,0,0,1-3.545-1.023,6.24,6.24,0,0,1-2.49-1.774,1.4,1.4,0,0,1-.1-1.826,2.867,2.867,0,0,0,1.227,1.879c-.242-.414-.488-.826-.724-1.243a2.5,2.5,0,0,1-.206-1.415c.028,0,.055-.012.06,0a6.783,6.783,0,0,0,3.531,2.568,12.4,12.4,0,0,0,5.57.622,8.921,8.921,0,0,0,5.1-2.273c.093-.084.192-.159.265-.22a4.827,4.827,0,0,1-2.5,2.963A5.175,5.175,0,0,0,19.8,7.92,1.818,1.818,0,0,1,19.937,9.117Z" transform="translate(-1.079 0)" fill="#dcd8cf"/>
        <path id="Path_467" data-name="Path 467" d="M57.423,21.07c.113.022.128-.088.15-.17.042-.156.066-.36.26-.363.178,0,.186.2.208.332.018.105.08.216.2.2.146-.02.13-.762-.246-.89-.347-.131-.687.2-.678.675C57.314,20.938,57.315,21.049,57.423,21.07Z" transform="translate(-45.093 -15.771)" fill="#dcd8cf"/>
        <path id="Path_468" data-name="Path 468" d="M45.276,20.91a.358.358,0,0,0,.351-.248,1.04,1.04,0,0,0-.04-1.04.315.315,0,0,0-.563-.034.906.906,0,0,0-.164.6,1.084,1.084,0,0,0,.082.447A.405.405,0,0,0,45.276,20.91Z" transform="translate(-35.347 -15.208)" fill="#dcd8cf"/>
      </g>
    </g>
  </g>
</svg>
