<svg xmlns="http://www.w3.org/2000/svg" width="48" height="69" viewBox="0 0 48 69">
  <g id="Group_661" data-name="Group 661" transform="translate(29 -193)">
    <text id="侧面拍摄" transform="translate(-29 240)" fill="#ecede8" font-size="12" font-family="PingFangTC-Medium, PingFang TC" font-weight="500"><tspan x="0" y="13">侧面拍摄</tspan></text>
    <g id="Group_564" data-name="Group 564" transform="translate(1003.583 286.257)">
      <path id="Path_384" data-name="Path 384" d="M-1012.285-53.2a2.171,2.171,0,0,1-1.338.248c-1.625-.039-3.249-.1-4.874-.139-1.209-.029-2.419-.041-3.628-.058a17.04,17.04,0,0,1-4.194-.815c-1.424-.384-1.972-.877-2.209-2.659a2.063,2.063,0,0,1,.415-1.915,4.1,4.1,0,0,1,1.277-.784,9.817,9.817,0,0,1,3.189-.554c2.038-.1,4.078-.155,6.117-.229.067,0,.133-.009.222-.015l-1.026-2.386c-.573.039-1.168.085-1.764.118-.253.014-.508-.009-.761,0s-.329-.1-.278-.336c.155-.721.329-1.438.454-2.164a13.69,13.69,0,0,0-.583-6.884,1.251,1.251,0,0,0-.18-.371,3.7,3.7,0,0,1-.648-2.622,3.362,3.362,0,0,1,1.682-2.952c.822-.489,1.608-1.037,2.409-1.561a4.455,4.455,0,0,0,1.924-2.738,15.193,15.193,0,0,0,.185-3.025c0-.145-.153-.316-.272-.439-.5-.522-1.042-1.012-1.526-1.551a.9.9,0,0,1,.133-1.3c.424-.3.545-.775.822-1.157a.882.882,0,0,1,.365-.326.3.3,0,0,0,.241-.353,1.883,1.883,0,0,1,.008-.38c.03-.212.134-.375.372-.384a11.228,11.228,0,0,1,1.311-.018.7.7,0,0,0,.686-.309,2.407,2.407,0,0,1,1.279-.885,1.606,1.606,0,0,0,.47-.311.8.8,0,0,1,.836-.274c.518.154,1.052.265,1.552.463a.519.519,0,0,0,.648-.14,4.774,4.774,0,0,1,1-.717,1.124,1.124,0,0,1,1.46.326c.334.381.649.781.959,1.181a44.426,44.426,0,0,1,4.076,6.494,8.686,8.686,0,0,0,1.1,1.538,3.008,3.008,0,0,0,.86.618,1.992,1.992,0,0,1,1.2,1.374,3.178,3.178,0,0,0,.32.725,2.783,2.783,0,0,1,.177,2.2,2.21,2.21,0,0,0,.042.921c.035.284.127.562.159.847a1.114,1.114,0,0,1-.041.6.725.725,0,0,0,0,.641c.511,1.552.966,3.124,1.527,4.657a18.668,18.668,0,0,0,1.31,2.808c1.18,2.072,2.42,4.11,3.644,6.156.508.85,1.072,1.668,1.552,2.533a3.928,3.928,0,0,1,.537,3.086,6.689,6.689,0,0,1-.9,1.772,1.99,1.99,0,0,1-1.765.7c-1,.015-2.008-.028-3.01,0s-2.023.168-3.034.165c-1.751,0-3.505-.027-5.252-.144-1.5-.1-3-.337-4.5-.525a3.09,3.09,0,0,0-1.737.341.358.358,0,0,0-.13.289c.033.564-.058.706-.619.777a10.085,10.085,0,0,1-1.46.11A2.989,2.989,0,0,1-1012.285-53.2Zm16.566-5.767a11.781,11.781,0,0,1-1.295-3.212c-.319-1.153-.548-2.332-.89-3.478-.286-.958-.7-1.878-1.019-2.827a2.282,2.282,0,0,0-1.665-1.68,1.226,1.226,0,0,1-.312-.146,1.175,1.175,0,0,1-.693-1.213,10.146,10.146,0,0,1,.431-1.548c.122-.381.318-.74.42-1.126a10.743,10.743,0,0,0,.12-3.336.383.383,0,0,0-.107-.2q-.731-.823-1.469-1.64a2.29,2.29,0,0,1-.743-1.407,2.678,2.678,0,0,0-.706-1.652c-.382-.446-.792-.869-1.2-1.287s-.825-.793-1.216-1.167a8.626,8.626,0,0,1-.682.8c-.62.569-1.261,1.114-1.9,1.663a.972.972,0,0,1-.324.191c-.216.07-.282.2-.322.423a2.537,2.537,0,0,1-.56,1.561,1.378,1.378,0,0,0-.419,1.185,16.377,16.377,0,0,1-.02,1.791,11.6,11.6,0,0,1-.976,2.708c-.072.237-.234.445-.324.678a3.381,3.381,0,0,0-.193.706c-.032.213.073.481-.021.644a3.876,3.876,0,0,0-.249,1.626c-.053.441-.066.888-.09,1.332a3.449,3.449,0,0,0,.465,2.406,2.074,2.074,0,0,1,.181.444,1.886,1.886,0,0,0,.161.335c.257.375.527.74.784,1.114.069.1.078.262.166.325a10.061,10.061,0,0,0,2.939,1.288,2.4,2.4,0,0,0,.27.055,4.793,4.793,0,0,1,3.654,2.854c.04.087.107.2.187.226a25.14,25.14,0,0,0,2.471.764c.977.212,1.98.3,2.97.451C-997.17-59.2-996.445-59.08-995.719-58.962Zm-2.338-20.578.092-.028c-.087-.325-.154-.657-.268-.973a7.938,7.938,0,0,1-.41-.948,1.6,1.6,0,0,0-.919-1.092,4.543,4.543,0,0,1-.842-.531,6.915,6.915,0,0,1-1.527-2.078,39.63,39.63,0,0,0-4.667-7.172c-.507-.615-.866-.777-1.719-.151a6.384,6.384,0,0,0-1.945,2.559,63.535,63.535,0,0,0-2.481,6.369,3.474,3.474,0,0,1-1.239,1.7,5.874,5.874,0,0,0-2.163,3.4,1.324,1.324,0,0,0,.551,1.483,5.66,5.66,0,0,0,3.3,1.067,1.272,1.272,0,0,0,1.294-.8,4.184,4.184,0,0,0,.387-2.354,1.4,1.4,0,0,1,.394-1.27,1.525,1.525,0,0,0,.472-.895c.066-.374.133-.748.192-1.123a8.883,8.883,0,0,1,.3-1.83c.484-1.242,1.073-2.444,1.645-3.65.26-.548.4-.595.882-.191.931.788,1.84,1.6,2.716,2.452a6.567,6.567,0,0,1,1.672,2.631,8.53,8.53,0,0,0,.627,1.342,5.516,5.516,0,0,1,.754,2.1,1.142,1.142,0,0,0,.14.495,3.043,3.043,0,0,0,.441.451l.115-.071a3.929,3.929,0,0,0,0-.431c-.082-.733-.189-1.463-.245-2.2a.7.7,0,0,1,.2-.565.7.7,0,0,1,.587.119,4.191,4.191,0,0,1,1.515,1.845C-998.16-79.765-998.107-79.654-998.057-79.54Zm3.252,12.163c-.059-.125-.1-.23-.157-.331s-.112-.2-.176-.3a13.327,13.327,0,0,1-1.525-3.464c-.43-1.4-.9-2.781-1.366-4.164-.059-.173-.251-.3-.365-.454a1.466,1.466,0,0,1-.343-.569,1.267,1.267,0,0,0-.36-.857c-.162-.161-.139-.509-.186-.715l-.66-.359c-.121.429-.447.351-.819.249.562.384.525.943.515,1.477a17.392,17.392,0,0,1-.127,2.544,10.183,10.183,0,0,1-.684,1.866c-.446,1.162-.239,1.641.9,2.083l.1.036a1.961,1.961,0,0,1,1.166,1.066q.253.567.475,1.148c.276.727.541,1.458.822,2.221A6.628,6.628,0,0,1-994.8-67.378Zm-21.843-12.691.111.088q.815-.764,1.629-1.529a4.682,4.682,0,0,1,.648-.618,3.079,3.079,0,0,0,1.249-1.761c.383-1.133.81-2.251,1.207-3.379a.471.471,0,0,0-.01-.385c-.152-.166-.264-.449-.611-.289a.538.538,0,0,1-.738-.254.613.613,0,0,1,.119-.836,2.348,2.348,0,0,0,.646-1.342,5.523,5.523,0,0,1,.178-.847,5.467,5.467,0,0,1,.251-.606l-.089-.068a2.31,2.31,0,0,0-1.294.7,1.161,1.161,0,0,1-1.23.6,3.916,3.916,0,0,0-.759-.01c-.449.011-.457.015-.444.475a.555.555,0,0,1-.435.646c-.082.021-.152.119-.209.2-.3.393-.4.91-.869,1.2a.586.586,0,0,0-.076.912,10.964,10.964,0,0,0,1.316,1.317,1.282,1.282,0,0,1,.543,1.152c-.025.7-.109,1.4-.111,2.1a3.291,3.291,0,0,1-.538,1.721C-1016.327-80.613-1016.486-80.341-1016.648-80.069Zm6.871,26a.658.658,0,0,0-.4-.825,1.432,1.432,0,0,1-.851-1.12.592.592,0,0,0-.4-.361,1.9,1.9,0,0,1-1.252-.887.74.74,0,0,0-1.224.041,1.412,1.412,0,0,1-1.678.69,14.283,14.283,0,0,1-1.957-.412,1.608,1.608,0,0,0-1.688.544,2.908,2.908,0,0,0-.673,2.642c.043.239.146.307.39.309,1.452.013,2.9.044,4.354.076.633.014,1.267.077,1.9.053a2.243,2.243,0,0,0,.9-.281c.208-.107.287-.114.443.081a.8.8,0,0,0,.532.229c.317.018.639-.06.959-.061C-1009.777-53.353-1009.774-53.346-1009.776-54.068Zm-8.229-8.472c.395.83.754,1.638,1.159,2.422a2.355,2.355,0,0,0,1.571,1.206,2.849,2.849,0,0,0,2.849-.843c.873-.882,1.662-1.849,2.472-2.791.327-.381.614-.8.929-1.208-.616-.356-1.209-.664-1.762-1.032a.722.722,0,0,0-.778-.049c-1.436.592-2.872,1.185-4.326,1.728C-1016.535-62.866-1017.221-62.745-1018.005-62.54Zm12.728-23.89c-.122.116-.224.209-.322.306a.8.8,0,0,0,.029,1.224c.739.726,1.476,1.458,2.175,2.222a2.536,2.536,0,0,1,.765,1.591c.038,1.019.768,1.54,1.453,2.117a14.416,14.416,0,0,0-.636-2.069c-.334-.818-.755-1.6-1.1-2.416A9,9,0,0,0-1005.277-86.43Zm6.1,7.785.074-.128c-.016-.077-.03-.155-.049-.232-.076-.3-.164-.6-.222-.905-.015-.076.064-.171.1-.257.067.032.185.054.193.1.1.562.483,1.082.215,1.7a.56.56,0,0,0,.3.8c.59-1.371-.291-3.583-1.615-3.966a8.091,8.091,0,0,0,.6,2.69C-999.533-78.736-999.314-78.708-999.174-78.644Zm1.053,1.117a.746.746,0,0,0-.215.976c.044.093.188.14.287.208.043-.107.135-.221.122-.321C-997.966-76.945-998.049-77.221-998.121-77.528Z" transform="translate(0)" fill="#8699a0"/>
      <path id="Path_385" data-name="Path 385" d="M-920.974-77.388c-.05-.113-.1-.225-.149-.339a4.191,4.191,0,0,0-1.515-1.845.7.7,0,0,0-.587-.119.7.7,0,0,0-.2.565c.057.734.163,1.464.245,2.2a3.929,3.929,0,0,1,0,.431l-.115.071a3.045,3.045,0,0,1-.441-.451,1.141,1.141,0,0,1-.14-.495,5.518,5.518,0,0,0-.754-2.1,8.53,8.53,0,0,1-.627-1.342,6.567,6.567,0,0,0-1.672-2.631c-.877-.848-1.786-1.664-2.716-2.452-.478-.4-.622-.358-.882.191-.572,1.206-1.161,2.408-1.645,3.65a8.883,8.883,0,0,0-.3,1.83c-.059.375-.126.749-.192,1.123a1.525,1.525,0,0,1-.473.895,1.4,1.4,0,0,0-.394,1.27,4.184,4.184,0,0,1-.387,2.354,1.272,1.272,0,0,1-1.294.8,5.66,5.66,0,0,1-3.3-1.067,1.324,1.324,0,0,1-.551-1.483,5.874,5.874,0,0,1,2.163-3.4,3.474,3.474,0,0,0,1.239-1.7,63.533,63.533,0,0,1,2.481-6.369,6.385,6.385,0,0,1,1.945-2.559c.853-.626,1.212-.463,1.719.151a39.63,39.63,0,0,1,4.667,7.172,6.916,6.916,0,0,0,1.527,2.078,4.547,4.547,0,0,0,.842.531,1.6,1.6,0,0,1,.919,1.092,7.926,7.926,0,0,0,.41.948c.114.315.18.648.268.973Z" transform="translate(-77.083 -2.152)" fill="#fff"/>
      <path id="Path_386" data-name="Path 386" d="M-824.889,23.891a6.628,6.628,0,0,0-2.791,1.48c-.281-.762-.546-1.494-.822-2.221q-.221-.581-.475-1.148a1.96,1.96,0,0,0-1.166-1.066l-.1-.036c-1.14-.442-1.346-.921-.9-2.083a10.183,10.183,0,0,0,.684-1.866,17.392,17.392,0,0,0,.127-2.544c.01-.534.047-1.094-.515-1.477.372.1.7.181.819-.249l.66.359c.047.206.024.554.186.715a1.266,1.266,0,0,1,.36.857,1.468,1.468,0,0,0,.343.569c.113.159.306.282.365.454.47,1.383.936,2.768,1.366,4.164a13.327,13.327,0,0,0,1.525,3.464c.063.1.122.2.176.3S-824.947,23.766-824.889,23.891Z" transform="translate(-169.916 -91.269)" fill="#fff"/>
      <path id="Path_387" data-name="Path 387" d="M-948.029-71.6c.161-.272.321-.545.484-.815a3.29,3.29,0,0,0,.538-1.721c0-.7.085-1.4.111-2.1a1.282,1.282,0,0,0-.543-1.152,10.972,10.972,0,0,1-1.316-1.317.586.586,0,0,1,.076-.912c.468-.29.574-.806.869-1.2.057-.076.128-.174.209-.2a.555.555,0,0,0,.435-.646c-.012-.46-.005-.464.444-.475a3.917,3.917,0,0,1,.759.01,1.161,1.161,0,0,0,1.23-.6,2.31,2.31,0,0,1,1.294-.7l.089.068a5.465,5.465,0,0,0-.251.606,5.523,5.523,0,0,0-.178.847,2.348,2.348,0,0,1-.646,1.342.613.613,0,0,0-.119.836.538.538,0,0,0,.739.254c.347-.16.459.122.611.289a.471.471,0,0,1,.01.385c-.4,1.128-.824,2.246-1.207,3.379a3.079,3.079,0,0,1-1.249,1.761,4.682,4.682,0,0,0-.648.618q-.812.767-1.629,1.529Z" transform="translate(-68.618 -8.47)" fill="#fff"/>
      <path id="Path_388" data-name="Path 388" d="M-956.2,168c0,.722,0,.715-.659.718-.32,0-.641.079-.959.061a.8.8,0,0,1-.532-.229c-.156-.195-.235-.188-.443-.081a2.242,2.242,0,0,1-.9.281c-.631.025-1.265-.039-1.9-.053-1.451-.032-2.9-.063-4.354-.076-.244,0-.347-.07-.39-.309a2.908,2.908,0,0,1,.673-2.642,1.608,1.608,0,0,1,1.688-.544,14.286,14.286,0,0,0,1.957.412,1.412,1.412,0,0,0,1.678-.69.74.74,0,0,1,1.224-.041,1.9,1.9,0,0,0,1.252.887.591.591,0,0,1,.4.361,1.432,1.432,0,0,0,.851,1.12A.658.658,0,0,1-956.2,168Z" transform="translate(-53.575 -222.073)" fill="#fff"/>
      <path id="Path_389" data-name="Path 389" d="M-952.19,113.748c.784-.205,1.47-.326,2.112-.566,1.455-.543,2.89-1.136,4.326-1.728a.722.722,0,0,1,.778.049c.553.368,1.146.676,1.762,1.032-.315.412-.6.827-.929,1.208-.81.943-1.6,1.91-2.472,2.791a2.849,2.849,0,0,1-2.848.843,2.355,2.355,0,0,1-1.571-1.206C-951.436,115.386-951.8,114.579-952.19,113.748Z" transform="translate(-65.815 -176.288)" fill="#fff"/>
      <path id="Path_390" data-name="Path 390" d="M-863.97-43.955a9,9,0,0,1,2.365,2.975c.345.814.766,1.6,1.1,2.416a14.424,14.424,0,0,1,.636,2.069c-.685-.578-1.416-1.1-1.453-2.117a2.536,2.536,0,0,0-.765-1.591c-.7-.764-1.435-1.5-2.175-2.222a.8.8,0,0,1-.028-1.224C-864.194-43.746-864.092-43.839-863.97-43.955Z" transform="translate(-141.307 -42.475)" fill="#fff"/>
      <path id="Path_391" data-name="Path 391" d="M-822.456-5.691c-.14-.064-.359-.091-.408-.2a8.093,8.093,0,0,1-.6-2.69c1.324.383,2.2,2.6,1.615,3.966a.56.56,0,0,1-.3-.8c.267-.619-.115-1.139-.215-1.7-.008-.042-.126-.065-.193-.1-.036.086-.115.18-.1.257.058.3.147.6.222.905.019.077.033.155.049.232Z" transform="translate(-176.718 -72.953)" fill="#fff"/>
      <path id="Path_392" data-name="Path 392" d="M-810.516,20.336c.072.307.154.582.193.863.014.1-.078.214-.122.321-.1-.068-.243-.114-.287-.208A.746.746,0,0,1-810.516,20.336Z" transform="translate(-187.605 -97.864)" fill="#fff"/>
    </g>
  </g>
</svg>
