<svg id="圖層_1" data-name="圖層 1" xmlns="http://www.w3.org/2000/svg" viewBox="0 0 26.60076 50.25003"><defs><style>.cls-1{fill:#eeefea;}.cls-2{isolation:isolate;}.cls-3{fill:#657176;}</style></defs><title>unit09</title><path id="bookmark-2" class="cls-1" d="M23.57,0H3.13C1.46,0,0,1.95,0,4.26V47.4a4.41,4.41,0,0,0,.4,1.92,1.45,1.45,0,0,0,1.26.93,2,2,0,0,0,1.45-.87L12.25,38.3a1.41,1.41,0,0,1,1.97729-.25781L14.25,38.06a1.36148,1.36148,0,0,1,.24.24l9.12,11.08a1.9,1.9,0,0,0,1.41.87c.8,0,1.58-.88,1.58-2.85V4.26C26.59,1.95,25.25,0,23.57,0Z" transform="translate(0.00078 0.00001)"/><g id="單_元_" data-name="單 元 "><g class="cls-2"><path class="cls-3" d="M16.08594,6.07189V8.72717H13.5835v.64746h3.1499v.49511H13.5835V10.982h-.59131V9.86974H9.834V9.37463h3.15821V8.72717H10.48926V6.07189ZM12.96777,3.9215V5.58459H10.18555V3.9215Zm-.55957.43164H10.74512v.80762H12.4082Zm.584,2.83106V6.53576H11.05713V7.1842Zm0,.42285H11.05713V8.2633h1.93506Zm.59131-.42285h1.935V6.53576h-1.935Zm1.935.42285h-1.935V8.2633h1.935Zm.84766-3.68555V5.58459H13.5918V3.9215Zm-.55176.416H14.15918v.83886h1.65527Z" transform="translate(0.00078 0.00001)"/></g><g class="cls-2"><path class="cls-3" d="M16.71,14.45568v.56055h-2.207v2.98242a.30758.30758,0,0,0,.35156.34375h.8877a.37415.37415,0,0,0,.36035-.18457,3.58873,3.58873,0,0,0,.18359-1.29492l.52735.168a3.37763,3.37763,0,0,1-.31934,1.583.80139.80139,0,0,1-.63965.248H14.69531a.66018.66018,0,0,1-.75195-.74414V15.01623h-1.439v.11914a4.8625,4.8625,0,0,1-.63964,2.51074A3.85469,3.85469,0,0,1,9.9375,19.0133L9.626,18.526a3.51248,3.51248,0,0,0,1.80664-1.26367,4.31435,4.31435,0,0,0,.51172-2.12695v-.11914H9.87354v-.56055Zm-.69629-2.35058v.55957H10.48926V12.1051Z" transform="translate(0.00078 0.00001)"/></g></g><g id="_1" data-name=" 1"><g class="cls-2"><path class="cls-3" d="M12.26953,29.27941a1.4192,1.4192,0,0,0,.88086.28028,1.27,1.27,0,0,0,1.16992-.67481A4.51935,4.51935,0,0,0,14.75,26.81945l-.01953-.01953a1.85554,1.85554,0,0,1-1.64063.97949,2.4892,2.4892,0,0,1-.96-.1748,1.96507,1.96507,0,0,1-.70508-.48535,2.02741,2.02741,0,0,1-.42968-.75,3.04576,3.04576,0,0,1-.14551-.95948,2.49463,2.49463,0,0,1,.16992-.93457A2.11478,2.11478,0,0,1,11.5,23.74474a2.19038,2.19038,0,0,1,.74023-.47461,2.53133,2.53133,0,0,1,.93946-.16992,2.80659,2.80659,0,0,1,.94043.15528,1.79977,1.79977,0,0,1,.76953.53418,2.7591,2.7591,0,0,1,.52539,1.03515,5.95593,5.95593,0,0,1,.19531,1.66455,5.59007,5.59007,0,0,1-.585,2.8252,2.01918,2.01918,0,0,1-1.875.98535,2.37205,2.37205,0,0,1-1.48047-.4502A1.82652,1.82652,0,0,1,11,28.47961h.84961A1.08258,1.08258,0,0,0,12.26953,29.27941Zm2.23535-4.4292a1.57094,1.57094,0,0,0-.28027-.51562,1.325,1.325,0,0,0-.45508-.35449,1.43117,1.43117,0,0,0-.62988-.12989,1.37239,1.37239,0,0,0-.64453.13965,1.20316,1.20316,0,0,0-.42969.375A1.58791,1.58791,0,0,0,11.8252,24.9a2.59977,2.59977,0,0,0-.0752.62988,1.52872,1.52872,0,0,0,.10547.56006,1.57943,1.57943,0,0,0,.28906.47949,1.41424,1.41424,0,0,0,.44043.335,1.25792,1.25792,0,0,0,.56543.125,1.39938,1.39938,0,0,0,.59961-.125,1.3771,1.3771,0,0,0,.46-.33984,1.48165,1.48165,0,0,0,.29-.5,1.78817,1.78817,0,0,0,.09961-.59424A1.973,1.973,0,0,0,14.50488,24.85021Z" transform="translate(0.00078 0.00001)"/></g></g></svg>