<svg id="圖層_1" data-name="圖層 1" xmlns="http://www.w3.org/2000/svg" viewBox="0 0 26.60076 50.25003"><defs><style>.cls-1{fill:#eeefea;}.cls-2{isolation:isolate;}.cls-3{fill:#657176;}</style></defs><title>unit08</title><path id="bookmark-2" class="cls-1" d="M23.57,0H3.13C1.46,0,0,1.95,0,4.26V47.4a4.41,4.41,0,0,0,.4,1.92,1.45,1.45,0,0,0,1.26.93,2,2,0,0,0,1.45-.87L12.25,38.3a1.41,1.41,0,0,1,1.97729-.25781L14.25,38.06a1.36148,1.36148,0,0,1,.24.24l9.12,11.08a1.9,1.9,0,0,0,1.41.87c.8,0,1.58-.88,1.58-2.85V4.26C26.59,1.95,25.25,0,23.57,0Z" transform="translate(0.00078 0.00001)"/><g id="單_元_" data-name="單 元 "><g class="cls-2"><path class="cls-3" d="M16.08594,6.07189V8.72717H13.5835v.64746h3.1499v.49511H13.5835V10.982h-.59131V9.86974H9.834V9.37463h3.15821V8.72717H10.48926V6.07189ZM12.96777,3.9215V5.58459H10.18555V3.9215Zm-.55957.43164H10.74512v.80762H12.4082Zm.584,2.83106V6.53576H11.05713V7.1842Zm0,.42285H11.05713V8.2633h1.93506Zm.59131-.42285h1.935V6.53576h-1.935Zm1.935.42285h-1.935V8.2633h1.935Zm.84766-3.68555V5.58459H13.5918V3.9215Zm-.55176.416H14.15918v.83886h1.65527Z" transform="translate(0.00078 0.00001)"/></g><g class="cls-2"><path class="cls-3" d="M16.71,14.45568v.56055h-2.207v2.98242a.30758.30758,0,0,0,.35156.34375h.8877a.37415.37415,0,0,0,.36035-.18457,3.58873,3.58873,0,0,0,.18359-1.29492l.52735.168a3.37763,3.37763,0,0,1-.31934,1.583.80139.80139,0,0,1-.63965.248H14.69531a.66018.66018,0,0,1-.75195-.74414V15.01623h-1.439v.11914a4.8625,4.8625,0,0,1-.63964,2.51074A3.85469,3.85469,0,0,1,9.9375,19.0133L9.626,18.526a3.51248,3.51248,0,0,0,1.80664-1.26367,4.31435,4.31435,0,0,0,.51172-2.12695v-.11914H9.87354v-.56055Zm-.69629-2.35058v.55957H10.48926V12.1051Z" transform="translate(0.00078 0.00001)"/></g></g><g id="_1" data-name=" 1"><g class="cls-2"><path class="cls-3" d="M11.33008,24.13537a1.68292,1.68292,0,0,1,.46-.56543,2.0802,2.0802,0,0,1,.665-.34961,2.558,2.558,0,0,1,.78515-.12012,2.80332,2.80332,0,0,1,.99024.15528,1.84074,1.84074,0,0,1,.66406.40918,1.57788,1.57788,0,0,1,.375.58007,1.90525,1.90525,0,0,1,.12012.665,1.53345,1.53345,0,0,1-.26465.875,1.65209,1.65209,0,0,1-.71484.59522,1.72172,1.72172,0,0,1,.95019.6543,1.93874,1.93874,0,0,1,.30957,1.11523,2.173,2.173,0,0,1-.18457.91992,1.997,1.997,0,0,1-.5.67481,2.1042,2.1042,0,0,1-.74512.415,2.94583,2.94583,0,0,1-.91992.14062,3.36578,3.36578,0,0,1-.95019-.12988,2.11822,2.11822,0,0,1-.76465-.40039,1.886,1.886,0,0,1-.51074-.67481,2.26133,2.26133,0,0,1-.18457-.94531,1.87836,1.87836,0,0,1,.32031-1.09473,1.78943,1.78943,0,0,1,.91992-.6748,1.536,1.536,0,0,1-.7207-.58447,1.56777,1.56777,0,0,1-.26953-.88575A1.68738,1.68738,0,0,1,11.33008,24.13537Zm.90527,5.05908a1.60612,1.60612,0,0,0,1.085.36524,1.5705,1.5705,0,0,0,.585-.10547,1.39626,1.39626,0,0,0,.46-.29,1.26954,1.26954,0,0,0,.29981-.43457,1.40016,1.40016,0,0,0,.10449-.54981,1.24969,1.24969,0,0,0-.11426-.53515,1.326,1.326,0,0,0-.31543-.42481,1.54006,1.54006,0,0,0-1.03027-.39062,1.77914,1.77914,0,0,0-.585.0957,1.42716,1.42716,0,0,0-.47949.27441,1.28154,1.28154,0,0,0-.32032.43067,1.32694,1.32694,0,0,0-.11523.55957A1.252,1.252,0,0,0,12.23535,29.19445Zm-.07519-3.74951a.99585.99585,0,0,0,.26953.35547,1.168,1.168,0,0,0,.40039.20947,1.66628,1.66628,0,0,0,.49023.06934,1.20114,1.20114,0,0,0,.83985-.29932,1.078,1.078,0,0,0,.33007-.83984.99582.99582,0,0,0-.335-.81543,1.30873,1.30873,0,0,0-.85547-.27442,1.62745,1.62745,0,0,0-.47949.07032,1.08183,1.08183,0,0,0-.39551.21,1.05726,1.05726,0,0,0-.26464.33984,1.04052,1.04052,0,0,0-.10059.46973A1.191,1.191,0,0,0,12.16016,25.44494Z" transform="translate(0.00078 0.00001)"/></g></g></svg>