<svg id="圖層_1" data-name="圖層 1" xmlns="http://www.w3.org/2000/svg" viewBox="0 0 26.6 50.25"><defs><style>.cls-1{fill:#eeefea;}.cls-2{isolation:isolate;}.cls-3{fill:#657176;}</style></defs><title>unit01</title><path id="bookmark-2" class="cls-1" d="M23.57,0H3.13C1.46,0,0,2,0,4.26V47.4a4.38,4.38,0,0,0,.4,1.92,1.45,1.45,0,0,0,1.26.93,2,2,0,0,0,1.45-.87L12.25,38.3a1.41,1.41,0,0,1,2-.26l0,0a1.36,1.36,0,0,1,.24.24l9.12,11.08a1.9,1.9,0,0,0,1.41.87c.8,0,1.58-.88,1.58-2.85V4.26C26.59,2,25.25,0,23.57,0Z" transform="translate(0 0)"/><g id="單_元_" data-name="單 元 "><g class="cls-2"><path class="cls-3" d="M16.09,6.07V8.73H13.58v.64h3.15v.5H13.58V11H13V9.87H9.83v-.5H13V8.73h-2.5V6.07ZM13,3.92V5.58H10.19V3.92Zm-.56.43H10.75v.81h1.66ZM13,7.18V6.54H11.06v.64Zm0,.43H11.06v.65H13Zm.59-.43h1.94V6.54H13.58Zm1.94.43H13.58v.65h1.94Zm.85-3.69V5.58H13.59V3.92Zm-.56.42H14.16v.84h1.65Z" transform="translate(0 0)"/></g><g class="cls-2"><path class="cls-3" d="M16.71,14.46V15H14.5v3a.31.31,0,0,0,.35.34h.89a.36.36,0,0,0,.36-.18,3.68,3.68,0,0,0,.19-1.3l.52.17a3.27,3.27,0,0,1-.32,1.58.79.79,0,0,1-.64.25H14.7a.66.66,0,0,1-.76-.74V15H12.5v.12a4.84,4.84,0,0,1-.64,2.51A3.8,3.8,0,0,1,9.94,19l-.31-.48a3.49,3.49,0,0,0,1.8-1.27,4.23,4.23,0,0,0,.51-2.12V15H9.87v-.56ZM16,12.11v.55H10.49v-.55Z" transform="translate(0 0)"/></g></g><g id="_1" data-name=" 1"><g class="cls-2"><path class="cls-3" d="M13.22,30.19V25.11H11.38v-.68a4,4,0,0,0,.7-.06,1.81,1.81,0,0,0,.62-.2,1.5,1.5,0,0,0,.46-.41,1.52,1.52,0,0,0,.26-.66h.65v7.09Z" transform="translate(0 0)"/></g></g></svg>