<svg id="圖層_1" data-name="圖層 1" xmlns="http://www.w3.org/2000/svg" viewBox="0 0 26.60076 50.25003"><defs><style>.cls-1{fill:#eeefea;}.cls-2{isolation:isolate;}.cls-3{fill:#657176;}</style></defs><title>unit07</title><path id="bookmark-2" class="cls-1" d="M23.57,0H3.13C1.46,0,0,1.95,0,4.26V47.4a4.41,4.41,0,0,0,.4,1.92,1.45,1.45,0,0,0,1.26.93,2,2,0,0,0,1.45-.87L12.25,38.3a1.41,1.41,0,0,1,1.97729-.25781L14.25,38.06a1.36148,1.36148,0,0,1,.24.24l9.12,11.08a1.9,1.9,0,0,0,1.41.87c.8,0,1.58-.88,1.58-2.85V4.26C26.59,1.95,25.25,0,23.57,0Z" transform="translate(0.00078 0.00001)"/><g id="單_元_" data-name="單 元 "><g class="cls-2"><path class="cls-3" d="M16.08594,6.07189V8.72717H13.5835v.64746h3.1499v.49511H13.5835V10.982h-.59131V9.86974H9.834V9.37463h3.15821V8.72717H10.48926V6.07189ZM12.96777,3.9215V5.58459H10.18555V3.9215Zm-.55957.43164H10.74512v.80762H12.4082Zm.584,2.83106V6.53576H11.05713V7.1842Zm0,.42285H11.05713V8.2633h1.93506Zm.59131-.42285h1.935V6.53576h-1.935Zm1.935.42285h-1.935V8.2633h1.935Zm.84766-3.68555V5.58459H13.5918V3.9215Zm-.55176.416H14.15918v.83886h1.65527Z" transform="translate(0.00078 0.00001)"/></g><g class="cls-2"><path class="cls-3" d="M16.71,14.45568v.56055h-2.207v2.98242a.30758.30758,0,0,0,.35156.34375h.8877a.37415.37415,0,0,0,.36035-.18457,3.58873,3.58873,0,0,0,.18359-1.29492l.52735.168a3.37763,3.37763,0,0,1-.31934,1.583.80139.80139,0,0,1-.63965.248H14.69531a.66018.66018,0,0,1-.75195-.74414V15.01623h-1.439v.11914a4.8625,4.8625,0,0,1-.63964,2.51074A3.85469,3.85469,0,0,1,9.9375,19.0133L9.626,18.526a3.51248,3.51248,0,0,0,1.80664-1.26367,4.31435,4.31435,0,0,0,.51172-2.12695v-.11914H9.87354v-.56055Zm-.69629-2.35058v.55957H10.48926V12.1051Z" transform="translate(0.00078 0.00001)"/></g></g><g id="_1" data-name=" 1"><g class="cls-2"><path class="cls-3" d="M14.58984,25.20959a11.2,11.2,0,0,0-.835,1.56006,11.42678,11.42678,0,0,0-.59472,1.71,8.86134,8.86134,0,0,0-.28028,1.71h-.95019a8.85816,8.85816,0,0,1,.29492-1.75488,10.1493,10.1493,0,0,1,.60547-1.63965,10.303,10.303,0,0,1,.85449-1.48487,10.75962,10.75962,0,0,1,1.0459-1.29h-3.7207v-.7998h4.58984v.72949A7.32251,7.32251,0,0,0,14.58984,25.20959Z" transform="translate(0.00078 0.00001)"/></g></g></svg>