<svg id="圖層_1" data-name="圖層 1" xmlns="http://www.w3.org/2000/svg" viewBox="0 0 26.60076 50.25003"><defs><style>.cls-1{fill:#eeefea;}.cls-2{isolation:isolate;}.cls-3{fill:#657176;}</style></defs><title>unit05</title><path id="bookmark-2" class="cls-1" d="M23.57,0H3.13C1.46,0,0,1.95,0,4.26V47.4a4.41,4.41,0,0,0,.4,1.92,1.45,1.45,0,0,0,1.26.93,2,2,0,0,0,1.45-.87L12.25,38.3a1.41,1.41,0,0,1,1.97729-.25781L14.25,38.06a1.36148,1.36148,0,0,1,.24.24l9.12,11.08a1.9,1.9,0,0,0,1.41.87c.8,0,1.58-.88,1.58-2.85V4.26C26.59,1.95,25.25,0,23.57,0Z" transform="translate(0.00078 0.00001)"/><g id="單_元_" data-name="單 元 "><g class="cls-2"><path class="cls-3" d="M16.08594,6.07189V8.72717H13.5835v.64746h3.1499v.49511H13.5835V10.982h-.59131V9.86974H9.834V9.37463h3.15821V8.72717H10.48926V6.07189ZM12.96777,3.9215V5.58459H10.18555V3.9215Zm-.55957.43164H10.74512v.80762H12.4082Zm.584,2.83106V6.53576H11.05713V7.1842Zm0,.42285H11.05713V8.2633h1.93506Zm.59131-.42285h1.935V6.53576h-1.935Zm1.935.42285h-1.935V8.2633h1.935Zm.84766-3.68555V5.58459H13.5918V3.9215Zm-.55176.416H14.15918v.83886h1.65527Z" transform="translate(0.00078 0.00001)"/></g><g class="cls-2"><path class="cls-3" d="M16.71,14.45568v.56055h-2.207v2.98242a.30758.30758,0,0,0,.35156.34375h.8877a.37415.37415,0,0,0,.36035-.18457,3.58873,3.58873,0,0,0,.18359-1.29492l.52735.168a3.37763,3.37763,0,0,1-.31934,1.583.80139.80139,0,0,1-.63965.248H14.69531a.66018.66018,0,0,1-.75195-.74414V15.01623h-1.439v.11914a4.8625,4.8625,0,0,1-.63964,2.51074A3.85469,3.85469,0,0,1,9.9375,19.0133L9.626,18.526a3.51248,3.51248,0,0,0,1.80664-1.26367,4.31435,4.31435,0,0,0,.51172-2.12695v-.11914H9.87354v-.56055Zm-.69629-2.35058v.55957H10.48926V12.1051Z" transform="translate(0.00078 0.00001)"/></g></g><g id="_1" data-name=" 1"><g class="cls-2"><path class="cls-3" d="M12.34961,23.97033l-.37988,2.03955.0205.01953a1.37207,1.37207,0,0,1,.59473-.38428,2.236,2.236,0,0,1,.72461-.125,2.61623,2.61623,0,0,1,.89063.1504,1.95891,1.95891,0,0,1,.72949.45361,2.17141,2.17141,0,0,1,.49023.76074,2.87939,2.87939,0,0,1,.17969,1.06445,2.553,2.553,0,0,1-.1543.875,2.19492,2.19492,0,0,1-.46484.75489,2.227,2.227,0,0,1-.77539.52539,2.79454,2.79454,0,0,1-1.085.19531,2.69933,2.69933,0,0,1-.86524-.13574,2.21269,2.21269,0,0,1-.71484-.38965,1.81615,1.81615,0,0,1-.49024-.63477,2.0767,2.0767,0,0,1-.18945-.86035H11.71a1.38237,1.38237,0,0,0,.13477.50489,1.33328,1.33328,0,0,0,.31054.41015,1.36757,1.36757,0,0,0,.46.27051,1.71741,1.71741,0,0,0,.585.09473,1.59337,1.59337,0,0,0,.57519-.10547,1.321,1.321,0,0,0,.47949-.31446,1.51735,1.51735,0,0,0,.3252-.52539A2.0564,2.0564,0,0,0,14.7002,27.88a1.77626,1.77626,0,0,0-.11524-.64551,1.50374,1.50374,0,0,0-.32519-.50977,1.46878,1.46878,0,0,0-.50489-.335,1.72117,1.72117,0,0,0-.65527-.12011,1.47836,1.47836,0,0,0-.74414.18457,2.09232,2.09232,0,0,0-.5752.48535l-.73047-.04.66016-3.6792h3.5v.75Z" transform="translate(0.00078 0.00001)"/></g></g></svg>