<svg id="圖層_1" data-name="圖層 1" xmlns="http://www.w3.org/2000/svg" viewBox="0 0 26.60076 50.25003"><defs><style>.cls-1{fill:#eeefea;}.cls-2{isolation:isolate;}.cls-3{fill:#657176;}</style></defs><title>unit03</title><path id="bookmark-2" class="cls-1" d="M23.57,0H3.13C1.46,0,0,1.95,0,4.26V47.4a4.41,4.41,0,0,0,.4,1.92,1.45,1.45,0,0,0,1.26.93,2,2,0,0,0,1.45-.87L12.25,38.3a1.41,1.41,0,0,1,1.97729-.25781L14.25,38.06a1.36148,1.36148,0,0,1,.24.24l9.12,11.08a1.9,1.9,0,0,0,1.41.87c.8,0,1.58-.88,1.58-2.85V4.26C26.59,1.95,25.25,0,23.57,0Z" transform="translate(0.00078 0.00001)"/><g id="單_元_" data-name="單 元 "><g class="cls-2"><path class="cls-3" d="M16.08594,6.07189V8.72717H13.5835v.64746h3.1499v.49511H13.5835V10.982h-.59131V9.86974H9.834V9.37463h3.15821V8.72717H10.48926V6.07189ZM12.96777,3.9215V5.58459H10.18555V3.9215Zm-.55957.43164H10.74512v.80762H12.4082Zm.584,2.83106V6.53576H11.05713V7.1842Zm0,.42285H11.05713V8.2633h1.93506Zm.59131-.42285h1.935V6.53576h-1.935Zm1.935.42285h-1.935V8.2633h1.935Zm.84766-3.68555V5.58459H13.5918V3.9215Zm-.55176.416H14.15918v.83886h1.65527Z" transform="translate(0.00078 0.00001)"/></g><g class="cls-2"><path class="cls-3" d="M16.71,14.45568v.56055h-2.207v2.98242a.30758.30758,0,0,0,.35156.34375h.8877a.37415.37415,0,0,0,.36035-.18457,3.58873,3.58873,0,0,0,.18359-1.29492l.52735.168a3.37763,3.37763,0,0,1-.31934,1.583.80139.80139,0,0,1-.63965.248H14.69531a.66018.66018,0,0,1-.75195-.74414V15.01623h-1.439v.11914a4.8625,4.8625,0,0,1-.63964,2.51074A3.85469,3.85469,0,0,1,9.9375,19.0133L9.626,18.526a3.51248,3.51248,0,0,0,1.80664-1.26367,4.31435,4.31435,0,0,0,.51172-2.12695v-.11914H9.87354v-.56055Zm-.69629-2.35058v.55957H10.48926V12.1051Z" transform="translate(0.00078 0.00001)"/></g></g><g id="_1" data-name=" 1"><g class="cls-2"><path class="cls-3" d="M12.78027,26.14953h.2793a1.76064,1.76064,0,0,0,.51563-.0752,1.31364,1.31364,0,0,0,.42968-.21923,1.06172,1.06172,0,0,0,.29492-.36524,1.104,1.104,0,0,0,.11036-.5,1.02215,1.02215,0,0,0-.36036-.85449,1.4024,1.4024,0,0,0-.89941-.28516,1.3414,1.3414,0,0,0-.5957.125,1.19626,1.19626,0,0,0-.41992.335,1.42775,1.42775,0,0,0-.24512.49024,2.15637,2.15637,0,0,0-.08008.58984H10.96a3.24539,3.24539,0,0,1,.165-.93066,2.08466,2.08466,0,0,1,.415-.71973,1.85937,1.85937,0,0,1,.6748-.46973,2.40459,2.40459,0,0,1,.93555-.16992,3.02776,3.02776,0,0,1,.85449.11524,1.97868,1.97868,0,0,1,.68555.34472,1.57658,1.57658,0,0,1,.4541.58985,2.01963,2.01963,0,0,1,.165.84961,1.37276,1.37276,0,0,1-.2793.85058,1.78934,1.78934,0,0,1-.70019.55909v.0205a1.47666,1.47666,0,0,1,.96484.60938,1.94834,1.94834,0,0,1,.31543,1.11035,2.12864,2.12864,0,0,1-.19531.93457,1.94888,1.94888,0,0,1-.52539.67578,2.23469,2.23469,0,0,1-.77442.4043,3.21576,3.21576,0,0,1-.94531.13574,3.02777,3.02777,0,0,1-.97949-.15039,1.99154,1.99154,0,0,1-.75-.44531,1.94043,1.94043,0,0,1-.47559-.72461,2.615,2.615,0,0,1-.15527-.98047h.85059a1.72633,1.72633,0,0,0,.39941,1.125,1.3969,1.3969,0,0,0,1.11035.43555,1.81656,1.81656,0,0,0,.58985-.09473,1.51239,1.51239,0,0,0,.49023-.27051,1.27528,1.27528,0,0,0,.46-1.00488,1.3581,1.3581,0,0,0-.12012-.585,1.2688,1.2688,0,0,0-.79492-.69043,2.00785,2.00785,0,0,0-.59472-.085,4.18552,4.18552,0,0,0-.50977.03027v-.71973A.44132.44132,0,0,0,12.78027,26.14953Z" transform="translate(0.00078 0.00001)"/></g></g></svg>