<svg id="圖層_1" data-name="圖層 1" xmlns="http://www.w3.org/2000/svg" viewBox="0 0 26.60076 50.25003"><defs><style>.cls-1{fill:#eeefea;}.cls-2{isolation:isolate;}.cls-3{fill:#657176;}</style></defs><title>unit06</title><path id="bookmark-2" class="cls-1" d="M23.57,0H3.13C1.46,0,0,1.95,0,4.26V47.4a4.41,4.41,0,0,0,.4,1.92,1.45,1.45,0,0,0,1.26.93,2,2,0,0,0,1.45-.87L12.25,38.3a1.41,1.41,0,0,1,1.97729-.25781L14.25,38.06a1.36148,1.36148,0,0,1,.24.24l9.12,11.08a1.9,1.9,0,0,0,1.41.87c.8,0,1.58-.88,1.58-2.85V4.26C26.59,1.95,25.25,0,23.57,0Z" transform="translate(0.00078 0.00001)"/><g id="單_元_" data-name="單 元 "><g class="cls-2"><path class="cls-3" d="M16.08594,6.07189V8.72717H13.5835v.64746h3.1499v.49511H13.5835V10.982h-.59131V9.86974H9.834V9.37463h3.15821V8.72717H10.48926V6.07189ZM12.96777,3.9215V5.58459H10.18555V3.9215Zm-.55957.43164H10.74512v.80762H12.4082Zm.584,2.83106V6.53576H11.05713V7.1842Zm0,.42285H11.05713V8.2633h1.93506Zm.59131-.42285h1.935V6.53576h-1.935Zm1.935.42285h-1.935V8.2633h1.935Zm.84766-3.68555V5.58459H13.5918V3.9215Zm-.55176.416H14.15918v.83886h1.65527Z" transform="translate(0.00078 0.00001)"/></g><g class="cls-2"><path class="cls-3" d="M16.71,14.45568v.56055h-2.207v2.98242a.30758.30758,0,0,0,.35156.34375h.8877a.37415.37415,0,0,0,.36035-.18457,3.58873,3.58873,0,0,0,.18359-1.29492l.52735.168a3.37763,3.37763,0,0,1-.31934,1.583.80139.80139,0,0,1-.63965.248H14.69531a.66018.66018,0,0,1-.75195-.74414V15.01623h-1.439v.11914a4.8625,4.8625,0,0,1-.63964,2.51074A3.85469,3.85469,0,0,1,9.9375,19.0133L9.626,18.526a3.51248,3.51248,0,0,0,1.80664-1.26367,4.31435,4.31435,0,0,0,.51172-2.12695v-.11914H9.87354v-.56055Zm-.69629-2.35058v.55957H10.48926V12.1051Z" transform="translate(0.00078 0.00001)"/></g></g><g id="_1" data-name=" 1"><g class="cls-2"><path class="cls-3" d="M14.28027,24.14025a1.1534,1.1534,0,0,0-.82031-.29,1.34632,1.34632,0,0,0-.87012.26465,1.81079,1.81079,0,0,0-.51464.66992,3.19688,3.19688,0,0,0-.25489.875,6.99075,6.99075,0,0,0-.08008.8794l.01954.02051a1.8177,1.8177,0,0,1,.74511-.70948,2.493,2.493,0,0,1,1.94043-.04492,1.90253,1.90253,0,0,1,.67969.48389,2.19482,2.19482,0,0,1,.4248.73047,2.67237,2.67237,0,0,1,.1504.91015,2.94178,2.94178,0,0,1-.12012.80957,2.17731,2.17731,0,0,1-.39551.76563,2.106,2.106,0,0,1-.72949.56933,2.521,2.521,0,0,1-1.125.22559,2.26129,2.26129,0,0,1-1.27051-.32031,2.17616,2.17616,0,0,1-.73926-.82031,3.38616,3.38616,0,0,1-.3457-1.09961,8.28444,8.28444,0,0,1-.085-1.16016,7.89431,7.89431,0,0,1,.125-1.41455,3.86938,3.86938,0,0,1,.42578-1.21485,2.3696,2.3696,0,0,1,.7998-.8496A2.28909,2.28909,0,0,1,13.5,23.10021a2.02537,2.02537,0,0,1,1.40039.46485A1.96839,1.96839,0,0,1,15.5,24.90978h-.84961A1.227,1.227,0,0,0,14.28027,24.14025Zm-1.54,2.36475a1.35792,1.35792,0,0,0-.46.33984,1.41624,1.41624,0,0,0-.28515.50977,2.02168,2.02168,0,0,0-.09473.625A1.8975,1.8975,0,0,0,12,28.59972a1.46327,1.46327,0,0,0,.28516.5,1.34,1.34,0,0,0,.46.335,1.5005,1.5005,0,0,0,.625.125,1.43289,1.43289,0,0,0,.61523-.125,1.26685,1.26685,0,0,0,.44434-.34473,1.57593,1.57593,0,0,0,.27539-.50586,1.85934,1.85934,0,0,0,.09472-.59473,2.25251,2.25251,0,0,0-.085-.625,1.37819,1.37819,0,0,0-.26464-.50976A1.32258,1.32258,0,0,0,14,26.50988a1.43131,1.43131,0,0,0-.62988-.12988A1.47379,1.47379,0,0,0,12.74023,26.505Z" transform="translate(0.00078 0.00001)"/></g></g></svg>