<svg id="圖層_1" data-name="圖層 1" xmlns="http://www.w3.org/2000/svg" viewBox="0 0 26.60076 50.25003"><defs><style>.cls-1{fill:#eeefea;}.cls-2{isolation:isolate;}.cls-3{fill:#657176;}</style></defs><title>unit014</title><path id="bookmark-2" class="cls-1" d="M23.56041.005h-20.44c-1.67,0-3.13,1.95-3.13,4.26v43.14a4.4099,4.4099,0,0,0,.4,1.92,1.45,1.45,0,0,0,1.26.93,2,2,0,0,0,1.45-.87l9.14-11.08a1.41,1.41,0,0,1,1.9773-.25781l.0227.01782a1.36115,1.36115,0,0,1,.24.24l9.12,11.08a1.9,1.9,0,0,0,1.41.87c.8,0,1.58-.88,1.58-2.85V4.265C26.5804,1.955,25.2404.005,23.56041.005Z" transform="translate(0.01038 -0.00498)"/><g id="單_元_" data-name="單 元 "><g class="cls-2"><path class="cls-3" d="M16.08594,6.07678V8.732H13.5835v.64746h3.1499v.49512H13.5835v1.1123h-.59131V9.87463H9.834V9.37951h3.15821V8.732H10.48926V6.07678Zm-3.11817-2.1504V5.58947H10.18555V3.92638ZM12.4082,4.358H10.74512v.80761H12.4082Zm.584,2.831V6.54064H11.05713v.64844Zm0,.42285H11.05713v.65625h1.93506Zm.59131-.42285h1.935V6.54064h-1.935Zm1.935.42285h-1.935v.65625h1.935Zm.84766-3.68555V5.58947H13.5918V3.92638Zm-.55176.416H14.15918v.83887h1.65527Z" transform="translate(0.01038 -0.00498)"/></g><g class="cls-2"><path class="cls-3" d="M16.71,14.46056v.56055h-2.207v2.98242a.30758.30758,0,0,0,.35156.34375h.8877a.37415.37415,0,0,0,.36035-.18457,3.58868,3.58868,0,0,0,.18359-1.29492l.52735.168a3.37772,3.37772,0,0,1-.31934,1.583.80141.80141,0,0,1-.63965.248H14.69531a.66017.66017,0,0,1-.75195-.74414V15.02111h-1.439v.11914a4.8625,4.8625,0,0,1-.63964,2.51074A3.85469,3.85469,0,0,1,9.9375,19.01818l-.31152-.4873a3.51254,3.51254,0,0,0,1.80664-1.26367,4.31439,4.31439,0,0,0,.51172-2.127v-.11914H9.87354v-.56055ZM16.01367,12.11v.55957H10.48926V12.11Z" transform="translate(0.01038 -0.00498)"/></g></g><g id="_1" data-name=" 1"><g class="cls-2"><path class="cls-3" d="M10.43994,30.19543V25.11535H8.6001v-.67969A4.324,4.324,0,0,0,9.2998,24.38a1.911,1.911,0,0,0,.61524-.2041,1.41475,1.41475,0,0,0,.46484-.41016,1.56787,1.56787,0,0,0,.26026-.66016H11.29v7.08985Z" transform="translate(0.01038 -0.00498)"/><path class="cls-3" d="M18.43945,27.78527v.75h-.96v1.66016h-.7998V28.53527H13.56982V27.715l3.23-4.60938h.67969v4.67969Zm-1.75976-3.46972h-.01953L14.2998,27.78527h2.37989Z" transform="translate(0.01038 -0.00498)"/></g></g></svg>