<svg id="圖層_1" data-name="圖層 1" xmlns="http://www.w3.org/2000/svg" viewBox="0 0 26.60076 50.25003"><defs><style>.cls-1{fill:#eeefea;}.cls-2{isolation:isolate;}.cls-3{fill:#657176;}</style></defs><title>unit02</title><path id="bookmark-2" class="cls-1" d="M23.57,0H3.13C1.46,0,0,1.95,0,4.26V47.4a4.41,4.41,0,0,0,.4,1.92,1.45,1.45,0,0,0,1.26.93,2,2,0,0,0,1.45-.87L12.25,38.3a1.41,1.41,0,0,1,1.97729-.25781L14.25,38.06a1.36148,1.36148,0,0,1,.24.24l9.12,11.08a1.9,1.9,0,0,0,1.41.87c.8,0,1.58-.88,1.58-2.85V4.26C26.59,1.95,25.25,0,23.57,0Z" transform="translate(0.00078 0.00001)"/><g id="單_元_" data-name="單 元 "><g class="cls-2"><path class="cls-3" d="M16.08594,6.07189V8.72717H13.5835v.64746h3.1499v.49511H13.5835V10.982h-.59131V9.86974H9.834V9.37463h3.15821V8.72717H10.48926V6.07189ZM12.96777,3.9215V5.58459H10.18555V3.9215Zm-.55957.43164H10.74512v.80762H12.4082Zm.584,2.83106V6.53576H11.05713V7.1842Zm0,.42285H11.05713V8.2633h1.93506Zm.59131-.42285h1.935V6.53576h-1.935Zm1.935.42285h-1.935V8.2633h1.935Zm.84766-3.68555V5.58459H13.5918V3.9215Zm-.55176.416H14.15918v.83886h1.65527Z" transform="translate(0.00078 0.00001)"/></g><g class="cls-2"><path class="cls-3" d="M16.71,14.45568v.56055h-2.207v2.98242a.30758.30758,0,0,0,.35156.34375h.8877a.37415.37415,0,0,0,.36035-.18457,3.58873,3.58873,0,0,0,.18359-1.29492l.52735.168a3.37763,3.37763,0,0,1-.31934,1.583.80139.80139,0,0,1-.63965.248H14.69531a.66018.66018,0,0,1-.75195-.74414V15.01623h-1.439v.11914a4.8625,4.8625,0,0,1-.63964,2.51074A3.85469,3.85469,0,0,1,9.9375,19.0133L9.626,18.526a3.51248,3.51248,0,0,0,1.80664-1.26367,4.31435,4.31435,0,0,0,.51172-2.12695v-.11914H9.87354v-.56055Zm-.69629-2.35058v.55957H10.48926V12.1051Z" transform="translate(0.00078 0.00001)"/></g></g><g id="_1" data-name=" 1"><g class="cls-2"><path class="cls-3" d="M11.05957,24.61a2.11957,2.11957,0,0,1,.43555-.79492,2.03474,2.03474,0,0,1,.73535-.52539,2.50843,2.50843,0,0,1,1-.18946,2.72,2.72,0,0,1,.86426.13477,2.09662,2.09662,0,0,1,.70507.38965,1.82968,1.82968,0,0,1,.47559.63574,2.08991,2.08991,0,0,1,.17481.87988,2.20509,2.20509,0,0,1-.14551.82959,2.36143,2.36143,0,0,1-.38477.64453,3.2499,3.2499,0,0,1-.5498.51563q-.31054.23-.63965.43945c-.2207.13379-.44043.26465-.66016.39551a5.06738,5.06738,0,0,0-.60547.415,2.72774,2.72774,0,0,0-.46972.47461,1.34607,1.34607,0,0,0-.25489.585h3.63965v.75H10.75a3.7805,3.7805,0,0,1,.22461-1.0752,2.90144,2.90144,0,0,1,.44531-.77441,3.29942,3.29942,0,0,1,.61035-.58008q.33986-.25048.71-.4707.44971-.27979.79-.51465a3.4915,3.4915,0,0,0,.56446-.47461,1.599,1.599,0,0,0,.45507-1.16943,1.2249,1.2249,0,0,0-.10937-.52539,1.29253,1.29253,0,0,0-.2959-.40528,1.25727,1.25727,0,0,0-.43457-.25976,1.56664,1.56664,0,0,0-.53027-.08985,1.23544,1.23544,0,0,0-.63477.15528,1.32586,1.32586,0,0,0-.43457.40429,1.6748,1.6748,0,0,0-.24512.56543,2.40744,2.40744,0,0,0-.06543.63477h-.8496A2.86742,2.86742,0,0,1,11.05957,24.61Z" transform="translate(0.00078 0.00001)"/></g></g></svg>