<svg id="圖層_1" data-name="圖層 1" xmlns="http://www.w3.org/2000/svg" viewBox="0 0 80.51807 71.35932"><defs><style>.cls-1{fill:#97a8af;}.cls-2{fill:#fff4d0;}</style></defs><title>yellow baby face 02</title><g id="Group_596" data-name="Group 596"><path id="Path_447" data-name="Path 447" class="cls-1" d="M233.91969,379.23339c.06937-.98.09832-1.78992.18572-2.60437a31.79877,31.79877,0,0,1,3.55745-11.90762c.51238-.94644.9106-1.9555,1.43636-2.89525a2.11888,2.11888,0,0,1,1.4634-1.21042c.69811-.15889,1.25528-.88376,1.90859-1.30888,2.02713-1.32008,4.04989-2.64692,6.115-3.90206a6.40652,6.40652,0,0,1,1.98671-.69135,21.16185,21.16185,0,0,1,6.44164-.43632,1.99122,1.99122,0,0,0,1.74526-.70029,12.72661,12.72661,0,0,1,8.16451-3.93114,9.11306,9.11306,0,0,1,8.7886,4.25111,2.04059,2.04059,0,0,0,1.30007.9263c1.15013.30651,2.29561.631,3.45011.9263a9.27186,9.27186,0,0,1,2.79,1.37157c1.48333.98,2.9959,1.91747,4.49726,2.87285l3.38975,2.16137a12.44725,12.44725,0,0,1,2.96914,3.28453c.63091.82784,1.226,1.68477,1.7764,2.56635a3.506,3.506,0,0,1,.405,1.22161,11.79663,11.79663,0,0,0,.2663,1.98016,25.79809,25.79809,0,0,1,1.25528,10.008,9.75871,9.75871,0,0,1-1.08977,4.66059,10.62739,10.62739,0,0,0,1.20148.04923,6.39235,6.39235,0,0,1,6.26492,3.45237,7.16961,7.16961,0,0,0,.44738.63993,4.41026,4.41026,0,0,1,.77868,4.47487,12.29983,12.29983,0,0,0-.61071,2.14348c-.28186,1.61321-1.68026,2.497-2.39175,3.8193s-2.10306,1.837-3.18162,2.71848a1.491,1.491,0,0,1-.61071.26179c-1.6311.358-3.2622.716-4.89985,1.04265a2.63613,2.63613,0,0,1-1.21486.04254,1.17909,1.17909,0,0,0-1.46777.6936,10.12026,10.12026,0,0,0-1.58194,4.589,4.934,4.934,0,0,1-.56837,1.89507,14.1511,14.1511,0,0,1-2.73179,4.17956c-.57493.52358-1.18372,1.01582-1.79006,1.4901a9.30065,9.30065,0,0,1-1.30007.85023c-.61972.32891-1.26648.61084-1.91078.895-.27067.11635-.59514.12305-.85024.264a14.96834,14.96834,0,0,1-7.26265,1.42523c-.8546.01345-1.70948.1074-2.56409.13649a33.11373,33.11373,0,0,1-11.20275-1.73625c-2.66023-.84355-5.34969-1.64-7.92279-2.71179a27.60473,27.60473,0,0,1-9.75519-6.94726,20.50478,20.50478,0,0,1-4.69856-7.5088c-.44737-1.37826-.86143-2.76771-1.28887-4.15266l-.31983-1.03145c-.11635-.02909-.20812-.08057-.25073-.05592a6.40122,6.40122,0,0,1-5.28933.27517,1.63847,1.63847,0,0,1-.67134-.36694A9.834,9.834,0,0,1,225.599,391.262a15.03009,15.03009,0,0,1,.06255-7.19109,12.88776,12.88776,0,0,1,1.17689-2.99816,4.15971,4.15971,0,0,1,2.98689-1.78992,18.53959,18.53959,0,0,1,2.88638-.12079C233.05607,379.14838,233.42069,379.19987,233.91969,379.23339Zm1.11872,6.74809a5.99822,5.99822,0,0,0-4.0275-2.83483c-1.15449-.31771-1.46995-.04028-1.9979,1.0404a8.42609,8.42609,0,0,0-.32229,6.51989,3.23327,3.23327,0,0,0,2.9421,2.39851,11.95826,11.95826,0,0,1,3.57984.74058,5.38325,5.38325,0,0,1,3.56646,2.79229c.41624.99117.83467,1.98684,1.34241,2.93554a25.66629,25.66629,0,0,0,1.86817,3.1324,24.16447,24.16447,0,0,0,4.51065,4.11687,27.9288,27.9288,0,0,0,10.82911,5.32954c1.47.39153,2.90877.895,4.36535,1.34248.24827.07606.50118.14093.75409.21031a42.31752,42.31752,0,0,0,5.3699,1.00687,25.6205,25.6205,0,0,0,7.6677,0,7.56773,7.56773,0,0,0,4.73434-2.4433,10.67079,10.67079,0,0,1,2.873-2.441,6.17958,6.17958,0,0,0,2.98935-3.298c.25728-.61754.58394-1.206.868-1.81457a12.70708,12.70708,0,0,0,1.2531-3.91777c.12317-1.07174,1.11871-1.39614,1.79005-1.9779.08058-.06937.284,0,.42963.0112,1.18809.01564,2.37618.04923,3.56427.02909a2.501,2.501,0,0,0,1.06956-.27743,9.62162,9.62162,0,0,0,5.14621-5.73452c.24171-.78537.13438-1.20147-.602-1.58187a4.28882,4.28882,0,0,0-1.58193-.48773,5.81747,5.81747,0,0,0-3.80354,1.04709c-.895.613-1.47459.48555-1.93754-.46766a6.15727,6.15727,0,0,0-.31546-.70479c-.51457-.78087-.39384-1.83915-1.11872-2.535-.06937-.06712-.03578-.30426.0224-.42955.44738-.94194.20593-2.139,1.11872-2.90864.1453-.1253.16114-.40723.22369-.61979.18354-.64437.31982-1.30444.54133-1.93536a19.32668,19.32668,0,0,0,.4766-8.18452c-.15431-1.86154-1.51475-3.30248-1.89057-5.09465a20.469,20.469,0,0,0-6.60032-7.14412c-1.82338-1.14781-3.57984-2.38731-5.39885-3.55526a4.89275,4.89275,0,0,0-2.19046-1.0516c.02676.56605.01557,1.03815.0762,1.5013a5.4878,5.4878,0,0,1-.19009,2.08305,7.96834,7.96834,0,0,1-2.92216,3.8193,2.155,2.155,0,0,1-.38484.22376c-.76748.44751-1.55489.86813-2.29342,1.36262a2.39628,2.39628,0,0,1-2.01375.42061,23.16587,23.16587,0,0,1-2.68481-.77636,4.41929,4.41929,0,0,1-2.01375-1.1433,9.22424,9.22424,0,0,1-1.43417-3.19726,2.15446,2.15446,0,0,1,1.11871-2.05171,1.55051,1.55051,0,0,1,1.89958.19911c-.0762.29982-.15213.58175-.22368.86587a1.85053,1.85053,0,0,0,.895,2.20384,4.759,4.759,0,0,0,3.85051.67121,2.81636,2.81636,0,0,0,1.35825-.87933,4.251,4.251,0,0,0,.29525-4.83512,17.10114,17.10114,0,0,0-2.23744-3.17719,5.59313,5.59313,0,0,0-3.40531-1.98015,4.92221,4.92221,0,0,0-3.16606.72719,3.01807,3.01807,0,0,0-1.7764,1.93762,2.338,2.338,0,0,1-2.64467,1.857c-1.89739.02683-3.80353.03578-5.68973.14093a9.728,9.728,0,0,0-4.41669,1.056,19.66076,19.66076,0,0,0-4.83731,3.74993,5.4681,5.4681,0,0,0-1.32684,2.28891,3.87231,3.87231,0,0,1-.61316,1.423,20.67257,20.67257,0,0,0-2.97815,7.03228c-.24609.77635-.34468,1.5975-.56154,2.38512a32.79436,32.79436,0,0,0-1.282,7.90709,4.45693,4.45693,0,0,1-2.12546,2.97358,1.4479,1.4479,0,0,1-.37882-.002Z" transform="translate(-225.19324 -349.58557)"/><path id="Path_448" data-name="Path 448" class="cls-2" d="M235.04063,385.97929a1.44685,1.44685,0,0,0,.378,0,4.45443,4.45443,0,0,0,2.12546-2.97357,32.781,32.781,0,0,1,1.282-7.90709c.22369-.78755.31546-1.6087.56155-2.38513a20.6726,20.6726,0,0,1,2.97815-7.03227,3.87783,3.87783,0,0,0,.61316-1.423,5.46405,5.46405,0,0,1,1.32684-2.28892,19.66106,19.66106,0,0,1,4.83731-3.74993,9.7281,9.7281,0,0,1,4.41669-1.056c1.89276-.1029,3.80353-.11185,5.68973-.13875a2.338,2.338,0,0,0,2.64467-1.857,3.01806,3.01806,0,0,1,1.7764-1.93761,4.922,4.922,0,0,1,3.16606-.72938,5.59335,5.59335,0,0,1,3.40531,1.98233,17.06639,17.06639,0,0,1,2.23744,3.17719,4.251,4.251,0,0,1-.29525,4.83512,2.81629,2.81629,0,0,1-1.35825.87933,4.75907,4.75907,0,0,1-3.85051-.6712,1.85056,1.85056,0,0,1-.895-2.20385c.06719-.28418.14312-.566.22369-.86587a1.55052,1.55052,0,0,0-1.89958-.19911,2.15447,2.15447,0,0,0-1.11872,2.05171,9.21825,9.21825,0,0,0,1.43418,3.19727,4.42118,4.42118,0,0,0,2.01375,1.1433,23.1951,23.1951,0,0,0,2.68481.77635,2.39628,2.39628,0,0,0,2.01375-.42061c.73825-.49224,1.52594-.91285,2.29342-1.36262a2.14713,2.14713,0,0,0,.38484-.22375,7.96926,7.96926,0,0,0,2.92215-3.81931,5.48746,5.48746,0,0,0,.1901-2.083c-.06036-.46315-.05135-.93525-.0762-1.5013a4.8935,4.8935,0,0,1,2.18827,1.0516c1.81,1.168,3.57984,2.40746,5.39885,3.55526a20.46555,20.46555,0,0,1,6.60033,7.14412c.378,1.78992,1.73843,3.23311,1.89275,5.09466a19.31807,19.31807,0,0,1-.47879,8.18451c-.22369.631-.36025,1.291-.54133,1.93536-.06036.22376-.07839.49668-.22369.61979-.895.77636-.67134,1.97339-1.11872,2.90864-.05817.123-.09177.36244-.02239.42956.72487.6936.60415,1.75188,1.11871,2.535a6.09317,6.09317,0,0,1,.31546.7048c.46541.95313,1.04033,1.08068,1.93755.46766a5.81749,5.81749,0,0,1,3.80353-1.0471,4.29132,4.29132,0,0,1,1.58194.48774c.73607.38039.84122.7965.602,1.58186a9.62161,9.62161,0,0,1-5.14621,5.73453,2.49916,2.49916,0,0,1-1.06955.27742c-1.1881.0224-2.37619-.01345-3.56428-.02909-.1453,0-.349-.08057-.42962-.01119-.67134.58175-1.67125.90841-1.79006,1.9779a12.69156,12.69156,0,0,1-1.2531,3.91776c-.284.60634-.6107,1.197-.868,1.81457a6.18165,6.18165,0,0,1-2.98689,3.298,10.67068,10.67068,0,0,0-2.873,2.44105,7.56768,7.56768,0,0,1-4.73434,2.4433,25.6205,25.6205,0,0,1-7.6677,0,42.32762,42.32762,0,0,1-5.36989-1.00687c-.25073-.06937-.50337-.132-.7541-.21031-1.45439-.44751-2.89512-.94644-4.36535-1.34247a27.92882,27.92882,0,0,1-10.82911-5.32955,24.16444,24.16444,0,0,1-4.51065-4.11687,25.70978,25.70978,0,0,1-1.86817-3.1324c-.50119-.94869-.91961-1.9443-1.34241-2.93554a5.38326,5.38326,0,0,0-3.56646-2.79229,11.95818,11.95818,0,0,0-3.57984-.74057,3.23084,3.23084,0,0,1-2.9421-2.39851,8.42848,8.42848,0,0,1,.32229-6.51989c.528-1.07844.84341-1.35586,1.9979-1.0404A5.99853,5.99853,0,0,1,235.04063,385.97929Zm40.13291,22.59812a20.87621,20.87621,0,0,0,1.96212-2.1144,4.10719,4.10719,0,0,0,.895-2.0853,10.699,10.699,0,0,0-.56837-3.16148,14.95384,14.95384,0,0,0-2.48134-4.20639,5.02474,5.02474,0,0,0-1.913-1.65568c-.895-.44752-1.7652-.96209-2.68481-1.37382a16.67979,16.67979,0,0,0-6.5244-1.75865,27.12359,27.12359,0,0,0-5.974.62648,21.78545,21.78545,0,0,0-12.24554,7.25378,1.11833,1.11833,0,0,0-.30207.85692.86819.86819,0,0,0,1.06955.593,5.59351,5.59351,0,0,0,2.22406-.92856,15.20313,15.20313,0,0,1,2.01374-1.68477,25.1335,25.1335,0,0,1,3.1972-2.00248,14.15853,14.15853,0,0,1,6.42825-1.11871,19.01728,19.01728,0,0,1,8.12409,2.88631,1.04056,1.04056,0,0,1,.25291.22375,11.85932,11.85932,0,0,1,3.45913,5.86658c.12973.65557.26165,1.31113.41842,1.96a1.01417,1.01417,0,0,0,.2775.57281c.74262.51006,1.39375,1.25508,2.37372,1.25508Zm-.71586-28.628c.029.42737.029.80326.08712,1.1702a6.21066,6.21066,0,0,0,.80763,2.64241c.331.49.63775,1.00012.92863,1.51475a2.85919,2.85919,0,0,0,1.66687,1.56623,4.72532,4.72532,0,0,0,3.85734-.55266,3.211,3.211,0,0,1,.76284-.44752,6.59155,6.59155,0,0,0,2.17024-1.526,4.05636,4.05636,0,0,0,1.04716-4.19969.83608.83608,0,0,0-1.3424-.60859,3.47085,3.47085,0,0,1-.67134.39152,1.74514,1.74514,0,0,0-1.376,1.76309,2.78342,2.78342,0,0,1-1.95776,2.356,1.18358,1.18358,0,0,1-1.58194-.396,4.88429,4.88429,0,0,1-.9868-3.23311,2.54843,2.54843,0,0,0-.26848-1.37382,1.89736,1.89736,0,0,0-2.37618-.9218c-.74945.22376-.81883.38934-.76529,1.70048.00273.074-.00192.14107-.00192.159Zm-14.22787-6.0411a5.08775,5.08775,0,0,0-2.6515,1.62215,5.431,5.431,0,0,1-2.18363,1.85486,1.83916,1.83916,0,0,1-2.34941-.62423,3.04876,3.04876,0,0,1-.63092-2.19046,2.18338,2.18338,0,0,0-.22369-1.71611c-.1677-.02458-.31327-.05817-.45858-.06486-1.79005-.094-2.63346.81664-2.33821,2.58649a7.37588,7.37588,0,0,0,.54816,2.04051,6.5762,6.5762,0,0,0,1.52594,2.26877,3.41418,3.41418,0,0,0,3.57984.50788,10.10013,10.10013,0,0,0,5.17517-5.42575,2.88014,2.88014,0,0,0,.00683-.857Z" transform="translate(-225.19324 -349.58557)"/><path id="Path_449" data-name="Path 449" class="cls-1" d="M275.17353,408.58185c-.98447,0-1.62891-.7384-2.37837-1.25965a1.016,1.016,0,0,1-.27749-.57507c-.15664-.64881-.28869-1.30444-.41843-1.95994a11.85857,11.85857,0,0,0-3.45912-5.86658,1.04273,1.04273,0,0,0-.25277-.22368,19.02857,19.02857,0,0,0-8.12409-2.88625,14.157,14.157,0,0,0-6.4258,1.11872,25.12683,25.12683,0,0,0-3.1972,2.00255,15.18232,15.18232,0,0,0-2.01374,1.68477,5.59333,5.59333,0,0,1-2.22405.92848.87028.87028,0,0,1-1.06956-.593,1.11851,1.11851,0,0,1,.30208-.85693,21.78387,21.78387,0,0,1,12.24553-7.25377,27.11106,27.11106,0,0,1,5.97405-.62655,16.68441,16.68441,0,0,1,6.5244,1.75865c.9151.41173,1.78992.92848,2.685,1.37381a5.02549,5.02549,0,0,1,1.913,1.65568,14.94907,14.94907,0,0,1,2.48134,4.20639,10.68561,10.68561,0,0,1,.56837,3.16156,4.109,4.109,0,0,1-.895,2.0853A20.89771,20.89771,0,0,1,275.17353,408.58185Z" transform="translate(-225.19324 -349.58557)"/><path id="Path_450" data-name="Path 450" class="cls-1" d="M274.45757,379.95383v-.16552c-.05367-1.31113.01571-1.46558.76516-1.70047a1.89734,1.89734,0,0,1,2.37837.9218,2.54979,2.54979,0,0,1,.26848,1.37381,4.8848,4.8848,0,0,0,.98666,3.23311,1.18366,1.18366,0,0,0,1.5818.396,2.78323,2.78323,0,0,0,1.95776-2.356,1.74515,1.74515,0,0,1,1.376-1.76315,3.487,3.487,0,0,0,.6712-.39153c.64662-.33334,1.215-.11635,1.34241.60852a4.05667,4.05667,0,0,1-1.04716,4.1997,6.59128,6.59128,0,0,1-2.17025,1.526,3.207,3.207,0,0,0-.763.44751,4.72763,4.72763,0,0,1-3.85952.55267,2.85981,2.85981,0,0,1-1.66907-1.56623c-.29306-.51457-.59746-1.02476-.92848-1.51475a6.20758,6.20758,0,0,1-.81-2.64248C274.48666,380.75941,274.48884,380.38345,274.45757,379.95383Z" transform="translate(-225.19324 -349.58557)"/><path id="Path_451" data-name="Path 451" class="cls-1" d="M260.22973,373.91279a2.861,2.861,0,0,1,0,.85693,10.09993,10.09993,0,0,1-5.173,5.42575,3.41454,3.41454,0,0,1-3.57985-.50787,6.581,6.581,0,0,1-1.54615-2.262,7.38405,7.38405,0,0,1-.55035-2.04051c-.29538-1.76985.546-2.68495,2.33808-2.58649a3.37234,3.37234,0,0,1,.45871.06487,2.1835,2.1835,0,0,1,.22369,1.71618,3.05142,3.05142,0,0,0,.63092,2.19045,1.83917,1.83917,0,0,0,2.34928.62423,5.4351,5.4351,0,0,0,2.186-1.85479A5.08777,5.08777,0,0,1,260.22973,373.91279Z" transform="translate(-225.19324 -349.58557)"/></g></svg>