<svg id="圖層_1" data-name="圖層 1" xmlns="http://www.w3.org/2000/svg" viewBox="0 0 83.74907 77.53868"><defs><style>.cls-1{fill:#97a8af;}.cls-2{fill:#fff4d0;}.cls-3{fill:#f9d4e8;}</style></defs><title>yellow baby face 05</title><g id="Group_597" data-name="Group 597"><path id="Path_452" data-name="Path 452" class="cls-1" d="M340.00875,346.1c.71586-.038,1.25965-.06036,1.80563-.094a9.30364,9.30364,0,0,1,5.59359,1.34241,2.7858,2.7858,0,0,1,1.1433,1.28887,13.28071,13.28071,0,0,1,1.11871,4.2266,8.76344,8.76344,0,0,1-.64648,3.13247c-.13656.4654-.22369.94856-.38483,1.40058a19.0963,19.0963,0,0,1-1.02695,2.51493,21.9828,21.9828,0,0,1-4.69856,5.28714,7.61645,7.61645,0,0,1-2.08968,1.21049,3.132,3.132,0,0,0-2.02713,2.17025,27.06589,27.06589,0,0,1-1.21048,3.0721c-.30208.78988-.56373,1.59314-.83222,2.3964a13.096,13.096,0,0,1-.64211,1.94218,21.65669,21.65669,0,0,1-1.52595,2.3628c-.59514.84805-1.18809,1.70048-1.86161,2.48571a13.20964,13.20964,0,0,1-1.70048,1.56609c-.44737.36463-1.00236.602-1.432.98216a13.50658,13.50658,0,0,1-3.62682,1.85479c-1.29761.59295-2.6179,1.13674-3.93354,1.68927a14.55934,14.55934,0,0,1-3.66259.95758c-1.38283.19255-2.74764.51019-4.128.72268a18.5582,18.5582,0,0,1-2.13228.15432c-1.3648.05135-2.73179.103-4.09687.11417a19.36352,19.36352,0,0,1-2.43-.112c-1.57975-.18791-3.17479-.34223-4.72314-.68473-1.99572-.44738-3.95812-1.036-5.92461-1.59313-1.6199-.44738-3.242-.91961-4.83949-1.44975a15.46763,15.46763,0,0,1-5.39449-3.04506,57.94827,57.94827,0,0,1-4.202-4.07884,18.01415,18.01415,0,0,1-4.29352-7.12637c-.16551-.55935-.39822-1.10069-.61754-1.64448a.81885.81885,0,0,0-.88164-.61753,14.42717,14.42717,0,0,1-3.82593-.51238,3.60246,3.60246,0,0,1-2.05171-1.5661c-.77868-.998-1.4522-2.07848-2.18144-3.11662a4.02755,4.02755,0,0,1-.22369-4.25118c.35123-.76748.81008-1.48553,1.18372-2.23744a7.77667,7.77667,0,0,1,4.27358-3.65386c.41842-.17671.85242-.32447,1.282-.47442.7205-.25291.7765-.30426.68691-1.04716-.13438-1.12991-.31327-2.25764-.44738-3.38756a16.3287,16.3287,0,0,1-.14311-2.0427,81.1378,81.1378,0,0,1,.49-9.84477,12.179,12.179,0,0,1,2.53951-6.11717c1.32466-1.6849,2.67143-3.35615,4.1504-4.92224a34.10766,34.10766,0,0,1,3.316-2.68482,16.44513,16.44513,0,0,1,3.16361-2.08312c.895-.44738,1.79005-.895,2.71185-1.30226a2.44405,2.44405,0,0,0,.96222-.76966,17.36373,17.36373,0,0,1,7.09276-5.62718,32.13477,32.13477,0,0,1,3.57985-1.273,11.75947,11.75947,0,0,1,5.88009.22369,7.38426,7.38426,0,0,1,4.36535,3.07429,1.16809,1.16809,0,0,0,1.20585.56619c.81008-.05818,1.62672-.07156,2.43872-.06937a18.92666,18.92666,0,0,1,7.60734,1.48552c1.57729.68254,3.242,1.18372,4.77695,1.94656a37.02536,37.02536,0,0,1,3.79014,2.38738c.94857.62655,1.87937,1.282,2.799,1.95338.59951.44738,1.17471.91279,1.73844,1.3984a3.72727,3.72727,0,0,1,1.19929,2.56409,2.55565,2.55565,0,0,0,.34222.86581,15.14085,15.14085,0,0,1,.85925,1.51256,16.52364,16.52364,0,0,1,1.24627,5.96722c0,1.06055.32666,2.11426.405,3.17726.13875,1.90859.22369,3.82156.28187,5.73452A12.39621,12.39621,0,0,1,340.00875,346.1Zm-4.76575,4.71194-.6555-3.17726a1.60408,1.60408,0,0,0,.68473-1.40741c.103-1.65568.22369-3.30917.28651-4.967a22.11891,22.11891,0,0,0-.06255-2.33822c-.06036-.90841-.12536-1.82119-.2551-2.72059-.28651-1.99572-.60633-3.98489-.93518-5.97405a2.10818,2.10818,0,0,0-.34222-.78988,8.64407,8.64407,0,0,0-3.57984-3.62682.75526.75526,0,0,1-.14995-.12318,24.64883,24.64883,0,0,0-5.466-3.35615,34.6366,34.6366,0,0,0-8.78423-2.84814,14.018,14.018,0,0,0-2.22186-.10952.622.622,0,0,0-.67134.56618c-.10079.80108-.27968,1.59532-.34469,2.39858a15.583,15.583,0,0,1-1.217,3.6738,5.59421,5.59421,0,0,1-2.55508,2.817,5.734,5.734,0,0,1-3.647,1.11871c-.74071-.065-1.4746-.21249-2.206-.34687-.61316-.112-1.22387-.23707-1.51037-.91742a.62156.62156,0,0,0-.37582-.28186.84351.84351,0,0,1-.649-.85243,1.9824,1.9824,0,0,0-.75846-1.414c-.24609-.19255-.62191-.58176-.56373-.73607.2439-.62655-.37364-.76284-.57739-1.18591.57739-1.22824,1.76084-1.85042,2.70967-2.71185.85706-.77868,1.89521-.67134,2.99372-.80763a13.67506,13.67506,0,0,1,.22369,1.47678c.06718,1.55272-.12537,1.74745,1.95557,1.51912a1.58105,1.58105,0,0,0,.38483-.05817c.59077-.22369,1.18809-.5214,1.34241-1.15887a15.28837,15.28837,0,0,0,.53259-3.05845,2.318,2.318,0,0,0-2.00146-2.596l-.01229-.00163a11.55166,11.55166,0,0,0-5.04324-.19256,9.84481,9.84481,0,0,0-5.53978,3.22642,2.238,2.238,0,0,0-.70467,1.535c-.02239,1.04716-.33348,1.34241-1.3424,1.62209a9.19051,9.19051,0,0,0-1.414.35124c-1.26866.57738-2.53732,1.17006-3.75437,1.84577a32.262,32.262,0,0,0-4.4369,3.157,22.01922,22.01922,0,0,0-3.80353,4.02749c-.61754.82347-.96659,1.84359-1.5661,2.68481a7.113,7.113,0,0,0-.85461,3.26657c-.14093.951-.10078,1.92635-.17671,2.88857a.7605.7605,0,0,1-.31327.546,1.2571,1.2571,0,0,0-.62873,1.23507c-.08495,1.62427-.17453,3.24882-.22369,4.87309a50.38811,50.38811,0,0,0,.81664,10.677,1.27977,1.27977,0,0,1-.71149,1.42079,3.77691,3.77691,0,0,0-5.73452.68691,10.82866,10.82866,0,0,1-1.05153,1.24627,1.47257,1.47257,0,0,0-.40941,1.23288,6.95428,6.95428,0,0,0,5.29151,1.1545,2.38881,2.38881,0,0,1,1.40741.13656,4.29908,4.29908,0,0,1,2.02713,2.16369c.67134,1.79006,1.31564,3.57984,1.904,5.40786a6.114,6.114,0,0,0,1.707,2.68482c1.14767,1.05371,2.347,2.04734,3.50828,3.08767a12.306,12.306,0,0,0,5.38765,3.03168,47.8133,47.8133,0,0,0,7.4014,1.70266c1.52158.112,3.02732.51675,4.54643.57274a55.20678,55.20678,0,0,0,9.9319-.51238,32.88837,32.88837,0,0,0,9.50009-2.84159c.61753-.29306,1.226-.5995,1.83922-.895a16.89029,16.89029,0,0,0,3.54625-2.70284,3.85049,3.85049,0,0,0,1.16569-1.40741,3.30158,3.30158,0,0,1,1.06956-1.3424,7.221,7.221,0,0,0,1.08976-1.23289,12.48447,12.48447,0,0,1,1.1433-1.432,3.07736,3.07736,0,0,0,.91524-1.4522c.59514-1.95994,1.22169-3.91114,1.83922-5.86207a3.199,3.199,0,0,1,1.26648-1.79006c.868-.55936,1.80781-1.01138,2.68481-1.56609a10.21948,10.21948,0,0,0,4.36071-4.46368,5.224,5.224,0,0,0,.47879-3.13246c-.22369-1.08075-.78305-1.3222-1.76766-.84805a3.15744,3.15744,0,0,0-1.46559,1.376,4.37609,4.37609,0,0,1-.44738.74945c-.65113.78086-1.33121.92617-2.09432.26848a10.71366,10.71366,0,0,1-1.74745-2.03614c-.30726-.50719-.53532-1.04415-1.16187-1.154Z" transform="translate(-265.92091 -311.34408)"/><path id="Path_453" data-name="Path 453" class="cls-2" d="M335.2497,350.81189c.62655.10952.85707.64894,1.19246,1.13674a10.68711,10.68711,0,0,0,1.74746,2.03614c.76283.65769,1.44318.51239,2.09431-.26848a4.40235,4.40235,0,0,0,.44738-.74727,3.15814,3.15814,0,0,1,1.46559-1.37818c.98434-.47442,1.55052-.22369,1.76766.84805a5.22184,5.22184,0,0,1-.47879,3.13246,10.21952,10.21952,0,0,1-4.3607,4.46368c-.877.55034-1.81464,1.00018-2.68482,1.56609a3.19771,3.19771,0,0,0-1.26648,1.79006c-.61753,1.95339-1.24626,3.90213-1.83922,5.86207a3.07736,3.07736,0,0,1-.91524,1.4522,12.4833,12.4833,0,0,0-1.14329,1.432,7.21782,7.21782,0,0,1-1.08731,1.23289,3.30158,3.30158,0,0,0-1.06956,1.3424,3.85554,3.85554,0,0,1-1.16569,1.40742,16.86759,16.86759,0,0,1-3.54625,2.70283c-.61317.2999-1.22169.60853-1.83922.895a32.88837,32.88837,0,0,1-9.50009,2.84159,55.25633,55.25633,0,0,1-9.9319.51238c-1.52157-.05817-3.02512-.461-4.54643-.57274a47.8133,47.8133,0,0,1-7.4014-1.70266,12.30594,12.30594,0,0,1-5.38765-3.03168c-1.15887-1.04033-2.36061-2.03614-3.5061-3.08986a6.1141,6.1141,0,0,1-1.707-2.68481c-.58612-1.819-1.23506-3.61781-1.904-5.40786a4.30023,4.30023,0,0,0-2.02713-2.1637,2.38458,2.38458,0,0,0-1.40741-.13656,6.95689,6.95689,0,0,1-5.29151-1.15449,1.47258,1.47258,0,0,1,.40941-1.23289,10.929,10.929,0,0,0,1.05153-1.24627,3.77653,3.77653,0,0,1,5.73452-.6869,1.27979,1.27979,0,0,0,.71149-1.4208,50.40781,50.40781,0,0,1-.81664-10.677c.04015-1.62673.12974-3.251.22369-4.87308a1.25709,1.25709,0,0,1,.62873-1.23507.76055.76055,0,0,0,.31328-.546c.0762-.96222.03359-1.93754.17671-2.88856a7.10853,7.10853,0,0,1,.85461-3.26657c.59076-.84805.93736-1.87063,1.56609-2.68482a22.05636,22.05636,0,0,1,3.80353-4.02749,32.26058,32.26058,0,0,1,4.43691-3.157c1.217-.67134,2.4857-1.26867,3.75437-1.84578a9.22135,9.22135,0,0,1,1.41642-.35124c1.01575-.27531,1.32684-.57274,1.34241-1.62208a2.238,2.238,0,0,1,.70466-1.535,9.84409,9.84409,0,0,1,5.54224-3.22642,11.55,11.55,0,0,1,5.04106.19255,2.32043,2.32043,0,0,1,2.01484,2.59l-.0011.00765a15.29135,15.29135,0,0,1-.53477,3.05845c-.16115.63993-.75847.93736-1.34241,1.16132a1.59416,1.59416,0,0,1-.38483.05818c-2.08094.22368-1.88838.03359-1.95557-1.51912a13.74218,13.74218,0,0,0-.22369-1.47679c-1.09851.14776-2.13665.029-2.99372.80763-.94856.85925-2.13228,1.48334-2.71185,2.71186.20129.42061.821.55717.57738,1.18372-.06036.15213.31765.54379.56155.73607a1.98047,1.98047,0,0,1,.75846,1.414.84573.84573,0,0,0,.649.85242.61981.61981,0,0,1,.37582.28187c.2865.67134.895.80544,1.51037.91742.73171.13438,1.46559.28187,2.206.34687a5.73391,5.73391,0,0,0,3.647-1.11872,5.58043,5.58043,0,0,0,2.55508-2.817,15.55247,15.55247,0,0,0,1.21486-3.6738c.065-.80326.2439-1.5975.34468-2.40076a.622.622,0,0,1,.67134-.56619,14.01805,14.01805,0,0,1,2.22187.112,34.637,34.637,0,0,1,8.78423,2.84814,24.65514,24.65514,0,0,1,5.466,3.35616.76735.76735,0,0,0,.15213.12318,8.644,8.644,0,0,1,3.57984,3.62682,2.11673,2.11673,0,0,1,.34222.78987c.32885,1.98917.64895,3.97806.93518,5.97405.12974.895.19693,1.81246.2551,2.72059a22.11551,22.11551,0,0,1,.065,2.33822c-.06718,1.65568-.18353,3.31136-.2865,4.967a1.60409,1.60409,0,0,1-.68473,1.40741ZM317.98578,342.294c-.36244-.34686-.64212-.61753-.924-.88164a4.39429,4.39429,0,0,0-3.94446-1.19492,2.08979,2.08979,0,0,0-1.58194,1.17252c-.42962.83467-.77868,1.71386-1.14111,2.58212a4.84073,4.84073,0,0,0-.24827,2.58868,14.94213,14.94213,0,0,0,.93736,3.1636,7.93063,7.93063,0,0,0,3.86171,4.193c.877.48562,1.8414.80763,2.761,1.22387.25947.11635.4766.331.73826.44738.49435.21249,1.00455.396,1.51693.56154.17234.056.434-.04916.55034.047.81446.67134,1.535.14093,2.12792-.27531a12.84311,12.84311,0,0,0,1.97332-1.87063,24.4683,24.4683,0,0,0,5.14621-7.96977,8.49943,8.49943,0,0,0,.68691-3.9939,2.21246,2.21246,0,0,0-.95757-1.71822,8.68835,8.68835,0,0,1-1.6759-1.4746,3.27757,3.27757,0,0,0-3.57984-.85461,9.79294,9.79294,0,0,0-5.25355,3.1972c-.29524.34086-.61972.65631-.99335,1.057Zm-7.22032,32.70229a30.85258,30.85258,0,0,0,6.69893-.76284,25.16369,25.16369,0,0,0,5.73452-1.83922c.72487-.34687,1.35579-.895,2.08312-1.2419a16.97942,16.97942,0,0,0,4.02749-2.85278,4.78584,4.78584,0,0,0,1.63793-3.61344.92388.92388,0,0,0-.16552-.63993c-.53914-.44738-.91524-1.06272-1.63547-1.3424-1.66687-.65769-1.66906-.6555-2.57747.87481a14.20985,14.20985,0,0,1-2.11426,3.02513,15.97812,15.97812,0,0,1-5.73233,3.44792,19.98467,19.98467,0,0,1-4.47487,1.32684c-1.41861.1677-2.81919.56373-4.2378.61535-3.05627.112-6.11717.094-9.17343.07156-1.62673-.0112-3.25537-.103-4.87773-.22369a4.94226,4.94226,0,0,1-1.86162-.48561,12.22726,12.22726,0,0,1-2.06728-1.46341A5.7855,5.7855,0,0,1,290.855,368.615a15.0339,15.0339,0,0,0-2.96449-3.06965,2.19667,2.19667,0,0,0-.68909-.35342.69336.69336,0,0,0-1.03378.53041,4.26919,4.26919,0,0,0,.86362,4.11462c.34468.3892.69128.77868,1.05617,1.15012a7.887,7.887,0,0,0,2.90878,2.08312,7.25747,7.25747,0,0,1,1.226.59077,10.66017,10.66017,0,0,0,5.3049,1.45221c3.02513.0538,6.041.09614,9.07729.08712,1.48525-.018,2.97979-.14776,4.16105-.20375Zm-17.93089-15.52112a6.79859,6.79859,0,0,1,.67134-.40723,5.73548,5.73548,0,0,1,1.66906-.7205c1.02039-.11635,1.6087-1.09632,2.62445-1.16569.11636,0,.2013-.31546.32666-.461a6.90478,6.90478,0,0,0,1.36262-2.32456c.05381-.1677.24608-.29088.378-.43181s.37145-.29989.44738-.49436c.481-1.20147.93081-2.41633,1.39157-3.62682a.29282.29282,0,0,0,.0112-.09614c.04479-1.23069.12973-2.46112.11853-3.694a3.50215,3.50215,0,0,0-1.56609-2.98034c-.425-.2977-.79643-.67134-1.21486-.97778a3.11223,3.11223,0,0,0-4.02749-.36927,6.75223,6.75223,0,0,0-2.21286,2.02713l-.96877,1.30007c-.51238-.5995-.95757-1.11871-1.38938-1.63109a3.61322,3.61322,0,0,0-3.80353-1.1657,3.157,3.157,0,0,0-2.29124,2.54607,3.31953,3.31953,0,0,1-.10516.37582,4.12356,4.12356,0,0,1-.434.95757,5.14645,5.14645,0,0,0-.67134,4.35634,5.07854,5.07854,0,0,0,2.66924,3.75436,1.31713,1.31713,0,0,1,.31765.22369,13.56685,13.56685,0,0,0,4.13018,2.52832c.46541.2103.87045.41405,1.0092.95976a1.06311,1.06311,0,0,0,.33348.44737c.3496.3384.70521.63611,1.22661,1.06792Z" transform="translate(-265.92091 -311.34408)"/><path id="Path_454" data-name="Path 454" class="cls-1" d="M317.98359,342.2942c.37363-.4004.70029-.71586.9868-1.06272a9.79711,9.79711,0,0,1,5.25354-3.1972,3.28213,3.28213,0,0,1,3.57985.85461,8.65392,8.65392,0,0,0,1.67589,1.4746,2.21246,2.21246,0,0,1,.95757,1.71822,8.50432,8.50432,0,0,1-.68909,3.9939,24.45961,24.45961,0,0,1-5.14621,7.96977,12.82971,12.82971,0,0,1-1.97333,1.87063c-.59513.41406-1.31345.93518-2.12791.27531-.11635-.09614-.378,0-.55034-.047-.51239-.16551-1.02258-.35123-1.51694-.56154-.26165-.112-.47878-.32447-.73825-.44738-.91743-.41406-1.884-.73607-2.761-1.22168a7.93367,7.93367,0,0,1-3.8617-4.193,14.94274,14.94274,0,0,1-.93737-3.1636,4.84079,4.84079,0,0,1,.24827-2.58867c.36462-.868.71149-1.74745,1.14112-2.58431a2.09209,2.09209,0,0,1,1.58193-1.17006,4.39429,4.39429,0,0,1,3.94447,1.19492C317.33929,341.67667,317.62115,341.94733,317.98359,342.2942Zm7.23807-1.03377a1.90314,1.90314,0,0,0-.602.05817c-1.11872.54379-2.271,1.07611-2.64685,2.40077a14.47385,14.47385,0,0,0-.33348,2.10551c-.038.28869.02458.59077-.0224.877a.92634.92634,0,0,1-1.43418.70467,11.82152,11.82152,0,0,0-2.19947-.95758,1.47,1.47,0,0,1-1.31345-1.52594,1.11884,1.11884,0,0,0-.77185-1.0316,1.69665,1.69665,0,0,0-2.19046,1.36262,4.53911,4.53911,0,0,0,.51921,2.73644,6.32274,6.32274,0,0,0,3.76775,3.195.79411.79411,0,0,0,.998-.28651,52.54958,52.54958,0,0,0,4.92225-6.30071,19.80256,19.80256,0,0,0,1.3424-2.90878A1.40025,1.40025,0,0,0,325.22166,341.26043Z" transform="translate(-265.92091 -311.34408)"/><path id="Path_455" data-name="Path 455" class="cls-1" d="M310.76549,374.9943c-1.18372.05818-2.68482.18573-4.1728.19023-3.02512,0-6.041-.03578-9.07729-.08945a10.65214,10.65214,0,0,1-5.3049-1.45206,7.266,7.266,0,0,0-1.22605-.59063,7.89178,7.89178,0,0,1-2.90878-2.08312c-.36462-.36913-.71149-.75847-1.05617-1.15a4.26935,4.26935,0,0,1-.86362-4.11244.69355.69355,0,0,1,1.03378-.53027,2.20271,2.20271,0,0,1,.68909.35356,15.04858,15.04858,0,0,1,2.96449,3.06978,5.80075,5.80075,0,0,0,1.17471,1.27754,12.22682,12.22682,0,0,0,2.06728,1.46326,4.95068,4.95068,0,0,0,1.86162.48548c1.62208.12755,3.251.22369,4.87773.22369,3.05844.0224,6.11935.0381,9.17343-.07156,1.41861-.05148,2.81919-.44751,4.2378-.61753a19.99351,19.99351,0,0,0,4.47487-1.32452,15.98209,15.98209,0,0,0,5.73233-3.44792,14.209,14.209,0,0,0,2.11426-3.025c.90841-1.53045.9106-1.53264,2.57748-.87482.7205.28419,1.09632.895,1.63547,1.34241a.92075.92075,0,0,1,.16551.63993,4.78584,4.78584,0,0,1-1.63793,3.61344,16.97153,16.97153,0,0,1-4.02749,2.85278c-.72487.34687-1.35579.895-2.08312,1.24176a25.12868,25.12868,0,0,1-5.73234,1.83922A30.85881,30.85881,0,0,1,310.76549,374.9943Z" transform="translate(-265.92091 -311.34408)"/><path id="Path_456" data-name="Path 456" class="cls-1" d="M292.8348,359.47305c-.5102-.434-.877-.72952-1.22387-1.04935a1.06073,1.06073,0,0,1-.33567-.44737c-.13875-.54817-.546-.74946-1.0092-.95976a13.5731,13.5731,0,0,1-4.13264-2.52832,1.31713,1.31713,0,0,0-.31765-.22369,5.07854,5.07854,0,0,1-2.66924-3.75436,5.14645,5.14645,0,0,1,.67134-4.35634,4.12356,4.12356,0,0,0,.434-.95757,3.31953,3.31953,0,0,0,.10516-.37582,3.15685,3.15685,0,0,1,2.29342-2.54607,3.61321,3.61321,0,0,1,3.80353,1.1657c.43181.52139.877,1.03159,1.3872,1.6311l.96877-1.30226a6.74379,6.74379,0,0,1,2.21286-2.02713,3.11223,3.11223,0,0,1,4.02749.36926c.41843.30863.78988.67134,1.21486.97779a3.50415,3.50415,0,0,1,1.5661,2.98033c0,1.2307-.07621,2.46113-.11854,3.694a.30838.30838,0,0,1-.0112.09614c-.45857,1.21049-.90841,2.42535-1.38938,3.62682-.07839.19255-.29525.32884-.44738.49435s-.32447.26412-.378.43181a6.91653,6.91653,0,0,1-1.36262,2.32457c-.12537.14776-.20812.44737-.32666.461-1.01793.06937-1.60433,1.04935-2.62445,1.1657a5.73,5.73,0,0,0-1.66907.71831A6.87756,6.87756,0,0,0,292.8348,359.47305Zm-1.884-11.1738a2.38288,2.38288,0,0,0-1.79006-2.71185,10.92726,10.92726,0,0,0-1.16351-.11635,1.59526,1.59526,0,0,0-1.71386,1.98671q.55268,2.16355,1.13893,4.32055a3.85248,3.85248,0,0,0,2.90878,2.47451c.12318.018.29524.05135.34687.13656.35123.593,1.02913.48562,1.52157.75628a.81012.81012,0,0,0,1.11872-.19473c.67134-.67134,1.3648-1.30008,2.02931-1.96677a4.05879,4.05879,0,0,0,1.51912-2.62009c0-.12318.103-.23953.13438-.36462.29989-1.11871.67134-2.23743.868-3.3851a5.3355,5.3355,0,0,0-.05135-2.52613,2.959,2.959,0,0,0-.602.20129,3.94455,3.94455,0,0,0-1.95558,2.98689,6.03888,6.03888,0,0,0,.094,2.21723c.20348.79889-.22369,1.20584-.92862.971s-1.35579-.58831-2.0427-.85706c-.6331-.24745-.93955-.82484-1.432-1.308Z" transform="translate(-265.92091 -311.34408)"/><path id="Path_457" data-name="Path 457" class="cls-3" d="M325.22377,341.26049c.01339.17672.06938.31983.02459.42062a19.81693,19.81693,0,0,1-1.34241,2.90877,52.55057,52.55057,0,0,1-4.92225,6.29825.79188.79188,0,0,1-.998.28651,6.32273,6.32273,0,0,1-3.76775-3.195,4.53909,4.53909,0,0,1-.51921-2.73643,1.69532,1.69532,0,0,1,2.19046-1.36262,1.11882,1.11882,0,0,1,.77185,1.03159,1.47,1.47,0,0,0,1.31346,1.52594,11.77868,11.77868,0,0,1,2.19947.95758.92618.92618,0,0,0,1.43417-.70466c.047-.28651-.01557-.58831.0224-.877a14.62359,14.62359,0,0,1,.33348-2.10552c.37582-1.32465,1.535-1.85479,2.64685-2.40076A1.8743,1.8743,0,0,1,325.22377,341.26049Z" transform="translate(-265.92091 -311.34408)"/><path id="Path_458" data-name="Path 458" class="cls-3" d="M290.95311,348.29932c.49.481.79643,1.06054,1.42735,1.30663.6869.26848,1.3424.62873,2.04269.85706s1.12992-.17234.92863-.971a6.05667,6.05667,0,0,1-.094-2.21723,3.94449,3.94449,0,0,1,1.95557-2.98689,2.95933,2.95933,0,0,1,.602-.20129,5.332,5.332,0,0,1,.05135,2.52613c-.20348,1.1433-.56837,2.25983-.868,3.3851a2.01569,2.01569,0,0,0-.13438.36462,4.05884,4.05884,0,0,1-1.51912,2.62009c-.67134.67134-1.3648,1.30007-2.0315,1.969a.81012.81012,0,0,1-1.11872.19474c-.49217-.27067-1.17006-.16552-1.52157-.75628-.04916-.08494-.22369-.11854-.34687-.13657a3.85487,3.85487,0,0,1-2.90877-2.4745q-.58872-2.15454-1.13893-4.32056a1.59542,1.59542,0,0,1,1.71385-1.98671,11.008,11.008,0,0,1,1.16351.11417A2.38291,2.38291,0,0,1,290.95311,348.29932Z" transform="translate(-265.92091 -311.34408)"/></g></svg>