<svg id="圖層_1" data-name="圖層 1" xmlns="http://www.w3.org/2000/svg" viewBox="0 0 87.22611 73.71249"><defs><style>.cls-1{fill:#97a8af;}.cls-2{fill:#fff4d0;}</style></defs><title>yellow baby face 04</title><g id="Group_588" data-name="Group 588"><path id="Path_429" data-name="Path 429" class="cls-1" d="M265.35343,408.1987a8.76036,8.76036,0,0,1,3.6626.5795,27.35248,27.35248,0,0,0,.59951-3.83494,25.61469,25.61469,0,0,1,.95757-5.965c.84123-3.32932,1.83021-6.6273,2.873-9.90063a7.49736,7.49736,0,0,1,3.86854-4.42789c1.21048-.63317,2.33576-1.42974,3.50828-2.139a14.28728,14.28728,0,0,1,4.81709-1.53933c1.16789-.22376,2.31583-.56605,3.48589-.77861,1.75428-.32,3.51511-.61084,5.2825-.83453a1.36491,1.36491,0,0,0,1.20585-.72044c2.16123-3.97369,5.95384-5.14607,10.03268-5.50407a9.53336,9.53336,0,0,1,4.51283.98673,12.44592,12.44592,0,0,1,5.3699,3.69852,1.80565,1.80565,0,0,0,1.39157.75846,35.42831,35.42831,0,0,1,3.95348.47879,8.96805,8.96805,0,0,1,5.21558,2.51711,22.63484,22.63484,0,0,0,2.43436,2.215,10.70667,10.70667,0,0,1,2.98034,4.06321,1.37278,1.37278,0,0,0,.20812.35574,30.66977,30.66977,0,0,1,4.74772,10.12664,5.59483,5.59483,0,0,1,.23489,1.21492c.34222,2.63572.67134,5.27363,1.01793,7.90709a7.3125,7.3125,0,0,1-.31764,4.57108,6.36246,6.36246,0,0,0-.33349,1.56623c.46541.08727.80545.15439,1.14767.22376a11.18642,11.18642,0,0,1,5.03642,1.64674c.03577.02683.08275.04028.12072.06486.84805.51013,2.06072.61528,2.412,1.687a9.90414,9.90414,0,0,1,.85706,5.10585,7.02663,7.02663,0,0,1-2.206,4.00947,32.65225,32.65225,0,0,0-2.44556,2.21954,9.17363,9.17363,0,0,1-4.65623,2.49029,1.262,1.262,0,0,0-.93736.6712,9.55883,9.55883,0,0,0-1.53933,4.21308,3.00711,3.00711,0,0,1-1.441,2.52831,8.02045,8.02045,0,0,0-1.30007,1.21944,19.98683,19.98683,0,0,1-10.16679,4.79483c-1.87718.42512-3.78113.74734-5.625,1.27979a33.86381,33.86381,0,0,1-14.05771.64212c-2.77222-.3692-5.56218-.60408-8.3344-.95983a25.319,25.319,0,0,1-7.94737-2.06741c-1.85042-.895-3.79233-1.56624-5.57556-2.64467a17.37718,17.37718,0,0,1-5.64276-5.34969c-1.50573-2.2911-2.75664-4.75-4.119-7.13517a9.23421,9.23421,0,0,1-.48562-.82784,1.65109,1.65109,0,0,0-1.62673-1.01582,7.89193,7.89193,0,0,1-5.34286-2.23743,20.59636,20.59636,0,0,1-3.07647-3.65372,4.86213,4.86213,0,0,1,0-4.8664,3.02625,3.02625,0,0,0,.25072-.77861,8.61585,8.61585,0,0,1,3.759-5.21319A10.03317,10.03317,0,0,0,265.35343,408.1987Zm42.18462-20.60233.98216-.53477a3.3897,3.3897,0,0,0,2.034-2.89075c.07621-1.46108.17453-2.92209.18354-4.38536a2.32208,2.32208,0,0,0-1.26183-1.99135,6.00978,6.00978,0,0,0-5.41906-.44751,2.3872,2.3872,0,0,0-1.99572,2.5574c.06036,1.56623-.39822,2.07636-1.86817,2.47683a12.66546,12.66546,0,0,1-2.56628.27073,35.9917,35.9917,0,0,0-3.82374.19017c-2.01375.3401-4.0275.84354-6.00983,1.33127a15.434,15.434,0,0,0-2.87054.91961,3.58033,3.58033,0,0,0-2.03833,2.28892c-.48316,1.649-.989,1.94881-2.65368,1.97339-.37363,0-.91742.09171-1.08731.34011a15.55816,15.55816,0,0,0-2.07192,3.524c-.71586,2.11439-1.11872,4.33612-1.65568,6.511-.14312.57724-.32229,1.1478-.46977,1.7228-.42061,1.63779-.87919,3.26663-1.2307,4.92238a22.46081,22.46081,0,0,0-.34905,3.00041c-.05381.72044-.0224,1.44763-.0224,2.17257a16.34918,16.34918,0,0,1,0,1.922c-.09177.75846-.49.97553-1.25965.77635a4.55737,4.55737,0,0,1-2.356-1.32008,2.01373,2.01373,0,0,0-2.71623-.44751,4.724,4.724,0,0,0-1.4634,1.39614,10.2201,10.2201,0,0,0-1.423,5.93595,3.37419,3.37419,0,0,0,3.20839,3.35616,7.29633,7.29633,0,0,0,2.327-.06487c1.922-.45864,3.33813.6936,4.90449,1.38051.15432.06712.22369.36243.30208.56386.46759,1.2798.839,2.58874,1.2083,3.90206a13.52257,13.52257,0,0,0,5.1148,7.13968,22.39521,22.39521,0,0,0,7.831,3.59555c3.22177.85693,6.55116,1.31113,9.82893,1.97121a13.94079,13.94079,0,0,0,5.32292,0,22.64631,22.64631,0,0,1,3.14366-.09621,10.74061,10.74061,0,0,0,2.0427-.16558c2.72305-.63993,5.47942-1.19479,8.13966-2.04728a21.71828,21.71828,0,0,0,10.57647-6.07913,1.59212,1.59212,0,0,1,.44738-.32666,6.33077,6.33077,0,0,0,2.53268-2.82363,1.56624,1.56624,0,0,1,1.74963-1.00906,1.5668,1.5668,0,0,0,.67134-.05592,10.21156,10.21156,0,0,0,7.96759-8.8043,4.2528,4.2528,0,0,0-.44738-2.52606,1.54371,1.54371,0,0,0-1.7764-.95983,3.41,3.41,0,0,0-2.51493,1.21943,1.46113,1.46113,0,0,1-1.14548.55936c-1.79006-.349-2.74081-1.45882-2.327-3.17719a13.46412,13.46412,0,0,0,.425-4.21533,46.60042,46.60042,0,0,0-1.08294-6.21782c-.6443-2.85947-1.73407-5.59358-2.26885-8.50222a28.69587,28.69587,0,0,0-1.81-5.02973,4.26524,4.26524,0,0,0-.69128-1.02251c-1.394-1.76308-2.7744-3.53511-4.2042-5.26918a7.53114,7.53114,0,0,0-6.22014-2.5462c-.12072.78086-.20129,1.414-.31764,2.04276-.49682,2.6491-1.06956,5.25348-4.137,6.18654a.33928.33928,0,0,0-.11635.07382,4.63122,4.63122,0,0,1-2.82575.90615,6.1919,6.1919,0,0,0-1.6087.29314,6.012,6.012,0,0,1-6.9136-1.32678c-1.1433-1.3648-1.53714-2.30455-.36243-3.7857a7.227,7.227,0,0,0,.71148-1.17464,8.24744,8.24744,0,0,1,3.39412-3.49934,4.86616,4.86616,0,0,1,3.13247-.801,3.185,3.185,0,0,1,.98.58176,5.40938,5.40938,0,0,1-.65113.801c-.83686.71149-1.716,1.37156-2.54853,2.08974a2.35161,2.35161,0,0,0-.41624.67121Z" transform="translate(-259.45791 -373.12969)"/><path id="Path_431" data-name="Path 431" class="cls-2" d="M307.547,387.5964l-1.875-1.97339a2.33558,2.33558,0,0,1,.41624-.6712c.83-.71825,1.71167-1.37826,2.54852-2.08975a5.43376,5.43376,0,0,0,.65113-.80325,3.18845,3.18845,0,0,0-.97779-.58176,4.8641,4.8641,0,0,0-3.13246.801,8.24744,8.24744,0,0,0-3.39412,3.49934,7.22929,7.22929,0,0,1-.71149,1.17464c-1.17471,1.48115-.78086,2.4209.36244,3.7857a6.012,6.012,0,0,0,6.9136,1.32678,6.19734,6.19734,0,0,1,1.6087-.29314,4.63122,4.63122,0,0,0,2.82575-.90615.3435.3435,0,0,1,.11635-.07382c3.06746-.933,3.6402-3.53737,4.137-6.18654.11636-.62873.19693-1.2619.31765-2.04276a7.53114,7.53114,0,0,1,6.22013,2.5462c1.42981,1.734,2.81018,3.506,4.20421,5.26918a4.26524,4.26524,0,0,1,.69128,1.02251,28.72136,28.72136,0,0,1,1.81,5.02973c.53478,2.90864,1.62427,5.64056,2.26885,8.50222a46.64382,46.64382,0,0,1,1.08294,6.21782,13.48,13.48,0,0,1-.425,4.21533c-.414,1.72062.53915,2.83039,2.32457,3.17719a1.45883,1.45883,0,0,0,1.14548-.55936,3.41,3.41,0,0,1,2.51493-1.21943,1.54371,1.54371,0,0,1,1.7764.95983,4.2528,4.2528,0,0,1,.44738,2.52606,10.21156,10.21156,0,0,1-7.96759,8.8043,1.5668,1.5668,0,0,1-.67134.05592,1.56624,1.56624,0,0,0-1.74963,1.00906,6.32812,6.32812,0,0,1-2.53268,2.82363,1.58939,1.58939,0,0,0-.44738.32666,21.72107,21.72107,0,0,1-10.57866,6.08132c-2.65805.85249-5.41469,1.40734-8.13747,2.04727a10.73988,10.73988,0,0,1-2.04051.16558,22.60292,22.60292,0,0,0-3.14366.09621,13.94324,13.94324,0,0,1-5.32293,0c-3.27558-.6712-6.605-1.11872-9.82893-1.97121a22.39747,22.39747,0,0,1-7.831-3.59554,13.52618,13.52618,0,0,1-5.1148-7.13968c-.37145-1.31339-.74072-2.62227-1.2083-3.90206-.07375-.20362-.14777-.49668-.30208-.56387-1.5661-.68465-2.98252-1.83915-4.9045-1.38051a7.29776,7.29776,0,0,1-2.327.06487,3.37418,3.37418,0,0,1-3.20839-3.35615,10.22428,10.22428,0,0,1,1.423-5.93595,4.72477,4.72477,0,0,1,1.4634-1.39615,2.01373,2.01373,0,0,1,2.71622.44752,4.55309,4.55309,0,0,0,2.356,1.32008c.76967.19911,1.16788-.01789,1.25965-.77636a16.34918,16.34918,0,0,0,0-1.922c0-.72494-.03141-1.45206.0224-2.17256a22.46092,22.46092,0,0,1,.349-3.00041c.35124-1.6535.81009-3.28234,1.2307-4.92239.14776-.57725.32666-1.14555.46978-1.7228.54133-2.17475.93982-4.39655,1.65568-6.51094a15.571,15.571,0,0,1,2.07192-3.524c.1677-.25059.71367-.3356,1.08731-.34011,1.66469-.02684,2.17024-.3244,2.65367-1.97339a3.58034,3.58034,0,0,1,2.03833-2.28892,15.43373,15.43373,0,0,1,2.87054-.91961c1.99354-.48555,3.98926-.99117,6.00983-1.33128a36.03371,36.03371,0,0,1,3.82593-.19016,12.66048,12.66048,0,0,0,2.56628-.27074c1.46777-.40047,1.92634-.92179,1.86817-2.47683a2.385,2.385,0,0,1,1.99572-2.5574,6.00981,6.00981,0,0,1,5.41906.44752,2.32207,2.32207,0,0,1,1.26183,1.99135c0,1.46108-.10733,2.92434-.18354,4.38535a3.38969,3.38969,0,0,1-2.034,2.89075Zm-7.02776,35.04494c.61753.57725,1.17471,1.04491,1.66906,1.56624a9.3264,9.3264,0,0,0,5.29152,2.71178,20.14706,20.14706,0,0,0,2.44091.41843,50.88491,50.88491,0,0,0,6.992.25728,12.26576,12.26576,0,0,0,6.63856-3.35615,5.21989,5.21989,0,0,0,2.09869-4.25112c0-1.22837,0-2.46119-.094-3.68281a1.64006,1.64006,0,0,0-1.56609-1.64229,3.448,3.448,0,0,0-3.02732,1.74745,38.378,38.378,0,0,0-1.46094,4.13476,4.394,4.394,0,0,1-1.80562,2.667,24.58725,24.58725,0,0,1-3.35616,1.8593,3.24024,3.24024,0,0,1-1.86817.24164,26.802,26.802,0,0,1-4.35169-1.21943,3.94206,3.94206,0,0,1-1.70949-1.51024,9.76314,9.76314,0,0,1-1.64912-4.89105c-.047-1.065-.48316-1.48791-1.59095-1.423-.99336.05817-1.97114.42737-2.96449.46984a2.93549,2.93549,0,0,0-2.37619,1.611,12.59272,12.59272,0,0,1-1.30662,1.7676,9.09764,9.09764,0,0,1-6.54461,3.05633,3.41879,3.41879,0,0,1-3.39876-3.27558,6.7938,6.7938,0,0,0-.99336-2.95569,1.6469,1.6469,0,0,0-.9756-.65106,7.38637,7.38637,0,0,0-1.4634-.15438,13.26661,13.26661,0,0,1-.23489,2.07185,6.78593,6.78593,0,0,0,.51239,3.88868,3.911,3.911,0,0,0,2.55289,2.83708,2.09065,2.09065,0,0,1,.44738.31546,5.81721,5.81721,0,0,0,4.18181,1.00462c1.264-.16558,2.5193-.43181,3.76775-.69585a9.52971,9.52971,0,0,0,6.14229-2.91766Zm17.72933-20.42779-.17234-.03578a3.72215,3.72215,0,0,0-.01339-.95765,2.3294,2.3294,0,0,0-1.376-1.875,1.80332,1.80332,0,0,0-1.98015.56386,3.80361,3.80361,0,0,0-.81009,4.853,1.58418,1.58418,0,0,0,1.93919,1.12193l.01174-.00321a2.01373,2.01373,0,0,0,1.79006-1.29994,23.18035,23.18035,0,0,0,.61125-2.36723Zm-25.28313-.13424a3.01855,3.01855,0,0,0-.68254-2.30012c-.16552-.19911-.44738-.50344-.61535-.46984a8.61964,8.61964,0,0,0-2.42316.6981,1.92665,1.92665,0,0,0-.85242,1.39389,11.8737,11.8737,0,0,0,.37363,2.7968,1.50591,1.50591,0,0,0,1.7226,1.25214q.0553-.00871.10979-.02158c1.69638-.179,2.37209-1.08512,2.36335-3.34939Z" transform="translate(-259.45791 -373.12969)"/><path id="Path_432" data-name="Path 432" class="cls-1" d="M300.52592,422.63908a9.52925,9.52925,0,0,1-6.13492,2.93551c-1.25064.264-2.50373.53027-3.76775.69583a5.81725,5.81725,0,0,1-4.18181-1.0046,2.09925,2.09925,0,0,0-.44738-.31548,3.91112,3.91112,0,0,1-2.55289-2.83706,6.784,6.784,0,0,1-.51457-3.88866,13.23424,13.23424,0,0,0,.23489-2.07187,7.38421,7.38421,0,0,1,1.4634.15438,1.64682,1.64682,0,0,1,.9756.6511,6.786,6.786,0,0,1,.99335,2.95565,3.41878,3.41878,0,0,0,3.39876,3.27336,9.09947,9.09947,0,0,0,6.54461-3.05633,12.56944,12.56944,0,0,0,1.30663-1.76758,2.93543,2.93543,0,0,1,2.37618-1.611c.99336-.04251,1.97114-.41169,2.9645-.46986,1.10533-.06489,1.54151.35574,1.59095,1.423a9.76,9.76,0,0,0,1.64912,4.891,3.94219,3.94219,0,0,0,1.70949,1.51027,26.79854,26.79854,0,0,0,4.35169,1.2194,3.23983,3.23983,0,0,0,1.86817-.24165,24.5866,24.5866,0,0,0,3.35615-1.85931,4.39388,4.39388,0,0,0,1.80344-2.667,38.377,38.377,0,0,1,1.461-4.13478,3.448,3.448,0,0,1,3.02731-1.74744,1.64,1.64,0,0,1,1.56609,1.64228c.08713,1.22387.08959,2.46118.094,3.68283a5.21992,5.21992,0,0,1-2.09869,4.25113,12.26552,12.26552,0,0,1-6.63856,3.35615,50.89762,50.89762,0,0,1-6.992-.2573,20.1489,20.1489,0,0,1-2.44091-.41839,9.32087,9.32087,0,0,1-5.29151-2.71177C301.6938,423.6862,301.13444,423.2074,300.52592,422.63908Z" transform="translate(-259.45791 -373.12969)"/><path id="Path_433" data-name="Path 433" class="cls-1" d="M318.24876,402.21133a23.26059,23.26059,0,0,1-.60852,2.356,2.01365,2.01365,0,0,1-1.79006,1.29993,1.58406,1.58406,0,0,1-1.94765-1.10687l-.00327-.01184a3.80361,3.80361,0,0,1,.81008-4.853,1.80337,1.80337,0,0,1,1.98016-.56383,2.33175,2.33175,0,0,1,1.376,1.875,3.734,3.734,0,0,1,.01338.95761Z" transform="translate(-259.45791 -373.12969)"/><path id="Path_434" data-name="Path 434" class="cls-1" d="M292.9613,402.07706c0,2.25758-.67134,3.17046-2.36717,3.35615a1.50584,1.50584,0,0,1-1.81082-1.12066c-.00846-.03636-.01584-.073-.02157-.10994a11.88813,11.88813,0,0,1-.37364-2.79679,1.92674,1.92674,0,0,1,.85242-1.39393,8.61759,8.61759,0,0,1,2.42316-.69807c.17016-.03356.44738.26848.61535.46988A3.02018,3.02018,0,0,1,292.9613,402.07706Z" transform="translate(-259.45791 -373.12969)"/></g></svg>