<?xml version="1.0" encoding="utf-8"?>
<!-- Generator: Adobe Illustrator 23.0.4, SVG Export Plug-In . SVG Version: 6.00 Build 0)  -->
<svg version="1.1" id="圖層_1" xmlns="http://www.w3.org/2000/svg" xmlns:xlink="http://www.w3.org/1999/xlink" x="0px" y="0px"
	 viewBox="0 0 83.7 77.5" style="enable-background:new 0 0 83.7 77.5;" xml:space="preserve">
<style type="text/css">
	.st0{fill:#97A8AF;}
	.st1{fill:#FFF4D0;}
	.st2{fill:#F9D4E8;}
</style>
<title>yellow baby face 05</title>
<g id="Group_597">
	<path id="Path_452" class="st0" d="M74.1,34.8c0.7,0,1.3-0.1,1.8-0.1c2-0.2,3.9,0.3,5.6,1.3c0.5,0.3,0.9,0.7,1.1,1.3
		c0.6,1.3,1,2.8,1.1,4.2c0,1.1-0.2,2.1-0.6,3.1c-0.1,0.5-0.2,0.9-0.4,1.4c-0.3,0.9-0.6,1.7-1,2.5c-1.3,2-2.9,3.8-4.7,5.3
		c-0.6,0.5-1.3,0.9-2.1,1.2c-1,0.3-1.8,1.2-2,2.2c-0.3,1-0.7,2.1-1.2,3.1c-0.3,0.8-0.6,1.6-0.8,2.4c-0.2,0.7-0.4,1.3-0.6,1.9
		c-0.5,0.8-1,1.6-1.5,2.4c-0.6,0.8-1.2,1.7-1.9,2.5c-0.5,0.6-1.1,1.1-1.7,1.6c-0.4,0.4-1,0.6-1.4,1c-1.1,0.8-2.3,1.4-3.6,1.9
		c-1.3,0.6-2.6,1.1-3.9,1.7c-1.2,0.5-2.4,0.8-3.7,1c-1.4,0.2-2.7,0.5-4.1,0.7c-0.7,0.1-1.4,0.1-2.1,0.2c-1.4,0.1-2.7,0.1-4.1,0.1
		c-0.8,0-1.6,0-2.4-0.1c-1.6-0.2-3.2-0.3-4.7-0.7c-2-0.4-4-1-5.9-1.6c-1.6-0.4-3.2-0.9-4.8-1.4c-2-0.6-3.8-1.7-5.4-3
		c-1.5-1.3-2.9-2.6-4.2-4.1c-2-2-3.4-4.4-4.3-7.1c-0.2-0.6-0.4-1.1-0.6-1.6c-0.1-0.4-0.5-0.7-0.9-0.6c-1.3,0-2.6-0.2-3.8-0.5
		c-0.9-0.3-1.6-0.8-2.1-1.6c-0.8-1-1.5-2.1-2.2-3.1c-0.9-1.3-1-2.9-0.2-4.3c0.4-0.8,0.8-1.5,1.2-2.2c0.9-1.7,2.4-3,4.3-3.7
		c0.4-0.2,0.9-0.3,1.3-0.5c0.7-0.3,0.8-0.3,0.7-1c-0.1-1.1-0.3-2.3-0.4-3.4c-0.1-0.7-0.1-1.4-0.1-2c0-3.3,0.1-6.6,0.5-9.8
		c0.3-2.2,1.1-4.4,2.5-6.1c1.3-1.7,2.7-3.4,4.2-4.9c1-1,2.2-1.9,3.3-2.7c1-0.8,2-1.5,3.2-2.1c0.9-0.4,1.8-0.9,2.7-1.3
		c0.4-0.2,0.7-0.4,1-0.8c1.8-2.5,4.3-4.4,7.1-5.6c1.2-0.5,2.4-0.9,3.6-1.3c1.9-0.4,4-0.3,5.9,0.2C43,0.9,44.6,2,45.6,3.6
		c0.2,0.4,0.7,0.6,1.2,0.6c0.8-0.1,1.6-0.1,2.4-0.1c2.6,0,5.2,0.5,7.6,1.5c1.6,0.7,3.2,1.2,4.8,1.9c1.3,0.7,2.6,1.5,3.8,2.4
		c0.9,0.6,1.9,1.3,2.8,2c0.6,0.4,1.2,0.9,1.7,1.4c0.7,0.7,1.2,1.6,1.2,2.6c0.1,0.3,0.2,0.6,0.3,0.9c0.3,0.5,0.6,1,0.9,1.5
		c0.8,1.9,1.2,3.9,1.2,6c0,1.1,0.3,2.1,0.4,3.2c0.1,1.9,0.2,3.8,0.3,5.7C74.3,33.6,74.2,34.2,74.1,34.8z M69.3,39.5l-0.7-3.2
		c0.5-0.3,0.7-0.9,0.7-1.4c0.1-1.7,0.2-3.3,0.3-5c0-0.8,0-1.6-0.1-2.3c-0.1-0.9-0.1-1.8-0.3-2.7c-0.3-2-0.6-4-0.9-6
		c-0.1-0.3-0.2-0.6-0.3-0.8c-0.8-1.5-2-2.8-3.6-3.6c-0.1,0-0.1-0.1-0.1-0.1c-1.7-1.4-3.5-2.5-5.5-3.4c-2.8-1.3-5.7-2.3-8.8-2.8
		C49.3,8,48.6,8,47.8,8c-0.3,0-0.6,0.2-0.7,0.6c-0.1,0.8-0.3,1.6-0.3,2.4c-0.3,1.3-0.7,2.5-1.2,3.7c-0.5,1.2-1.4,2.2-2.6,2.8
		c-1.1,0.8-2.3,1.2-3.6,1.1c-0.7-0.1-1.5-0.2-2.2-0.3c-0.6-0.1-1.2-0.2-1.5-0.9c-0.1-0.1-0.2-0.2-0.4-0.3c-0.4-0.1-0.7-0.4-0.6-0.9
		c0-0.6-0.3-1.1-0.8-1.4c-0.2-0.2-0.6-0.6-0.6-0.7c0.2-0.6-0.4-0.8-0.6-1.2c0.6-1.2,1.8-1.9,2.7-2.7c0.9-0.8,1.9-0.7,3-0.8
		c0.1,0.5,0.2,1,0.2,1.5c0.1,1.6-0.1,1.7,2,1.5c0.1,0,0.3,0,0.4-0.1c0.6-0.2,1.2-0.5,1.3-1.2c0.3-1,0.5-2,0.5-3.1
		c0.2-1.3-0.7-2.4-2-2.6l0,0c-1.6-0.4-3.4-0.5-5-0.2c-2.2,0.4-4.1,1.6-5.5,3.2c-0.4,0.4-0.7,1-0.7,1.5c0,1-0.3,1.3-1.3,1.6
		c-0.5,0.1-1,0.2-1.4,0.4c-1.3,0.6-2.5,1.2-3.8,1.8c-1.6,0.9-3,2-4.4,3.2c-1.4,1.2-2.7,2.5-3.8,4c-0.6,0.8-1,1.8-1.6,2.7
		c-0.5,1-0.8,2.1-0.9,3.3c-0.1,1-0.1,1.9-0.2,2.9c0,0.2-0.1,0.4-0.3,0.5c-0.4,0.2-0.7,0.7-0.6,1.2c-0.1,1.6-0.2,3.2-0.2,4.9
		c-0.1,3.6,0.2,7.2,0.8,10.7c0.1,0.6-0.2,1.2-0.7,1.4c-1.5-1.4-3.9-1.3-5.3,0.2c-0.1,0.2-0.3,0.3-0.4,0.5c-0.3,0.4-0.7,0.9-1.1,1.2
		c-0.3,0.3-0.5,0.8-0.4,1.2c1.5,1.1,3.4,1.5,5.3,1.2c0.5-0.1,1,0,1.4,0.1c0.9,0.5,1.6,1.2,2,2.2c0.7,1.8,1.3,3.6,1.9,5.4
		c0.3,1,0.9,2,1.7,2.7c1.1,1.1,2.3,2,3.5,3.1c1.5,1.5,3.4,2.5,5.4,3c2.4,0.8,4.9,1.3,7.4,1.7c1.5,0.1,3,0.5,4.5,0.6
		c3.3,0.1,6.6,0,9.9-0.5c3.3-0.5,6.5-1.4,9.5-2.8c0.6-0.3,1.2-0.6,1.8-0.9c1.3-0.7,2.5-1.6,3.5-2.7c0.5-0.4,0.9-0.9,1.2-1.4
		c0.2-0.5,0.6-1,1.1-1.3c0.4-0.4,0.8-0.8,1.1-1.2c0.3-0.5,0.7-1,1.1-1.4c0.4-0.4,0.8-0.9,0.9-1.5c0.6-2,1.2-3.9,1.8-5.9
		c0.2-0.7,0.6-1.4,1.3-1.8c0.9-0.6,1.8-1,2.7-1.6c1.9-1,3.4-2.6,4.4-4.5c0.5-1,0.6-2.1,0.5-3.1c-0.2-1.1-0.8-1.3-1.8-0.8
		c-0.6,0.3-1.1,0.8-1.5,1.4c-0.1,0.3-0.3,0.5-0.4,0.7c-0.7,0.8-1.3,0.9-2.1,0.3c-0.7-0.6-1.3-1.3-1.7-2C70.2,40.1,70,39.6,69.3,39.5
		L69.3,39.5z"/>
	<path id="Path_453" class="st1" d="M69.3,39.5c0.6,0.1,0.9,0.6,1.2,1.1c0.5,0.7,1.1,1.4,1.7,2c0.8,0.7,1.4,0.5,2.1-0.3
		c0.2-0.2,0.3-0.5,0.4-0.7c0.3-0.6,0.8-1.1,1.5-1.4c1-0.5,1.6-0.2,1.8,0.8c0.2,1.1,0,2.2-0.5,3.1c-1,1.9-2.5,3.5-4.4,4.5
		c-0.9,0.6-1.8,1-2.7,1.6c-0.6,0.4-1.1,1.1-1.3,1.8c-0.6,2-1.2,3.9-1.8,5.9c-0.2,0.6-0.5,1.1-0.9,1.5c-0.4,0.4-0.8,0.9-1.1,1.4
		c-0.3,0.5-0.7,0.9-1.1,1.2c-0.5,0.3-0.8,0.8-1.1,1.3c-0.3,0.6-0.7,1-1.2,1.4c-1.1,1.1-2.2,2-3.5,2.7c-0.6,0.3-1.2,0.6-1.8,0.9
		c-3,1.4-6.2,2.4-9.5,2.8c-3.3,0.5-6.6,0.6-9.9,0.5c-1.5-0.1-3-0.5-4.5-0.6c-2.5-0.4-5-0.9-7.4-1.7c-2-0.5-3.9-1.6-5.4-3
		c-1.2-1-2.4-2-3.5-3.1c-0.8-0.7-1.4-1.7-1.7-2.7c-0.6-1.8-1.2-3.6-1.9-5.4c-0.4-0.9-1.1-1.7-2-2.2c-0.4-0.2-0.9-0.2-1.4-0.1
		c-1.8,0.3-3.8-0.1-5.3-1.2c-0.1-0.5,0.1-0.9,0.4-1.2c0.4-0.4,0.7-0.8,1.1-1.2c1.1-1.7,3.5-2.2,5.2-1.1c0.2,0.1,0.3,0.3,0.5,0.4
		c0.5-0.3,0.8-0.8,0.7-1.4c-0.7-3.5-0.9-7.1-0.8-10.7c0-1.6,0.1-3.3,0.2-4.9c-0.1-0.5,0.2-1,0.6-1.2c0.2-0.1,0.3-0.3,0.3-0.5
		c0.1-1,0-1.9,0.2-2.9c0-1.1,0.3-2.3,0.9-3.3c0.6-0.8,0.9-1.9,1.6-2.7c1.1-1.5,2.4-2.9,3.8-4c1.4-1.2,2.9-2.2,4.4-3.2
		c1.2-0.7,2.5-1.3,3.8-1.8c0.5-0.2,0.9-0.3,1.4-0.4c1-0.3,1.3-0.6,1.3-1.6c0-0.6,0.3-1.1,0.7-1.5c1.4-1.7,3.4-2.8,5.5-3.2
		c1.7-0.3,3.4-0.2,5,0.2c1.3,0.2,2.2,1.3,2,2.6l0,0c-0.1,1-0.3,2.1-0.5,3.1c-0.2,0.6-0.8,0.9-1.3,1.2c-0.1,0-0.3,0.1-0.4,0.1
		c-2.1,0.2-1.9,0-2-1.5c0-0.5-0.1-1-0.2-1.5c-1.1,0.1-2.1,0-3,0.8c-0.9,0.9-2.1,1.5-2.7,2.7c0.2,0.4,0.8,0.6,0.6,1.2
		c-0.1,0.2,0.3,0.5,0.6,0.7c0.4,0.3,0.7,0.9,0.8,1.4c0,0.4,0.3,0.8,0.6,0.9c0.2,0,0.3,0.1,0.4,0.3c0.3,0.7,0.9,0.8,1.5,0.9
		c0.7,0.1,1.5,0.3,2.2,0.3c1.3,0.1,2.6-0.3,3.6-1.1c1.2-0.6,2.1-1.6,2.6-2.8c0.6-1.2,1-2.4,1.2-3.7c0.1-0.8,0.2-1.6,0.3-2.4
		c0-0.3,0.3-0.6,0.7-0.6c0.7,0,1.5,0,2.2,0.1c3,0.6,6,1.5,8.8,2.8c2,0.9,3.8,2,5.5,3.4c0,0,0.1,0.1,0.2,0.1c1.5,0.8,2.8,2.1,3.6,3.6
		c0.2,0.2,0.3,0.5,0.3,0.8c0.3,2,0.6,4,0.9,6c0.1,0.9,0.2,1.8,0.3,2.7c0.1,0.8,0.1,1.6,0.1,2.3c-0.1,1.7-0.2,3.3-0.3,5
		c0,0.6-0.2,1.1-0.7,1.4L69.3,39.5z M52.1,30.9c-0.4-0.3-0.6-0.6-0.9-0.9c-1-1-2.5-1.5-3.9-1.2c-0.7,0.1-1.3,0.5-1.6,1.2
		c-0.4,0.8-0.8,1.7-1.1,2.6c-0.3,0.8-0.4,1.7-0.2,2.6c0.2,1.1,0.5,2.1,0.9,3.2c0.7,1.8,2.1,3.3,3.9,4.2c0.9,0.5,1.8,0.8,2.8,1.2
		c0.3,0.1,0.5,0.3,0.7,0.4c0.5,0.2,1,0.4,1.5,0.6c0.2,0.1,0.4,0,0.6,0c0.8,0.7,1.5,0.1,2.1-0.3c0.7-0.6,1.4-1.2,2-1.9
		c2.2-2.3,4-5,5.1-8c0.5-1.3,0.8-2.6,0.7-4c0-0.7-0.4-1.3-1-1.7c-0.6-0.4-1.2-0.9-1.7-1.5c-0.9-1-2.3-1.3-3.6-0.9
		c-2,0.5-3.9,1.6-5.3,3.2C52.8,30.2,52.4,30.5,52.1,30.9L52.1,30.9z M44.8,63.7c2.3,0,4.5-0.3,6.7-0.8c2-0.4,3.9-1,5.7-1.8
		c0.7-0.3,1.4-0.9,2.1-1.2c1.5-0.7,2.8-1.7,4-2.9c1-0.9,1.6-2.2,1.6-3.6c0-0.2,0-0.5-0.2-0.6c-0.5-0.4-0.9-1.1-1.6-1.3
		c-1.7-0.7-1.7-0.7-2.6,0.9c-0.6,1.1-1.3,2.1-2.1,3c-1.6,1.5-3.6,2.7-5.7,3.4c-1.4,0.6-2.9,1.1-4.5,1.3c-1.4,0.2-2.8,0.6-4.2,0.6
		c-3.1,0.1-6.1,0.1-9.2,0.1c-1.6,0-3.3-0.1-4.9-0.2c-0.6,0-1.3-0.2-1.9-0.5c-0.7-0.4-1.4-0.9-2.1-1.5c-0.5-0.4-0.8-0.8-1.2-1.3
		c-0.8-1.2-1.8-2.2-3-3.1c-0.2-0.2-0.4-0.3-0.7-0.4c-0.3-0.2-0.8-0.1-0.9,0.3c0,0.1-0.1,0.2-0.1,0.3c-0.5,1.4-0.1,3,0.9,4.1
		c0.3,0.4,0.7,0.8,1.1,1.2c0.8,0.9,1.8,1.6,2.9,2.1c0.4,0.2,0.8,0.4,1.2,0.6c1.6,0.9,3.4,1.4,5.3,1.5c3,0.1,6,0.1,9.1,0.1
		C42.2,63.8,43.7,63.7,44.8,63.7L44.8,63.7z M26.9,48.1c0.2-0.1,0.4-0.3,0.7-0.4c0.5-0.3,1.1-0.6,1.7-0.7c1-0.1,1.6-1.1,2.6-1.2
		c0.1,0,0.2-0.3,0.3-0.5c0.6-0.7,1.1-1.5,1.4-2.3c0.1-0.2,0.2-0.3,0.4-0.4s0.4-0.3,0.4-0.5c0.5-1.2,0.9-2.4,1.4-3.6c0,0,0-0.1,0-0.1
		c0-1.2,0.1-2.5,0.1-3.7c0-1.2-0.6-2.3-1.6-3c-0.4-0.3-0.8-0.7-1.2-1c-1.1-1.1-2.8-1.3-4-0.4c-0.9,0.5-1.6,1.2-2.2,2l-1,1.3
		c-0.5-0.6-1-1.1-1.4-1.6c-0.9-1.1-2.4-1.6-3.8-1.2c-1.2,0.3-2.1,1.3-2.3,2.5c0,0.1-0.1,0.3-0.1,0.4c-0.1,0.3-0.2,0.7-0.4,1
		c-0.9,1.3-1.1,2.9-0.7,4.4c0.2,1.6,1.2,3,2.7,3.8c0.1,0.1,0.2,0.1,0.3,0.2c1.2,1.1,2.6,1.9,4.1,2.5c0.5,0.2,0.9,0.4,1,1
		c0.1,0.2,0.2,0.3,0.3,0.4C26,47.4,26.4,47.7,26.9,48.1L26.9,48.1z"/>
	<path id="Path_454" class="st0" d="M52.1,31c0.4-0.4,0.7-0.7,1-1.1c1.4-1.6,3.2-2.7,5.3-3.2c1.3-0.5,2.7-0.1,3.6,0.9
		c0.5,0.6,1.1,1.1,1.7,1.5c0.6,0.4,0.9,1,1,1.7c0.1,1.4-0.1,2.7-0.7,4c-1.2,3-2.9,5.7-5.1,8c-0.6,0.7-1.3,1.3-2,1.9
		c-0.6,0.4-1.3,0.9-2.1,0.3c-0.1-0.1-0.4,0-0.6,0c-0.5-0.2-1-0.4-1.5-0.6c-0.3-0.1-0.5-0.3-0.7-0.4c-0.9-0.4-1.9-0.7-2.8-1.2
		c-1.8-0.9-3.1-2.4-3.9-4.2c-0.4-1-0.7-2.1-0.9-3.2c-0.2-0.9-0.1-1.8,0.2-2.6c0.4-0.9,0.7-1.7,1.1-2.6c0.3-0.6,0.9-1.1,1.6-1.2
		c1.4-0.3,2.9,0.2,3.9,1.2C51.4,30.3,51.7,30.6,52.1,31z M59.3,29.9c-0.2,0-0.4,0-0.6,0.1c-1.1,0.5-2.3,1.1-2.6,2.4
		c-0.2,0.7-0.3,1.4-0.3,2.1c0,0.3,0,0.6,0,0.9c0,0.5-0.5,0.9-1,0.9c-0.2,0-0.3-0.1-0.4-0.2c-0.7-0.4-1.4-0.7-2.2-1
		c-0.8-0.1-1.3-0.8-1.3-1.5c0-0.5-0.3-0.9-0.8-1c-0.9-0.3-1.8,0.2-2.1,1.1c0,0.1,0,0.2-0.1,0.3c-0.1,0.9,0.1,1.9,0.5,2.7
		c0.8,1.5,2.1,2.7,3.8,3.2c0.4,0.2,0.8,0,1-0.3c1.8-2,3.4-4.1,4.9-6.3c0.5-0.9,1-1.9,1.3-2.9C59.3,30.2,59.3,30.1,59.3,29.9
		L59.3,29.9z"/>
	<path id="Path_455" class="st0" d="M44.8,63.7c-1.2,0.1-2.7,0.2-4.2,0.2c-3,0-6,0-9.1-0.1c-1.9,0-3.7-0.5-5.3-1.5
		c-0.4-0.2-0.8-0.4-1.2-0.6c-1.1-0.5-2.1-1.2-2.9-2.1c-0.4-0.4-0.7-0.8-1.1-1.1c-1-1.1-1.3-2.7-0.9-4.1c0-0.4,0.4-0.7,0.8-0.6
		c0.1,0,0.2,0,0.3,0.1c0.2,0.1,0.5,0.2,0.7,0.4c1.1,0.9,2.1,1.9,3,3.1c0.3,0.5,0.7,0.9,1.2,1.3c0.6,0.6,1.3,1,2.1,1.5
		c0.6,0.3,1.2,0.4,1.9,0.5c1.6,0.1,3.3,0.2,4.9,0.2c3.1,0,6.1,0,9.2-0.1c1.4-0.1,2.8-0.4,4.2-0.6c1.5-0.3,3-0.7,4.5-1.3
		c2.1-0.7,4.1-1.9,5.7-3.4c0.8-0.9,1.5-1.9,2.1-3c0.9-1.5,0.9-1.5,2.6-0.9c0.7,0.3,1.1,0.9,1.6,1.3c0.1,0.2,0.2,0.4,0.2,0.6
		c0,1.4-0.6,2.7-1.6,3.6c-1.2,1.1-2.6,2.1-4,2.9c-0.7,0.3-1.4,0.9-2.1,1.2c-1.8,0.8-3.8,1.5-5.7,1.8C49.3,63.4,47.1,63.6,44.8,63.7z
		"/>
	<path id="Path_456" class="st0" d="M26.9,48.1c-0.5-0.4-0.9-0.7-1.2-1c-0.1-0.1-0.3-0.3-0.3-0.4c-0.1-0.5-0.5-0.7-1-1
		c-1.5-0.6-2.9-1.4-4.1-2.5c-0.1-0.1-0.2-0.2-0.3-0.2c-1.4-0.8-2.4-2.1-2.7-3.8c-0.4-1.5-0.2-3.1,0.7-4.4c0.2-0.3,0.3-0.6,0.4-1
		c0-0.1,0.1-0.2,0.1-0.4c0.2-1.2,1.1-2.2,2.3-2.5c1.4-0.4,2.9,0.1,3.8,1.2c0.4,0.5,0.9,1,1.4,1.6l1-1.3c0.6-0.8,1.3-1.5,2.2-2
		c1.3-0.9,3-0.7,4,0.4c0.4,0.3,0.8,0.7,1.2,1c1,0.7,1.6,1.8,1.6,3c0,1.2-0.1,2.5-0.1,3.7c0,0,0,0.1,0,0.1c-0.5,1.2-0.9,2.4-1.4,3.6
		c-0.1,0.2-0.3,0.3-0.4,0.5s-0.3,0.3-0.4,0.4c-0.3,0.9-0.8,1.6-1.4,2.3c-0.1,0.1-0.2,0.4-0.3,0.5c-1,0.1-1.6,1-2.6,1.2
		c-0.6,0.1-1.2,0.4-1.7,0.7C27.4,47.9,27.1,48,26.9,48.1z M25,37c0.2-1.2-0.6-2.4-1.8-2.7c-0.4-0.1-0.8-0.1-1.2-0.1
		c-0.9-0.1-1.7,0.5-1.8,1.4c0,0.2,0,0.4,0,0.6c0.4,1.4,0.7,2.9,1.1,4.3c0.5,1.3,1.6,2.2,2.9,2.5c0.1,0,0.3,0.1,0.3,0.1
		c0.4,0.6,1,0.5,1.5,0.8c0.4,0.3,0.9,0.2,1.1-0.2c0.7-0.7,1.4-1.3,2-2c0.8-0.6,1.4-1.6,1.5-2.6c0-0.1,0.1-0.2,0.1-0.4
		c0.3-1.1,0.7-2.2,0.9-3.4c0.2-0.8,0.2-1.7-0.1-2.5c-0.2,0-0.4,0.1-0.6,0.2c-1.1,0.6-1.8,1.7-2,3c-0.1,0.7-0.1,1.5,0.1,2.2
		c0.2,0.8-0.2,1.2-0.9,1s-1.4-0.6-2-0.9C25.8,38,25.5,37.4,25,37L25,37z"/>
	<path id="Path_457" class="st2" d="M59.3,29.9c0,0.2,0.1,0.3,0,0.4c-0.4,1-0.8,2-1.3,2.9c-1.5,2.2-3.1,4.3-4.9,6.3
		c-0.2,0.3-0.6,0.5-1,0.3c-1.6-0.5-3-1.7-3.8-3.2c-0.5-0.8-0.6-1.8-0.5-2.7c0.1-0.9,1-1.6,1.9-1.4c0.1,0,0.2,0,0.3,0.1
		c0.4,0.1,0.8,0.6,0.8,1c0,0.8,0.5,1.4,1.3,1.5c0.8,0.2,1.5,0.6,2.2,1c0.4,0.3,1,0.2,1.3-0.3c0.1-0.1,0.1-0.3,0.2-0.4
		c0-0.3,0-0.6,0-0.9c0.1-0.7,0.2-1.4,0.3-2.1c0.4-1.3,1.5-1.9,2.6-2.4C58.9,29.9,59.1,29.9,59.3,29.9z"/>
	<path id="Path_458" class="st2" d="M25,37c0.5,0.5,0.8,1.1,1.4,1.3c0.7,0.3,1.3,0.6,2,0.9s1.1-0.2,0.9-1c-0.2-0.7-0.2-1.5-0.1-2.2
		c0.1-1.3,0.9-2.4,2-3c0.2-0.1,0.4-0.2,0.6-0.2c0.2,0.8,0.2,1.7,0.1,2.5c-0.2,1.1-0.6,2.3-0.9,3.4C31,38.8,31,38.9,30.9,39
		c-0.1,1-0.7,2-1.5,2.6c-0.7,0.7-1.4,1.3-2,2c-0.3,0.4-0.8,0.4-1.1,0.2c-0.5-0.3-1.2-0.2-1.5-0.8c0-0.1-0.2-0.1-0.3-0.1
		c-1.3-0.3-2.4-1.2-2.9-2.5c-0.4-1.4-0.8-2.9-1.1-4.3c-0.2-0.9,0.3-1.7,1.1-1.9c0.2,0,0.4-0.1,0.6,0c0.4,0,0.8,0.1,1.2,0.1
		C24.5,34.5,25.2,35.7,25,37z"/>
</g>
</svg>
