<svg id="圖層_1" data-name="圖層 1" xmlns="http://www.w3.org/2000/svg" viewBox="0 0 87.22611 73.71249"><defs><style>.cls-1{fill:#97a8af;}.cls-2{fill:#fff;}</style></defs><title>baby face 04</title><g id="Group_588" data-name="Group 588"><path id="Path_429" data-name="Path 429" class="cls-1" d="M242.10467,419.15765a8.7602,8.7602,0,0,1,3.6626.5795,27.354,27.354,0,0,0,.59951-3.83494,25.61416,25.61416,0,0,1,.95757-5.965c.84122-3.32932,1.83021-6.6273,2.873-9.90063a7.49735,7.49735,0,0,1,3.86853-4.42789c1.21049-.63317,2.33576-1.42974,3.50829-2.139a14.28742,14.28742,0,0,1,4.81709-1.53932c1.16788-.22376,2.31582-.56606,3.48589-.77861,1.75428-.32,3.51511-.61085,5.2825-.83454a1.36485,1.36485,0,0,0,1.20584-.72043c2.16124-3.97369,5.95384-5.14607,10.03268-5.50407a9.53338,9.53338,0,0,1,4.51284.98673,12.446,12.446,0,0,1,5.3699,3.69851,1.80563,1.80563,0,0,0,1.39157.75847,35.4286,35.4286,0,0,1,3.95348.47879,8.96808,8.96808,0,0,1,5.21558,2.51711,22.63294,22.63294,0,0,0,2.43436,2.215,10.70647,10.70647,0,0,1,2.98033,4.06321,1.37368,1.37368,0,0,0,.20812.35574,30.67,30.67,0,0,1,4.74773,10.12664,5.5947,5.5947,0,0,1,.23488,1.21492c.34223,2.63572.67134,5.27362,1.01794,7.90709a7.31243,7.31243,0,0,1-.31765,4.57108,6.3629,6.3629,0,0,0-.33348,1.56623c.4654.08727.80544.15439,1.14767.22376a11.18641,11.18641,0,0,1,5.03641,1.64673c.03578.02684.08276.04029.12072.06487.84805.51013,2.06073.61528,2.412,1.687a9.90429,9.90429,0,0,1,.85706,5.10586,7.02659,7.02659,0,0,1-2.206,4.00947,32.64974,32.64974,0,0,0-2.44555,2.21954,9.17358,9.17358,0,0,1-4.65623,2.49028,1.262,1.262,0,0,0-.93736.67121,9.55866,9.55866,0,0,0-1.53933,4.21308,3.0071,3.0071,0,0,1-1.441,2.52831,8.0208,8.0208,0,0,0-1.30007,1.21943,19.98681,19.98681,0,0,1-10.16678,4.79484c-1.87719.42512-3.78114.74734-5.625,1.27979a33.86385,33.86385,0,0,1-14.05772.64212c-2.77221-.3692-5.56218-.60408-8.33439-.95983a25.31865,25.31865,0,0,1-7.94737-2.06742c-1.85042-.895-3.79234-1.56623-5.57557-2.64466a17.37724,17.37724,0,0,1-5.64275-5.34969c-1.50573-2.2911-2.75664-4.75-4.119-7.13517a9.23411,9.23411,0,0,1-.48561-.82784,1.65109,1.65109,0,0,0-1.62673-1.01582,7.89193,7.89193,0,0,1-5.34286-2.23743,20.59571,20.59571,0,0,1-3.07648-3.65373,4.86216,4.86216,0,0,1,0-4.86639,3.02588,3.02588,0,0,0,.25073-.77861,8.61584,8.61584,0,0,1,3.759-5.21319A10.03324,10.03324,0,0,0,242.10467,419.15765Zm42.18462-20.60233.98215-.53478a3.38968,3.38968,0,0,0,2.034-2.89074c.0762-1.46108.17453-2.92209.18354-4.38536a2.32208,2.32208,0,0,0-1.26183-1.99135,6.0098,6.0098,0,0,0-5.41907-.44751,2.38722,2.38722,0,0,0-1.99572,2.5574c.06036,1.56623-.39821,2.07636-1.86817,2.47683a12.66531,12.66531,0,0,1-2.56628.27073,35.99169,35.99169,0,0,0-3.82374.19016c-2.01374.34011-4.02749.84355-6.00983,1.33128a15.43448,15.43448,0,0,0-2.87054.91961,3.58034,3.58034,0,0,0-2.03832,2.28892c-.48316,1.649-.989,1.94881-2.65368,1.97339-.37364,0-.91743.0917-1.08731.34011a15.55794,15.55794,0,0,0-2.07192,3.524c-.71586,2.11439-1.11872,4.33612-1.65568,6.51094-.14312.57725-.32229,1.14781-.46978,1.72281-.42061,1.63779-.87918,3.26663-1.23069,4.92238a22.46227,22.46227,0,0,0-.34906,3.00041c-.0538.72043-.02239,1.44763-.02239,2.17257a16.349,16.349,0,0,1,0,1.922c-.09177.75847-.49.97554-1.25965.77636a4.55744,4.55744,0,0,1-2.356-1.32008,2.01371,2.01371,0,0,0-2.71622-.44751,4.72383,4.72383,0,0,0-1.4634,1.39614,10.22,10.22,0,0,0-1.423,5.936,3.37418,3.37418,0,0,0,3.2084,3.35615,7.296,7.296,0,0,0,2.327-.06486c1.922-.45865,3.33812.6936,4.90449,1.38051.15432.06712.22369.36243.30208.56386.46759,1.27979.839,2.58874,1.2083,3.90206a13.5225,13.5225,0,0,0,5.1148,7.13968,22.39513,22.39513,0,0,0,7.831,3.59555c3.22177.85692,6.55116,1.31113,9.82893,1.9712a13.94039,13.94039,0,0,0,5.32292,0,22.6447,22.6447,0,0,1,3.14366-.0962,10.74069,10.74069,0,0,0,2.0427-.16559c2.723-.63993,5.47942-1.19478,8.13965-2.04727a21.71819,21.71819,0,0,0,10.57647-6.07913,1.59221,1.59221,0,0,1,.44738-.32666,6.33079,6.33079,0,0,0,2.53269-2.82363,1.56624,1.56624,0,0,1,1.74963-1.00906,1.5668,1.5668,0,0,0,.67134-.05592,10.21158,10.21158,0,0,0,7.96759-8.8043,4.25278,4.25278,0,0,0-.44738-2.52606,1.54371,1.54371,0,0,0-1.7764-.95983,3.41,3.41,0,0,0-2.51493,1.21943,1.46113,1.46113,0,0,1-1.14549.55936c-1.79005-.34905-2.7408-1.45883-2.327-3.17719a13.46383,13.46383,0,0,0,.425-4.21533,46.60042,46.60042,0,0,0-1.08294-6.21782c-.6443-2.85947-1.73407-5.59359-2.26885-8.50223a28.69686,28.69686,0,0,0-1.81-5.02972,4.26524,4.26524,0,0,0-.69128-1.02251c-1.394-1.76308-2.7744-3.53512-4.20421-5.26918a7.53114,7.53114,0,0,0-6.22013-2.54621c-.12072.78087-.2013,1.414-.31765,2.04277-.49681,2.6491-1.06955,5.25348-4.137,6.18654a.3394.3394,0,0,0-.11635.07381,4.63123,4.63123,0,0,1-2.82575.90616,6.19189,6.19189,0,0,0-1.6087.29313,6.012,6.012,0,0,1-6.9136-1.32677c-1.1433-1.3648-1.53715-2.30455-.36244-3.78571a7.22545,7.22545,0,0,0,.71149-1.17464,8.24755,8.24755,0,0,1,3.39412-3.49934,4.8662,4.8662,0,0,1,3.13246-.801,3.1849,3.1849,0,0,1,.98.58175,5.40888,5.40888,0,0,1-.65112.801c-.83686.71149-1.716,1.37156-2.54853,2.08974a2.35139,2.35139,0,0,0-.41624.67121Z" transform="translate(-236.20914 -384.08863)"/><path id="Path_431" data-name="Path 431" class="cls-2" d="M284.29821,398.55535l-1.875-1.97339a2.3358,2.3358,0,0,1,.41624-.6712c.83-.71825,1.71167-1.37826,2.54853-2.08975a5.434,5.434,0,0,0,.65113-.80326,3.18842,3.18842,0,0,0-.97779-.58175,4.86415,4.86415,0,0,0-3.13246.801,8.24749,8.24749,0,0,0-3.39412,3.49934,7.22915,7.22915,0,0,1-.71149,1.17464c-1.17471,1.48116-.78086,2.42091.36244,3.78571a6.012,6.012,0,0,0,6.9136,1.32677,6.19759,6.19759,0,0,1,1.6087-.29313,4.63118,4.63118,0,0,0,2.82574-.90616.34361.34361,0,0,1,.11636-.07381c3.06746-.933,3.6402-3.53737,4.137-6.18654.11635-.62873.19692-1.2619.31764-2.04277a7.53115,7.53115,0,0,1,6.22014,2.54621c1.42981,1.734,2.81018,3.506,4.20421,5.26918a4.26491,4.26491,0,0,1,.69127,1.02251,28.72049,28.72049,0,0,1,1.81,5.02972c.53478,2.90864,1.62427,5.64057,2.26884,8.50223a46.64382,46.64382,0,0,1,1.08294,6.21782,13.48033,13.48033,0,0,1-.425,4.21533c-.41406,1.72062.53915,2.83039,2.32456,3.17719a1.45889,1.45889,0,0,0,1.14549-.55936,3.41,3.41,0,0,1,2.51493-1.21943,1.54371,1.54371,0,0,1,1.7764.95983,4.25278,4.25278,0,0,1,.44738,2.52606,10.21158,10.21158,0,0,1-7.96759,8.8043,1.56681,1.56681,0,0,1-.67134.05592,1.56624,1.56624,0,0,0-1.74963,1.00906,6.32819,6.32819,0,0,1-2.53269,2.82363,1.58967,1.58967,0,0,0-.44738.32666,21.721,21.721,0,0,1-10.57865,6.08132c-2.65805.85249-5.41469,1.40734-8.13747,2.04727a10.73988,10.73988,0,0,1-2.04051.16558,22.60311,22.60311,0,0,0-3.14367.09621,13.94359,13.94359,0,0,1-5.32292,0c-3.27558-.6712-6.605-1.11872-9.82893-1.97121a22.39723,22.39723,0,0,1-7.831-3.59555,13.52622,13.52622,0,0,1-5.11481-7.13967c-.37144-1.31339-.74071-2.62227-1.2083-3.90206-.07374-.20362-.14776-.49668-.30207-.56387-1.5661-.68465-2.98252-1.83915-4.9045-1.38051a7.29778,7.29778,0,0,1-2.327.06487,3.37418,3.37418,0,0,1-3.20839-3.35615,10.22413,10.22413,0,0,1,1.423-5.93595,4.72454,4.72454,0,0,1,1.4634-1.39615,2.01373,2.01373,0,0,1,2.71622.44752,4.55309,4.55309,0,0,0,2.356,1.32008c.76967.1991,1.16788-.01789,1.25965-.77636a16.34918,16.34918,0,0,0,0-1.922c0-.72494-.03141-1.45206.0224-2.17257a22.46077,22.46077,0,0,1,.34905-3.0004c.35124-1.6535.81009-3.28235,1.2307-4.92239.14776-.57725.32666-1.14555.46977-1.7228.54134-2.17475.93982-4.39655,1.65568-6.511a15.57154,15.57154,0,0,1,2.07193-3.524c.16769-.2506.71367-.33561,1.0873-.34011,1.6647-.02684,2.17025-.32441,2.65368-1.9734a3.58032,3.58032,0,0,1,2.03833-2.28891,15.43275,15.43275,0,0,1,2.87054-.91961c1.99353-.48555,3.98925-.99117,6.00983-1.33128a36.03365,36.03365,0,0,1,3.82592-.19016,12.66033,12.66033,0,0,0,2.56628-.27074c1.46777-.40047,1.92635-.92179,1.86817-2.47683a2.385,2.385,0,0,1,1.99572-2.5574,6.0098,6.0098,0,0,1,5.41907.44752,2.32207,2.32207,0,0,1,1.26183,1.99135c0,1.46108-.10734,2.92434-.18354,4.38535a3.38969,3.38969,0,0,1-2.034,2.89075Zm-7.02776,35.04494c.61753.57725,1.1747,1.04491,1.66906,1.56623a9.32636,9.32636,0,0,0,5.29151,2.71179,20.14917,20.14917,0,0,0,2.44092.41843,50.88476,50.88476,0,0,0,6.992.25728,12.26585,12.26585,0,0,0,6.63857-3.35615,5.21988,5.21988,0,0,0,2.09868-4.25112c0-1.22838,0-2.46119-.094-3.68281a1.64008,1.64008,0,0,0-1.5661-1.6423,3.448,3.448,0,0,0-3.02731,1.74745,38.37458,38.37458,0,0,0-1.46094,4.13477,4.394,4.394,0,0,1-1.80563,2.667,24.58541,24.58541,0,0,1-3.35615,1.85929,3.24024,3.24024,0,0,1-1.86817.24165,26.80166,26.80166,0,0,1-4.35169-1.21943,3.94207,3.94207,0,0,1-1.70949-1.51024,9.76314,9.76314,0,0,1-1.64912-4.89105c-.047-1.065-.48316-1.48791-1.591-1.423-.99336.05818-1.97114.42738-2.9645.46985a2.93543,2.93543,0,0,0-2.37618,1.611,12.59279,12.59279,0,0,1-1.30663,1.7676,9.09763,9.09763,0,0,1-6.54461,3.05633,3.41881,3.41881,0,0,1-3.39876-3.27559,6.79366,6.79366,0,0,0-.99335-2.95568,1.6469,1.6469,0,0,0-.9756-.65106,7.38645,7.38645,0,0,0-1.4634-.15438,13.26661,13.26661,0,0,1-.23489,2.07185,6.78585,6.78585,0,0,0,.51238,3.88868,3.91106,3.91106,0,0,0,2.5529,2.83708,2.09115,2.09115,0,0,1,.44738.31546,5.8172,5.8172,0,0,0,4.1818,1.00462c1.264-.16558,2.5193-.43181,3.76776-.69586a9.52965,9.52965,0,0,0,6.14229-2.91765Zm17.72932-20.4278-.17234-.03577a3.72215,3.72215,0,0,0-.01338-.95765,2.32947,2.32947,0,0,0-1.376-1.875,1.8033,1.8033,0,0,0-1.98015.56387,3.8036,3.8036,0,0,0-.81009,4.853,1.58417,1.58417,0,0,0,1.93918,1.12193l.01175-.00321a2.01371,2.01371,0,0,0,1.79-1.29994,23.17991,23.17991,0,0,0,.61126-2.36724Zm-25.28313-.13424a3.01853,3.01853,0,0,0-.68253-2.30011c-.16552-.19911-.44738-.50344-.61535-.46985a8.61979,8.61979,0,0,0-2.42316.69811,1.9267,1.9267,0,0,0-.85243,1.39389,11.87423,11.87423,0,0,0,.37364,2.7968,1.50589,1.50589,0,0,0,1.72259,1.25213q.05532-.0087.1098-.02157c1.69638-.179,2.37209-1.08513,2.36335-3.3494Z" transform="translate(-236.20914 -384.08863)"/><path id="Path_432" data-name="Path 432" class="cls-1" d="M277.27716,433.598a9.52923,9.52923,0,0,1-6.13492,2.9355c-1.25064.264-2.50373.53027-3.76775.69584a5.81729,5.81729,0,0,1-4.18181-1.0046,2.09925,2.09925,0,0,0-.44738-.31548,3.91112,3.91112,0,0,1-2.55289-2.83706,6.784,6.784,0,0,1-.51457-3.88866,13.23543,13.23543,0,0,0,.23489-2.07187,7.38346,7.38346,0,0,1,1.4634.15438,1.64685,1.64685,0,0,1,.9756.65109,6.786,6.786,0,0,1,.99335,2.95565,3.41877,3.41877,0,0,0,3.39876,3.27337,9.09949,9.09949,0,0,0,6.54461-3.05633,12.571,12.571,0,0,0,1.30663-1.76758,2.93546,2.93546,0,0,1,2.37618-1.611c.99335-.0425,1.97114-.41168,2.96449-.46986,1.10534-.06488,1.54152.35575,1.591,1.423a9.76,9.76,0,0,0,1.64913,4.891,3.94207,3.94207,0,0,0,1.70948,1.51028,26.79893,26.79893,0,0,0,4.3517,1.2194,3.23984,3.23984,0,0,0,1.86817-.24165,24.58767,24.58767,0,0,0,3.35615-1.85931,4.39394,4.39394,0,0,0,1.80344-2.667,38.3806,38.3806,0,0,1,1.46094-4.13478A3.448,3.448,0,0,1,300.753,425.635a1.64,1.64,0,0,1,1.56609,1.64228c.08713,1.22387.08959,2.46118.094,3.68283a5.21994,5.21994,0,0,1-2.09869,4.25113,12.26561,12.26561,0,0,1-6.63857,3.35615,50.89748,50.89748,0,0,1-6.992-.2573,20.1489,20.1489,0,0,1-2.44091-.41839,9.321,9.321,0,0,1-5.29152-2.71177C278.445,434.64515,277.88568,434.16635,277.27716,433.598Z" transform="translate(-236.20914 -384.08863)"/><path id="Path_433" data-name="Path 433" class="cls-1" d="M295,413.17028a23.26128,23.26128,0,0,1-.60852,2.356,2.01367,2.01367,0,0,1-1.79006,1.29993,1.58405,1.58405,0,0,1-1.94765-1.10687l-.00328-.01185a3.80362,3.80362,0,0,1,.81009-4.853,1.80335,1.80335,0,0,1,1.98015-.56383,2.33173,2.33173,0,0,1,1.376,1.875,3.73343,3.73343,0,0,1,.01339.9576Z" transform="translate(-236.20914 -384.08863)"/><path id="Path_434" data-name="Path 434" class="cls-1" d="M269.71253,413.036c0,2.25757-.67134,3.17046-2.36717,3.35615a1.50583,1.50583,0,0,1-1.81081-1.12067c-.00847-.03636-.01584-.073-.02158-.10993a11.88871,11.88871,0,0,1-.37363-2.79679,1.92666,1.92666,0,0,1,.85242-1.39393,8.61726,8.61726,0,0,1,2.42316-.69807c.17016-.03356.44738.26848.61535.46988A3.02012,3.02012,0,0,1,269.71253,413.036Z" transform="translate(-236.20914 -384.08863)"/></g></svg>