<svg id="圖層_1" data-name="圖層 1" xmlns="http://www.w3.org/2000/svg" viewBox="0 0 34.58427 34.58427"><defs><style>.cls-1{fill:#98a9af;}.cls-2{fill:#f7f8f8;}</style></defs><title>num05</title><circle class="cls-1" cx="17.29213" cy="17.29213" r="17.29213"/><path class="cls-2" d="M414.6123,296.52588l1.564-2.16113a5.29116,5.29116,0,0,0,3.74805,1.72461,2.85715,2.85715,0,0,0,3.0122-3.127,2.75407,2.75407,0,0,0-2.874-3.082,4.06908,4.06908,0,0,0-2.55273.89746l-1.54053-1.01172.46-8.25586h9.106v2.82911h-6.18555l-.32227,3.60937a4.41076,4.41076,0,0,1,2.04688-.48242c2.85058,0,5.24219,1.70117,5.24219,5.40332a5.74973,5.74973,0,0,1-5.95508,5.97949A7.75393,7.75393,0,0,1,414.6123,296.52588Z" transform="translate(-402.83074 -272.43007)"/></svg>