<svg id="圖層_1" data-name="圖層 1" xmlns="http://www.w3.org/2000/svg" viewBox="0 0 34.58427 34.58427"><defs><style>.cls-1{fill:#98a9af;}.cls-2{fill:#f7f8f8;}</style></defs><title>num03</title><circle class="cls-1" cx="17.29213" cy="17.29213" r="17.29213"/><path class="cls-2" d="M413.73779,296.48047l1.58692-2.13867a5.40374,5.40374,0,0,0,3.79394,1.748c1.72461,0,2.897-.85058,2.897-2.36816,0-1.67871-.98828-2.71387-4.69042-2.71387v-2.4375c3.12744,0,4.13916-1.08105,4.13916-2.59863a2.033,2.033,0,0,0-2.27637-2.1377,4.85241,4.85241,0,0,0-3.21924,1.51758l-1.7251-2.07031a7.55191,7.55191,0,0,1,5.105-2.0918c3.28809,0,5.51856,1.60938,5.51856,4.5293a4.03108,4.03108,0,0,1-2.85157,3.88672v.11523a4.25142,4.25142,0,0,1,3.40333,4.18457c0,3.127-2.73633,4.94434-5.978,4.94434A7.23245,7.23245,0,0,1,413.73779,296.48047Z" transform="translate(-402.62143 -272.43007)"/></svg>