<svg id="圖層_1" data-name="圖層 1" xmlns="http://www.w3.org/2000/svg" viewBox="0 0 26.7 29.49"><defs><style>.cls-1,.cls-3,.cls-4{fill:#97a8af;}.cls-2,.cls-3,.cls-4{isolation:isolate;}.cls-3,.cls-4{font-size:7px;}.cls-3{font-family:HelveticaNeue-Light, Helvetica Neue;font-weight:300;}.cls-4{font-family:PingFangTC-Light-B5pc-H, PingFang TC;}</style></defs><title>03</title><path id="Path_149" data-name="Path 149" class="cls-1" d="M396.22,296.1a12.85,12.85,0,0,1,4.41.35,1.63,1.63,0,0,1,.31.11,1.07,1.07,0,0,1,.69,1.16.77.77,0,0,0,0,.15.92.92,0,0,1-.5.73,3.86,3.86,0,0,1-1.4.43,10.87,10.87,0,0,1-1.4.12c-1,0-2.05,0-3.08,0H394v.06l.2.09.36.13.1.09s-.07.09-.1.09l-.65.05-.23,0a.72.72,0,0,1-.59-.1.53.53,0,0,0-.4-.15.2.2,0,0,1-.13-.1s0-.11-.07-.14a.34.34,0,0,0-.2-.09s-.08.08-.09.13a2.45,2.45,0,0,0,0,.27.4.4,0,0,1,0,.19.23.23,0,0,1-.17,0,.36.36,0,0,1-.14-.16,1.34,1.34,0,0,1,0-.35c-.33,0-.65,0-1,0a3.75,3.75,0,0,0-.6.12h-.1l-.42-.1a.14.14,0,0,1-.09-.08,1,1,0,0,1,0-.17l-.4,0a24.56,24.56,0,0,1-3.21,0c-.45,0-.9,0-1.35-.06a1.43,1.43,0,0,1-.41-.09,2,2,0,0,0-.8-.14c-.46,0-.92,0-1.38,0-.67,0-1.33-.07-2-.13a9.4,9.4,0,0,0-2.12.11l-.77.14-.14,0h-2c-.05,0-.11,0-.14,0s-.07-.11-.06-.13.15-.23.31-.24l.11,0c.24-.16.48-.32.73-.46a2.57,2.57,0,0,0,.91-.82l.25-.33a.57.57,0,0,1,.44-.18.28.28,0,0,1,.27.15l.26.36a.34.34,0,0,0,.33.15c.41,0,.82-.06,1.22-.13.81-.13,1.62-.29,2.43-.43a4.11,4.11,0,0,1,1.31.06,8.36,8.36,0,0,0,2.06.1c.48-.06.95-.18,1.42-.27a13,13,0,0,0,2.52-.73,1.12,1.12,0,0,0,.56-.42.24.24,0,0,0,0-.24c-.13-.35-.25-.71-.38-1.06a1.19,1.19,0,0,1,0-.7c.15-.6.27-1.2.46-1.78s.38-.9.54-1.35a4.55,4.55,0,0,1,.94-1.53,1.19,1.19,0,0,0,.22-.33,1.49,1.49,0,0,1,.64-.72,1.25,1.25,0,0,0,.32-.33c.09-.11.05-.16-.08-.19l-.62-.12a.52.52,0,0,1-.38-.26.76.76,0,0,0-.08-.11s0,.07,0,.1c0,.34-.27.54-.56.36a1.53,1.53,0,0,1-.83-1.24.33.33,0,0,1,.25-.35.44.44,0,0,0,.31-.42,1.85,1.85,0,0,1,.83-1.61,2,2,0,0,1,1.1-.48,1.08,1.08,0,0,1,1.15.44.28.28,0,0,0,.25.12l.54,0c.15,0,.22,0,.19.2l0,.11c0,.08,0,.14.08.14a.22.22,0,0,1,.22.14s.05,0,.07,0,.13,0,.13.13a.22.22,0,0,0,.1.13.38.38,0,0,1,.19.51.45.45,0,0,1-.1.14,1.76,1.76,0,0,1-.3.24.66.66,0,0,0-.29.64c0,.37,0,.76.06,1.13a3.3,3.3,0,0,0,.15.62.2.2,0,0,0,.09.09,4.26,4.26,0,0,1,.95.74l1.4,1.31a.76.76,0,0,1,.27.84,9.58,9.58,0,0,1-.37,1,.57.57,0,0,0,0,.34,2.45,2.45,0,0,1-.15,1.34.77.77,0,0,1-.07.16,6.56,6.56,0,0,0-.78,1.85,3,3,0,0,1-.15.31A2.33,2.33,0,0,0,396.22,296.1ZM392.39,291l-.06.05c-.43.89-.86,1.77-1.28,2.66a.2.2,0,0,0,0,.15c0,.21.12.41.17.62s.08.17.21.11l.26-.08a2.61,2.61,0,0,1,.32-.06.32.32,0,0,1,.26-.17.5.5,0,0,0,.25-.2,2.18,2.18,0,0,0,.19-1.83c-.08-.27-.12-.55-.19-.83s-.08-.26-.12-.42Z" transform="translate(-374.94 -283.13)"/><g id="_3個姿勢" data-name=" 3個姿勢" class="cls-2"><text class="cls-3" transform="translate(1.29 27.36)">3</text><text class="cls-4" transform="translate(5.18 27.38)">個姿勢</text></g></svg>