<svg id="圖層_1" data-name="圖層 1" xmlns="http://www.w3.org/2000/svg" viewBox="0 0 33.06 28.05"><defs><style>.cls-1,.cls-3,.cls-4{fill:#97a8af;}.cls-2,.cls-3,.cls-4{isolation:isolate;}.cls-3,.cls-4{font-size:7px;}.cls-3{font-family:HelveticaNeue-Light, Helvetica Neue;font-weight:300;}.cls-4{font-family:PingFangTC-Light-B5pc-H, PingFang TC;}</style></defs><title>1ai</title><path id="Path_150" data-name="Path 150" class="cls-1" d="M472,288c.55,0,1.07.42,1.66.13-.13-.23-.53-.33-.33-.72l1,.64a.84.84,0,0,0,.43.14c1-.1,2-.26,3-.35.6,0,1.2,0,1.8,0a.73.73,0,0,0,.74-.71.78.78,0,0,0,0-.26,1.49,1.49,0,0,1,1.2-1.58c.27,0,.52,0,.71-.28a1.55,1.55,0,0,1,.59-.4.68.68,0,0,1,.75.39c0,.16-.07.34-.07.51s-.19.24-.34.3l-.11.06a1.45,1.45,0,0,1,.39,1.28c1.41.31,2.79.66,4.2.89a11.65,11.65,0,0,0,2.21,0,.89.89,0,0,0,.36-.11,2.39,2.39,0,0,1,2.19.14,2.33,2.33,0,0,0,1,.34c1.14,0,2.29,0,3.42-.1a2.1,2.1,0,0,0,1-.38,6.91,6.91,0,0,1,2.2-.9c1.29-.32,2.58-.61,3.88-.87.81-.17.95,0,.82.87-.06.39-.13.78-.2,1.18s-.11.79-.2,1.17-.36.37-.68.31a3,3,0,0,1,0-.67,1.56,1.56,0,0,0-.37-1.22.42.42,0,0,0-.32-.15,1.46,1.46,0,0,0-.55,0,13.89,13.89,0,0,0-3.95,1.62,5.63,5.63,0,0,1-2.44.89c-1.11.15-2.21.34-3.32.5a.32.32,0,0,0-.32.28c-.36,1.49-.74,3-1.1,4.47a2.76,2.76,0,0,0-.08.95,12.5,12.5,0,0,1-.23,4,14.6,14.6,0,0,0-.21,1.6,2.18,2.18,0,0,0,.1.67.38.38,0,0,1-.21.5.2.2,0,0,1-.11,0c-.95,0-1.89.06-2.84.06a.79.79,0,0,1-.41-.17c-.07,0-.17-.15-.15-.21a.39.39,0,0,1,.21-.26c.56-.23,1.16-.39,1.69-.67a.94.94,0,0,0,.4-.7c.09-1.43.13-2.87.19-4.3a.18.18,0,0,0,0-.1,4.38,4.38,0,0,1-.15-2.27c0-.3-.05-.61-.05-.92,0-.81,0-1.63,0-2.44,0-.11,0-.22,0-.41-.7,0-1.37-.07-2-.08-.26,0-.53.05-.79,0a1.43,1.43,0,0,0-1.26.25.68.68,0,0,1-.52.06,1.82,1.82,0,0,1-1.44-1.11c-.08-.22-.2-.3-.47-.2a6.91,6.91,0,0,1-2.84.51c-.6,0-1.2,0-1.8,0a2.31,2.31,0,0,0-1.53.43,1,1,0,0,1-.3.14l0-.08.53-.48-.72,0,0-.12.62-.22-.74-.13v-.11l.71-.08-.61-.4,0-.1,1,.29c0-.27-.12-.45-.33-.45a5.46,5.46,0,0,0-2.9.43c-.2.11-.35.28-.54.41s-.3.18-.45.26l-.07-.1.59-.65,0-.1c-.5,0-1,.44-1.6.14l.77-.32v0h-.9l0-.14,1.41-.28-1-.47Zm10,1,0-.19c-.5-.19-1,.07-1.49.08s-1.06.11-1.58.14-1,0-1.53,0l0,.1a2.31,2.31,0,0,0,.75.34,12.58,12.58,0,0,0,1.62-.1c.33,0,.66-.08,1-.14l1.29-.24Z" transform="translate(-471.51 -284.56)"/><g id="_1個AI練習" data-name=" 1個AI練習" class="cls-2"><text class="cls-3" transform="translate(1.74 25.92)">1</text><text class="cls-4" transform="translate(5.63 25.94)">個</text><text class="cls-3" transform="translate(12.63 25.92)">AI</text><text class="cls-4" transform="translate(18.59 25.94)">練習</text></g></svg>