<svg xmlns="http://www.w3.org/2000/svg" xmlns:xlink="http://www.w3.org/1999/xlink" width="44.585" height="68.257" viewBox="0 0 44.585 68.257">
  <defs>
    <filter id="bookmark" x="0" y="0" width="44.585" height="68.257" filterUnits="userSpaceOnUse">
      <feOffset dy="3" input="SourceAlpha"/>
      <feGaussianBlur stdDeviation="3" result="blur"/>
      <feFlood flood-opacity="0.161"/>
      <feComposite operator="in" in2="blur"/>
      <feComposite in="SourceGraphic"/>
    </filter>
  </defs>
  <g transform="matrix(1, 0, 0, 1, 0, 0)" filter="url(#bookmark)">
    <path id="bookmark-2" data-name="bookmark" d="M49.591,0H29.149c-1.665,0-3.127,1.954-3.127,4.266V47.4a4.371,4.371,0,0,0,.394,1.918,1.467,1.467,0,0,0,1.262.937,2,2,0,0,0,1.448-.871l9.146-11.077a1.408,1.408,0,0,1,2.22,0l9.115,11.074a1.945,1.945,0,0,0,1.414.873c.8,0,1.584-.883,1.584-2.855V4.266C52.607,1.954,51.256,0,49.591,0Z" transform="translate(-17.02 6)" fill="#eeefea"/>
  </g>
</svg>
