<svg xmlns="http://www.w3.org/2000/svg" width="25.551" height="12.804" viewBox="0 0 25.551 12.804">
  <g id="left-arrow" transform="translate(0 114.284) rotate(-90)">
    <g id="Group_601" data-name="Group 601" transform="translate(101.48 0)">
      <path id="Path_459" data-name="Path 459" d="M105.783,12.781l8.154-9.559a1.515,1.515,0,0,0,.348-.988,1.517,1.517,0,0,0-.348-.988l-.714-.837a1.074,1.074,0,0,0-1.686,0l-9.708,11.381a1.589,1.589,0,0,0,0,1.984l9.7,11.37a1.074,1.074,0,0,0,1.686,0l.714-.837a1.575,1.575,0,0,0,0-1.977Z" transform="translate(-101.48 0)" fill="#97a8af"/>
    </g>
  </g>
</svg>
