<svg xmlns="http://www.w3.org/2000/svg" width="32.416" height="32.416" viewBox="0 0 32.416 32.416">
  <g id="Group_637" data-name="Group 637" transform="translate(-165 625.852)">
    <g id="Group_636" data-name="Group 636" transform="translate(-157 -656)">
      <g id="Group_558" data-name="Group 558" transform="translate(322 30.148)">
        <ellipse id="Ellipse_12" data-name="Ellipse 12" cx="16.208" cy="16.208" rx="16.208" ry="16.208" transform="translate(0 0)" fill="#dcd8cf" opacity="0.699"/>
      </g>
      <g id="cancel-music" transform="translate(330.672 38.926)">
        <path id="Path_366" data-name="Path 366" d="M9.466,7.648,14.92,2.194A1.285,1.285,0,1,0,13.1.376L7.648,5.83,2.195.376A1.285,1.285,0,0,0,.377,2.194L5.831,7.648.377,13.1A1.285,1.285,0,0,0,2.195,14.92L7.648,9.466,13.1,14.92A1.285,1.285,0,1,0,14.92,13.1Z" transform="translate(0 0)" fill="#f7f7f7" fill-rule="evenodd"/>
      </g>
    </g>
  </g>
</svg>
