<svg xmlns="http://www.w3.org/2000/svg" width="122.982" height="121.994" viewBox="0 0 122.982 121.994">
  <g id="Group_645" data-name="Group 645" transform="translate(-234.229 276.122)">
    <path id="Path_489" data-name="Path 489" d="M255.709-239.022a18.09,18.09,0,0,1,3.054.5c4.891,1.668,9.9,1.465,14.925,1.05,4.249-.35,8.488-.834,12.74-1.173a25.754,25.754,0,0,1,10.746,1.268c2.984,1.054,5.841,1.1,8.43-.99a23.088,23.088,0,0,1-3.347-.829,22.371,22.371,0,0,1-3-1.794c.467-.234.591-.352.674-.329,3.178.885,6.311.209,9.389-.445a19.941,19.941,0,0,1,13.881,1.873c2.837,1.5,5.547,3.241,8.42,4.661,2.292,1.133,4.743,1.945,7.125,2.894.391.155.894.181,1.16.45a1.622,1.622,0,0,1,.452,1.192,1.145,1.145,0,0,1-.9.657,8.285,8.285,0,0,1-2.986-.334,44.76,44.76,0,0,1-6.718-3.208,56.827,56.827,0,0,0-11.553-5.708,9,9,0,0,0-6.31.149c-2.519.974-4.973,2.127-7.523,3a18.744,18.744,0,0,1-8.913.469,59.364,59.364,0,0,0-12.386-.243c-4.928.3-9.844.919-14.773,1.034a22.453,22.453,0,0,1-12.175-3.381,5.064,5.064,0,0,1-.547-.437Z" transform="translate(-1.113 -1.765)" fill="#97a8af"/>
    <path id="Path_490" data-name="Path 490" d="M236.478-160a6.984,6.984,0,0,1,1.372.389c4.528,2.42,9.433,3.294,14.486,3.662,8.37.61,16.715-.087,25.068-.373.371-.013.739-.071,1.009-.1,0-1.112-.033-2.14.02-3.164a2.967,2.967,0,0,1,.416-.941l.516.271a12.277,12.277,0,0,1,.466,1.333,2.7,2.7,0,0,0,3.117,2.392,55.083,55.083,0,0,1,17.854,1.376,42.925,42.925,0,0,1,4.685,1.536c.355.132.576.62.859.944-.409.2-.845.611-1.223.564-2.594-.322-5.172-.78-7.764-1.123-6.955-.919-13.906-.369-20.867.027-5.522.314-11.059.354-16.59.482a61.213,61.213,0,0,1-12.984-.938,18.188,18.188,0,0,1-10.06-5.463,3.067,3.067,0,0,1-.322-.388C236.494-159.572,236.512-159.667,236.478-160Z" transform="translate(-0.117 -6.022)" fill="#97a8af"/>
    <path id="Path_491" data-name="Path 491" d="M293.019-267.485a5.338,5.338,0,0,0,.542,1.214,17.916,17.916,0,0,0,2.18,2.506c1.171,1.027,2.474,1.9,3.625,2.767.9-2.705-.392-7.313-3.142-9.591-3.182-2.635-6.855-3.921-10.8-2.022-3.9,1.879-5.176,5.608-5.875,9.688,2.884-1.447,5.657-2.749,8.335-4.222a4.7,4.7,0,0,0,2.236-3.521c.06-.339.388-.632.592-.947a4.1,4.1,0,0,1,.391,1.071,5.078,5.078,0,0,1-2.026,4.436,47.039,47.039,0,0,1-4.345,2.786c-1.416.9-2.88,1.735-4.221,2.735a2.933,2.933,0,0,0-1.028,3.294c.329,1.263.682,2.52,1.009,3.784.109.419.173.849.259,1.275l-.318.191a5.388,5.388,0,0,1-.864-.856c-3.2-5.047-3.364-10.337-1.026-15.715,2.63-6.053,7.031-8.385,13.282-7.222a13.183,13.183,0,0,1,10.447,11.726,22.11,22.11,0,0,1-1.315,8.82,19.729,19.729,0,0,1-.814,2.512,6.826,6.826,0,0,1-1.465,1.8,1,1,0,0,1-.991.04,1.094,1.094,0,0,1-.086-1,9.287,9.287,0,0,0,.164-6.777,4.953,4.953,0,0,0-2.549-3.269c-1.969-.987-2.578-2.786-2.714-4.82a2.069,2.069,0,0,1,.194-.665Z" transform="translate(-2.226)" fill="#97a8af"/>
    <path id="Path_492" data-name="Path 492" d="M319.478-155.6a8.787,8.787,0,0,1,.613,2.029c.021.448-.367.918-.572,1.376-.447-.239-.9-.472-1.337-.722-.059-.033-.085-.146-.1-.227-.706-3.175-3-4.65-5.858-5.614-2.5-.845-4.936-1.908-7.441-2.752-2.916-.981-5.653.114-8.393.954-.242.074-.473.267-.705.263a5.986,5.986,0,0,1-1.093-.214c.165-.3.256-.7.506-.868,1.342-.927,2.724-1.8,4.347-2.851l-3.285-1.324a6.648,6.648,0,0,1,1.2-.292,28.258,28.258,0,0,1,10.28,2.33c5.448,2.159,10.883,4.4,16.462,6.159a139.279,139.279,0,0,0,14.97,3.637,63.066,63.066,0,0,0,15.283.62c.851-.042,1.777-.165,2.043.966.234,1-.282,1.482-1.241,1.649a46.5,46.5,0,0,1-13.76.237,87.64,87.64,0,0,1-20.961-5.139A7.442,7.442,0,0,0,319.478-155.6Z" transform="translate(-3.145 -5.745)" fill="#97a8af"/>
    <path id="Path_493" data-name="Path 493" d="M343.575-199.222c1.162-1.9,2.8-1.97,4.715-1.935-1.978-9.208-3.329-18.42-6.425-27.266l.624-.2c.22.367.467.72.656,1.1a61.191,61.191,0,0,1,5.013,15.485,168.778,168.778,0,0,0,8.4,28.6,97.331,97.331,0,0,1,5.986,21.141,52.126,52.126,0,0,1,.271,5.809,1.17,1.17,0,0,1-1.186,1.357c-.813.019-1.168-.542-1.247-1.313-.211-2.056-.408-4.114-.658-6.165a82.792,82.792,0,0,0-4.3-16.626c-2.065-6.066-4.085-12.146-6.115-18.223-.417-1.248-2.072-1.984-3.994-1.775C344.821-199.175,344.31-199.222,343.575-199.222Z" transform="translate(-5.607 -2.474)" fill="#97a8af"/>
    <path id="Path_494" data-name="Path 494" d="M337.48-227.7a31.173,31.173,0,0,1,.59,3.109c.32,3.562-1.037,6.785-2.113,10.068a13.047,13.047,0,0,0-.655,3.192c-.15,2.368.626,3.352,3.147,4.174-.265-1.247-.515-2.422-.764-3.6l.54-.219a14.068,14.068,0,0,1,1.8,3.3,77.79,77.79,0,0,1,1.82,9.793c.678,6.545,1.182,13.1,3.06,19.457a9.951,9.951,0,0,0,2.7,4.488,4.04,4.04,0,0,1,.6,1.359,4.34,4.34,0,0,1-1.546-.021c-2.532-1.039-3.732-3.217-4.44-5.668a78.992,78.992,0,0,1-2.845-20.993,18.31,18.31,0,0,1-.082-2.272c.233-2.069-.919-3.087-2.647-3.731a5.388,5.388,0,0,1-3.828-4.01,10.21,10.21,0,0,1,.868-5.915,42.626,42.626,0,0,0,1.855-4.419c.587-2.223.87-4.525,1.276-6.8.075-.416.115-.839.171-1.259Z" transform="translate(-5.128 -2.522)" fill="#97a8af"/>
    <path id="Path_495" data-name="Path 495" d="M300.865-245.269a32.477,32.477,0,0,1,2.761-2.04,17.233,17.233,0,0,1,14.5-1.887c5.741,1.889,11.646,3.095,17.4,4.86a25.784,25.784,0,0,1,12.793,8.9c1.419,1.793,1.606,3.413.642,4.771a4.95,4.95,0,0,1-1.246.917,9.638,9.638,0,0,0-.32-1.328,6.911,6.911,0,0,0-.809-1.649,26.106,26.106,0,0,0-16.709-10.08,59.119,59.119,0,0,1-11.009-3.274,18.686,18.686,0,0,0-16.383.6c-.446.235-.932.394-1.4.59Z" transform="translate(-3.471 -1.359)" fill="#97a8af"/>
    <path id="Path_496" data-name="Path 496" d="M308.173-191.542a35.156,35.156,0,0,1,4.381,1.138,13.53,13.53,0,0,1,8.519,9.68,1.377,1.377,0,0,0,.74.842c6.483,2.235,12.307,5.716,18.022,9.417a21.064,21.064,0,0,0,7.679,3.158c.423.078.771.558,1.154.853a4.046,4.046,0,0,1-1.374.6,15.656,15.656,0,0,1-7.588-1.7c-3.472-1.821-6.809-3.914-10.338-5.613-4.444-2.139-9-4.044-13.554-5.947a28.541,28.541,0,0,0-4.22-1.017c2.2-1.033,4.25-.682,6.414-.8-1.878-4.909-5.05-8.353-10.07-10.015Z" transform="translate(-3.84 -4.406)" fill="#97a8af"/>
    <path id="Path_497" data-name="Path 497" d="M240.135-163.878a8.994,8.994,0,0,1,1.064-.674,51.928,51.928,0,0,1,26.994-4.751,31.746,31.746,0,0,1,14.241,4.5,9.938,9.938,0,0,1,2.137,1.759,1.526,1.526,0,0,1,.154,1.428,1.486,1.486,0,0,1-1.338.454,22.071,22.071,0,0,1-3.147-1.312,38.094,38.094,0,0,0-20.693-3.64c-5.908.609-11.771,1.664-17.655,2.515-.524.076-1.054.108-1.581.16Z" transform="translate(-0.308 -5.553)" fill="#97a8af"/>
    <path id="Path_498" data-name="Path 498" d="M255.047-242.544a4.136,4.136,0,0,1,1.3-3.251,7.81,7.81,0,0,1,5.668-2.461c4.762-.025,9.534.071,14.284.384,5.176.341,10.33,1,15.5,1.491a12.19,12.19,0,0,0,6.953-1.492,2.311,2.311,0,0,1,.668-.347,3.85,3.85,0,0,1,.921.091c-.083.29-.076.672-.264.858A12.2,12.2,0,0,1,294.178-244a24.348,24.348,0,0,1-8.564.226c-6.159-.718-12.312-1.513-18.484-2.112a48.665,48.665,0,0,0-7.8-.049,4.118,4.118,0,0,0-3.526,2.738,1.959,1.959,0,0,1-.256.427C255.505-242.712,255.4-242.7,255.047-242.544Z" transform="translate(-1.084 -1.451)" fill="#97a8af"/>
    <path id="Path_499" data-name="Path 499" d="M295.193-203.945H284.147a19.411,19.411,0,0,1,11.143-2.609c1.083-5.343,1.687-10.8,5.868-14.73l.361.124a2.195,2.195,0,0,1-.082.68c-2.5,5.25-2.829,10.9-2.993,16.565a32.458,32.458,0,0,0,.111,4.04,6.34,6.34,0,0,0,4.932,5.953c.3.091.767.524.724.649a1.5,1.5,0,0,1-.734.861,5.912,5.912,0,0,1-6.654-2.381c-1.666-2.6-1.822-5.474-1.69-8.42C295.143-203.423,295.166-203.63,295.193-203.945Z" transform="translate(-2.601 -2.857)" fill="#97a8af"/>
    <path id="Path_500" data-name="Path 500" d="M269.775-207.158a35.819,35.819,0,0,1,2.129,4.635c1.436,4.758,2.811,9.542,4.008,14.365a36.84,36.84,0,0,0,11.648,19.3,9.877,9.877,0,0,1,1.691,1.868,1.45,1.45,0,0,1,.107,1.329,1.546,1.546,0,0,1-1.386.424A11.63,11.63,0,0,1,285-167.09a36.5,36.5,0,0,1-11.729-22.426,110.886,110.886,0,0,0-3.8-16.36,9.693,9.693,0,0,1-.2-1.127Z" transform="translate(-1.826 -3.593)" fill="#97a8af"/>
    <path id="Path_501" data-name="Path 501" d="M234.374-164.345a5.4,5.4,0,0,1,.42-3.666c1.482-3.1,4.344-4.418,7.354-5.059a130.5,130.5,0,0,1,14.847-2.356c4.564-.431,9.185-.286,13.782-.335a9.693,9.693,0,0,1,2.6.439c.311.085.529.513.791.785-.289.25-.552.675-.87.721-1.415.209-2.848.313-4.273.45-8.311.8-16.63,1.539-24.93,2.45a11.407,11.407,0,0,0-7.384,3.25A29.791,29.791,0,0,0,234.374-164.345Z" transform="translate(0 -5.228)" fill="#97a8af"/>
    <path id="Path_502" data-name="Path 502" d="M282.131-212.757c.42-.1.587-.2.714-.16,3.673,1.1,6.395-.6,8.757-3.1a15.8,15.8,0,0,0,2.2-3.229c3.584-6.452,9.2-10.278,16.058-12.5.254-.082.586.076.881.121-.217.237-.4.617-.659.689-6.216,1.689-10.144,5.887-12.837,11.517-1.295,2.706-2.722,5.342-5.416,7.006a8.257,8.257,0,0,1-8.865.358A6.167,6.167,0,0,1,282.131-212.757Z" transform="translate(-2.495 -2.311)" fill="#97a8af"/>
    <path id="Path_503" data-name="Path 503" d="M305.351-224.447a33.8,33.8,0,0,1,3.172-2.07,28.843,28.843,0,0,1,10.84-2.751c4.62-.388,9.259-.568,13.892-.775.534-.024,1.414.215,1.563.572.387.926-.624,1-1.171,1.269-3.051,1.491-6.376,1.416-9.65,1.648-4.408.312-8.822.587-13.215,1.053a24.54,24.54,0,0,0-4.343,1.3c-.284.086-.583.122-.875.181Z" transform="translate(-3.705 -2.4)" fill="#97a8af"/>
    <path id="Path_504" data-name="Path 504" d="M270.769-233.218a10.325,10.325,0,0,1-1.406,5.338c-.992,1.858-2.079,3.666-3.083,5.517a8.531,8.531,0,0,0-.739,1.874c-1.2,4.561,1.915,8.013,6.609,7.371a3.476,3.476,0,0,1,1.125.242c-.209.314-.349.726-.637.925a5.8,5.8,0,0,1-6.654.3,7.236,7.236,0,0,1-3.671-6.632c-.038-2.887,1.549-5.1,3.1-7.316,1.3-1.865,2.672-3.684,3.939-5.572a13.8,13.8,0,0,0,.985-2.2Z" transform="translate(-1.463 -2.227)" fill="#97a8af"/>
    <path id="Path_505" data-name="Path 505" d="M281.608-178.341a5.712,5.712,0,0,1,1.062.235,11.79,11.79,0,0,0,14.645-4.947c.918-1.657,1.737-3.369,2.652-5.028.145-.263.564-.373.856-.555.136.278.4.561.387.832-.238,5.587-3.028,12.213-10.656,12.979-3.1.311-6.29.089-8.633-2.555-.163-.184-.293-.4-.439-.6Z" transform="translate(-2.462 -4.558)" fill="#97a8af"/>
    <path id="Path_506" data-name="Path 506" d="M277.964-220.957a7.436,7.436,0,0,1-6.582-4.831c-.072-.246.125-.569.2-.856.252.088.574.107.741.279.35.359.579.833.923,1.2,2.115,2.235,5.373,2.585,8.472.723,3.434-2.062,6.769-4.289,10.157-6.431a13.267,13.267,0,0,1,2.1-1.148,3.117,3.117,0,0,1,1.244.061c-.13.388-.139.933-.409,1.138-2.65,2.02-5.314,4.025-8.033,5.951-2.232,1.582-4.457,3.227-7.267,3.689C278.891-221.081,278.264-221,277.964-220.957Z" transform="translate(-1.935 -2.295)" fill="#97a8af"/>
    <path id="Path_507" data-name="Path 507" d="M282.878-191.3c-.13.151-.393.644-.561.613a1.261,1.261,0,0,1-.878-.651c-.659-2.217-1.249-4.455-1.843-6.691-.552-2.076-1.1-4.154-1.6-6.243-.067-.282.174-.637.274-.958.19.185.482.337.554.559q1.974,6.2,3.9,12.411A8.229,8.229,0,0,1,282.878-191.3Z" transform="translate(-2.28 -3.693)" fill="#97a8af"/>
    <path id="Path_508" data-name="Path 508" d="M321.644-148.94a3.183,3.183,0,0,1-3.922,1.016c-1.7-.71-3.368-1.49-5.035-2.269a.723.723,0,0,1-.381-.549.7.7,0,0,1,.515-.428,7.358,7.358,0,0,1,2.232.028c2.067.542,4.1,1.21,6.143,1.844C321.338-149.254,321.448-149.1,321.644-148.94Z" transform="translate(-4.067 -6.506)" fill="#97a8af"/>
    <path id="Path_509" data-name="Path 509" d="M284.622-186.582c1.117,1.26,2.248,2.507,3.331,3.8a.781.781,0,0,1-.108.74,1.213,1.213,0,0,1-.984.066,7.579,7.579,0,0,1-2.611-4.338Z" transform="translate(-2.606 -4.665)" fill="#97a8af"/>
    <path id="Path_510" data-name="Path 510" d="M280.249-257.85a8.2,8.2,0,0,1,5.472.223C284.346-256.174,282.167-256.228,280.249-257.85Z" transform="translate(-2.397 -0.933)" fill="#97a8af"/>
    <path id="Path_511" data-name="Path 511" d="M291.426-257.56a7.936,7.936,0,0,1,5.418-.331A3.8,3.8,0,0,1,291.426-257.56Z" transform="translate(-2.98 -0.933)" fill="#97a8af"/>
  </g>
</svg>
