<svg xmlns="http://www.w3.org/2000/svg" width="19.378" height="17.914" viewBox="0 0 19.378 17.914">
  <g id="Layer_1_65_" transform="translate(0 0)">
    <g id="Group_89" data-name="Group 89">
      <path id="Path_74" data-name="Path 74" d="M19.339,9.338a.408.408,0,0,0-.369-.235H17.763a8.951,8.951,0,1,0-1.048,6.109.814.814,0,0,0-1.41-.816A7.336,7.336,0,1,1,16.1,9.1H14.9a.407.407,0,0,0-.313.668l2.036,2.443a.407.407,0,0,0,.625,0l2.036-2.443A.407.407,0,0,0,19.339,9.338Z" transform="translate(0 -1.775)" fill="#97a8af"/>
      <path id="Path_75" data-name="Path 75" d="M19.695,6.713a.814.814,0,0,0-.814.814v4.941A1.424,1.424,0,0,0,19.7,15.06a1.407,1.407,0,0,0,.6-.138l2.832,1.635a.806.806,0,0,0,.407.11.814.814,0,0,0,.407-1.519L21.107,13.51a1.418,1.418,0,0,0-.6-1.041V7.527A.816.816,0,0,0,19.695,6.713Zm0,7.532a.61.61,0,1,1,.611-.61A.611.611,0,0,1,19.695,14.245Z" transform="translate(-10.738 -4.677)" fill="#97a8af"/>
    </g>
  </g>
</svg>
