<svg xmlns="http://www.w3.org/2000/svg" width="26.689" height="16.617" viewBox="0 0 26.689 16.617">
  <path id="Path_147" data-name="Path 147" d="M-14.361,20.691a12.931,12.931,0,0,1,4.412.344,2.059,2.059,0,0,1,.316.111,1.083,1.083,0,0,1,.681,1.164c-.005.048-.013.1-.017.145a.885.885,0,0,1-.5.731,3.811,3.811,0,0,1-1.4.435,12.121,12.121,0,0,1-1.394.117c-1.027.027-2.055.032-3.082.042-.413,0-.826,0-1.239,0l-.013.057c.066.029.132.06.2.086.118.045.239.084.355.134.038.017.066.059.1.09-.034.031-.065.086-.1.09-.213.022-.427.031-.641.046-.079.006-.158.018-.237.026a.731.731,0,0,1-.585-.1.516.516,0,0,0-.4-.147c-.043,0-.1-.053-.137-.1s-.027-.114-.063-.144a.419.419,0,0,0-.2-.093c-.024,0-.085.08-.089.128a1.546,1.546,0,0,0,.019.271.419.419,0,0,1,.005.189c-.012.026-.122.035-.167.011a.3.3,0,0,1-.143-.156,1.91,1.91,0,0,1-.037-.351c-.326,0-.646-.016-.964.006a4.572,4.572,0,0,0-.6.128.261.261,0,0,1-.1-.018c-.141-.03-.282-.055-.421-.092a.14.14,0,0,1-.081-.087.56.56,0,0,1,.01-.164c-.137.012-.271.028-.406.036a25,25,0,0,1-3.211,0c-.447-.032-.9-.035-1.343-.062a1.224,1.224,0,0,1-.411-.085,1.966,1.966,0,0,0-.8-.139c-.463,0-.926.013-1.388-.006-.661-.027-1.322-.07-1.982-.123a9.1,9.1,0,0,0-2.124.108c-.257.04-.512.1-.769.143a.827.827,0,0,1-.145.014l-1.987.006c-.048,0-.109.008-.141-.016s-.069-.111-.054-.128c.084-.1.15-.232.31-.24a.244.244,0,0,0,.105-.045c.244-.151.478-.32.732-.452a2.614,2.614,0,0,0,.908-.828c.08-.11.166-.216.252-.321a.565.565,0,0,1,.444-.186.291.291,0,0,1,.267.147c.083.125.174.246.263.367a.346.346,0,0,0,.329.152c.406-.042.814-.069,1.216-.134.811-.132,1.618-.291,2.429-.427a4.3,4.3,0,0,1,1.309.052,8.067,8.067,0,0,0,2.066.1c.477-.057.946-.178,1.419-.265a12.785,12.785,0,0,0,2.517-.734,1.148,1.148,0,0,0,.564-.415.247.247,0,0,0,.034-.244c-.128-.352-.243-.709-.374-1.059a1.157,1.157,0,0,1-.043-.7c.148-.595.274-1.2.456-1.78.145-.462.381-.894.54-1.352a4.642,4.642,0,0,1,.94-1.531,1.1,1.1,0,0,0,.223-.321,1.493,1.493,0,0,1,.645-.727,1.418,1.418,0,0,0,.32-.33c.081-.106.049-.158-.087-.185-.205-.041-.41-.082-.616-.119a.492.492,0,0,1-.379-.265.837.837,0,0,0-.082-.106.686.686,0,0,0-.017.1c.007.342-.275.538-.56.356a1.535,1.535,0,0,1-.833-1.241.315.315,0,0,1,.251-.344.443.443,0,0,0,.307-.423,1.859,1.859,0,0,1,.827-1.615,2.131,2.131,0,0,1,1.1-.479,1.106,1.106,0,0,1,1.158.441.267.267,0,0,0,.246.124c.18-.009.36-.016.539-.033.156-.014.219.046.192.2a.57.57,0,0,1-.033.112c-.033.084-.009.136.082.141a.219.219,0,0,1,.22.136c.007.018.046.033.071.033.088,0,.129.032.133.13a.212.212,0,0,0,.1.128.387.387,0,0,1,.083.648,1.7,1.7,0,0,1-.292.24.652.652,0,0,0-.294.639c.031.378.021.76.057,1.138a3.673,3.673,0,0,0,.15.62.18.18,0,0,0,.089.089,4.445,4.445,0,0,1,.955.74q.693.66,1.4,1.308a.751.751,0,0,1,.267.835,9.494,9.494,0,0,1-.367,1.027.523.523,0,0,0-.04.335,2.543,2.543,0,0,1-.147,1.346.994.994,0,0,1-.076.158,6.579,6.579,0,0,0-.783,1.845,2.7,2.7,0,0,1-.146.316A2.2,2.2,0,0,0-14.361,20.691Zm-3.83-5.109c-.045.037-.055.042-.059.05q-.641,1.327-1.279,2.656a.24.24,0,0,0-.011.152c.054.207.119.411.177.617.031.11.079.173.207.114a1.471,1.471,0,0,1,.262-.086c.1-.024.2-.037.318-.059a.328.328,0,0,1,.261-.172.449.449,0,0,0,.247-.2,2.169,2.169,0,0,0,.193-1.83c-.078-.27-.124-.548-.19-.822C-18.1,15.864-18.144,15.733-18.19,15.582Z" transform="translate(35.633 -7.725)" fill="#97a8af"/>
</svg>
