<svg xmlns="http://www.w3.org/2000/svg" width="33.059" height="18.682" viewBox="0 0 33.059 18.682">
  <path id="Path_148" data-name="Path 148" d="M-226.583-241.365c.553-.042,1.074.414,1.666.126-.136-.227-.529-.333-.328-.721.312.211.624.436.951.637a.763.763,0,0,0,.429.142c.987-.1,1.97-.253,2.958-.343.595-.054,1.2-.009,1.8-.037a.726.726,0,0,0,.7-.963,1.493,1.493,0,0,1,1.2-1.589c.265-.019.523.019.713-.28a1.649,1.649,0,0,1,.587-.4.687.687,0,0,1,.751.393c.025.164-.077.344-.07.515.011.269-.194.238-.345.293a.827.827,0,0,0-.111.066,1.423,1.423,0,0,1,.391,1.279c1.41.307,2.793.661,4.2.891a12.335,12.335,0,0,0,2.212,0,.981.981,0,0,0,.36-.112,2.37,2.37,0,0,1,2.19.141,2.419,2.419,0,0,0,1.025.339c1.14.013,2.283-.022,3.42-.1a2.153,2.153,0,0,0,.98-.384,6.92,6.92,0,0,1,2.2-.894q1.929-.481,3.879-.877c.81-.164.95.039.818.875-.062.392-.13.784-.2,1.176s-.107.791-.2,1.175c-.085.336-.366.37-.684.309a3.214,3.214,0,0,1,.008-.672,1.532,1.532,0,0,0-.361-1.214.478.478,0,0,0-.322-.159,1.511,1.511,0,0,0-.548.034,13.962,13.962,0,0,0-3.953,1.618,5.578,5.578,0,0,1-2.442.893c-1.108.145-2.21.339-3.315.5a.32.32,0,0,0-.322.279c-.36,1.493-.742,2.98-1.1,4.473a2.765,2.765,0,0,0-.084.95,12.681,12.681,0,0,1-.228,4,14.606,14.606,0,0,0-.209,1.6,1.98,1.98,0,0,0,.1.663.387.387,0,0,1-.322.535c-.946.041-1.892.057-2.839.062a.879.879,0,0,1-.411-.168c-.072-.044-.167-.159-.151-.212a.442.442,0,0,1,.208-.267c.563-.227,1.159-.388,1.694-.664a.968.968,0,0,0,.4-.7c.092-1.432.13-2.867.186-4.3a.222.222,0,0,0-.012-.1,4.323,4.323,0,0,1-.154-2.269c.018-.305-.048-.615-.049-.923,0-.813.012-1.626.021-2.439,0-.113.016-.225.03-.413-.7-.029-1.369-.063-2.039-.08-.264-.007-.534.056-.794.027a1.432,1.432,0,0,0-1.256.243.686.686,0,0,1-.526.059,1.8,1.8,0,0,1-1.436-1.108c-.082-.221-.2-.3-.471-.2a7.018,7.018,0,0,1-2.84.516c-.6-.03-1.2,0-1.8-.006a2.308,2.308,0,0,0-1.533.434,1.4,1.4,0,0,1-.294.139l-.056-.077.536-.485-.724.055-.024-.124.629-.216-.746-.135,0-.107.716-.079-.612-.4.036-.1.963.282c.026-.267-.12-.441-.328-.442a5.479,5.479,0,0,0-2.9.422c-.2.113-.356.289-.543.419a5.01,5.01,0,0,1-.451.252l-.065-.092.584-.655-.022-.1c-.5,0-.974.436-1.6.143l.772-.321-.007-.044h-.9l-.023-.133,1.416-.289-1-.462Zm9.99.964-.017-.186c-.5-.191-.993.064-1.488.083-.529.021-1.056.11-1.585.136-.508.024-1.018.005-1.528.005l-.037.1a2.24,2.24,0,0,0,.749.344,12.2,12.2,0,0,0,1.619-.1c.332-.03.663-.078.992-.135C-217.456-240.226-217.025-240.317-216.594-240.4Z" transform="translate(227.027 244.821)" fill="#97a8af"/>
</svg>
