<svg xmlns="http://www.w3.org/2000/svg" width="284.252" height="370.353" viewBox="0 0 284.252 370.353">
  <g id="Group_645" data-name="Group 645" transform="translate(-53.67 -145.463)">
    <path id="Path_471" data-name="Path 471" d="M161,489.025,289.578,796.685,426.347,489.025S295.276,365.22,161,489.025Z" transform="translate(-107.33 -288.537)" fill="#bdf3ff" opacity="0.3"/>
    <rect id="Rectangle_562" data-name="Rectangle 562" width="30.002" height="15.001" rx="3" transform="translate(166.675 500.815)"/>
    <line id="Line_41" data-name="Line 41" x2="0.5" y2="174.176" transform="translate(274.514 317.972)" fill="none" stroke="#ff9898" stroke-miterlimit="10" stroke-width="7"/>
    <path id="Path_481" data-name="Path 481" d="M0,0H16.334" transform="translate(266.847 317.639)" fill="none" stroke="#ff9898" stroke-linecap="round" stroke-width="3"/>
    <line id="Line_43" data-name="Line 43" x2="16.334" transform="translate(267.014 492.648)" fill="none" stroke="#ff9898" stroke-linecap="round" stroke-miterlimit="10" stroke-width="3"/>
    <text id="_2_3m" data-name="2~3m" transform="translate(289.922 420.661)" fill="#ff9898" font-size="17" font-family="SourceHanSansCN-Heavy, Source Han Sans CN" font-weight="800"><tspan x="0" y="0">2~3m</tspan></text>
    <g id="Group_635" data-name="Group 635" transform="translate(-320.417 -677.157)">
      <path id="Path_472" data-name="Path 472" d="M500.507,979.827a5.206,5.206,0,0,1-3.209.594c-3.9-.094-7.793-.238-11.691-.333-2.9-.071-5.8-.1-8.7-.139-3.471-.047-6.751-1.064-10.059-1.955-3.416-.921-4.729-2.1-5.3-6.378-.222-1.662-.308-3.361,1-4.593a9.839,9.839,0,0,1,3.063-1.879,23.544,23.544,0,0,1,7.649-1.329c4.887-.248,9.78-.372,14.671-.549.16-.006.319-.022.532-.036L486,957.506c-1.373.094-2.8.2-4.232.283-.606.034-1.218-.022-1.825.009s-.788-.238-.666-.806c.372-1.728.788-3.449,1.088-5.19a32.833,32.833,0,0,0-1.4-16.512,3,3,0,0,0-.431-.889c-1.481-1.864-1.659-4.037-1.555-6.289a8.064,8.064,0,0,1,4.033-7.08c1.971-1.172,3.857-2.487,5.777-3.745a10.685,10.685,0,0,0,4.615-6.566,36.441,36.441,0,0,0,.442-7.255c.01-.348-.366-.757-.652-1.053-1.208-1.252-2.5-2.428-3.661-3.72a2.146,2.146,0,0,1,.318-3.115c1.018-.725,1.307-1.859,1.971-2.774a2.114,2.114,0,0,1,.876-.783.721.721,0,0,0,.578-.845,4.521,4.521,0,0,1,.019-.912c.072-.51.322-.9.893-.921a26.93,26.93,0,0,1,3.143-.043,1.687,1.687,0,0,0,1.645-.741,5.772,5.772,0,0,1,3.068-2.124,3.849,3.849,0,0,0,1.128-.745,1.921,1.921,0,0,1,2.006-.657c1.242.368,2.523.637,3.723,1.111a1.244,1.244,0,0,0,1.555-.335,11.446,11.446,0,0,1,2.4-1.719,2.7,2.7,0,0,1,3.5.781c.8.915,1.556,1.872,2.3,2.833a106.523,106.523,0,0,1,9.776,15.575,20.85,20.85,0,0,0,2.649,3.688,7.212,7.212,0,0,0,2.063,1.483c1.38.753,2.563,1.6,2.885,3.295a7.611,7.611,0,0,0,.768,1.738,6.675,6.675,0,0,1,.424,5.286,5.3,5.3,0,0,0,.1,2.209c.085.682.3,1.349.38,2.031a2.671,2.671,0,0,1-.1,1.442,1.739,1.739,0,0,0,0,1.537c1.225,3.723,2.317,7.492,3.662,11.17a44.748,44.748,0,0,0,3.143,6.734c2.83,4.969,5.8,9.857,8.74,14.765,1.219,2.038,2.572,4,3.723,6.076,1.272,2.294,2.075,4.792,1.287,7.4a16.047,16.047,0,0,1-2.147,4.25c-.968,1.428-2.626,1.654-4.233,1.678-2.406.036-4.815-.067-7.22,0-2.428.07-4.852.4-7.278.4-4.2-.011-8.408-.065-12.6-.345-3.606-.241-7.19-.808-10.781-1.258a7.41,7.41,0,0,0-4.167.818.858.858,0,0,0-.313.693c.079,1.352-.14,1.693-1.484,1.864a24.2,24.2,0,0,1-3.5.263A7.17,7.17,0,0,1,500.507,979.827ZM540.239,966a28.262,28.262,0,0,1-3.105-7.7c-.766-2.766-1.314-5.593-2.134-8.341-.686-2.3-1.672-4.505-2.444-6.78a5.474,5.474,0,0,0-3.994-4.029,2.937,2.937,0,0,1-.749-.349,2.819,2.819,0,0,1-1.662-2.91,24.355,24.355,0,0,1,1.034-3.712c.294-.914.763-1.776,1.009-2.7.7-2.637.421-5.326.288-8a.918.918,0,0,0-.258-.49q-1.752-1.975-3.523-3.934a5.491,5.491,0,0,1-1.783-3.374,6.424,6.424,0,0,0-1.693-3.962c-.917-1.069-1.9-2.085-2.89-3.086-.965-.975-1.979-1.9-2.917-2.8a20.691,20.691,0,0,1-1.635,1.916c-1.486,1.364-3.024,2.672-4.552,3.989a2.33,2.33,0,0,1-.776.458c-.518.167-.675.481-.772,1.015-.239,1.313-.269,2.739-1.344,3.744a3.306,3.306,0,0,0-1.006,2.841,39.29,39.29,0,0,1-.048,4.3c-.127,2.389-1.669,4.287-2.34,6.494-.172.568-.562,1.066-.776,1.625a8.12,8.12,0,0,0-.462,1.694c-.076.511.176,1.153-.05,1.545-.72,1.248-.441,2.6-.6,3.9-.127,1.058-.158,2.129-.215,3.2-.107,2.014-.192,4.02,1.117,5.772a4.985,4.985,0,0,1,.434,1.065,4.525,4.525,0,0,0,.387.8c.616.9,1.264,1.775,1.88,2.673.165.24.187.629.4.779a24.131,24.131,0,0,0,7.048,3.09,5.77,5.77,0,0,0,.649.132,11.5,11.5,0,0,1,8.764,6.846c.1.21.258.48.448.542a60.286,60.286,0,0,0,5.926,1.832c2.343.508,4.748.72,7.123,1.081C536.759,965.417,538.5,965.714,540.239,966Zm-5.608-49.356.22-.067c-.209-.78-.369-1.577-.642-2.333a19.011,19.011,0,0,1-.983-2.273,3.83,3.83,0,0,0-2.205-2.619A10.893,10.893,0,0,1,529,908.074a16.583,16.583,0,0,1-3.662-4.983,95.049,95.049,0,0,0-11.194-17.2c-1.217-1.474-2.077-1.865-4.123-.363a15.312,15.312,0,0,0-4.665,6.138,152.369,152.369,0,0,0-5.95,15.275,8.332,8.332,0,0,1-2.972,4.068,14.088,14.088,0,0,0-5.189,8.152,3.176,3.176,0,0,0,1.322,3.557,13.574,13.574,0,0,0,7.912,2.559,3.05,3.05,0,0,0,3.1-1.91,10.036,10.036,0,0,0,.928-5.646,3.349,3.349,0,0,1,.945-3.046,3.657,3.657,0,0,0,1.133-2.146c.158-.9.319-1.794.461-2.693a21.288,21.288,0,0,1,.724-4.39c1.162-2.978,2.574-5.861,3.946-8.754.624-1.316.971-1.427,2.116-.457,2.232,1.89,4.412,3.849,6.515,5.882a15.751,15.751,0,0,1,4.011,6.31,20.461,20.461,0,0,0,1.5,3.22,13.227,13.227,0,0,1,1.807,5.031,2.743,2.743,0,0,0,.335,1.187,7.3,7.3,0,0,0,1.057,1.083l.276-.171a9.4,9.4,0,0,0-.006-1.033c-.2-1.757-.452-3.509-.588-5.27a1.1,1.1,0,0,1,1.889-1.069,10.052,10.052,0,0,1,3.635,4.426C534.386,916.1,534.513,916.369,534.632,916.64Zm7.8,29.172c-.14-.3-.248-.552-.376-.794s-.269-.483-.421-.714A31.97,31.97,0,0,1,537.979,936c-1.03-3.348-2.147-6.67-3.275-9.987-.141-.414-.6-.71-.875-1.09a3.514,3.514,0,0,1-.822-1.364,3.038,3.038,0,0,0-.864-2.055c-.389-.385-.333-1.22-.446-1.714l-1.582-.861c-.29,1.03-1.072.842-1.965.6,1.347.92,1.259,2.262,1.235,3.543a41.711,41.711,0,0,1-.3,6.1,24.414,24.414,0,0,1-1.642,4.475c-1.069,2.786-.574,3.937,2.159,5,.077.03.155.057.233.085a4.7,4.7,0,0,1,2.8,2.557q.608,1.36,1.14,2.754c.662,1.744,1.3,3.5,1.971,5.326A15.9,15.9,0,0,1,542.432,945.812Zm-52.389-30.439.267.21q1.954-1.832,3.907-3.666a11.245,11.245,0,0,1,1.555-1.482,7.385,7.385,0,0,0,3-4.224c.919-2.717,1.943-5.4,2.894-8.1a1.129,1.129,0,0,0-.025-.923c-.364-.4-.633-1.076-1.465-.692a1.289,1.289,0,0,1-1.771-.609,1.471,1.471,0,0,1,.284-2.006,5.631,5.631,0,0,0,1.549-3.219,13.251,13.251,0,0,1,.428-2.032,13.118,13.118,0,0,1,.6-1.453l-.213-.164c-1.126.381-2.359.629-3.1,1.677A2.784,2.784,0,0,1,495,890.124a9.386,9.386,0,0,0-1.82-.024c-1.077.027-1.1.036-1.065,1.139a1.332,1.332,0,0,1-1.043,1.551c-.2.051-.364.285-.5.468-.709.943-.962,2.182-2.085,2.876a1.405,1.405,0,0,0-.182,2.188,26.3,26.3,0,0,0,3.156,3.159,3.076,3.076,0,0,1,1.3,2.764c-.061,1.683-.262,3.363-.266,5.045a7.892,7.892,0,0,1-1.291,4.128C490.813,914.067,490.43,914.722,490.044,915.374Zm16.481,62.361a1.577,1.577,0,0,0-.97-1.979,3.435,3.435,0,0,1-2.042-2.685,1.418,1.418,0,0,0-.966-.866,4.56,4.56,0,0,1-3-2.127,1.775,1.775,0,0,0-2.936.1c-.922,1.716-2.38,1.922-4.024,1.655a34.253,34.253,0,0,1-4.694-.987,3.857,3.857,0,0,0-4.048,1.3,6.974,6.974,0,0,0-1.614,6.336c.1.573.35.736.934.741,3.481.032,6.963.106,10.443.183,1.518.034,3.039.185,4.552.126a5.381,5.381,0,0,0,2.15-.673c.5-.257.689-.273,1.063.194a1.909,1.909,0,0,0,1.275.549c.761.043,1.532-.143,2.3-.147C506.521,979.449,506.529,979.465,506.524,977.734Zm-19.737-20.318c.946,1.991,1.809,3.928,2.779,5.81a5.65,5.65,0,0,0,3.769,2.893,6.833,6.833,0,0,0,6.832-2.021c2.095-2.115,3.986-4.434,5.929-6.695.784-.913,1.473-1.908,2.227-2.9-1.479-.854-2.9-1.591-4.227-2.474a1.732,1.732,0,0,0-1.867-.118c-3.444,1.42-6.888,2.843-10.376,4.145C490.314,956.634,488.668,956.923,486.787,957.416Zm30.528-57.3c-.293.278-.537.5-.771.734a1.908,1.908,0,0,0,.068,2.935c1.773,1.742,3.54,3.5,5.216,5.33a6.082,6.082,0,0,1,1.836,3.816c.091,2.445,1.843,3.693,3.486,5.078a34.6,34.6,0,0,0-1.525-4.963c-.8-1.963-1.81-3.841-2.638-5.794C521.752,904.336,519.561,902.219,517.315,900.117Zm14.638,18.673.176-.307c-.039-.186-.072-.373-.118-.556-.182-.723-.393-1.441-.533-2.172-.035-.183.154-.409.241-.615.16.076.445.13.463.231.24,1.348,1.158,2.594.517,4.08a1.343,1.343,0,0,0,.712,1.928c1.415-3.288-.7-8.594-3.873-9.512a19.406,19.406,0,0,0,1.437,6.451C531.093,918.571,531.617,918.636,531.953,918.789Zm2.526,2.678a1.79,1.79,0,0,0-.515,2.342c.105.224.452.335.687.5.1-.257.324-.531.292-.77C534.849,922.864,534.652,922.2,534.479,921.468Z" transform="translate(0 0)" fill="#97a8ae"/>
      <path id="Path_473" data-name="Path 473" d="M594.39,918.309c-.119-.271-.246-.539-.356-.814a10.052,10.052,0,0,0-3.635-4.426,1.1,1.1,0,0,0-1.889,1.069c.135,1.761.392,3.512.588,5.269a9.4,9.4,0,0,1,.006,1.033l-.276.171a7.293,7.293,0,0,1-1.057-1.083,2.742,2.742,0,0,1-.335-1.187,13.225,13.225,0,0,0-1.807-5.031,20.455,20.455,0,0,1-1.5-3.22,15.751,15.751,0,0,0-4.011-6.31c-2.1-2.033-4.282-3.992-6.515-5.882-1.146-.97-1.492-.859-2.116.457-1.372,2.893-2.784,5.776-3.946,8.754a21.29,21.29,0,0,0-.724,4.39c-.142.9-.3,1.8-.461,2.693a3.658,3.658,0,0,1-1.133,2.146,3.349,3.349,0,0,0-.945,3.046,10.036,10.036,0,0,1-.928,5.646,3.05,3.05,0,0,1-3.1,1.91,13.575,13.575,0,0,1-7.912-2.559,3.176,3.176,0,0,1-1.322-3.557,14.088,14.088,0,0,1,5.189-8.152,8.332,8.332,0,0,0,2.972-4.068,152.388,152.388,0,0,1,5.95-15.275,15.311,15.311,0,0,1,4.665-6.138c2.046-1.5,2.906-1.111,4.123.363a95.047,95.047,0,0,1,11.194,17.2,16.582,16.582,0,0,0,3.662,4.983,10.891,10.891,0,0,0,2.019,1.275,3.83,3.83,0,0,1,2.205,2.619,19.016,19.016,0,0,0,.983,2.273c.273.756.432,1.553.642,2.333Z" transform="translate(-59.758 -1.668)" fill="#fff"/>
      <path id="Path_474" data-name="Path 474" d="M674.158,1016.568a15.9,15.9,0,0,0-6.693,3.549c-.674-1.828-1.308-3.583-1.971-5.326q-.53-1.393-1.14-2.754a4.7,4.7,0,0,0-2.8-2.557c-.078-.029-.156-.056-.233-.085-2.733-1.06-3.229-2.21-2.159-5a24.417,24.417,0,0,0,1.642-4.475,41.712,41.712,0,0,0,.3-6.1c.025-1.281.112-2.623-1.235-3.543.893.246,1.675.433,1.965-.6l1.582.861c.113.494.056,1.329.446,1.714a3.038,3.038,0,0,1,.864,2.055,3.514,3.514,0,0,0,.822,1.364c.272.38.734.676.875,1.09,1.128,3.317,2.245,6.639,3.275,9.987a31.967,31.967,0,0,0,3.656,8.307c.152.23.292.47.421.714S674.018,1016.268,674.158,1016.568Z" transform="translate(-131.726 -70.755)" fill="#fff"/>
      <path id="Path_475" data-name="Path 475" d="M543.24,921.94c.387-.652.769-1.306,1.16-1.955a7.891,7.891,0,0,0,1.291-4.128c0-1.682.2-3.362.266-5.045a3.076,3.076,0,0,0-1.3-2.764,26.3,26.3,0,0,1-3.156-3.159,1.405,1.405,0,0,1,.182-2.188c1.123-.694,1.376-1.933,2.085-2.876.138-.183.306-.417.5-.468a1.332,1.332,0,0,0,1.043-1.551c-.03-1.1-.012-1.112,1.065-1.139a9.39,9.39,0,0,1,1.82.024,2.785,2.785,0,0,0,2.951-1.438c.744-1.048,1.977-1.3,3.1-1.677l.213.164a9.86,9.86,0,0,0-1.031,3.485,5.631,5.631,0,0,1-1.549,3.219,1.471,1.471,0,0,0-.284,2.006,1.289,1.289,0,0,0,1.771.609c.831-.383,1.1.293,1.465.692a1.129,1.129,0,0,1,.025.923c-.951,2.706-1.975,5.387-2.894,8.1a7.384,7.384,0,0,1-3,4.224,11.239,11.239,0,0,0-1.555,1.482q-1.948,1.839-3.906,3.666Z" transform="translate(-53.196 -6.566)" fill="#fff"/>
      <path id="Path_476" data-name="Path 476" d="M548.058,1149.895c0,1.731,0,1.714-1.58,1.722-.767,0-1.538.19-2.3.147a1.908,1.908,0,0,1-1.275-.549c-.374-.467-.563-.452-1.063-.194a5.38,5.38,0,0,1-2.15.673c-1.513.059-3.034-.093-4.552-.126-3.481-.077-6.962-.151-10.443-.183-.584-.005-.832-.168-.934-.741a6.973,6.973,0,0,1,1.614-6.335,3.857,3.857,0,0,1,4.048-1.3,34.253,34.253,0,0,0,4.694.987c1.644.267,3.1.061,4.024-1.655a1.775,1.775,0,0,1,2.937-.1,4.56,4.56,0,0,0,3,2.127,1.418,1.418,0,0,1,.966.866,3.435,3.435,0,0,0,2.042,2.685A1.577,1.577,0,0,1,548.058,1149.895Z" transform="translate(-41.533 -172.16)" fill="#fff"/>
      <path id="Path_477" data-name="Path 477" d="M537.81,1094.082c1.881-.493,3.527-.782,5.066-1.357,3.489-1.3,6.933-2.725,10.376-4.145a1.732,1.732,0,0,1,1.867.118c1.326.883,2.748,1.62,4.227,2.474-.755.988-1.443,1.984-2.227,2.9-1.944,2.261-3.834,4.58-5.929,6.695a6.833,6.833,0,0,1-6.832,2.021,5.65,5.65,0,0,1-3.769-2.893C539.619,1098.01,538.756,1096.073,537.81,1094.082Z" transform="translate(-51.023 -136.666)" fill="#fff"/>
      <path id="Path_478" data-name="Path 478" d="M626.862,933.045c2.246,2.1,4.437,4.219,5.672,7.135.828,1.953,1.836,3.831,2.638,5.794a34.587,34.587,0,0,1,1.525,4.963c-1.643-1.386-3.4-2.634-3.486-5.078a6.082,6.082,0,0,0-1.836-3.816c-1.676-1.833-3.443-3.588-5.216-5.33a1.908,1.908,0,0,1-.068-2.935C626.325,933.546,626.569,933.323,626.862,933.045Z" transform="translate(-109.547 -32.928)" fill="#fff"/>
      <path id="Path_479" data-name="Path 479" d="M668.952,975.346c-.336-.153-.86-.219-.978-.473a19.408,19.408,0,0,1-1.437-6.451c3.175.919,5.288,6.224,3.873,9.512a1.342,1.342,0,0,1-.712-1.928c.641-1.485-.277-2.732-.517-4.08-.018-.1-.3-.155-.463-.231-.086.206-.276.432-.241.615.14.731.352,1.448.533,2.172.046.184.079.371.118.556Z" transform="translate(-136.999 -56.557)" fill="#fff"/>
      <path id="Path_480" data-name="Path 480" d="M679.918,997.336c.173.737.37,1.4.464,2.07.033.239-.187.512-.292.769-.236-.163-.582-.274-.687-.5A1.79,1.79,0,0,1,679.918,997.336Z" transform="translate(-145.439 -75.868)" fill="#fff"/>
    </g>
  </g>
</svg>
