<svg xmlns="http://www.w3.org/2000/svg" width="27.585" height="16.443" viewBox="0 0 27.585 16.443">
  <g id="eye" transform="translate(0 -98.725)">
    <path id="Path_341" data-name="Path 341" d="M13.792,98.725c-5.27,0-10.05,2.883-13.577,7.567a1.092,1.092,0,0,0,0,1.3c3.527,4.689,8.306,7.573,13.577,7.573s10.05-2.883,13.577-7.567a1.092,1.092,0,0,0,0-1.3C23.842,101.608,19.063,98.725,13.792,98.725Zm.378,14.011a5.8,5.8,0,1,1,5.411-5.411A5.805,5.805,0,0,1,14.17,112.736ZM14,110.061a3.124,3.124,0,1,1,2.917-2.917A3.119,3.119,0,0,1,14,110.061Z" transform="translate(0)" fill="#707070"/>
  </g>
</svg>
