<svg id="Group_428" data-name="Group 428" xmlns="http://www.w3.org/2000/svg" width="24.163" height="21.119" viewBox="0 0 24.163 21.119">
  <path id="Path_82" data-name="Path 82" d="M432.988,159.4c-2.447,1.639-7.265,2-12.173-2.4a6.34,6.34,0,0,1,5.838-3.784A6.263,6.263,0,0,1,432.988,159.4Z" transform="translate(-408.825 -153.212)" fill="#cde7da"/>
  <path id="Path_83" data-name="Path 83" d="M415.8,157.014c3.647,3.329,8.423,4.684,12.162,2.4a6.276,6.276,0,0,1-1.737,4.351l-10.078,10.467a.37.37,0,0,1-.531,0l-10.081-10.47a6.322,6.322,0,0,1,0-8.7,5.776,5.776,0,0,1,8.383,0L415.786,157Z" transform="translate(-403.803 -153.226)" fill="#94bea8"/>
</svg>
