<svg xmlns="http://www.w3.org/2000/svg" width="33.556" height="33.556" viewBox="0 0 33.556 33.556">
  <g id="Group_448" data-name="Group 448" transform="translate(-263 -703.444)">
    <circle id="Ellipse_9" data-name="Ellipse 9" cx="16.778" cy="16.778" r="16.778" transform="translate(263 703.444)" fill="#dcd8cf" opacity="0.379"/>
    <g id="more" transform="translate(272 696.648)">
      <path id="Path_87" data-name="Path 87" d="M2.176,22a2.176,2.176,0,1,0,2.176,2.176A2.178,2.178,0,0,0,2.176,22Z" fill="#dcd8cf"/>
      <path id="Path_88" data-name="Path 88" d="M46.176,22a2.176,2.176,0,1,0,2.176,2.176A2.178,2.178,0,0,0,46.176,22Z" transform="translate(-32.033)" fill="#dcd8cf"/>
      <path id="Path_89" data-name="Path 89" d="M24.176,22a2.176,2.176,0,1,0,2.176,2.176A2.178,2.178,0,0,0,24.176,22Z" transform="translate(-16.017)" fill="#dcd8cf"/>
    </g>
  </g>
</svg>
