<svg xmlns="http://www.w3.org/2000/svg" width="33.556" height="33.556" viewBox="0 0 33.556 33.556">
  <g id="Group_445" data-name="Group 445" transform="translate(-78 -700.444)">
    <circle id="Ellipse_6" data-name="Ellipse 6" cx="16.778" cy="16.778" r="16.778" transform="translate(78 700.444)" fill="#dcd8cf" opacity="0.379"/>
    <g id="facebook-logo" transform="translate(89.185 707.432)">
      <path id="Path_84" data-name="Path 84" d="M32.844,0,30.16,0A4.713,4.713,0,0,0,25.2,5.093V7.441H22.5a.422.422,0,0,0-.422.422v3.4a.422.422,0,0,0,.422.422h2.7v8.585a.422.422,0,0,0,.422.422h3.52a.422.422,0,0,0,.422-.422V11.687h3.155a.422.422,0,0,0,.422-.422v-3.4a.422.422,0,0,0-.422-.422H29.561V5.45c0-.957.228-1.442,1.474-1.442h1.808a.422.422,0,0,0,.422-.422V.426A.422.422,0,0,0,32.844,0Z" transform="translate(-22.077)" fill="#dcd8cf"/>
    </g>
  </g>
</svg>
