<svg xmlns="http://www.w3.org/2000/svg" width="33.5" height="33.5" viewBox="0 0 33.5 33.5">
  <g id="Group_446" data-name="Group 446" transform="translate(-139 -701.5)">
    <circle id="Ellipse_7" data-name="Ellipse 7" cx="16.75" cy="16.75" r="16.75" transform="translate(139 701.5)" fill="#dcd8cf" opacity="0.379"/>
    <g id="Group_429" data-name="Group 429" transform="translate(145.674 707.852)">
      <path id="Path_56" data-name="Path 56" d="M1473.968,373.389a2.463,2.463,0,0,1,.3-.6,10.3,10.3,0,0,1,4.907-4.3,10.057,10.057,0,0,1,2.442-.682,10.6,10.6,0,0,1,2.927-.019,9.809,9.809,0,0,1,3.019.9,9.967,9.967,0,0,1,2.334,1.578c.106.1.1.148.008.238q-.652.64-1.3,1.286-.719.717-1.433,1.438c-.06.06-.1.08-.174.011a5.445,5.445,0,0,0-3.336-1.448,5.855,5.855,0,0,0-3.939,1.069,6.251,6.251,0,0,0-2.317,3.053.87.87,0,0,1-.047.1,2.429,2.429,0,0,0-.3-.231l-1.307-1.02c-.426-.331-.848-.668-1.28-.991A2.757,2.757,0,0,0,1473.968,373.389Z" transform="translate(-1472.862 -367.694)" fill="#dcd8cf"/>
      <path id="Path_57" data-name="Path 57" d="M1477.379,500.491c.122.27.217.552.351.817a6.275,6.275,0,0,0,2.072,2.379,5.682,5.682,0,0,0,2.544.991,6.449,6.449,0,0,0,3.736-.595c.209-.1.406-.233.609-.35,0,.03,0,.058.033.082q.48.366.955.736l1.566,1.213c.237.184.473.37.709.555a7.67,7.67,0,0,1-1.313,1.013,9.37,9.37,0,0,1-2.766,1.157,11.133,11.133,0,0,1-3.178.307,10.238,10.238,0,0,1-7.073-3.284,10.362,10.362,0,0,1-1.583-2.247c-.022-.042-.058-.082-.05-.136a.256.256,0,0,0,.036-.019c.681-.532,1.355-1.073,2.047-1.591.358-.269.7-.564,1.065-.818A.876.876,0,0,0,1477.379,500.491Z" transform="translate(-1472.879 -488.257)" fill="#dcd8cf"/>
      <path id="Path_58" data-name="Path 58" d="M1580.279,467.91c-.236-.185-.472-.371-.709-.555L1578,466.142q-.477-.369-.955-.736c-.032-.024-.03-.052-.033-.082a5.066,5.066,0,0,0,1.379-1.451,5.008,5.008,0,0,0,.62-1.562c.026-.12,0-.154-.13-.153q-2.606.006-5.213,0c-.195,0-.193,0-.193-.19q0-1.794,0-3.588c0-.195,0-.2.2-.2q4.651,0,9.3,0c.127,0,.171.042.19.163a12.675,12.675,0,0,1,.159,2.371,11.527,11.527,0,0,1-.554,3.266,9.409,9.409,0,0,1-1.654,3.048A6.325,6.325,0,0,1,1580.279,467.91Z" transform="translate(-1563.206 -449.848)" fill="#dcd8cf"/>
      <path id="Path_59" data-name="Path 59" d="M1466.463,436.05a.877.877,0,0,1-.244.21c-.369.254-.706.55-1.065.818-.692.518-1.365,1.06-2.047,1.591a.252.252,0,0,1-.036.019,4.783,4.783,0,0,1-.385-.831,10.319,10.319,0,0,1-.709-4.275,10.552,10.552,0,0,1,.927-3.779,1.127,1.127,0,0,1,.166-.292,2.753,2.753,0,0,1,.511.372c.432.323.854.659,1.28.991l1.307,1.02a2.434,2.434,0,0,1,.3.231c-.069.288-.149.573-.2.864a5.91,5.91,0,0,0-.082,1.611A8.636,8.636,0,0,0,1466.463,436.05Z" transform="translate(-1461.964 -423.816)" fill="#dcd8cf"/>
    </g>
  </g>
</svg>
