<svg xmlns="http://www.w3.org/2000/svg" width="32.904" height="32.904" viewBox="0 0 32.904 32.904">
  <g id="Group_447" data-name="Group 447" transform="translate(-201 -703.096)">
    <circle id="Ellipse_8" data-name="Ellipse 8" cx="16.452" cy="16.452" r="16.452" transform="translate(201 703.096)" fill="#dcd8cf" opacity="0.379"/>
    <g id="wechat" transform="translate(206.85 710.002)">
      <g id="Group_431" data-name="Group 431" transform="translate(0 0)">
        <g id="Group_430" data-name="Group 430">
          <path id="Path_85" data-name="Path 85" d="M8.635,32C3.866,32,0,35.222,0,39.2a6.812,6.812,0,0,0,3.3,5.639L2.159,47.111l3.1-1.328a9.8,9.8,0,0,0,2.094.521A6.026,6.026,0,0,1,7.2,44.953c0-3.968,3.873-7.2,8.635-7.2a10.446,10.446,0,0,1,1.282.088C16.353,34.517,12.849,32,8.635,32ZM5.757,37.4a1.079,1.079,0,1,1,1.079-1.079A1.08,1.08,0,0,1,5.757,37.4Zm5.757,0a1.079,1.079,0,1,1,1.079-1.079A1.08,1.08,0,0,1,11.513,37.4Z" transform="translate(0 -32)" fill="#dcd8cf"/>
        </g>
      </g>
      <g id="Group_433" data-name="Group 433" transform="translate(8.635 7.196)">
        <g id="Group_432" data-name="Group 432">
          <path id="Path_86" data-name="Path 86" d="M206.392,197.757c0-3.179-3.222-5.757-7.2-5.757s-7.2,2.578-7.2,5.757,3.222,5.757,7.2,5.757a8.793,8.793,0,0,0,1.878-.223l3.879,1.662-1.341-2.681A5.424,5.424,0,0,0,206.392,197.757Zm-9.355-.36a1.079,1.079,0,1,1,1.079-1.079A1.08,1.08,0,0,1,197.037,197.4Zm4.318,0a1.079,1.079,0,1,1,1.079-1.079A1.08,1.08,0,0,1,201.355,197.4Z" transform="translate(-192 -192)" fill="#dcd8cf"/>
        </g>
      </g>
    </g>
  </g>
</svg>
