<svg xmlns="http://www.w3.org/2000/svg" width="46.062" height="46.062" viewBox="0 0 46.062 46.062">
  <g id="Group_547" data-name="Group 547" transform="translate(-139 -701.5)">
    <circle id="Ellipse_7" data-name="Ellipse 7" cx="23.031" cy="23.031" r="23.031" transform="translate(139 701.5)" fill="#9baeb2" opacity="0.379"/>
    <g id="Group_429" data-name="Group 429" transform="translate(148.177 710.233)">
      <path id="Path_56" data-name="Path 56" d="M1473.968,375.525a3.384,3.384,0,0,1,.415-.823,14.167,14.167,0,0,1,6.747-5.916,13.832,13.832,0,0,1,3.357-.938,14.578,14.578,0,0,1,4.024-.026,13.489,13.489,0,0,1,4.151,1.232,13.706,13.706,0,0,1,3.21,2.17c.145.131.136.2.011.327q-.9.88-1.784,1.768-.988.985-1.97,1.977c-.082.083-.136.11-.239.015a7.487,7.487,0,0,0-4.587-1.99,8.05,8.05,0,0,0-5.416,1.47,8.594,8.594,0,0,0-3.186,4.2,1.211,1.211,0,0,1-.065.131,3.344,3.344,0,0,0-.407-.317q-.9-.7-1.8-1.4c-.585-.456-1.166-.918-1.76-1.362A3.789,3.789,0,0,0,1473.968,375.525Z" transform="translate(-1472.447 -367.694)" fill="#9baeb2"/>
      <path id="Path_57" data-name="Path 57" d="M1478.651,500.491c.168.372.3.759.482,1.124a8.629,8.629,0,0,0,2.849,3.271,7.811,7.811,0,0,0,3.5,1.362,8.867,8.867,0,0,0,5.136-.818c.288-.142.558-.32.837-.481,0,.042,0,.079.045.113.44.335.876.674,1.313,1.012q1.077.833,2.153,1.668c.326.253.65.509.974.764a10.542,10.542,0,0,1-1.806,1.393,12.885,12.885,0,0,1-3.8,1.591,15.307,15.307,0,0,1-4.37.423,14.078,14.078,0,0,1-9.726-4.516,14.25,14.25,0,0,1-2.177-3.09c-.031-.058-.08-.113-.069-.187a.35.35,0,0,0,.049-.026c.937-.731,1.863-1.476,2.814-2.188.493-.369.956-.776,1.464-1.125A1.207,1.207,0,0,0,1478.651,500.491Z" transform="translate(-1472.464 -483.67)" fill="#9baeb2"/>
      <path id="Path_58" data-name="Path 58" d="M1582.83,471.557c-.325-.255-.649-.51-.975-.764q-1.076-.835-2.153-1.668-.656-.507-1.313-1.012c-.044-.033-.041-.071-.045-.113a6.966,6.966,0,0,0,1.9-1.994,6.887,6.887,0,0,0,.852-2.147c.036-.165,0-.211-.178-.211q-3.584.008-7.167,0c-.268,0-.266,0-.266-.262q0-2.467,0-4.933c0-.268,0-.269.269-.269q6.395,0,12.79,0c.175,0,.236.058.261.224a17.422,17.422,0,0,1,.219,3.26,15.847,15.847,0,0,1-.762,4.49,12.93,12.93,0,0,1-2.274,4.191A8.7,8.7,0,0,1,1582.83,471.557Z" transform="translate(-1559.353 -446.722)" fill="#9baeb2"/>
      <path id="Path_59" data-name="Path 59" d="M1468.151,438.5a1.206,1.206,0,0,1-.335.288c-.508.35-.971.756-1.464,1.125-.951.712-1.877,1.457-2.814,2.188a.343.343,0,0,1-.049.026,6.6,6.6,0,0,1-.53-1.143,14.191,14.191,0,0,1-.976-5.877,14.514,14.514,0,0,1,1.274-5.2,1.557,1.557,0,0,1,.228-.4,3.782,3.782,0,0,1,.7.511c.594.444,1.175.907,1.76,1.362s1.2.936,1.8,1.4a3.352,3.352,0,0,1,.407.317c-.094.4-.2.789-.281,1.188a8.131,8.131,0,0,0-.112,2.215A11.879,11.879,0,0,0,1468.151,438.5Z" transform="translate(-1461.963 -421.681)" fill="#9baeb2"/>
    </g>
  </g>
</svg>
