<svg xmlns="http://www.w3.org/2000/svg" width="46.88" height="46.88" viewBox="0 0 46.88 46.88">
  <g id="Group_546" data-name="Group 546" transform="translate(-78 -700.444)">
    <circle id="Ellipse_6" data-name="Ellipse 6" cx="23.44" cy="23.44" r="23.44" transform="translate(78 700.444)" fill="#97a8af" opacity="0.379"/>
    <g id="facebook-logo" transform="translate(93.627 710.207)">
      <path id="Path_84" data-name="Path 84" d="M37.119.006,33.37,0c-4.212,0-6.934,2.793-6.934,7.115V10.4h-3.77a.59.59,0,0,0-.59.59v4.753a.59.59,0,0,0,.59.59h3.77V28.322a.589.589,0,0,0,.59.59h4.918a.59.59,0,0,0,.59-.59V16.328h4.408a.589.589,0,0,0,.59-.59l0-4.753a.59.59,0,0,0-.59-.59H32.533V7.615c0-1.337.319-2.015,2.06-2.015h2.526a.589.589,0,0,0,.589-.59V.6A.59.59,0,0,0,37.119.006Z" transform="translate(-22.077)" fill="#97a8af"/>
    </g>
  </g>
</svg>
