<svg xmlns="http://www.w3.org/2000/svg" width="26.362" height="18.83" viewBox="0 0 26.362 18.83">
  <g id="close-envelope" transform="translate(0 -2)">
    <g id="Group_552" data-name="Group 552" transform="translate(0 2)">
      <path id="Path_367" data-name="Path 367" d="M12.9,10.339,9.641,7.484.316,15.477a1.909,1.909,0,0,0,1.3.51h22.57a1.9,1.9,0,0,0,1.3-.51L16.163,7.484Z" transform="translate(0.279 2.842)" fill="#f7f7f7"/>
      <path id="Path_368" data-name="Path 368" d="M25.486,2.51a1.9,1.9,0,0,0-1.3-.51H1.615a1.889,1.889,0,0,0-1.3.514L12.9,13.3Z" transform="translate(0.281 -2)" fill="#f7f7f7"/>
      <path id="Path_369" data-name="Path 369" d="M0,2.878V18.522l9.1-7.734Z" transform="translate(0 -1.225)" fill="#f7f7f7"/>
      <path id="Path_370" data-name="Path 370" d="M9.167,10.791l9.1,7.734V2.875Z" transform="translate(8.095 -1.227)" fill="#f7f7f7"/>
    </g>
  </g>
</svg>
