<svg xmlns="http://www.w3.org/2000/svg" width="25.442" height="30.531" viewBox="0 0 25.442 30.531">
  <g id="notification" transform="translate(-42.675)">
    <g id="Group_554" data-name="Group 554" transform="translate(42.675)">
      <g id="Group_553" data-name="Group 553">
        <path id="Path_371" data-name="Path 371" d="M68.027,25.752l-2.184-3.641A10.815,10.815,0,0,1,64.3,16.547V13.357a8.916,8.916,0,0,0-6.361-8.53V2.544a2.544,2.544,0,0,0-5.089,0V4.828a8.916,8.916,0,0,0-6.361,8.53v3.189A10.821,10.821,0,0,1,44.95,22.11l-2.184,3.641a.637.637,0,0,0,.544.964h24.17a.636.636,0,0,0,.546-.963Z" transform="translate(-42.675)" fill="#ff9898"/>
      </g>
    </g>
    <g id="Group_556" data-name="Group 556" transform="translate(51.39 27.987)">
      <g id="Group_555" data-name="Group 555">
        <path id="Path_372" data-name="Path 372" d="M188.815,469.333a4.426,4.426,0,0,0,8.012,0Z" transform="translate(-188.815 -469.333)" fill="#ff9898"/>
      </g>
    </g>
  </g>
</svg>
