<svg xmlns="http://www.w3.org/2000/svg" width="36.604" height="36.604" viewBox="0 0 36.604 36.604">
  <g id="Group_540" data-name="Group 540" transform="translate(-171 -547)">
    <g id="Group_534" data-name="Group 534" transform="translate(-30 -156.096)">
      <circle id="Ellipse_8" data-name="Ellipse 8" cx="18.302" cy="18.302" r="18.302" transform="translate(201 703.096)" fill="#97a8af" opacity="0.379"/>
    </g>
    <g id="twitter" transform="translate(177 508.656)">
      <g id="Group_535" data-name="Group 535" transform="translate(0 48)">
        <path id="Path_357" data-name="Path 357" d="M25.039,50.408a10.7,10.7,0,0,1-2.958.811,5.1,5.1,0,0,0,2.258-2.837,10.258,10.258,0,0,1-3.255,1.243,5.133,5.133,0,0,0-8.879,3.51,5.286,5.286,0,0,0,.119,1.171A14.53,14.53,0,0,1,1.743,48.936,5.135,5.135,0,0,0,3.321,55.8,5.069,5.069,0,0,1,1,55.164v.056a5.157,5.157,0,0,0,4.113,5.044,5.123,5.123,0,0,1-1.346.169,4.539,4.539,0,0,1-.972-.088,5.182,5.182,0,0,0,4.8,3.576,10.314,10.314,0,0,1-6.365,2.189A9.616,9.616,0,0,1,0,66.041a14.451,14.451,0,0,0,7.875,2.3,14.51,14.51,0,0,0,14.61-14.607c0-.227-.008-.446-.019-.664A10.241,10.241,0,0,0,25.039,50.408Z" transform="translate(0 -48)" fill="#97a8af"/>
      </g>
    </g>
  </g>
</svg>
