<svg xmlns="http://www.w3.org/2000/svg" width="36.16" height="36.16" viewBox="0 0 36.16 36.16">
  <g id="Group_532" data-name="Group 532" transform="translate(-78 -700.444)">
    <circle id="Ellipse_6" data-name="Ellipse 6" cx="18.08" cy="18.08" r="18.08" transform="translate(78 700.444)" fill="#97a8af" opacity="0.379"/>
    <g id="facebook-logo" transform="translate(90.053 707.975)">
      <path id="Path_84" data-name="Path 84" d="M33.68,0,30.788,0c-3.249,0-5.348,2.154-5.348,5.488v2.53H22.532a.455.455,0,0,0-.455.455V12.14a.455.455,0,0,0,.455.455h2.908v9.251a.455.455,0,0,0,.455.455h3.794a.455.455,0,0,0,.455-.455V12.594h3.4A.455.455,0,0,0,34,12.14V8.473a.455.455,0,0,0-.455-.455h-3.4V5.873c0-1.031.246-1.554,1.589-1.554h1.948a.455.455,0,0,0,.454-.455V.459A.455.455,0,0,0,33.68,0Z" transform="translate(-22.077)" fill="#97a8af"/>
    </g>
  </g>
</svg>
