<svg xmlns="http://www.w3.org/2000/svg" width="108.21" height="116.408" viewBox="0 0 108.21 116.408">
  <g id="Group_530" data-name="Group 530" transform="translate(-947.302 -514.695)">
    <path id="Path_295" data-name="Path 295" d="M998.826,538.168l1.338,2.887c1.138-2.119,2.413-3.873,3.045-5.834a8.792,8.792,0,0,0-1.017-6.684c-1.034-2.013-3.049-2.591-5.131-2.851-2.536-.317-5.1-.544-7.311-1.984-1.082-.7-2.1-1.51-3.125-2.294a4.2,4.2,0,0,1-.589-.764c.315-.025.445-.078.523-.036a25.852,25.852,0,0,0,10.533,2.639,9.676,9.676,0,0,1,6.243,2.432l.267-.2a30.664,30.664,0,0,0-1.835-3.04c-3.139-4.1-9.637-6.34-14.221-4.979a10.812,10.812,0,0,0-7.905,11.745,2.735,2.735,0,0,1-.136,1.189,6.835,6.835,0,0,1-1.157-5.857c.893-3.885,3.415-6.465,6.895-8.161,6.419-3.129,14.681-1.97,19.426,4.213a14.393,14.393,0,0,1-.421,18.144,26.477,26.477,0,0,1-3.731,2.953c1.92,3.161,4.588,5.61,8.632,6.059a8.531,8.531,0,0,1,7.6,5.566c2.028,4.89,4.388,9.643,5.725,14.8a33.322,33.322,0,0,1,1.249,10.479c-.049.779.078,1.988-.951,1.975-1.094-.015-.678-1.239-.681-1.915-.03-6.019-1.9-11.592-4.154-17.049-1.2-2.893-2.645-5.683-4.042-8.489a4.274,4.274,0,0,0-3.292-2.216,31.566,31.566,0,0,1-5.385-1.132c-3.941-1.5-6.516-4.3-7.053-8.63a16.3,16.3,0,0,1,.131-2.851Z" fill="#8699a0"/>
    <path id="Path_296" data-name="Path 296" d="M970.782,621.657l4.4-1.547c-.911-.607-1.73-1.208-2.6-1.718a2.478,2.478,0,0,0-2.684.075c-1.1.677-2.159,1.425-3.282,2.061a7.842,7.842,0,0,1-5.876,1.057c-3.687-.907-6.743-.064-9,3.121-.054.077-.178.106-.61.346.546-.953.867-1.648,1.308-2.257,2.576-3.563,3.971-4.666,8.583-3.936,2.4.38,4.451-.6,6.405-1.812.159-.1.174-.726.028-.975-1.764-3.024-1.919-6.339-1.713-9.686.244-3.971,1.752-7.617,3.135-11.285.065-.172.209-.313.548-.447a6.131,6.131,0,0,1-.009,1.126,54.307,54.307,0,0,0-1.135,11.454,19.517,19.517,0,0,0,1.462,7.332c.219.514.858,1.171,1.337,1.2a6.181,6.181,0,0,1,4.663,2.613,2.111,2.111,0,0,0,2.674.852q13.888-4.407,27.833-8.637c2.753-.839,5.509-.916,7.982.911a1.277,1.277,0,0,1,.492,1.034,1.142,1.142,0,0,1-.967.554c-5.492-.829-10.3,1.483-15.222,3.261a95.1,95.1,0,0,1-19.827,5.342c-2.29.3-4.609.385-6.917.548a4.888,4.888,0,0,1-.959-.121Z" fill="#8699a0"/>
    <path id="Path_297" data-name="Path 297" d="M954.62,628.524a4.2,4.2,0,0,1,.884-.529,19.884,19.884,0,0,1,8.369-.85,130.35,130.35,0,0,0,23.523.7c5.044-.266,10.068-1.014,15.081-1.69a38.193,38.193,0,0,0,16.074-5.99,39.023,39.023,0,0,0,4.913-4.347c.885-.829,1.641-1.8,2.521-2.634.258-.245.744-.249,1.126-.364.124.412.453.9.333,1.223a14.073,14.073,0,0,1-1.53,3.266,25.133,25.133,0,0,1-9.1,7.476c-5.563,2.959-11.595,4.261-17.777,5.045a143.31,143.31,0,0,1-21.5,1.237,91.389,91.389,0,0,1-12.14-1.42c-3.082-.49-6.236-.529-9.359-.759-.421-.03-.845,0-1.268,0Z" fill="#8699a0"/>
    <path id="Path_298" data-name="Path 298" d="M970.264,604.1c2.481-9.9,8.166-17.6,16.617-23.6-3.443-.468-6.688.351-9.948.747l-.1-.48c.62-.284,1.23-.592,1.861-.848a18.751,18.751,0,0,1,14.737-.135,43.112,43.112,0,0,0,21.243,2.783,8.608,8.608,0,0,1,2-.032,3.293,3.293,0,0,1,1.044.576c-.23.318-.4.842-.7.922a34.509,34.509,0,0,1-6.814,1.631,32.759,32.759,0,0,1-16.465-3.12c-1.194-.579-2.485-.956-3.719-1.456a1.493,1.493,0,0,0-1.852.5c-5.6,6.061-10.966,12.3-15.225,19.412-.692,1.156-1.469,2.261-2.207,3.39Z" fill="#8699a0"/>
    <path id="Path_299" data-name="Path 299" d="M1009.656,601.825l-6.066-5.756c-.209.947-.388,1.846-.607,2.735a27.284,27.284,0,0,1-6.16,12.256c-.106.116-.2.273-.327.334a6.769,6.769,0,0,1-.8.271c0-.308-.115-.665,0-.915.823-1.733,1.731-3.426,2.54-5.166a37.79,37.79,0,0,0,3.272-12.442,2.931,2.931,0,0,0-.282-1.229c-.4-1.062-.884-2.1-1.238-3.172-.089-.271.182-.66.287-1,.281.148.688.223.825.456,3.4,5.8,8.81,9.584,13.774,13.813a3.075,3.075,0,0,0,1.291.486,25.535,25.535,0,0,1,8.866,3.621,7.9,7.9,0,0,1,1.912,2.016,1.415,1.415,0,0,1-.075,1.352,2.014,2.014,0,0,1-1.41.476,2.581,2.581,0,0,1-1.289-.528c-4.56-3.1-9.775-4.319-15.072-5.31-1.849-.346-3.708-.643-5.554-1-.285-.055-.527-.332-.789-.506a3.042,3.042,0,0,1,.867-.37C1005.574,602.089,1007.527,601.97,1009.656,601.825Z" fill="#8699a0"/>
    <path id="Path_300" data-name="Path 300" d="M1005.706,560.968c.242.318.513.618.723.956,1.671,2.7,3.307,5.428,5.019,8.1a2.987,2.987,0,0,0,1.336.955c1.293.553,2.625,1.015,3.937,1.526a1.2,1.2,0,0,1,.6.36c.386.665,1.134,1.5.968,2.024-.321,1.013-1.428.5-2.036.208-5.29-2.538-10.852-1.959-16.42-1.64-3.561.2-7.138.1-10.7.31a51.155,51.155,0,0,0-8.84.987c-1.865.442-3.535,1.78-5.239,2.8-1.51.908-2.941,1.946-4.421,2.906a4.537,4.537,0,0,1-.863.342l-.193-.323,6.8-5.315c-1.348-3.708-1.012-9.889.828-12.172.374,3.609.72,6.944,1.085,10.461,1.005-.573,1.8-1.039,2.608-1.486a6.707,6.707,0,0,1,5.8-.5c3.643,1.426,7.286,1.171,11.008.6,3.523-.542,7.065-.955,10.6-1.43a3.673,3.673,0,0,0,.515-.156c-1.388-3.074-3.091-5.977-3.551-9.313Z" fill="#8699a0"/>
    <path id="Path_301" data-name="Path 301" d="M1017.893,585.464c.206.339.414.678.617,1.019,3.141,5.3,6.1,10.716,9.468,15.867,4.394,6.721,10.54,11.562,17.636,15.242q3.7,1.922,7.329,3.994c.393.224.582.807.864,1.224-.518.12-1.138.487-1.538.321-2.926-1.21-5.9-2.357-8.688-3.841-12.065-6.421-19.975-16.466-24.875-29.041a46.788,46.788,0,0,1-1.286-4.594Z" fill="#8699a0"/>
    <path id="Path_302" data-name="Path 302" d="M988.525,567.245c-6.211-.283-9.97-4.552-10.772-10.467a16.107,16.107,0,0,1-.033-3.043c.019-.337.334-.657.514-.984a3,3,0,0,1,.48.941,12.634,12.634,0,0,0,2.567,6.466,9.515,9.515,0,0,0,12.979,2.4c3.234-2.071,6.379-4.288,9.664-6.274a45.363,45.363,0,0,1,5.623-2.618c.3-.129.75.1,1.131.162-.232.281-.409.653-.7.828-2.456,1.461-5.049,2.722-7.376,4.363-2.716,1.917-5.182,4.185-7.8,6.245A9.258,9.258,0,0,1,988.525,567.245Z" fill="#8699a0"/>
    <path id="Path_303" data-name="Path 303" d="M967.927,585.457a7.039,7.039,0,0,1-.112,1.347c-1.826,6.525-3.6,13.064-5.548,19.554a56.139,56.139,0,0,1-2.956,7.668,7.762,7.762,0,0,1-6.745,4.614c-1.536.142-3.039.622-4.564.916-.215.041-.466-.109-.7-.17.073-.2.093-.519.229-.581a20.928,20.928,0,0,1,2.893-1.166,14.062,14.062,0,0,1,2.45-.276,3.944,3.944,0,0,0,3.63-2.729c1.53-4.32,2.955-8.68,4.56-12.973,1.918-5.134,3.977-10.215,5.984-15.317a10.563,10.563,0,0,1,.5-.975Z" fill="#8699a0"/>
    <path id="Path_304" data-name="Path 304" d="M988.543,545.53a2.46,2.46,0,0,1-.2,2.72,4.891,4.891,0,0,1-3.635,2.14,11.409,11.409,0,0,1-3.051.1c-3.768-.524-6.142,1.988-7.226,4.924a72.971,72.971,0,0,0-3.782,15.99,4.842,4.842,0,0,1-.176,1.042,3.521,3.521,0,0,1-.517.747c-.132-.291-.4-.59-.377-.871a34.02,34.02,0,0,1,.518-5.621,133.174,133.174,0,0,1,3.54-12.9c1.417-4.076,3.964-6.213,9.369-5.484a5.287,5.287,0,0,0,4.328-1.039A8.663,8.663,0,0,0,988.543,545.53Z" fill="#8699a0"/>
    <path id="Path_305" data-name="Path 305" d="M1049.505,627.276a53.117,53.117,0,0,1-5.876-1.073,18.037,18.037,0,0,0-10.2.127,4.571,4.571,0,0,1-1.848.15c-2.9-.416-4.309-2.449-3.841-5.374.182-1.141.241-2.3.377-3.449.021-.17.17-.465.242-.46.192.014.495.119.543.26.338.992.637,2,.916,3.01a3.794,3.794,0,0,1,.036.822c.118,2.38.865,3.064,3.24,2.866,1.014-.085,2.016-.3,3.026-.435,2.761-.371,5.348.546,8,1.028a47.937,47.937,0,0,0,6.977.8,14.862,14.862,0,0,0,3.587-.82,4.051,4.051,0,0,1,.826-.023c-.124.248-.183.586-.382.728A9.6,9.6,0,0,1,1049.505,627.276Z" fill="#8699a0"/>
    <path id="Path_306" data-name="Path 306" d="M996.722,531.776l.651-.928a15.182,15.182,0,0,0-2.273-.168,8.48,8.48,0,0,1-7.073-2.813,15.065,15.065,0,0,0-5.788-3.93c-.134-.049-.237-.185-.339-.549a8.828,8.828,0,0,1,1.239.008,10.583,10.583,0,0,1,5.568,2.355,13.854,13.854,0,0,0,6.765,3.023,13.977,13.977,0,0,1,4.123,1.546,3.063,3.063,0,0,1,1.442,3.465,4.075,4.075,0,0,1-2.823,3.191,2.194,2.194,0,0,1-1.146.01c-.679-.166-.683-.587-.2-1,.294-.25.7-.366.992-.621a4.917,4.917,0,0,0,1.329-1.417,2.053,2.053,0,0,0-.006-1.721c-.266-.379-1.049-.413-1.616-.551A3.059,3.059,0,0,0,996.722,531.776Z" fill="#8699a0"/>
    <path id="Path_307" data-name="Path 307" d="M981.8,544.49c1.6.749,2.9-.088,4.224-.708,3.137-1.467,6.185-3.063,8.554-5.7.228-.253.732-.256,1.108-.375a3.187,3.187,0,0,1-.1,1.142,9.48,9.48,0,0,1-4.47,4.035,63.653,63.653,0,0,1-6.511,2.642A2.283,2.283,0,0,1,981.8,544.49Z" fill="#8699a0"/>
    <path id="Path_308" data-name="Path 308" d="M996.822,541.266c0,1.437.081,2.669-.019,3.886a40.668,40.668,0,0,1-.71,5.583,7.9,7.9,0,0,1-1.527,2.526c-.106.148-.593.151-.819.043a.779.779,0,0,1-.222-.7c.9-3.676,1.834-7.346,2.766-11.015C996.3,541.542,996.413,541.514,996.822,541.266Z" fill="#8699a0"/>
    <path id="Path_309" data-name="Path 309" d="M980.787,552.316a9.669,9.669,0,0,1,1.178-.081c3.779.327,7.6.378,11.174,1.945a4.45,4.45,0,0,0,1.371.094c.254.019.682.01.723.124a1.123,1.123,0,0,1-.062.852,1.628,1.628,0,0,1-2.065.886,5.141,5.141,0,0,1-1.737-.927,8.33,8.33,0,0,0-5.284-1.963c-1.522-.13-3.039-.327-4.556-.512C981.373,552.715,981.233,552.573,980.787,552.316Z" fill="#8699a0"/>
    <path id="Path_310" data-name="Path 310" d="M998.7,553.866c1.11-.3,2.208-.642,3.33-.876,1.488-.309,2.992-.549,4.5-.767.214-.032.47.225.707.349-.149.146-.28.391-.449.422-2.569.469-5.142.912-7.717,1.349-.084.014-.19-.1-.286-.151Z" fill="#8699a0"/>
    <path id="Path_311" data-name="Path 311" d="M987.84,531.129c-1.192,1.6-4.967,1.406-5.8-.291Z" fill="#8699a0"/>
    <path id="Path_312" data-name="Path 312" d="M980.4,532.968l-.5,3.132,1.22.936-.2.454-2.529-.8,1.533-3.818Z" fill="#8699a0"/>
    <path id="Path_313" data-name="Path 313" d="M980.82,539.228c.924-.065,1.732-.143,2.54-.164a.723.723,0,0,1,.527.3c.062.1-.052.372-.163.5A1.813,1.813,0,0,1,980.82,539.228Z" fill="#8699a0"/>
    <path id="Path_314" data-name="Path 314" d="M976.187,530.392c1.342.121,2.391.207,3.436.324.1.011.27.295.245.327-.15.193-.324.458-.531.5A2.924,2.924,0,0,1,976.187,530.392Z" fill="#8699a0"/>
  </g>
</svg>
