<svg id="圖層_1" data-name="圖層 1" xmlns="http://www.w3.org/2000/svg" viewBox="0 0 48 66.17251"><defs><style>.cls-1{fill:#fff;}.cls-2{fill:#8699a0;}.cls-3,.cls-4{isolation:isolate;}.cls-4{font-size:12px;fill:#ecede8;font-family:PingFangTC-Medium-B5pc-H, PingFang TC;}</style></defs><title>正面</title><g id="Group_561" data-name="Group 561"><path id="Path_373" data-name="Path 373" class="cls-1" d="M325.88288,278.87477l-2.333.163-2.234,2.342,4.1,3.526,1.654,1.677,11.718-.209-.521-7.5" transform="translate(-307.94531 -243.1484)"/><path id="Path_374" data-name="Path 374" class="cls-2" d="M327.07287,286.57979h-1.146l-6.6-.069h-.975a4.5051,4.5051,0,0,1-4.006-2.8,2.416,2.416,0,0,1,.938-3.14905,6.98879,6.98879,0,0,0,.635-.468l-1.294.34094c-.4.106-.707-.1-.624-.473.1-.468-.2-.5-.487-.54395a.566.566,0,0,1-.529-.4.60609.60609,0,0,1,.32611-.79261l.01889-.00744a3.399,3.399,0,0,1,.491-.125c.076-.4.143-.817.235-1.228a2.79327,2.79327,0,0,1,.98-1.6.7348.7348,0,0,1,.638-.092c.149.067.24.34705.281.548s-.111.48706-.017.593a3.4041,3.4041,0,0,0,.789.55506,5.71319,5.71319,0,0,0,.541.257,11.53584,11.53584,0,0,0,2.531-2.981,12.04861,12.04861,0,0,1,2.3-2.981,1.4657,1.4657,0,0,0,.418-.717c.232-1.28894.418-2.58606.619-3.881a10.91005,10.91005,0,0,0,.2-3.317,10.07427,10.07427,0,0,1,.252-3.786c.359-1.578,1.551-2.16894,2.935-2.538a3.81332,3.81332,0,0,1,1-.13794,4.19978,4.19978,0,0,0,2.6-1.245,2.031,2.031,0,0,0,.731-2.04,2.06716,2.06716,0,0,0-.135-.458c-.071-.186-.179-.36-.236-.54895a3.25831,3.25831,0,0,0-.651-1.288,3.645,3.645,0,0,1-.713-2.095.547.547,0,0,1,.326-.615c.077-.03406.116-.209.127-.323a19.28329,19.28329,0,0,1,.221-2.26,2.964,2.964,0,0,1,1.866-2.192,11.65,11.65,0,0,1,1.12-.50806,1.9772,1.9772,0,0,1,.947-.015,11.821,11.821,0,0,1,1.492.483,3.75218,3.75218,0,0,1,2.075,2.15295,8.93933,8.93933,0,0,1,.406,1.2,1.52194,1.52194,0,0,1-.051,1.228,3.1743,3.1743,0,0,1,.254.916,2.70011,2.70011,0,0,1-.966,2.18c-.062.045-.066.173-.092.264a13.63556,13.63556,0,0,1-.445,1.542,1.83,1.83,0,0,0,.057,1.552,3.774,3.774,0,0,0,3.314,1.95,3.739,3.739,0,0,1,3.96286,3.50086q.00714.11553.00714.2312c.013,1.337-.069,2.677-.006,4.011.08,1.69494.251,3.385.408,5.07605a2.41,2.41,0,0,0,.687,1.37805c.6.68,1.128,1.427,1.686,2.147.681.878,1.358,1.759,2.047,2.63a2.7106,2.7106,0,0,0,.44.4.5.5,0,0,0,.622.03894,1.60656,1.60656,0,0,1,.586-.235,2.08412,2.08412,0,0,0,1.438-.853,3.14083,3.14083,0,0,1,.544-.51294.6651.6651,0,0,1,1.073.119,2.956,2.956,0,0,1,.438,3c-.1.253-.256.488-.355.743a2.3462,2.3462,0,0,1-2.325.976,2.71813,2.71813,0,0,0-1.067-.234c.12.092.241.182.36.275a2.258,2.258,0,0,1,.746,2.895,5.27,5.27,0,0,1-2.965,2.87805,20.54207,20.54207,0,0,1-5.476,1.485,26.70159,26.70159,0,0,1-3.176-.111c-1.973-.062-3.946-.11-5.947-.16394.719-.111,1.415-.231,2.114-.325a6.24362,6.24362,0,0,0,2.306-1.031c.2-.12.219-.269-.045-.406a.64779.64779,0,0,1-.326-.4,7.61216,7.61216,0,0,1,.079-3.739.511.511,0,0,0-.008-.415c-.053-.069-.267-.045-.4-.016a30.66537,30.66537,0,0,1-5.249.542,14.13425,14.13425,0,0,1-1.5,0,1.51068,1.51068,0,0,1-.6-.235c-.346-.2-.664-.447-1.021-.61695a1.21566,1.21566,0,0,0-.722-.123,2.77667,2.77667,0,0,1-2.256-.7c.48-.182.429-.446.2-.764-.046-.06495,0-.209.029-.308a6.694,6.694,0,0,0,.365-1.192,1.16,1.16,0,0,1,.779-1.135c-.051-.166-.1-.317-.143-.47-.076-.283-.047-.521.272-.641.172-.064.2-.167.191-.371a1.011,1.011,0,0,1,.25-.6.984.984,0,0,0,.07-1.327c-.078-.108-.045-.3-.057-.453a10.85652,10.85652,0,0,0-.086-1.149c-.194-1.055-.421-2.1-.645-3.21-.051.46-.093.88-.146,1.3-.141,1.115-.268,2.23205-.437,3.343a4.1799,4.1799,0,0,1-1.208,2.319,26.89055,26.89055,0,0,1-5.891,4.777c-.032.01795-.064.03406-.081.043h4.2c-.311.573-.6,1.139-.922,1.687a.55606.55606,0,0,0,.276.855,2.0549,2.0549,0,0,0,.844.043,3.23713,3.23713,0,0,1,1.836.183c.66.3,1.312.611,1.976.9.226.1.252.229.2.43994-.2.8-.412,1.594-.587,2.4a8.41649,8.41649,0,0,0-.1,1.042Zm-11.5-11.1-.127-.068a5.334,5.334,0,0,0-.466.428,3.57221,3.57221,0,0,0-.733,2.161c-.03.374-.134.541-.535.516-.124-.00806-.259.16394-.389.254a2.8375,2.8375,0,0,0,.335.264,2.9783,2.9783,0,0,1,.7.394c.1.1.01.385.009.58606,0,.01794.029.036.089.1l1.69-.6c.147-.052.293-.10706.439-.161l.158.462c.284-.16394.555-.35.85-.483.576-.261,1.2-.43994,1.744-.74694a25.49964,25.49964,0,0,0,5.706-4.644,3.81792,3.81792,0,0,0,1.1-2.085c.155-.96106.269-1.928.407-2.892.178-1.248.4-2.491.536-3.744a11.24388,11.24388,0,0,1,1.3-4.382,10.31958,10.31958,0,0,0,.907-4.2c-.131.055-.213.08105-.286.12194a2.95319,2.95319,0,0,1-1.417.4,5.03027,5.03027,0,0,0-2.455.71106,2.155,2.155,0,0,0-1.036,1.266,8.62138,8.62138,0,0,0-.388,4.024,10.63608,10.63608,0,0,1-.179,3.277c-.2,1.345-.413,2.688-.628,4.03a1.744,1.744,0,0,1-.606,1.042,8.36282,8.36282,0,0,0-1.929,2.373,12.20748,12.20748,0,0,1-2.708,3.36695c-.271.251-.532.5-.848.054-.03-.043-.115-.042-.166-.075a7.59334,7.59334,0,0,1-.957-.642.9221.9221,0,0,1-.168-.55395,2.94571,2.94571,0,0,1,.057-.5575Zm22.692-18.607c.313.858.572,1.774.973,2.624a11.621,11.621,0,0,1,1.092,6.447,14.363,14.363,0,0,0-.073,1.974c.016.748.081,1.5.148,2.243a7.41128,7.41128,0,0,0,.2,1.254,6.169,6.169,0,0,0,2.564,3.406c1.393.993,2.846,1.9,4.27,2.85a6.66911,6.66911,0,0,0,2.531.979,8.11137,8.11137,0,0,1,.988.20605,1.93112,1.93112,0,0,0,1.95-.51294,2.851,2.851,0,0,0,.314-3.14c-.331-.64905-.592-.713-1.07-.172a3.12473,3.12473,0,0,1-2.02,1.23.59452.59452,0,0,0-.174.067c-.727.337-.959.327-1.5-.27905-.642-.714-1.256-1.458-1.829-2.229a22.91409,22.91409,0,0,0-2.306-2.993,1.78022,1.78022,0,0,1-.47-.995c-.2-1.584-.4-3.173-.479-4.767-.075-1.5.014-3,0-4.5a3.4,3.4,0,0,0-3.25-3.532c-.6-.04418-1.199-.1051-1.855-.16308Zm-8.783-8.014a4.57885,4.57885,0,0,0,.691,2.2c.032.05.1.121.137.116.305-.033.3.17895.33.381a2.609,2.609,0,0,0,1.058,1.9,7.08278,7.08278,0,0,1,.938.8,1.24085,1.24085,0,0,0,1.317.287,2.22176,2.22176,0,0,0,.691-.278,5.96667,5.96667,0,0,0,1.361-1.189,4.67549,4.67549,0,0,0,.466-1.525c.066-.264-.074-.632.412-.63306.071,0,.167-.151.207-.249a10.9966,10.9966,0,0,0,.415-1.156,2.5,2.5,0,0,0,.009-.639l-.088-.02905-.607.708a3.52633,3.52633,0,0,1,0-.60706,1.335,1.335,0,0,0-.867-1.592c-.493-.241-1-.462-1.468-.74194a4.12685,4.12685,0,0,0-2.243-.59.99992.99992,0,0,0-.895.407,3.95117,3.95117,0,0,0-1.012,1.755c-.05.408-.053.822-.081,1.233-.007.1-.029.2-.047.317-.427-.16687-.107-.82385-.72-.87683Zm1.757,4.689a2.455,2.455,0,0,1-.941,2.365.4401.4401,0,0,0-.156.306,9.71041,9.71041,0,0,0,.633,3.4,2.37911,2.37911,0,0,0,1.126,1.349,4.93608,4.93608,0,0,0,4.733-.2,1.6778,1.6778,0,0,0,.754-1.078,6.10014,6.10014,0,0,0,.039-2.6,1.943,1.943,0,0,0-.684-1.344,2.73914,2.73914,0,0,1-.9-1.85706c-.258.2-.471.368-.693.525a2.15008,2.15008,0,0,1-3.03885-.10229q-.026-.028-.05115-.05676c-.241-.22193-.495-.434-.818-.71Zm10.215,24.835c.208.23706.393.453.585.662.052.057.125.13.191.132.447.015.894.025,1.341.00806a.55977.55977,0,0,0,.356-.17005,2.15814,2.15814,0,0,1,1.362-.723c.757-.09094,1.523-.1,2.215-.141-.018-.012-.131-.08105-.242-.155-1.554-1.041-3.146-2.033-4.651-3.141a5.92486,5.92486,0,0,1-2.491-3.87c-.1-.59094-.1-1.2-.144-1.795a6.81694,6.81694,0,0,0,.181,3.428c.216.53894.294,1.131.467,1.689.12.38794.3.759.448,1.136a4.02343,4.02343,0,0,1,.411,1.057,16.49681,16.49681,0,0,1-.026,1.88025Z" transform="translate(-307.94531 -243.1484)"/><path id="Path_375" data-name="Path 375" class="cls-2" d="M327.0719,286.5828a6.12031,6.12031,0,0,1,.692-.1c1.42-.043,2.841-.07605,4.262-.11a.64075.64075,0,0,1,.334.074c-.748.043-1.5.09094-2.244.126q-1.28852.06006-2.578.1a2.13328,2.13328,0,0,1-.465-.092Z" transform="translate(-307.94531 -243.1484)"/><path id="Path_376" data-name="Path 376" class="cls-1" d="M315.57687,275.4778a2.95092,2.95092,0,0,0-.043.559.92226.92226,0,0,0,.168.554,7.59579,7.59579,0,0,0,.957.642c.051.033.136.032.166.075.315.444.577.2.848-.053a12.20861,12.20861,0,0,0,2.708-3.36695,8.361,8.361,0,0,1,1.929-2.373,1.74474,1.74474,0,0,0,.606-1.042c.214-1.343.427-2.686.628-4.03a10.63608,10.63608,0,0,0,.179-3.277,8.62124,8.62124,0,0,1,.388-4.024,2.155,2.155,0,0,1,1.036-1.266,5.0288,5.0288,0,0,1,2.455-.71106,2.95474,2.95474,0,0,0,1.417-.4c.074-.041.155-.067.286-.122a10.31959,10.31959,0,0,1-.907,4.2,11.24372,11.24372,0,0,0-1.3,4.38195c-.14,1.252-.358,2.5-.536,3.744-.138.964-.251,1.931-.407,2.892a3.81923,3.81923,0,0,1-1.1,2.085,25.49932,25.49932,0,0,1-5.706,4.644c-.549.307-1.168.486-1.744.748-.295.134-.566.32-.85.483l-.158-.462c-.146.05395-.292.109-.439.161l-1.69.6c-.06-.069-.089-.087-.089-.1,0-.2.09-.48206-.009-.58606a2.97788,2.97788,0,0,0-.7-.394,2.86765,2.86765,0,0,1-.335-.264c.13-.09.265-.262.389-.254.4.025.5-.142.535-.516a3.5722,3.5722,0,0,1,.733-2.161,5.29943,5.29943,0,0,1,.466-.428Z" transform="translate(-307.94531 -243.1484)"/><path id="Path_377" data-name="Path 377" class="cls-1" d="M338.26889,256.86972c.656.058,1.255.115,1.855.163a3.4,3.4,0,0,1,3.25,3.532c.009,1.5-.079,3,0,4.5.08,1.593.281,3.182.479,4.767a1.77906,1.77906,0,0,0,.47.995,22.91322,22.91322,0,0,1,2.306,2.993c.573.771,1.187,1.514,1.829,2.229.544.606.777.616,1.5.279a.60258.60258,0,0,1,.174-.067,3.12473,3.12473,0,0,0,2.02-1.23c.478-.541.739-.47705,1.07.172a2.851,2.851,0,0,1-.314,3.14,1.93114,1.93114,0,0,1-1.95.51294,8.16013,8.16013,0,0,0-.988-.20605,6.66462,6.66462,0,0,1-2.531-.979c-1.424-.949-2.877-1.85706-4.27-2.85a6.169,6.169,0,0,1-2.564-3.406,7.41133,7.41133,0,0,1-.2-1.254c-.068-.746-.132-1.494-.148-2.243a14.363,14.363,0,0,1,.073-1.974,11.622,11.622,0,0,0-1.092-6.447C338.84088,258.64377,338.58188,257.72775,338.26889,256.86972Zm14.724,19.573c-.051-.3-.077-.524-.133-.739-.02-.078-.109-.188-.174-.193s-.164.083-.216.153c-.169.22595-.319.46594-.484.7a.65.65,0,0,0,.044.79.531.531,0,0,0,.7-.094A3.34445,3.34445,0,0,0,352.99289,276.44272Z" transform="translate(-307.94531 -243.1484)"/><path id="Path_378" data-name="Path 378" class="cls-1" d="M329.48289,248.8598c.614.053.289.71106.73.87695.018-.119.04-.218.047-.317.028-.411.03-.825.081-1.233a3.9511,3.9511,0,0,1,1.012-1.755.99992.99992,0,0,1,.895-.407,4.1268,4.1268,0,0,1,2.243.59c.47.28.975.5,1.468.74194a1.335,1.335,0,0,1,.867,1.59205,3.5242,3.5242,0,0,0,0,.60705l.607-.708.088.02906a2.49946,2.49946,0,0,1-.009.639,11.02286,11.02286,0,0,1-.415,1.157c-.039.1-.136.249-.207.249-.486,0-.346.369-.412.63306a4.6772,4.6772,0,0,1-.466,1.525,5.9667,5.9667,0,0,1-1.361,1.189,2.22215,2.22215,0,0,1-.691.278,1.24085,1.24085,0,0,1-1.317-.287,7.10723,7.10723,0,0,0-.938-.8,2.60905,2.60905,0,0,1-1.058-1.9c-.034-.2-.025-.41394-.33-.381-.042,0-.1-.067-.137-.116A4.58006,4.58006,0,0,1,329.48289,248.8598Z" transform="translate(-307.94531 -243.1484)"/><path id="Path_379" data-name="Path 379" class="cls-1" d="M331.24389,253.54483c.322.276.577.48706.825.70606a2.15006,2.15006,0,0,0,3.03329.2102q.0288-.02508.0567-.05115c.223-.157.435-.328.693-.525a2.73991,2.73991,0,0,0,.9,1.85706,1.943,1.943,0,0,1,.684,1.344,6.10029,6.10029,0,0,1-.039,2.6,1.67785,1.67785,0,0,1-.754,1.078,4.93608,4.93608,0,0,1-4.733.2,2.38013,2.38013,0,0,1-1.126-1.349,9.70949,9.70949,0,0,1-.633-3.4.44009.44009,0,0,1,.156-.306A2.455,2.455,0,0,0,331.24389,253.54483Z" transform="translate(-307.94531 -243.1484)"/></g><g id="正面拍攝" class="cls-3"><text class="cls-4" transform="translate(-0.00043 63.38836)">正面拍攝</text></g></svg>