<svg xmlns="http://www.w3.org/2000/svg" width="34" height="33" viewBox="0 0 34 33">
  <g id="Group_599" data-name="Group 599" transform="translate(-324 -313)">
    <ellipse id="Ellipse_18" data-name="Ellipse 18" cx="17" cy="16.5" rx="17" ry="16.5" transform="translate(324 313)" fill="#fff" opacity="0.425"/>
    <g id="question-sign" transform="translate(283.196 319.367)">
      <g id="Group_562" data-name="Group 562" transform="translate(50.804 0)">
        <path id="Path_382" data-name="Path 382" d="M137.226,274.074h-3.577a.612.612,0,0,0-.6.6v3.577a.611.611,0,0,0,.6.6h3.577a.612.612,0,0,0,.6-.6V274.67a.612.612,0,0,0-.6-.6Z" transform="translate(-128.76 -259.768)" fill="#fff"/>
        <path id="Path_383" data-name="Path 383" d="M63.964,3.6a6.179,6.179,0,0,0-1.58-1.9A8.078,8.078,0,0,0,60.209.462,6.679,6.679,0,0,0,57.809,0a7.612,7.612,0,0,0-6.915,3.964.588.588,0,0,0-.082.417.58.58,0,0,0,.231.372l2.444,1.863a.714.714,0,0,0,.373.119.58.58,0,0,0,.462-.239,10.165,10.165,0,0,1,1.595-1.714,2.817,2.817,0,0,1,1.609-.432,2.759,2.759,0,0,1,1.6.477,1.347,1.347,0,0,1,.693,1.1,1.673,1.673,0,0,1-.372,1.133A3.675,3.675,0,0,1,58.2,7.9a6.293,6.293,0,0,0-2.131,1.617,3.472,3.472,0,0,0-.969,2.332v.671a1.119,1.119,0,0,0,.156.559.448.448,0,0,0,.38.276H59.21a.519.519,0,0,0,.417-.231.78.78,0,0,0,.179-.484,2.03,2.03,0,0,1,.41-1,2.922,2.922,0,0,1,1.021-.969q.581-.328.909-.529A7.549,7.549,0,0,0,63,9.493a4.286,4.286,0,0,0,.819-.887,5.032,5.032,0,0,0,.753-2.645A4.883,4.883,0,0,0,63.964,3.6Z" transform="translate(-50.804 0)" fill="#fff"/>
      </g>
    </g>
  </g>
</svg>
