<svg id="圖層_1" data-name="圖層 1" xmlns="http://www.w3.org/2000/svg" viewBox="0 0 26.58 50.26"><defs><style>.cls-1{fill:#eeefea;}.cls-2,.cls-3,.cls-4{isolation:isolate;}.cls-3{font-size:8px;font-family:PingFangTC-Regular-B5pc-H, PingFang TC;}.cls-3,.cls-4{fill:#657176;}.cls-4{font-size:10px;font-family:HelveticaNeue, Helvetica Neue;}</style></defs><title>unit01</title><path id="bookmark-2" class="cls-1" d="M451.32,272.14H430.88c-1.67,0-3.13,1.95-3.13,4.26v43.14a4.41,4.41,0,0,0,.4,1.92,1.45,1.45,0,0,0,1.26.93,2,2,0,0,0,1.45-.87L440,310.44a1.41,1.41,0,0,1,2-.24,1.36,1.36,0,0,1,.24.24l9.12,11.08a1.9,1.9,0,0,0,1.41.87c.8,0,1.58-.88,1.58-2.85V276.4C454.34,274.09,453,272.14,451.32,272.14Z" transform="translate(-427.75 -272.14)"/><g id="單_元_" data-name="單 元 " class="cls-2"><text class="cls-3" transform="translate(9.29 10.19)">單</text><text class="cls-3" transform="translate(9.29 18.19)">元</text></g><g id="_1" data-name=" 1" class="cls-2"><text class="cls-4" transform="translate(10.51 30.19)">1</text></g></svg>