<svg enable-background="new 0 0 512 512" viewBox="0 0 512 512" xmlns="http://www.w3.org/2000/svg"><path d="m134.941 272.691h56.123v231.051c0 4.562 3.696 8.258 8.258 8.258h95.159c4.562 0 8.258-3.696 8.258-8.258v-229.962h64.519c4.195 0 7.725-3.148 8.204-7.315l9.799-85.061c.269-2.34-.472-4.684-2.038-6.44-1.567-1.757-3.81-2.763-6.164-2.763h-74.316v-53.321c0-16.073 8.654-24.224 25.726-24.224h48.59c4.562 0 8.258-3.698 8.258-8.258v-78.079c0-4.562-3.696-8.258-8.258-8.258h-66.965c-.472-.023-1.521-.061-3.067-.061-11.619 0-52.006 2.281-83.909 31.63-35.348 32.524-30.434 71.465-29.26 78.217v62.352h-58.918c-4.562 0-8.258 3.696-8.258 8.258v83.975c.001 4.561 3.697 8.259 8.259 8.259z" fill="#385c8e"/></svg>