<svg id="圖層_1" data-name="圖層 1" xmlns="http://www.w3.org/2000/svg" viewBox="0 0 34.58427 34.58427"><defs><style>.cls-1{fill:#98a9af;}.cls-2{fill:#f7f8f8;}</style></defs><title>num06</title><circle class="cls-1" cx="17.29213" cy="17.29213" r="17.29213"/><path class="cls-2" d="M424.79688,284.63184a3.69251,3.69251,0,0,0-2.62208-1.24219c-1.95459,0-3.564,1.47168-3.70214,5.72558a4.9551,4.9551,0,0,1,3.4956-1.8164c2.85108,0,4.87451,1.70215,4.87451,5.3584a5.32855,5.32855,0,0,1-5.33447,5.67968c-3.24268,0-6.1167-2.59863-6.1167-8.60058,0-6.34668,3.15039-9.05957,6.57666-9.05957a6.29817,6.29817,0,0,1,4.62158,1.93164Zm-1.05762,8.02539c0-2.02442-.94336-2.9668-2.415-2.9668a3.3597,3.3597,0,0,0-2.78223,1.79395c.32178,3.10449,1.47168,4.2998,2.897,4.2998C422.7041,295.78418,423.73926,294.72656,423.73926,292.65723Z" transform="translate(-403.72295 -271.91757)"/></svg>