<svg id="圖層_1" data-name="圖層 1" xmlns="http://www.w3.org/2000/svg" viewBox="0 0 34.58427 34.58427"><defs><style>.cls-1{fill:#98a9af;}.cls-2{fill:#f7f8f8;}</style></defs><title>num08</title><circle class="cls-1" cx="17.29213" cy="17.29213" r="17.29213"/><path class="cls-2" d="M415.11621,293.7832a4.95109,4.95109,0,0,1,2.92041-4.4375v-.11523a4.84735,4.84735,0,0,1-2.25342-4.04688c0-2.73632,2.16162-4.48437,5.12793-4.48437,3.01172,0,4.94336,1.8164,4.94336,4.53027a4.95471,4.95471,0,0,1-2.18457,3.88574v.11524a4.94751,4.94751,0,0,1,2.85156,4.55273c0,2.57618-2.27636,4.55371-5.72509,4.55371C417.55371,298.33691,415.11621,296.45117,415.11621,293.7832Zm8.25488-.11425c0-1.77051-1.563-2.50684-3.7705-3.40333a4.09065,4.09065,0,0,0-1.564,3.1504,2.60806,2.60806,0,0,0,2.85156,2.52929A2.23062,2.23062,0,0,0,423.37109,293.669Zm-.27539-8.23243a2.16754,2.16754,0,0,0-2.25341-2.36816,1.979,1.979,0,0,0-2.06983,2.11523c0,1.60938,1.311,2.39161,3.10449,3.1045A4.079,4.079,0,0,0,423.0957,285.43652Z" transform="translate(-403.51715 -271.91757)"/></svg>