<svg id="圖層_1" data-name="圖層 1" xmlns="http://www.w3.org/2000/svg" viewBox="0 0 34.58427 34.58427"><defs><style>.cls-1{fill:#98a9af;}.cls-2{fill:#f7f8f8;}</style></defs><title>num09</title><circle class="cls-1" cx="17.29213" cy="17.29213" r="17.29213"/><path class="cls-2" d="M417.30859,294.38232a3.90764,3.90764,0,0,0,2.69043,1.19532c1.90869,0,3.49512-1.44825,3.63379-5.72559a4.73373,4.73373,0,0,1-3.4956,1.86231c-2.82862,0-4.875-1.74707-4.875-5.35743a5.33315,5.33315,0,0,1,5.35791-5.67968c3.21972,0,6.11718,2.52929,6.11718,8.43847,0,6.43848-3.15039,9.22168-6.53125,9.22168a6.38419,6.38419,0,0,1-4.668-1.93164Zm6.27832-6.89843c-.2998-3.1045-1.47168-4.25489-2.92089-4.25489-1.26465,0-2.29981,1.03516-2.29981,3.12793,0,2,.94287,2.94336,2.41455,2.94336A3.39686,3.39686,0,0,0,423.58691,287.48389Z" transform="translate(-403.4392 -271.91757)"/></svg>