<svg xmlns="http://www.w3.org/2000/svg" width="26.796" height="18.587" viewBox="0 0 26.796 18.587">
  <g id="Group_58" data-name="Group 58" transform="translate(-1876.259 -3371)">
    <g id="Intersection_1" data-name="Intersection 1" transform="translate(1876.259 3371)" fill="none">
      <path d="M0,9.294a14.3,14.3,0,0,1,26.8,0,14.3,14.3,0,0,1-26.8,0Z" stroke="none"/>
      <path d="M 13.39803409576416 2 C 10.84191417694092 2 8.391775131225586 2.776240348815918 6.312484741210938 4.244800567626953 C 4.484226226806641 5.536067008972168 3.059904098510742 7.27092456817627 2.159704208374023 9.293719291687012 C 3.059904098510742 11.31650733947754 4.484226226806641 13.05137252807617 6.312484741210938 14.34263038635254 C 8.391775131225586 15.81120014190674 10.8419246673584 16.58744049072266 13.39803409576416 16.58744049072266 C 15.95414447784424 16.58744049072266 18.4042854309082 15.81120014190674 20.48356437683105 14.3426399230957 C 22.31182479858398 13.05137348175049 23.73613739013672 11.31650733947754 24.6363353729248 9.293719291687012 C 23.73613739013672 7.270923614501953 22.31182479858398 5.53605842590332 20.48356437683105 4.244800567626953 C 18.4042854309082 2.776240348815918 15.95414447784424 2 13.39803409576416 2 M 13.39803409576416 0 C 19.5341739654541 0 24.76745414733887 3.865220069885254 26.79604530334473 9.293720245361328 C 24.76745414733887 14.72220993041992 19.5341739654541 18.58744049072266 13.39803409576416 18.58744049072266 C 7.261884689331055 18.58744049072266 2.028594970703125 14.72220993041992 -5.7220458984375e-06 9.293720245361328 C 2.028594970703125 3.865220069885254 7.261884689331055 0 13.39803409576416 0 Z" stroke="none" fill="#f0f0f0"/>
    </g>
    <circle id="Ellipse_15" data-name="Ellipse 15" cx="5.719" cy="5.719" r="5.719" transform="translate(1883.938 3374.575)" fill="#f0f0f0"/>
  </g>
</svg>
