<svg xmlns="http://www.w3.org/2000/svg" width="53.121" height="49.05" viewBox="0 0 53.121 49.05">
  <g id="high-five" transform="translate(0.5 -19.5)">
    <g id="Group_91" data-name="Group 91" transform="translate(25.041 20)">
      <g id="Group_90" data-name="Group 90">
        <path id="Path_76" data-name="Path 76" d="M247,20a1.018,1.018,0,0,0-1.018,1.018v6.056a1.018,1.018,0,1,0,2.036,0V21.018A1.018,1.018,0,0,0,247,20Z" transform="translate(-245.987 -20)" fill="#76ff00" stroke="#76ff00" stroke-width="1"/>
      </g>
    </g>
    <g id="Group_93" data-name="Group 93" transform="translate(16.118 25.96)">
      <g id="Group_92" data-name="Group 92">
        <path id="Path_77" data-name="Path 77" d="M162.5,81.281l-2.436-2.434a1.018,1.018,0,1,0-1.439,1.44l2.436,2.434a1.018,1.018,0,1,0,1.439-1.44Z" transform="translate(-158.33 -78.55)" fill="#76ff00" stroke="#76ff00" stroke-width="1"/>
      </g>
    </g>
    <g id="Group_95" data-name="Group 95" transform="translate(31.378 25.963)">
      <g id="Group_94" data-name="Group 94">
        <path id="Path_78" data-name="Path 78" d="M312.56,78.871a1.018,1.018,0,0,0-1.44,0l-2.589,2.592a1.018,1.018,0,0,0,1.44,1.439l2.589-2.592A1.018,1.018,0,0,0,312.56,78.871Z" transform="translate(-308.233 -78.573)" fill="#76ff00" stroke="#76ff00" stroke-width="1"/>
      </g>
    </g>
    <g id="Group_97" data-name="Group 97" transform="translate(0 35.296)">
      <g id="Group_96" data-name="Group 96">
        <path id="Path_79" data-name="Path 79" d="M45.453,181.832h-.822a5.159,5.159,0,0,0,1.07-3.15v-1.437a5.186,5.186,0,1,0-10.372,0v1.117L27.672,170.7a1.535,1.535,0,0,0-1.611-.359,1.535,1.535,0,0,0-1.611.359l-7.658,7.658v-1.117a5.186,5.186,0,0,0-10.372,0v1.437a5.158,5.158,0,0,0,1.07,3.15H6.668A6.676,6.676,0,0,0,0,188.5v13.488a1.018,1.018,0,0,0,1.018,1.018h4.3a1.018,1.018,0,0,0,.293-.043,1.018,1.018,0,0,0,.293.043h11.4a1.018,1.018,0,0,0,1.018-1.018v-3.461a1.018,1.018,0,0,0-2.036,0v2.443H6.922v-11.6a1.018,1.018,0,0,0-2.036,0v11.6H2.036V188.5a4.637,4.637,0,0,1,4.632-4.632h7.075a1.015,1.015,0,0,0,.718-.3l0,0L25.037,173a11.209,11.209,0,0,1-1.913,5.911L16.462,188.8a1.019,1.019,0,0,0-.174.569v1.114a1.018,1.018,0,0,0,2.036,0v-.8l6.489-9.637a13.323,13.323,0,0,0,1.248-2.322,13.317,13.317,0,0,0,1.248,2.322l6.489,9.637v12.307a1.018,1.018,0,0,0,1.018,1.018h11.4a1.018,1.018,0,0,0,.293-.043,1.018,1.018,0,0,0,.293.043h4.3a1.018,1.018,0,0,0,1.018-1.018V188.5A6.675,6.675,0,0,0,45.453,181.832Zm-30.7-3.15a3.15,3.15,0,1,1-6.3,0v-1.437a3.15,3.15,0,1,1,6.3,0Zm22.611-1.437a3.15,3.15,0,1,1,6.3,0v1.437a3.15,3.15,0,1,1-6.3,0ZM50.085,200.97h-2.85v-7.533a1.018,1.018,0,0,0-2.036,0v7.533H35.833v-11.6a1.018,1.018,0,0,0-.174-.569L29,178.907A11.209,11.209,0,0,1,27.085,173L37.659,183.57c.013.013.026.025.038.035a1.013,1.013,0,0,0,.682.263h7.075a4.637,4.637,0,0,1,4.632,4.632v12.47Z" transform="translate(0 -170.252)" fill="#76ff00" stroke="#76ff00" stroke-width="1"/>
      </g>
    </g>
    <g id="Group_99" data-name="Group 99" transform="translate(45.199 53.395)">
      <g id="Group_98" data-name="Group 98">
        <path id="Path_80" data-name="Path 80" d="M445.738,348.348a1.017,1.017,0,1,0,.3.72A1.025,1.025,0,0,0,445.738,348.348Z" transform="translate(-444 -348.05)" fill="#76ff00" stroke="#76ff00" stroke-width="1"/>
      </g>
    </g>
    <g id="Group_101" data-name="Group 101" transform="translate(16.288 58.786)">
      <g id="Group_100" data-name="Group 100">
        <path id="Path_81" data-name="Path 81" d="M161.738,401.3a1.017,1.017,0,1,0,.3.72A1.025,1.025,0,0,0,161.738,401.3Z" transform="translate(-160 -401)" fill="#76ff00" stroke="#76ff00" stroke-width="1"/>
      </g>
    </g>
  </g>
</svg>
