<svg xmlns="http://www.w3.org/2000/svg" width="47.001" height="43.45" viewBox="0 0 47.001 43.45">
  <g id="passage-of-time" transform="translate(0 -1.775)">
    <g id="Layer_1_65_">
      <g id="Group_89" data-name="Group 89">
        <path id="Path_74" data-name="Path 74" d="M46.907,20.12a.989.989,0,0,0-.9-.569H43.084a21.71,21.71,0,1,0-2.542,14.818,1.975,1.975,0,0,0-3.419-1.979,17.794,17.794,0,1,1,1.92-12.838h-2.9a.988.988,0,0,0-.76,1.62L40.317,27.1a.988.988,0,0,0,1.517,0l4.938-5.925A.987.987,0,0,0,46.907,20.12Z" fill="#76ff00"/>
        <path id="Path_75" data-name="Path 75" d="M21.726,6.713a1.975,1.975,0,0,0-1.975,1.975V20.672a3.453,3.453,0,0,0,1.976,6.287,3.413,3.413,0,0,0,1.458-.334l6.87,3.965a1.954,1.954,0,0,0,.986.266,1.975,1.975,0,0,0,.988-3.685L25.152,23.2A3.44,3.44,0,0,0,23.7,20.674V8.688A1.979,1.979,0,0,0,21.726,6.713Zm0,18.269a1.481,1.481,0,1,1,1.481-1.48A1.483,1.483,0,0,1,21.726,24.982Z" fill="#76ff00"/>
      </g>
    </g>
  </g>
</svg>
