<svg id="Group_174" data-name="Group 174" xmlns="http://www.w3.org/2000/svg" width="37.79" height="38.59" viewBox="0 0 37.79 38.59">
  <path id="Path_56" data-name="Path 56" d="M1473.968,378.387a4.627,4.627,0,0,1,.567-1.124,19.345,19.345,0,0,1,9.214-8.079,18.883,18.883,0,0,1,4.585-1.281,19.906,19.906,0,0,1,5.495-.036,18.414,18.414,0,0,1,5.668,1.682,18.7,18.7,0,0,1,4.383,2.963c.2.179.186.279.015.446q-1.224,1.2-2.437,2.414-1.349,1.346-2.69,2.7c-.112.113-.186.15-.327.02a10.223,10.223,0,0,0-6.264-2.718,10.993,10.993,0,0,0-7.4,2.007,11.736,11.736,0,0,0-4.351,5.733,1.673,1.673,0,0,1-.089.178,4.564,4.564,0,0,0-.556-.433q-1.228-.956-2.455-1.915c-.8-.622-1.592-1.254-2.4-1.86A5.169,5.169,0,0,0,1473.968,378.387Z" transform="translate(-1471.891 -367.694)" fill="#cb4b3c"/>
  <path id="Path_57" data-name="Path 57" d="M1480.356,500.491c.23.507.407,1.036.659,1.535a11.784,11.784,0,0,0,3.89,4.468,10.671,10.671,0,0,0,4.777,1.86,12.108,12.108,0,0,0,7.014-1.117c.393-.194.762-.437,1.143-.657.007.057,0,.108.062.154q.9.687,1.793,1.382,1.471,1.138,2.94,2.278c.445.346.887.7,1.331,1.043a14.406,14.406,0,0,1-2.466,1.9,17.6,17.6,0,0,1-5.194,2.172,20.9,20.9,0,0,1-5.968.577,19.224,19.224,0,0,1-13.281-6.167,19.452,19.452,0,0,1-2.973-4.22c-.042-.08-.109-.154-.094-.256a.475.475,0,0,0,.067-.036c1.279-1,2.545-2.015,3.843-2.988.673-.5,1.306-1.059,2-1.537A1.646,1.646,0,0,0,1480.356,500.491Z" transform="translate(-1471.907 -477.52)" fill="#6aa852"/>
  <path id="Path_58" data-name="Path 58" d="M1586.248,476.447c-.444-.348-.886-.7-1.331-1.043q-1.469-1.14-2.94-2.278-.9-.693-1.793-1.382c-.06-.046-.056-.1-.062-.154a9.509,9.509,0,0,0,2.588-2.724,9.4,9.4,0,0,0,1.164-2.932c.049-.225-.006-.289-.244-.288q-4.894.011-9.788.005c-.366,0-.363,0-.363-.358q0-3.368,0-6.737c0-.366,0-.367.367-.367q8.733,0,17.465-.006c.239,0,.322.079.357.306a23.79,23.79,0,0,1,.3,4.452,21.639,21.639,0,0,1-1.041,6.132,17.664,17.664,0,0,1-3.105,5.723A11.861,11.861,0,0,1,1586.248,476.447Z" transform="translate(-1554.189 -442.531)" fill="#627ff5"/>
  <path id="Path_59" data-name="Path 59" d="M1470.412,441.789a1.646,1.646,0,0,1-.458.394c-.693.477-1.327,1.033-2,1.537-1.3.973-2.564,1.99-3.843,2.988a.475.475,0,0,1-.067.036,8.984,8.984,0,0,1-.724-1.561,19.379,19.379,0,0,1-1.332-8.026,20.486,20.486,0,0,1,.432-3.163,20.278,20.278,0,0,1,1.308-3.934,2.118,2.118,0,0,1,.311-.549,5.169,5.169,0,0,1,.959.7c.811.606,1.6,1.238,2.4,1.86q1.228.957,2.455,1.915a4.574,4.574,0,0,1,.556.433c-.129.54-.279,1.077-.383,1.622a11.09,11.09,0,0,0-.153,3.025A16.229,16.229,0,0,0,1470.412,441.789Z" transform="translate(-1461.963 -418.818)" fill="#e9be09"/>
</svg>
