<svg height="27.551" viewBox="0 0 56.239 27.551" width="56.239" xmlns="http://www.w3.org/2000/svg"><path d="m41.477 107.3c-5.879 0-12.312 8.432-14.367 11.358-2.075-2.95-8.487-11.332-14.348-11.332a12.762 12.762 0 0 0 0 25.524c5.879 0 12.312-8.432 14.367-11.358 2.075 2.95 8.487 11.332 14.348 11.332a12.762 12.762 0 1 0 0-25.524zm-28.715 23.96a11.167 11.167 0 1 1 0-22.334c5.415 0 11.949 9.059 13.4 11.167-1.451 2.107-7.985 11.167-13.4 11.167zm28.715-.026c-5.415 0-11.949-9.059-13.4-11.167 1.447-2.108 7.981-11.167 13.4-11.167a11.167 11.167 0 1 1 0 22.334z" fill="#76ff00" stroke="#76ff00" stroke-width="2" transform="translate(1 -106.305)"/></svg>