<svg id="information" xmlns="http://www.w3.org/2000/svg" viewBox="0 0 35.551 35.551">
  <defs>
    <style>
      .cls-1 {
        fill: #cdcdcc;
      }
    </style>
  </defs>
  <g id="Group_94" data-name="Group 94">
    <g id="Group_93" data-name="Group 93">
      <ellipse id="Ellipse_37" data-name="Ellipse 37" class="cls-1" cx="1.736" cy="1.736" rx="1.736" ry="1.736" transform="translate(16.04 24.545)"/>
      <path id="Path_94" data-name="Path 94" class="cls-1" d="M17.776,0A17.776,17.776,0,1,0,35.551,17.776,17.766,17.766,0,0,0,17.776,0Zm0,32.774a15,15,0,1,1,15-15A14.99,14.99,0,0,1,17.776,32.774Z"/>
      <path id="Path_95" data-name="Path 95" class="cls-1" d="M181.555,128.5A5.561,5.561,0,0,0,176,134.055a1.389,1.389,0,0,0,2.777,0,2.777,2.777,0,1,1,2.777,2.777,1.389,1.389,0,0,0-1.389,1.389v3.472a1.389,1.389,0,0,0,2.777,0v-2.259a5.555,5.555,0,0,0-1.389-10.934Z" transform="translate(-163.779 -119.578)"/>
    </g>
  </g>
</svg>
