<svg xmlns="http://www.w3.org/2000/svg" viewBox="0 0 78.3 78.39">
  <defs>
    <style>
      .cls-1 {
        fill: #72c1c4;
      }

      .cls-2 {
        fill: #fdd7ad;
      }

      .cls-3 {
        fill: #ed7161;
      }

      .cls-4 {
        fill: #cb465f;
      }

      .cls-5 {
        fill: #fb7b76;
      }

      .cls-6 {
        fill: #ff5364;
      }
    </style>
  </defs>
  <g id="Group_80" data-name="Group 80" transform="translate(-1189 -119.26)">
    <rect id="Rectangle_126" data-name="Rectangle 126" class="cls-1" width="78.3" height="78.3" rx="15" transform="translate(1189 119.35)"/>
    <g id="運動_舞蹈類" data-name="運動＿舞蹈類" transform="translate(1197.708 119.26)">
      <path id="Path_20" data-name="Path 20" class="cls-2" d="M32.056,0a.45.45,0,0,0-.441.378C31.368,1.742,29.351,7.032,14.242,21.9c0,0-5.079,4.308-4.106,14.575a61.808,61.808,0,0,1,.2,10.717c-.488,6.177-2.968,14-3.046,16.4-.043,1.347,1.06,1.986,2.4,2.269a7.773,7.773,0,0,0,7.775-3.15c2.038-2.762,4.717-7.76,7.036-16.6A13.752,13.752,0,0,1,37.265,35.794l.324-.008A7.447,7.447,0,0,0,43.161,33.3c1.436-1.7,2.3-4.307.036-7.927-4.537-7.239-3.281-12.257,1.158-15.056A119.217,119.217,0,0,0,56.27.776.446.446,0,0,0,55.965,0Z" transform="translate(0)"/>
      <path id="Path_21" data-name="Path 21" class="cls-3" d="M10.34,44.273c-.489,6.175-2.97,13.994-3.047,16.4-.043,1.346,1.06,1.986,2.4,2.269a7.773,7.773,0,0,0,7.775-3.15c2.038-2.762,4.717-7.76,7.036-16.6A13.752,13.752,0,0,1,37.263,32.876l.324-.009a7.447,7.447,0,0,0,5.572-2.485c1.436-1.7,2.3-4.307.036-7.927a22.005,22.005,0,0,1-2.016-4.008c-10.612,2.631-23.342,11.475-30.87,17.275A57.28,57.28,0,0,1,10.34,44.273Z" transform="translate(0 2.918)"/>
      <path id="Path_22" data-name="Path 22" class="cls-4" d="M42.61,29.26a5.733,5.733,0,0,0,1.416-3.393.314.314,0,0,0-.374-.317l-1.762.358a.269.269,0,0,0-.153.089c-.795.892-2.092,1.1-3.576,1.129l-.435.013c-9.108.285-17.11,7.061-19.459,16.015-2.551,9.726-5.4,15.208-7.468,18.182-.133.192.351.6.577.536,1.4-.381,3.4-.193,5.542-3.2,1.985-2.787,4.7-7.726,7.012-16.509A13.9,13.9,0,0,1,36.936,31.749l.1,0A7.464,7.464,0,0,0,42.61,29.26Z" transform="translate(0.551 4.04)"/>
      <path id="Path_23" data-name="Path 23" class="cls-5" d="M17.828,15.023l7.735,10.721c2.075-1.163,4.181-2.24,6.275-3.179L22.608,9.773C21.271,11.321,19.693,13.065,17.828,15.023Z" transform="translate(1.667 1.546)"/>
      <path id="Path_24" data-name="Path 24" class="cls-6" d="M25.579,6c-.273.338-.572.706-.888,1.094-.773.981-1.676,2.074-2.728,3.287l1.777,2.462H38.795a7.686,7.686,0,0,1,1.282-1.859c.045-.049.091-.095.138-.142q.316-.325.671-.624c.071-.059.138-.119.211-.177a10.5,10.5,0,0,1,.938-.672c.324-.2.672-.437,1.033-.688l.028-.019c.364-.254.742-.527,1.133-.817l.023-.007c.768-.568,1.577-1.192,2.394-1.839Z" transform="translate(2.321 0.949)"/>
    </g>
  </g>
</svg>
