<svg xmlns="http://www.w3.org/2000/svg" viewBox="0 0 78.3 78.3">
  <defs>
    <style>
      .cls-1 {
        fill: #dcefaa;
      }

      .cls-2 {
        fill: #88c057;
      }

      .cls-3 {
        fill: #659c35;
      }
    </style>
  </defs>
  <g id="Group_79" data-name="Group 79" transform="translate(-1010 -359.35)">
    <rect id="Rectangle_127" data-name="Rectangle 127" class="cls-1" width="78.3" height="78.3" rx="15" transform="translate(1010 359.35)"/>
    <g id="瘦身_飲食管理" data-name="瘦身＿飲食管理" transform="translate(1021.844 371.002)">
      <path id="Path_25" data-name="Path 25" class="cls-2" d="M41.971,27.1a7.929,7.929,0,0,0,5.054-.4,8.656,8.656,0,0,0,5.387-7.665,8.48,8.48,0,0,0-5.677-8.178,6.593,6.593,0,0,0-6.575-6.14h-.03a4.065,4.065,0,0,0-.141-1.641A4.292,4.292,0,0,0,36.436.029a4.232,4.232,0,0,0-3.5,1.2,4.7,4.7,0,0,0-7.858,3.488c0,.008,0,.016,0,.024A6.1,6.1,0,0,0,19.6,12.269a7.053,7.053,0,0,0-5.82,10.588,5.18,5.18,0,0,0,1.564,8.891c-.26,9.217,3.029,14.655,9.392,21.98.114.131.229.263.345.394l.075.084c2.646,2.969,8.614.695,7.33-3.069-6.855-20.11,14.275-17.2,14.275-17.2s.6-6.083-4.847-6.368l.021-.457Z"/>
      <path id="Path_26" data-name="Path 26" class="cls-3" d="M25.154,54.206l-.075-.084q-.174-.2-.345-.394c-6.364-7.325-9.653-12.763-9.392-21.98a5.18,5.18,0,0,1-1.564-8.891A7.053,7.053,0,0,1,19.6,12.269a6.089,6.089,0,0,1,3.635-7.091,9.15,9.15,0,0,0-.583-1.463C21.418,1.274,19.25-.259,17.271.063a4.267,4.267,0,0,0-3.263,3.386,4.779,4.779,0,0,0-4.257-.8C6.812,3.688,5.885,7.914,7.568,11.828c.005.012.012.022.017.034C4.4,13.384,3.552,17.909,5.572,21.991a10.9,10.9,0,0,0,1.012,1.647c-3.519,1.455-4.448,5.873-2.232,9.734a9.743,9.743,0,0,0,2.706,3.017,4.494,4.494,0,0,0,.4,4.008,5.836,5.836,0,0,0,4.926,2.881c3.283,6.447,7.311,8.948,13.41,11.536l.192.08A3.843,3.843,0,0,1,25.154,54.206Z"/>
      <path id="Path_27" data-name="Path 27" class="cls-3" d="M27.545,24.419a.987.987,0,0,0,.087-.394,21.714,21.714,0,0,1,2.478-4.581,14.5,14.5,0,0,1,7.942.5.983.983,0,0,0,.4.084,1,1,0,0,0,.4-1.916,15.609,15.609,0,0,0-6.865-.949A15.875,15.875,0,0,1,35.882,14.1c1.453-.7,3.576.2,4.273.61a.989.989,0,0,0,.506.138,1,1,0,0,0,.508-1.861A8.517,8.517,0,0,0,36.5,11.879a5.621,5.621,0,0,1,.857-1.845,1,1,0,0,0-1.589-1.213A7.059,7.059,0,0,0,34.4,12.645a21.654,21.654,0,0,0-7.844,9.02c-.142.292-.279.606-.415.921a5.723,5.723,0,0,1-2.254-5.344,1,1,0,0,0-1.976-.312,7.608,7.608,0,0,0,3.5,7.564,29.541,29.541,0,0,0-1.482,7.883.992.992,0,0,0-.016.287,40.133,40.133,0,0,0,.344,7.183,5.012,5.012,0,0,1-1.885-1.788A1,1,0,0,0,20.6,39a7.122,7.122,0,0,0,4.017,3.169A65.251,65.251,0,0,0,28.7,55.548a5.131,5.131,0,0,0,1.942-.52c0-.008,0-.017,0-.026a63.87,63.87,0,0,1-4.2-13.8c0-.024-.006-.047-.011-.07a39.16,39.16,0,0,1-.591-8.192c1.4-2.387,5.515-2.483,5.557-2.484a1,1,0,0,0-.014-2h-.012a11.406,11.406,0,0,0-5.276,1.482,25.705,25.705,0,0,1,1.3-5.292A.96.96,0,0,0,27.545,24.419Z"/>
    </g>
  </g>
</svg>
