<svg xmlns="http://www.w3.org/2000/svg" width="24.082" height="18.923" viewBox="0 0 24.082 18.923">
  <g id="comments" transform="translate(0 -54.801)">
    <g id="Group_626" data-name="Group 626" transform="translate(0 54.801)">
      <path id="Path_468" data-name="Path 468" d="M14.212,67.642a8.532,8.532,0,0,0,3.447-2.506,5.353,5.353,0,0,0,0-6.907,8.535,8.535,0,0,0-3.447-2.506A12.1,12.1,0,0,0,9.461,54.8a12.105,12.105,0,0,0-4.751.921,8.534,8.534,0,0,0-3.447,2.506A5.426,5.426,0,0,0,0,61.682a5.28,5.28,0,0,0,.954,3.01,7.851,7.851,0,0,0,2.62,2.379q-.134.323-.275.591a3.407,3.407,0,0,1-.336.517q-.195.249-.3.39t-.349.4Q2.07,69.221,2,69.3c0-.009-.018.011-.054.061s-.056.072-.061.067-.022.018-.054.067l-.047.074-.034.067a.281.281,0,0,0-.027.081.526.526,0,0,0-.007.087.273.273,0,0,0,.013.087.446.446,0,0,0,.155.282.42.42,0,0,0,.276.107H2.2a11.268,11.268,0,0,0,1.156-.215A11.3,11.3,0,0,0,7.1,68.347a13.5,13.5,0,0,0,2.365.215A12.1,12.1,0,0,0,14.212,67.642ZM6.693,66.52l-.591.416q-.376.255-.833.524l.47-1.129-1.3-.753a6.179,6.179,0,0,1-2-1.774,3.661,3.661,0,0,1-.712-2.123,3.819,3.819,0,0,1,1.055-2.567,7.2,7.2,0,0,1,2.842-1.9,10.463,10.463,0,0,1,3.843-.7,10.463,10.463,0,0,1,3.843.7,7.206,7.206,0,0,1,2.842,1.9,3.651,3.651,0,0,1,0,5.134A7.2,7.2,0,0,1,13.3,66.143a10.461,10.461,0,0,1-3.843.7A11.639,11.639,0,0,1,7.4,66.654Z" transform="translate(0 -54.801)" fill="#f7f7f7"/>
      <path id="Path_469" data-name="Path 469" d="M190.716,166.073a5.246,5.246,0,0,0-.054-6.108,7.966,7.966,0,0,0-2.742-2.392,6.916,6.916,0,0,1-.591,5.456,9,9,0,0,1-2.58,2.849,11.9,11.9,0,0,1-3.548,1.734,14.2,14.2,0,0,1-4.152.6q-.4,0-1.183-.054a11.293,11.293,0,0,0,6.343,1.774,13.5,13.5,0,0,0,2.365-.215,10.732,10.732,0,0,0,4.892,1.935.405.405,0,0,0,.3-.094.5.5,0,0,0,.175-.3c0-.054,0-.083.014-.088s.011-.034-.007-.087l-.027-.081-.034-.067a.64.64,0,0,0-.047-.074.6.6,0,0,0-.054-.067c-.013-.013-.033-.036-.06-.067s-.045-.051-.054-.06q-.067-.081-.309-.336t-.349-.4q-.108-.141-.3-.39a3.4,3.4,0,0,1-.336-.517q-.141-.269-.275-.591A7.882,7.882,0,0,0,190.716,166.073Z" transform="translate(-167.588 -152.735)" fill="#f7f7f7"/>
    </g>
  </g>
</svg>
