<svg xmlns="http://www.w3.org/2000/svg" width="19.5" height="17.334" viewBox="0 0 19.5 17.334">
  <g id="repeat" transform="translate(0 -1)">
    <path id="Path_394" data-name="Path 394" d="M13.993,4.25h-2.26l1.4-1.4A1.083,1.083,0,1,0,11.6,1.317L7.586,5.333,11.6,9.349a1.083,1.083,0,1,0,1.532-1.532l-1.4-1.4h2.26A3.02,3.02,0,0,1,16.7,9.667a3.254,3.254,0,0,1-3.25,3.25h0a1.083,1.083,0,1,0,0,2.167h0a5.423,5.423,0,0,0,5.417-5.417A5.173,5.173,0,0,0,13.993,4.25Z" transform="translate(0.632)" fill="#f8f7f8"/>
    <path id="Path_395" data-name="Path 395" d="M5.734,9.734a1.082,1.082,0,0,0,0,1.532l1.4,1.4H4.875a3.02,3.02,0,0,1-2.708-3.25,3.254,3.254,0,0,1,3.25-3.25h0A1.083,1.083,0,0,0,5.417,4h0A5.423,5.423,0,0,0,0,9.417a5.173,5.173,0,0,0,4.875,5.417h2.26l-1.4,1.4a1.083,1.083,0,1,0,1.532,1.532l4.016-4.016L7.266,9.734A1.082,1.082,0,0,0,5.734,9.734Z" transform="translate(0 0.25)" fill="#f8f7f8"/>
  </g>
</svg>
