<svg xmlns="http://www.w3.org/2000/svg" width="109.756" height="111.963" viewBox="0 0 109.756 111.963">
  <g id="noun_fly_steps_2182343" data-name="noun_fly steps_2182343" transform="translate(-8.244 -1.093)">
    <path id="Path_582" data-name="Path 582" d="M2.541,3.542c.43-2.113,2.987-2.4,4.761-2.1l0,.179A7.162,7.162,0,0,0,2.681,3.6Z" transform="translate(59.545 9.665)" fill="#97a8af"/>
    <path id="Path_583" data-name="Path 583" d="M2.743,1.407A6.8,6.8,0,0,1,6.018,6.94c.217,1.385.3,2.81.43,4.205a6.211,6.211,0,0,0,1.881,4.022l-.05.053a7.341,7.341,0,0,1-2.714-3.969,4.37,4.37,0,0,0,.888,4.215l-.042.057C4.14,14.547,4.54,11.778,5.2,9.664l-.08-.648C5,7.634,4.985,6.216,4.731,4.85A4.363,4.363,0,0,0,2.658,1.525Z" transform="translate(64.097 12.152)" fill="#97a8af"/>
    <path id="Path_584" data-name="Path 584" d="M4.63,9.438a26.414,26.414,0,0,0-1.366-6.27l.15-.065A24.648,24.648,0,0,1,5.621,8.567a14.082,14.082,0,0,1-.341,5.6c-1.042,4.228-1.136,8.54-1.763,12.827-.035.236-.4.263-.431.008a38.039,38.039,0,0,1,.787-11.817A22.055,22.055,0,0,0,4.63,9.438Z" transform="translate(74.766 77.975)" fill="#97a8af"/>
    <path id="Path_585" data-name="Path 585" d="M2.816,3.113l.13,0A8.3,8.3,0,0,0,4.115,5.66a5.671,5.671,0,0,1,.444,2.188c.194,1.943.475,3.882.573,5.834.1,2.012.106,4.027.194,6.04a17.378,17.378,0,0,1,.02,5.454c-.071.241-.382.145-.433-.048A14.3,14.3,0,0,1,4.7,21.865l-.08-2.845c-.053-1.95-.084-3.9-.159-5.845a17.826,17.826,0,0,0-.808-5.789,7.5,7.5,0,0,1-.838-4.272Z" transform="translate(68.733 78.246)" fill="#97a8af"/>
    <path id="Path_586" data-name="Path 586" d="M2.8,10.049A4.31,4.31,0,0,0,5.6,9.735,21.249,21.249,0,0,0,9.075,8.269a30.96,30.96,0,0,0,3.016-1.108c.945-.6.658-2.412.673-3.406l.18-.027c.367,1.085,1,2.381.181,3.422a2.67,2.67,0,0,1-1.211.784A13.508,13.508,0,0,0,9.972,9.045a9.758,9.758,0,0,1-4.353,1.781A5.188,5.188,0,0,1,2.7,10.248Z" transform="translate(65.632 102.206)" fill="#97a8af"/>
    <path id="Path_587" data-name="Path 587" d="M2.762,3.948a.148.148,0,0,1,.292-.006,6.852,6.852,0,0,0,.456,1.21A3.836,3.836,0,0,0,4.169,6.2l-.106.112a3.136,3.136,0,0,1-1.2-.875A1.744,1.744,0,0,1,2.762,3.948Z" transform="translate(63.417 105.812)" fill="#97a8af"/>
    <path id="Path_588" data-name="Path 588" d="M2.791,4.334a1.547,1.547,0,0,1,1.975-.469A17.827,17.827,0,0,0,8.518,5.348l.059.2a2.048,2.048,0,0,1-2.427.306C5.217,5.423,4.139,3.5,3,4.535Z" transform="translate(69.25 100.643)" fill="#97a8af"/>
    <path id="Path_589" data-name="Path 589" d="M2.661,7.06A23.75,23.75,0,0,0,7.586,3.737l.085,0c.572.712-.806,1.618-1.268,1.923A6.91,6.91,0,0,1,2.744,7.343Z" transform="translate(64.222 102.456)" fill="#97a8af"/>
    <path id="Path_590" data-name="Path 590" d="M2.649,2.163C5.34.034,8.639,2.476,9.679,5.2a15.338,15.338,0,0,1,.857,5.668c-.016,1.921-.632,4.916.961,6.429l-.154.212A3.872,3.872,0,0,1,9.7,14.153c-.077-1.866.109-3.734-.109-5.6a7.48,7.48,0,0,0-2.575-5.2,4.944,4.944,0,0,0-2.273-.924c-.557-.093-1.512-.417-2.049-.185Z" transform="translate(63.742 10.092)" fill="#97a8af"/>
    <path id="Path_591" data-name="Path 591" d="M2.682,1.607C3.49,2.691,4.07,3.9,4.945,4.927a4.989,4.989,0,0,0,2.009-.3,9.191,9.191,0,0,0,2.405-1l.128.159A9.416,9.416,0,0,1,6.889,5.4l0,.019a4.052,4.052,0,0,1-.2,2.387c-.295.508-.469-.493-.571-.875a3.52,3.52,0,0,1-.217-1.3,1.332,1.332,0,0,1-1.293-.61A11.763,11.763,0,0,1,2.531,1.7Z" transform="translate(59.15 19.945)" fill="#97a8af"/>
    <path id="Path_592" data-name="Path 592" d="M2.58,1.949,3.262,1.6a1.984,1.984,0,0,1,.68-.1,3.958,3.958,0,0,1,1.38.386v.024a5.787,5.787,0,0,1-1.412.132l-.686.1a4.151,4.151,0,0,1-.633-.072Z" transform="translate(61.054 15.843)" fill="#97a8af"/>
    <path id="Path_593" data-name="Path 593" d="M2.6,1.938a.975.975,0,0,1,.933-.4c.231.008.581.007.731.2l.1.028,0,.228-.04-.063-.174.222a2.527,2.527,0,0,1-1.478.056Z" transform="translate(61.788 16.833)" fill="#97a8af"/>
    <path id="Path_594" data-name="Path 594" d="M2.7,1.8a1.628,1.628,0,0,1,1-.14l.991.04.048.164c-.5.33-1.446,1.054-2.022.507C2.571,2.225,2.481,1.933,2.7,1.8Z" transform="translate(60.637 20.843)" fill="#97a8af"/>
    <path id="Path_595" data-name="Path 595" d="M3.022,1.538l.358.021.361.239-.106.427a.71.71,0,0,1-.37.091l-.356-.04c-.179-.04-.413-.185-.38-.4S2.828,1.555,3.022,1.538Z" transform="translate(58.936 17.26)" fill="#97a8af"/>
    <path id="Path_596" data-name="Path 596" d="M3.562,1.6l0,.167a1.742,1.742,0,0,1-.471.048l-.438.167-.131-.073C2.5,1.427,3.27,1.48,3.562,1.6Z" transform="translate(58.953 16.432)" fill="#97a8af"/>
    <path id="Path_597" data-name="Path 597" d="M7.6,1.385l.077.056c-.441.89-1.44,1.222-2.256,1.691A6.093,6.093,0,0,0,2.894,6.153a.165.165,0,0,1-.315-.035C1.949,2.9,5.9,2.954,7.6,1.385Z" transform="translate(58.412 11.317)" fill="#97a8af"/>
    <path id="Path_598" data-name="Path 598" d="M13.01,10.265a33.01,33.01,0,0,1-4.431.185,30.819,30.819,0,0,1-3.951-.51L4.79,8.07a33.359,33.359,0,0,0,.255-5.419.169.169,0,0,0-.323-.032C4.2,4.406,3.935,6.323,3.575,8.15a43.277,43.277,0,0,0-.752,5.555,30.456,30.456,0,0,0,.129,5.379c.1.942.288,1.872.4,2.813.112.98.017,1.964.174,2.941a.193.193,0,0,0,.382-.012c.037-.865.3-1.7.385-2.557a22.807,22.807,0,0,0,.076-2.825c-.051-1.938-.159-3.856-.04-5.795.052-.858.125-1.715.2-2.571a7.846,7.846,0,0,0,3.911.541,9.385,9.385,0,0,0,4.68-1.118Z" transform="translate(68.031 55.092)" fill="#97a8af"/>
    <path id="Path_599" data-name="Path 599" d="M6.52,2.361l-.03.048A11.065,11.065,0,0,1,8.584,14.787c-.762,2.258-1.838,5.619-2.825,7.781a23.186,23.186,0,0,0-2.818,7.65c.006.325.421.312.555.093A39.687,39.687,0,0,0,5.216,26.7c.581-1.213,2.025-3.672,2.6-4.886a40.682,40.682,0,0,0,2.714-8.626A10.248,10.248,0,0,0,6.52,2.361Z" transform="translate(75.037 49.185)" fill="#97a8af"/>
    <path id="Path_600" data-name="Path 600" d="M26.361,2.79A19.888,19.888,0,0,0,14.972,4.136c-1.995.612-3.911,1.238-5.857,1.989-.925.358-1.819.782-2.738,1.148-1.05.417-2.2.531-3.229.977l.014.1a10.255,10.255,0,0,0,2.519-.424c.859-.19,1.734-.3,2.586-.52a47.278,47.278,0,0,0,5.846-2.016,29.02,29.02,0,0,1,6.071-1.6,46.5,46.5,0,0,1,6.1-.332.351.351,0,0,0,.081-.667Z" transform="translate(83.087 54.044)" fill="#97a8af"/>
    <path id="Path_601" data-name="Path 601" d="M26.277,3.825c-1.817-.208-3.52-.805-5.309-1.13a16.567,16.567,0,0,0-6.332-.006c-2.029.429-3.754,1.769-5.863,1.646A16.419,16.419,0,0,1,3.144,2.665l-.026.046C4.153,3.3,5.134,3.973,6.2,4.482A4.023,4.023,0,0,0,5.047,6.267a6.333,6.333,0,0,0-.318,3.024l.065,0a9.786,9.786,0,0,1,.9-2.581A8.7,8.7,0,0,1,6.433,5.55a4.906,4.906,0,0,0,.579-.721l.942.279a6.088,6.088,0,0,0,2.691.006c.987-.239,1.817-.871,2.781-1.186a15.4,15.4,0,0,1,7.434-.344,11.872,11.872,0,0,0,5.484.738C26.6,4.245,26.519,3.853,26.277,3.825Z" transform="translate(81.943 50.193)" fill="#97a8af"/>
    <path id="Path_602" data-name="Path 602" d="M13.712,10.01a9.367,9.367,0,0,0-3-4.58c-.937-.963-1.808-3.115-3.372-3.1a2.557,2.557,0,0,0-1.465.627A15.939,15.939,0,0,1,3.783,4.5c-.123.068-.132.29.04.3A4.526,4.526,0,0,0,6.25,3.833c.557-.341.967-.756,1.594-.3.594.429.915,1.3,1.373,1.855.841,1.029,1.929,1.851,2.669,2.962a6.4,6.4,0,0,1,.84,2.217c.179.766.463,1.341-.517,1.751l.065.239C13.641,12.211,13.994,11.325,13.712,10.01Z" transform="translate(104.198 48.1)" fill="#97a8af"/>
    <path id="Path_603" data-name="Path 603" d="M10.026,8.652c-.477-.39-.922-.734-1.368-1.17A2.586,2.586,0,0,0,7.714,6.8a2.291,2.291,0,0,0-.836-.052c-1.006.027-.549-.772-.456-1.364.159-1.013-1.463-3.77-2.691-2.73v.212A4.839,4.839,0,0,1,5.2,5.389c.113.562-.111,1.176.468,1.523.73.438,1.506.077,2.214.725.6.551,1.074,1.4,1.974,1.429a.234.234,0,0,0,.168-.414Z" transform="translate(105.743 51.459)" fill="#97a8af"/>
    <path id="Path_604" data-name="Path 604" d="M16.338,18.356a52.455,52.455,0,0,1-5.73-.716,7.367,7.367,0,0,0-3.187.462l-.239-.494a7.339,7.339,0,0,0-1.307-1.721l.712.128a.214.214,0,0,0,.109-.408,4.934,4.934,0,0,1-3.109-3.03A6.282,6.282,0,0,1,4.757,8.488c.311-.562.656-1.105.951-1.671a5.375,5.375,0,0,0,.159,1.5,3.583,3.583,0,0,0,2.586,2.67c3.1.7,4.307-3.059,4.323-5.444L12.7,5.538c-.028,2.326-1.658,5.794-4.517,4.417C6.47,9.128,6.327,7.074,6.331,5.128A6.327,6.327,0,0,0,6.416,3.5a1.64,1.64,0,0,1,.415-1.579l-.1-.179C5.528,2,5.758,3.193,5.7,4.152c-.119,2.011-1.607,3.4-2.475,5.108a4.915,4.915,0,0,0-.326,4.5,3.713,3.713,0,0,0,1.726,1.7C6.415,18.212,9.108,25.262,8.658,23c-.233-1.169-.406-2.359-.733-3.5l1.03-.215a12.6,12.6,0,0,1,2.522-.045,24.56,24.56,0,0,0,2.5.3,6.121,6.121,0,0,0,2.437-.831.181.181,0,0,0-.078-.35Z" transform="translate(58.097 25.024)" fill="#97a8af"/>
    <path id="Path_605" data-name="Path 605" d="M8.107,6.263c-.589-1.489-1.266-2.948-1.88-4.431l-.092.034a16.788,16.788,0,0,1,1.323,7.04A3.529,3.529,0,0,1,5.976,11.57a6.888,6.888,0,0,1-3.25,1.218l0,.138A4.948,4.948,0,0,0,8.368,10.22a6.055,6.055,0,0,0-.261-3.957Z" transform="translate(66.553 28.685)" fill="#97a8af"/>
    <path id="Path_606" data-name="Path 606" d="M37.3,1.439a12.272,12.272,0,0,0-3.92.995c-1.225.687-2.237,1.706-3.448,2.427a20.2,20.2,0,0,1-4.293,1.976A41.735,41.735,0,0,1,20.621,7.86a48.22,48.22,0,0,0-9.245,2.467,20.915,20.915,0,0,1-4.652,1.512c-1.233.173-2.793-.061-3.825.8l.009.1a3.131,3.131,0,0,0,1.7-.027c.727-.074,1.461-.023,2.188-.1a16.547,16.547,0,0,0,4.326-1.344,48.051,48.051,0,0,1,9.979-2.6,38.963,38.963,0,0,0,4.5-.9,18.616,18.616,0,0,0,3.844-1.751c1.353-.767,2.5-1.719,3.767-2.6a6.01,6.01,0,0,1,2.441-.926,4.221,4.221,0,0,0,1.794-.637C37.619,1.727,37.529,1.4,37.3,1.439Z" transform="translate(73.426 13.283)" fill="#97a8af"/>
    <path id="Path_607" data-name="Path 607" d="M11.58,1.8A10.15,10.15,0,0,1,8.8,2.341a7.324,7.324,0,0,0-2.374.8A9.271,9.271,0,0,0,4.264,4.654c-.557.54-.821,1.273-1.361,1.808l.148.162c2.638-2,5.975-2.653,8.708-4.479C11.941,2.024,11.786,1.708,11.58,1.8Z" transform="translate(73.592 26.753)" fill="#97a8af"/>
    <path id="Path_608" data-name="Path 608" d="M26.849,1.536c-.98.385-2.054.438-3.047.783a19.222,19.222,0,0,0-2.5,1.275C19.185,4.7,17.327,6.3,15.122,7.243A51.234,51.234,0,0,0,9.755,9.208a32.656,32.656,0,0,1-6.592,2.809l.025.128a17.959,17.959,0,0,0,6.184-1.726,13.476,13.476,0,0,1,3-1.427,22.8,22.8,0,0,0,3.024-.932,25.349,25.349,0,0,0,5.587-3.522A14.094,14.094,0,0,1,22.424,3.5a3.652,3.652,0,0,1,1.88-.441,5.066,5.066,0,0,0,2.882-.832C27.541,1.991,27.271,1.371,26.849,1.536Z" transform="translate(83.689 16.1)" fill="#97a8af"/>
    <path id="Path_609" data-name="Path 609" d="M7.858,1.6l-.249-.159A10.612,10.612,0,0,0,5.885,2.3c-.69.3-1.366.615-2.046.931a.144.144,0,0,0,.1.269C4.73,3.241,8.352,3.138,7.858,1.6Z" transform="translate(106.594 13.334)" fill="#97a8af"/>
    <path id="Path_610" data-name="Path 610" d="M12.932,16.665a6.817,6.817,0,0,0-2.418-.828,8.119,8.119,0,0,1-3.462-.753c-1.707-1.22-1.078-4.473-.878-6.193.273-2.355.83-4.607,1.273-6.931l-.125-.038A34.825,34.825,0,0,0,5.215,8.536a11.46,11.46,0,0,0,.231,6.077,3.716,3.716,0,0,0,3.176,1.972,3.636,3.636,0,0,1,.32,1.761,6.348,6.348,0,0,1-.924,2.3,6.8,6.8,0,0,1-5.195,3.5l-.008.211A8.19,8.19,0,0,0,9.39,20.9a5.5,5.5,0,0,0,.97-3.108,2.6,2.6,0,0,0-.263-1.038,5.068,5.068,0,0,1,4.547,3.377.165.165,0,0,0,.318-.071,4.112,4.112,0,0,0-2.029-3.394Z" transform="translate(70.221 32.145)" fill="#97a8af"/>
    <path id="Path_611" data-name="Path 611" d="M8.054,9.173A23.832,23.832,0,0,0,5.7,6.324,20.319,20.319,0,0,1,2.934,2.382a.139.139,0,0,0-.258.105A26.347,26.347,0,0,0,4.9,6.978,5.706,5.706,0,0,0,7.574,9.654C7.847,9.757,8.211,9.468,8.054,9.173Z" transform="translate(64.433 46.774)" fill="#97a8af"/>
    <path id="Path_612" data-name="Path 612" d="M8.947,1.246a3.78,3.78,0,0,1-1.7,1.814A6.5,6.5,0,0,0,5.318,5.137,18.952,18.952,0,0,0,4.137,8.554a27.9,27.9,0,0,1-1.346,3.2l.429.361.2.182A26.57,26.57,0,0,0,6.051,5.322c.36-1.5,1.287-2,2.537-2.669.637-.342.725-.483.742-1.28C9.334,1.18,9.051,1.057,8.947,1.246Z" transform="translate(69.277 2.264)" fill="#97a8af"/>
    <path id="Path_613" data-name="Path 613" d="M11.986,1.177c-.729.781-3.442,2.337-4.238,3.044A6.724,6.724,0,0,0,6.2,6.473c-.965,2.008-2.455,3.693-3.472,5.666l.759.294c.889-1.687,2.158-3.16,3.047-4.854A8.709,8.709,0,0,1,8.394,4.7c.812-.7,3.5-2.192,4-3.169C12.526,1.282,12.217.93,11.986,1.177Z" transform="translate(66.641 0)" fill="#97a8af"/>
    <path id="Path_614" data-name="Path 614" d="M5.995,5.294l-.716.175a3.168,3.168,0,0,1-1.924-.492,5.066,5.066,0,0,1-.915-.736c-.218-.236-.291-.424-.61-.526l-.115.061c-.382,1.286.63,1.934,1.86,2.165a6.239,6.239,0,0,0,2.377.444,5.338,5.338,0,0,0,1.5-.216l.517-.878.375-.764a15.708,15.708,0,0,1-2.353.766Z" transform="translate(24.324 101.699)" fill="#97a8af"/>
    <path id="Path_615" data-name="Path 615" d="M4.14,3.615l-.181.017c-.068.943.091,2.637-.735,3.27l-.21-.487-.072.006c-.544,1.046-.164,2.472-.33,3.605-.159,1.1-.485,2.228-.725,3.314-.075.339.424.47.568.172a7.915,7.915,0,0,0,.413-1.592A15.536,15.536,0,0,0,3.379,9.98a9.04,9.04,0,0,0,0-2.42,2.077,2.077,0,0,0,.744-.518C5.006,6.048,4.447,4.718,4.14,3.615Z" transform="translate(33.853 97.798)" fill="#97a8af"/>
    <path id="Path_616" data-name="Path 616" d="M1.637,6.65a23.751,23.751,0,0,0,5.1-3.039l.085,0c.53.743-.9,1.57-1.375,1.848A6.91,6.91,0,0,1,1.7,6.938Z" transform="translate(24.481 97.677)" fill="#97a8af"/>
    <path id="Path_617" data-name="Path 617" d="M1.293,2.714a6.8,6.8,0,0,1,6.163,1.83c1.1.868,2.128,1.858,3.174,2.792a6.211,6.211,0,0,0,4.113,1.671V9.08a7.341,7.341,0,0,1-4.689-1.066A4.37,4.37,0,0,0,13.572,10.5l.008.071C11.252,11.4,9.664,9.1,8.712,7.1l-.5-.42c-1.035-.928-2.005-1.96-3.12-2.789a4.363,4.363,0,0,0-3.78-1.029Z" transform="translate(11.139 57.411)" fill="#97a8af"/>
    <path id="Path_618" data-name="Path 618" d="M1.262,5.7c.526-3.39,4.606-3.843,7.219-2.554a15.339,15.339,0,0,1,4.482,3.574c1.294,1.419,2.879,4.035,5.076,4.061.163,0,.2.239.032.26a3.872,3.872,0,0,1-3.482-1.345C13.263,8.378,12.129,6.881,10.7,5.664A7.48,7.48,0,0,0,5.279,3.6a4.944,4.944,0,0,0-2.295.868c-.471.309-1.393.722-1.629,1.257Z" transform="translate(9.954 53.776)" fill="#97a8af"/>
    <path id="Path_619" data-name="Path 619" d="M1.386,5.8c1.329.245,2.577.738,3.916.9A4.99,4.99,0,0,0,6.57,5.1,9.191,9.191,0,0,0,7.653,2.733l.2.03a9.416,9.416,0,0,1-.8,2.957l.016.012A4.052,4.052,0,0,1,8.544,7.619c.129.574-.678-.043-1.014-.254a3.52,3.52,0,0,1-1.044-.807,1.332,1.332,0,0,1-1.363.431A11.763,11.763,0,0,1,1.336,5.967Z" transform="translate(12.807 63.597)" fill="#97a8af"/>
    <path id="Path_620" data-name="Path 620" d="M1.553,7.327C.432,5.485,2.11,3.533,3.62,2.552l.124.129A7.162,7.162,0,0,0,1.693,7.27Z" transform="translate(7.056 56.576)" fill="#97a8af"/>
    <path id="Path_621" data-name="Path 621" d="M1.306,4.571l.264-.719L2,3.317a3.958,3.958,0,0,1,1.273-.655l.017.018a5.787,5.787,0,0,1-.945,1.056l-.438.537L1.4,4.649Z" transform="translate(11.652 60.839)" fill="#97a8af"/>
    <path id="Path_622" data-name="Path 622" d="M1.345,4.006a.975.975,0,0,1,.412-.928c.175-.151.431-.39.674-.347l.094-.049.154.171-.072-.02.021.279A2.527,2.527,0,0,1,1.583,4.157Z" transform="translate(12.831 61.609)" fill="#97a8af"/>
    <path id="Path_623" data-name="Path 623" d="M1.394,4.195a1.628,1.628,0,0,1,.637-.781l.753-.646.146.088c-.14.581-.344,1.756-1.139,1.746C1.589,4.6,1.326,4.447,1.394,4.195Z" transform="translate(14.642 64.968)" fill="#97a8af"/>
    <path id="Path_624" data-name="Path 624" d="M1.474,3.048l.275-.227.425-.072a.279.279,0,0,1,.212.385l-.21.318-.288.213c-.159.092-.429.145-.551-.034S1.343,3.191,1.474,3.048Z" transform="translate(10.939 64.24)" fill="#97a8af"/>
    <path id="Path_625" data-name="Path 625" d="M1.924,2.733l.116.119-.313.355-.207.419-.145.035C1.035,3.325,1.632,2.848,1.924,2.733Z" transform="translate(10.374 63.61)" fill="#97a8af"/>
    <path id="Path_626" data-name="Path 626" d="M2.788,2.586l.094-.011a4.818,4.818,0,0,1-.505,2.774,6.093,6.093,0,0,0,.2,3.933.165.165,0,0,1-.255.189C-.322,7.541,2.611,4.892,2.788,2.586Z" transform="translate(8.452 57.474)" fill="#97a8af"/>
    <path id="Path_627" data-name="Path 627" d="M4.593,4.545c-.25-.571-.908-1.353-1.619-1.218-.241.046-.472.489-.472.491,0,.1.716.495.875.663a3.2,3.2,0,0,1,.733,2.007c.017.209.29.226.4.091a2.069,2.069,0,0,0,.083-2.033Z" transform="translate(58.018 86.039)" fill="#97a8af"/>
    <path id="Path_628" data-name="Path 628" d="M2.737,13.694c.788-.087,2.046.194,2.6-.509.674-.857.224-2.441.462-3.458.248-1.059.938-1.979,1.1-3.062a6.181,6.181,0,0,0-.57-2.706,6.645,6.645,0,0,1-1.965-.216l-.007-.176a4.148,4.148,0,0,1,2.239-.2c.4.161.623.765.786,1.138a5.073,5.073,0,0,1-.44,4.341,7.354,7.354,0,0,0-.5,2.944,3.1,3.1,0,0,1-.537,1.939c-.76.917-2.114.711-3.152.561C2.438,14.241,2.384,13.733,2.737,13.694Z" transform="translate(57.735 85.315)" fill="#97a8af"/>
    <path id="Path_629" data-name="Path 629" d="M2.66,4.283c.364-.6,1.318-1.123,1.894-.528a.4.4,0,0,1-.052.559c-.394.38-.885.144-1.353.27-.7.186-.392.832-.187,1.3l-.076.047A1.326,1.326,0,0,1,2.66,4.283Z" transform="translate(56.747 93.114)" fill="#97a8af"/>
    <path id="Path_630" data-name="Path 630" d="M11.516,29.892c-.477-1.6-.594-3.2-.924-4.826-.334-1.642-.864-3.24-1.278-4.864a56.984,56.984,0,0,0-2.282-8.444A28.567,28.567,0,0,0,4.56,7.649a18.164,18.164,0,0,1-1.31-2.4c-.339-.775-.408-1.624-.735-2.405l-.2.077c.294.885.154,1.821.449,2.711A13.52,13.52,0,0,0,3.738,7.9c.6,1.083,1.344,2.06,1.95,3.129l-.7-.057A4.991,4.991,0,0,1,2.52,9.917l-.185.17a4.663,4.663,0,0,0,2.13,1.8,4.2,4.2,0,0,0,1.811.337l.128.318a7.361,7.361,0,0,0-4.671,3.751L1.9,16.4A9.528,9.528,0,0,1,6.73,13.452c.409,1.233.716,2.5,1.114,3.737.585,1.837,1.344,3.595,1.753,5.483.393,1.813.417,3.657.727,5.475a24.066,24.066,0,0,0,.871,3.307c-.66-.842-1.29-1.728-1.953-2.547-.943-1.165-1.853-2.361-2.706-3.594a73.492,73.492,0,0,1-4.8-7.964l-.181.063a40.979,40.979,0,0,0,4.323,8.354,46.1,46.1,0,0,0,2.808,3.74,27.2,27.2,0,0,0,2.742,2.685l.241.745a5.031,5.031,0,0,1,.4,3.4A10.032,10.032,0,0,1,10.8,38.568c-.938,1.329-1.422,2.9-3.1,3.532l.045.166c1.039-.181,2.018-.255,2.632-1.169a19.259,19.259,0,0,0,1.892-3.434,12.3,12.3,0,0,0-.754-7.771Z" transform="translate(21.462 67.781)" fill="#97a8af"/>
    <path id="Path_631" data-name="Path 631" d="M39.717,25.559c-1.435-.1-2.871-.117-4.307-.211a30.418,30.418,0,0,0-4.269-.123,8.53,8.53,0,0,0-3.223.567,2.3,2.3,0,0,0-.93.915c.016-.716.025-1.432.019-2.153a29.7,29.7,0,0,0-.172-5.372,7.623,7.623,0,0,0,2.461-3.74,9.01,9.01,0,0,0-1.657-8.217,13.811,13.811,0,0,0-7.262-4.459l-.026.086A14.367,14.367,0,0,1,26,6.85a13.29,13.29,0,0,1-4.557,3.61l.021.1a8.773,8.773,0,0,0,3.175-1.338,5.515,5.515,0,0,0,2.007-1.535,8.016,8.016,0,0,1,1.134,7.86,8.8,8.8,0,0,1-6.041,4.68,86.948,86.948,0,0,1-9.085,1.129,20.453,20.453,0,0,1-.111-2.055,20.536,20.536,0,0,0-.567-3.876l-.172-.735a30.762,30.762,0,0,0,5.522-1.432l1.257-.39c2.371.728,2.977,3.848,5.316,4.746a.169.169,0,0,0,.176-.283c-1.038-1.006-1.613-2.4-2.547-3.5a3.064,3.064,0,0,0-2.167-1.194,20.075,20.075,0,0,0,3.609-1.313c.205-.107.171-.442-.094-.42A40.461,40.461,0,0,0,17.5,12.085a2.7,2.7,0,0,0-2.264-.884l-.007.2a2.109,2.109,0,0,1,1,.65l.281.241c-.905.188-1.824.387-2.728.624l.377-.621c.372-.8.807-2.3-.134-2.845l-.306.218a3.848,3.848,0,0,1-.229,2.163A2.427,2.427,0,0,1,11.5,13.428c-.159-.674-.314-1.35-.43-2.033-.092-.536-.193-1.147-.244-1.767.759-.879,2.1-1.194,2.325-2.482s-.841-2.265-1.839-2.858a9.839,9.839,0,0,0-9.742.093l.093.18a12.356,12.356,0,0,1,8.787.4c1.128.581,2.614,1.814,1.216,2.977l-.867.621a4.224,4.224,0,0,1,.27-1.377l-.179-.08A5.355,5.355,0,0,0,10,10.115a18.78,18.78,0,0,0,.637,3.646,36.943,36.943,0,0,1,.89,4.51,29.55,29.55,0,0,0,.239,3.794c.325,1.361,1.059,2.5,1.257,3.915a31.191,31.191,0,0,1,.145,4.448,34.641,34.641,0,0,0,.867,8.389c.056.222.369.152.411-.037a10.951,10.951,0,0,0-.23-3.884,22.154,22.154,0,0,1-.159-4.231,17.067,17.067,0,0,0-.979-7.7l-.264-.78c1.072-.072,3.1.033,3.1.033s1.939,4.749,2.507,5.982a27.551,27.551,0,0,0,4.112,6.722c.1.119.345.031.267-.138-1.079-2.34-2.348-4.587-3.409-6.936-.509-1.126-.988-2.266-1.43-3.419A13.008,13.008,0,0,0,17,21.964,19.715,19.715,0,0,0,25.813,19.9a39.63,39.63,0,0,0,.125,4.951c.037,1.194.014,2.425.159,3.608a6.272,6.272,0,0,0,.963,2.255l.253-.093c-.052-.937-.366-1.781-.352-2.721.527-.613.87-1.273,1.821-1.522a14.435,14.435,0,0,1,3.627-.312,28.744,28.744,0,0,0,7.334-.227Z" transform="translate(22.041 64.898)" fill="#97a8af"/>
    <path id="Path_632" data-name="Path 632" d="M7.984,12.584c.123-3.227-.676-6.478-.25-9.687l-.094-.028a23.405,23.405,0,0,0-.6,7.918c.073,2.854-.578,5.636-.43,8.493a31.019,31.019,0,0,1-.094,8.846c-.312,1.284-1.261,1.907-2.135,2.8a13.786,13.786,0,0,1-1.42,1.52,15.21,15.21,0,0,1-1.552.7c-.262.156-.075.532.191.521a3.394,3.394,0,0,0,2.8-1.289,29,29,0,0,0,2.512-2.51A7.453,7.453,0,0,0,7.885,26a23.59,23.59,0,0,0-.209-4.323,25.661,25.661,0,0,1-.286-4.84C7.477,15.391,7.929,14.028,7.984,12.584Z" transform="translate(10.822 68.862)" fill="#97a8af"/>
    <path id="Path_633" data-name="Path 633" d="M4.726,8.824a1.9,1.9,0,0,0,0-1.568l-.017-.012C4.422,6.51,3.939,5.819,3.6,5.118c-.367-.756-.738-1.5-1.127-2.248l-.159.082a27.789,27.789,0,0,1,1.91,5.154A42.92,42.92,0,0,0,3.534,12.6a25.444,25.444,0,0,0,.008,3.544,19.956,19.956,0,0,1-.428,3.994c-.225,1.253-.378,2.507-.54,3.769a31.386,31.386,0,0,1-.848,3.544A7.868,7.868,0,0,0,1.5,30.056c.071.538.281,1.035.324,1.587a14.8,14.8,0,0,0,.062,1.743.292.292,0,0,0,.577.022,6.953,6.953,0,0,0,.052-3,7.473,7.473,0,0,1,.358-3.6A54.147,54.147,0,0,0,4.183,19.3a51.519,51.519,0,0,0,.225-7.23,13.824,13.824,0,0,1,.318-3.246Z" transform="translate(18.082 68.948)" fill="#97a8af"/>
    <path id="Path_634" data-name="Path 634" d="M6.057,4.042a1.563,1.563,0,0,0-1.973-.171A5.694,5.694,0,0,0,3,4.627a8.569,8.569,0,0,1-1.661.919l.031.085A18.82,18.82,0,0,0,3.5,4.943l.989-.418a4.913,4.913,0,0,1,1.385-.083.255.255,0,0,0,.186-.4Z" transform="translate(12.998 97.166)" fill="#97a8af"/>
    <path id="Path_635" data-name="Path 635" d="M17.456,3.441a6.429,6.429,0,0,0-3.665.763,31.6,31.6,0,0,0-3.74,2.015c-1.231.744-2.443,1.512-3.7,2.209-1.363.756-2.842,1.052-4.227,1.705l.018.2a7.327,7.327,0,0,0,3.593-.8A29.822,29.822,0,0,0,9.507,7.6c1.294-.756,2.565-1.552,3.92-2.2a27.848,27.848,0,0,1,2.944-1.037l.132.225.166.611c.1.308.06.774.242,1.042h.046l.148-.5a4.92,4.92,0,0,0,.184-.844,1.7,1.7,0,0,0-.176-.817l.386-.17a.248.248,0,0,0-.043-.475Z" transform="translate(43.372 90.044)" fill="#97a8af"/>
    <path id="Path_636" data-name="Path 636" d="M3.786,2.757C1.143,4,2.672,8.294,1.95,10.5a.19.19,0,0,0,.279.232c1.121-.776.964-2.336,1.055-3.547a12.61,12.61,0,0,1,.666-4.246Z" transform="translate(36.078 64.546)" fill="#97a8af"/>
    <path id="Path_637" data-name="Path 637" d="M12.356,5.3A21.642,21.642,0,0,0,7.242,3.071a16.815,16.815,0,0,0-5.5-.286l-.006.179A29.677,29.677,0,0,1,6.9,3.993a37.244,37.244,0,0,1,5.332,1.581.148.148,0,1,0,.123-.269Z" transform="translate(28.468 61.531)" fill="#97a8af"/>
    <path id="Path_638" data-name="Path 638" d="M5.024,3.786A9.678,9.678,0,0,1,3.205,5.914c-.464.433-1.37.8-1.468,1.48l.1.146c.738.087,1.4-.842,1.853-1.309A7.7,7.7,0,0,0,5.2,3.864Z" transform="translate(28.361 104.456)" fill="#97a8af"/>
    <path id="Path_639" data-name="Path 639" d="M4.2,3.8c-.449.633-.89,1.273-1.289,1.943-.343.575-.819,1.1-1.128,1.684l.029.04c.676-.045,1.074-.785,1.414-1.286a5.669,5.669,0,0,0,1.11-2.319Z" transform="translate(30.29 105.056)" fill="#97a8af"/>
    <path id="Path_640" data-name="Path 640" d="M2.953,3.84l-.218-.028L2.4,5.09a12.659,12.659,0,0,1-.555,1.339l.022.022A3.033,3.033,0,0,0,2.953,3.84Z" transform="translate(32.4 105.443)" fill="#97a8af"/>
  </g>
</svg>
