<svg xmlns="http://www.w3.org/2000/svg" width="284.252" height="370.352" viewBox="0 0 284.252 370.352">
  <g id="Group_654" data-name="Group 654" transform="translate(-53.67 -145.464)">
    <line id="Line_43" data-name="Line 43" x2="16.334" transform="translate(267.014 492.648)" fill="none" stroke="#ff9a7b" stroke-linecap="round" stroke-miterlimit="10" stroke-width="3"/>
    <text id="_2_3m" data-name="2~3m" transform="translate(289.922 420.661)" fill="#ff9898" font-size="17" font-family="SourceHanSansCN-Heavy, Source Han Sans CN" font-weight="800"><tspan x="0" y="0">2~3m</tspan></text>
    <path id="Path_471" data-name="Path 471" d="M161,489.025,289.578,796.685,426.347,489.025S295.276,365.22,161,489.025Z" transform="translate(-107.33 -288.536)" fill="#bdf3ff" opacity="0.3"/>
    <g id="Group_653" data-name="Group 653">
      <g id="Group_559" data-name="Group 559" transform="translate(138.222 185.177)">
        <path id="Path_373" data-name="Path 373" d="M487.614,841.243l-5.486.425-5.215,5.55,9.709,8.223,3.921,3.916,27.567-.7-1.359-17.637" transform="translate(-457.155 -757.053)" fill="#fff"/>
        <path id="Path_375" data-name="Path 375" d="M517.818,894.86a14.378,14.378,0,0,1,1.626-.247c3.34-.126,6.683-.23,10.026-.335a1.508,1.508,0,0,1,.787.168c-1.759.114-3.528.241-5.278.336q-3.031.164-6.064.281a5.023,5.023,0,0,1-1.1-.208Z" transform="translate(-484.425 -792.555)" fill="#83969d"/>
        <path id="Path_376" data-name="Path 376" d="M425.659,729.149a6.929,6.929,0,0,0-.091,1.316,2.171,2.171,0,0,0,.4,1.3,17.881,17.881,0,0,0,2.263,1.493c.121.077.32.073.392.173.749,1.039,1.361.46,1.994-.14a28.734,28.734,0,0,0,6.312-7.97,19.667,19.667,0,0,1,4.5-5.618,4.106,4.106,0,0,0,1.407-2.462c.48-3.164.957-6.327,1.406-9.493a25.037,25.037,0,0,0,.363-7.713,20.288,20.288,0,0,1,.841-9.475,5.07,5.07,0,0,1,2.415-3,11.837,11.837,0,0,1,5.764-1.717,6.95,6.95,0,0,0,3.327-.966c.173-.1.363-.16.671-.292a24.284,24.284,0,0,1-2.059,9.9,26.451,26.451,0,0,0-2.981,10.333c-.307,2.948-.8,5.889-1.194,8.819-.308,2.271-.556,4.548-.906,6.811a8.986,8.986,0,0,1-2.551,4.925A60.007,60.007,0,0,1,434.589,736.4c-1.286.732-2.739,1.164-4.09,1.791-.692.321-1.326.763-1.991,1.152l-.38-1.084c-.342.13-.685.262-1.03.387l-3.966,1.442c-.142-.161-.211-.2-.211-.234,0-.47.2-1.136-.032-1.379a7,7,0,0,0-1.654-.915,6.7,6.7,0,0,1-.793-.615c.3-.214.619-.621.911-.6.941.052,1.174-.343,1.249-1.224a8.406,8.406,0,0,1,1.686-5.1,12.464,12.464,0,0,1,1.089-1.015Z" transform="translate(-419.509 -652.768)" fill="#fff"/>
        <path id="Path_377" data-name="Path 377" d="M595.261,685.713c1.544.125,2.955.248,4.367.35a8,8,0,0,1,7.71,8.252c.048,3.529-.133,7.06.08,10.588.217,3.747.718,7.482,1.212,11.207a4.183,4.183,0,0,0,1.123,2.333,53.9,53.9,0,0,1,5.479,7c1.362,1.8,2.82,3.541,4.343,5.212,1.291,1.416,1.839,1.435,3.534.63a1.419,1.419,0,0,1,.408-.161,7.353,7.353,0,0,0,4.731-2.93c1.115-1.281,1.73-1.135,2.52.386a6.708,6.708,0,0,1-.683,7.393,4.544,4.544,0,0,1-4.579,1.242,19.214,19.214,0,0,0-2.328-.467,15.679,15.679,0,0,1-5.972-2.258c-3.367-2.207-6.8-4.318-10.1-6.63a14.514,14.514,0,0,1-6.093-7.968,17.47,17.47,0,0,1-.493-2.947c-.173-1.754-.337-3.513-.388-5.275a33.849,33.849,0,0,1,.137-4.646,27.343,27.343,0,0,0-2.684-15.149C596.638,689.877,596.013,687.726,595.261,685.713Zm34.991,45.79c-.125-.705-.191-1.231-.326-1.736-.049-.183-.26-.44-.413-.451s-.384.2-.505.364c-.394.534-.742,1.1-1.126,1.655a1.529,1.529,0,0,0,.118,1.858,1.249,1.249,0,0,0,1.645-.234A7.863,7.863,0,0,0,630.252,731.5Z" transform="translate(-536.052 -653.518)" fill="#fff"/>
        <path id="Path_378" data-name="Path 378" d="M532.82,616.194c1.446.114.693,1.668,1.733,2.05.04-.28.09-.514.1-.747.058-.967.056-1.941.168-2.9a9.3,9.3,0,0,1,2.35-4.147,2.353,2.353,0,0,1,2.1-.973,9.714,9.714,0,0,1,5.288,1.348c1.111.651,2.3,1.159,3.467,1.719a3.141,3.141,0,0,1,2.068,3.731,8.306,8.306,0,0,0,.011,1.428l1.416-1.677.208.067a5.883,5.883,0,0,1-.01,1.5,26.02,26.02,0,0,1-.956,2.73c-.09.236-.316.588-.483.589-1.143.009-.807.874-.958,1.5a11,11,0,0,1-1.069,3.6,14.033,14.033,0,0,1-3.181,2.822,5.222,5.222,0,0,1-1.621.666,2.919,2.919,0,0,1-3.1-.652,16.762,16.762,0,0,0-2.221-1.866,6.138,6.138,0,0,1-2.523-4.452c-.083-.47-.066-.973-.783-.89-.1,0-.237-.156-.324-.27A10.775,10.775,0,0,1,532.82,616.194Z" transform="translate(-494.426 -602.688)" fill="#fff"/>
        <path id="Path_379" data-name="Path 379" d="M540.452,662.62c.762.644,1.366,1.136,1.954,1.647a5.059,5.059,0,0,0,7.14.44c.045-.04.089-.08.133-.121.522-.373,1.018-.779,1.621-1.247a6.447,6.447,0,0,0,2.15,4.353,4.571,4.571,0,0,1,1.633,3.15,14.352,14.352,0,0,1-.046,6.118,3.947,3.947,0,0,1-1.755,2.55,11.615,11.615,0,0,1-11.132.555,5.6,5.6,0,0,1-2.674-3.154,22.849,22.849,0,0,1-1.55-7.988,1.035,1.035,0,0,1,.362-.723A5.777,5.777,0,0,0,540.452,662.62Z" transform="translate(-497.831 -638.123)" fill="#fff"/>
      </g>
      <path id="Path_374" data-name="Path 374" d="M451.038,691.429l-2.7.02-15.53-.045-2.294.017a10.6,10.6,0,0,1-9.475-6.517,5.685,5.685,0,0,1,2.151-7.426,16.418,16.418,0,0,0,1.486-1.112l-3.039.825c-.939.256-1.665-.223-1.476-1.1.227-1.1-.479-1.173-1.155-1.271a1.332,1.332,0,0,1-1.252-.932,1.426,1.426,0,0,1,.753-1.871l.044-.018a7.986,7.986,0,0,1,1.153-.3c.172-.942.322-1.925.531-2.894a6.572,6.572,0,0,1,2.277-3.782,1.729,1.729,0,0,1,1.5-.228c.352.155.571.812.671,1.284s-.252,1.148-.029,1.4a8.022,8.022,0,0,0,1.866,1.292,13.453,13.453,0,0,0,1.277.6,27.139,27.139,0,0,0,5.9-7.059,28.347,28.347,0,0,1,5.359-7.054,3.451,3.451,0,0,0,.971-1.695c.523-3.037.937-6.092,1.387-9.142a25.673,25.673,0,0,0,.411-7.808,23.7,23.7,0,0,1,.526-8.912c.816-3.719,3.611-5.131,6.86-6.024a8.958,8.958,0,0,1,2.35-.342,9.88,9.88,0,0,0,6.095-2.976,4.779,4.779,0,0,0,1.684-4.813,4.849,4.849,0,0,0-.326-1.075c-.17-.436-.427-.844-.565-1.287a7.666,7.666,0,0,0-1.554-3.019,8.576,8.576,0,0,1-1.715-4.916,1.287,1.287,0,0,1,.756-1.453c.181-.082.269-.494.293-.762a45.32,45.32,0,0,1,.48-5.321,6.973,6.973,0,0,1,4.351-5.191,27.474,27.474,0,0,1,2.626-1.215,4.655,4.655,0,0,1,2.228-.052,27.792,27.792,0,0,1,3.519,1.11,8.829,8.829,0,0,1,4.921,5.028,21.014,21.014,0,0,1,.976,2.816,3.582,3.582,0,0,1-.1,2.89,7.474,7.474,0,0,1,.614,2.151,6.354,6.354,0,0,1-2.234,5.147c-.145.107-.152.408-.212.623a32.031,32.031,0,0,1-1.019,3.636,4.307,4.307,0,0,0,.162,3.651,8.881,8.881,0,0,0,7.832,4.529,8.8,8.8,0,0,1,9.386,8.167q.019.271.021.544c.054,3.146-.115,6.3.057,9.437.218,3.987.651,7.96,1.05,11.936a5.672,5.672,0,0,0,1.641,3.23c1.424,1.589,2.679,3.338,4.005,5.021,1.618,2.054,3.227,4.115,4.863,6.152a6.382,6.382,0,0,0,1.042.933,1.177,1.177,0,0,0,1.464.081,3.774,3.774,0,0,1,1.375-.563,4.9,4.9,0,0,0,3.368-2.033,7.381,7.381,0,0,1,1.271-1.216,1.565,1.565,0,0,1,2.527.261,6.955,6.955,0,0,1,1.084,7.051c-.231.6-.594,1.153-.822,1.755a5.519,5.519,0,0,1-5.453,2.337,6.394,6.394,0,0,0-2.514-.531c.284.214.57.424.852.641a5.312,5.312,0,0,1,1.807,6.8,12.4,12.4,0,0,1-6.925,6.824,48.321,48.321,0,0,1-12.858,3.591,62.756,62.756,0,0,1-7.474-.2c-4.643-.111-9.286-.188-14-.28,1.689-.274,3.325-.569,4.968-.8a14.69,14.69,0,0,0,5.407-2.467c.468-.286.511-.637-.113-.954a1.523,1.523,0,0,1-.774-.935,17.907,17.907,0,0,1,.119-8.8,1.2,1.2,0,0,0-.026-.976c-.126-.161-.629-.1-.941-.03a72.17,72.17,0,0,1-12.34,1.369,33.338,33.338,0,0,1-3.529.027,3.554,3.554,0,0,1-1.416-.542c-.818-.464-1.57-1.04-2.413-1.433a2.863,2.863,0,0,0-1.7-.277,6.531,6.531,0,0,1-5.32-1.607c1.126-.437,1-1.057.457-1.8-.109-.152,0-.492.063-.725a15.738,15.738,0,0,0,.837-2.811,2.73,2.73,0,0,1,1.813-2.685c-.123-.39-.241-.744-.345-1.1-.184-.664-.12-1.225.628-1.513.4-.154.468-.4.443-.876a2.379,2.379,0,0,1,.577-1.416,2.315,2.315,0,0,0,.141-3.123c-.185-.253-.111-.705-.142-1.065a25.439,25.439,0,0,0-.223-2.7c-.475-2.479-1.028-4.933-1.574-7.541-.112,1.083-.2,2.072-.32,3.061-.312,2.626-.591,5.257-.969,7.873a9.836,9.836,0,0,1-2.8,5.478,63.276,63.276,0,0,1-13.775,11.344c-.075.043-.15.081-.19.1l9.882-.075c-.722,1.353-1.391,2.69-2.139,3.985a1.309,1.309,0,0,0,.665,2.007,4.832,4.832,0,0,0,1.986.086,7.617,7.617,0,0,1,4.323.4c1.558.694,3.1,1.414,4.665,2.082.533.231.6.534.478,1.032-.456,1.886-.941,3.758-1.338,5.657a19.84,19.84,0,0,0-.217,2.453Zm-27.255-25.912-.3-.158a12.556,12.556,0,0,0-1.089,1.016,8.4,8.4,0,0,0-1.686,5.1c-.064.881-.306,1.275-1.25,1.224-.292-.017-.606.39-.911.6a6.66,6.66,0,0,0,.793.615,7.009,7.009,0,0,1,1.654.915c.237.234.03.906.032,1.379,0,.042.069.084.211.234L425.2,675c.345-.125.687-.257,1.03-.387l.38,1.084c.665-.391,1.3-.833,1.991-1.152,1.351-.624,2.815-1.056,4.09-1.788a60,60,0,0,0,13.343-11.028,8.982,8.982,0,0,0,2.551-4.925c.347-2.264.6-4.541.906-6.812.4-2.939.9-5.868,1.194-8.818a26.457,26.457,0,0,1,2.981-10.333,24.284,24.284,0,0,0,2.059-9.9c-.307.132-.5.195-.671.292a6.95,6.95,0,0,1-3.327.967,11.834,11.834,0,0,0-5.763,1.716,5.071,5.071,0,0,0-2.415,3,20.288,20.288,0,0,0-.841,9.475,25.017,25.017,0,0,1-.363,7.713c-.447,3.168-.924,6.332-1.406,9.493a4.1,4.1,0,0,1-1.407,2.462,19.679,19.679,0,0,0-4.5,5.618,28.716,28.716,0,0,1-6.312,7.97c-.633.6-1.243,1.186-1.994.142-.071-.1-.271-.1-.392-.173a17.894,17.894,0,0,1-2.263-1.493,2.171,2.171,0,0,1-.405-1.3,6.966,6.966,0,0,1,.124-1.313Zm53.059-44.183c.751,2.013,1.377,4.164,2.336,6.157a27.342,27.342,0,0,1,2.684,15.149,33.827,33.827,0,0,0-.137,4.646c.051,1.76.217,3.528.388,5.275a17.428,17.428,0,0,0,.493,2.947,14.517,14.517,0,0,0,6.093,7.968c3.3,2.311,6.73,4.42,10.1,6.629a15.693,15.693,0,0,0,5.973,2.259,19.067,19.067,0,0,1,2.328.467,4.544,4.544,0,0,0,4.579-1.242,6.708,6.708,0,0,0,.683-7.393c-.79-1.521-1.406-1.667-2.521-.386a7.353,7.353,0,0,1-4.731,2.93,1.4,1.4,0,0,0-.408.161c-1.7.806-2.25.787-3.534-.63-1.523-1.668-2.981-3.408-4.343-5.212a53.924,53.924,0,0,0-5.479-7,4.191,4.191,0,0,1-1.124-2.333c-.5-3.723-1-7.458-1.212-11.207-.2-3.528-.02-7.059-.08-10.588a8,8,0,0,0-7.71-8.252c-1.412-.093-2.823-.226-4.367-.351Zm-20.808-18.7A10.773,10.773,0,0,0,457.7,607.8c.076.117.237.283.324.27.717-.083.709.416.783.891a6.141,6.141,0,0,0,2.523,4.452,16.667,16.667,0,0,1,2.221,1.865,2.92,2.92,0,0,0,3.1.652,5.23,5.23,0,0,0,1.621-.666,14.037,14.037,0,0,0,3.181-2.822,11,11,0,0,0,1.069-3.6c.151-.622-.185-1.486.958-1.5.167,0,.39-.358.483-.59a25.846,25.846,0,0,0,.956-2.728,5.877,5.877,0,0,0,.01-1.5l-.208-.067-1.415,1.677a8.306,8.306,0,0,1-.011-1.428,3.141,3.141,0,0,0-2.068-3.73c-1.164-.558-2.361-1.069-3.467-1.72a9.714,9.714,0,0,0-5.288-1.348,2.352,2.352,0,0,0-2.1.974,9.3,9.3,0,0,0-2.35,4.147c-.11.961-.11,1.935-.169,2.9-.015.235-.065.471-.105.747-1.008-.385-.266-1.937-1.709-2.051Zm4.218,11a5.776,5.776,0,0,1-2.172,5.581,1.037,1.037,0,0,0-.362.723,22.846,22.846,0,0,0,1.55,7.988,5.6,5.6,0,0,0,2.673,3.154,11.614,11.614,0,0,0,11.133-.555,3.949,3.949,0,0,0,1.755-2.55,14.353,14.353,0,0,0,.045-6.118,4.57,4.57,0,0,0-1.633-3.15,6.445,6.445,0,0,1-2.151-4.354c-.6.475-1.1.874-1.621,1.248a5.059,5.059,0,0,1-7.152-.187c-.041-.044-.082-.088-.121-.133-.571-.518-1.172-1.012-1.937-1.656Zm24.476,58.251c.494.554.933,1.059,1.388,1.547.123.133.3.3.452.307,1.052.027,2.1.043,3.155-.005a1.317,1.317,0,0,0,.835-.406,5.079,5.079,0,0,1,3.191-1.725c1.78-.227,3.582-.262,5.209-.371-.043-.028-.31-.188-.572-.361-3.675-2.422-7.438-4.727-11-7.307a13.94,13.94,0,0,1-5.93-9.061c-.246-1.388-.257-2.822-.371-4.221a16.04,16.04,0,0,0,.487,8.063c.518,1.264.712,2.656,1.129,3.966.289.911.719,1.78,1.074,2.665a9.473,9.473,0,0,1,.986,2.479,38.868,38.868,0,0,1-.028,4.425Z" transform="translate(-279.421 -403.955)" fill="#97a8ae"/>
    </g>
    <rect id="Rectangle_562" data-name="Rectangle 562" width="30.002" height="15.001" rx="4" transform="translate(166.675 500.815)"/>
    <line id="Line_41" data-name="Line 41" x1="0.485" y2="204.648" transform="translate(275.015 287.5)" fill="none" stroke="#ff9898" stroke-miterlimit="10" stroke-width="7"/>
    <line id="Line_42" data-name="Line 42" x2="16.334" transform="translate(266.847 287.639)" fill="none" stroke="#ff9a7b" stroke-linecap="round" stroke-miterlimit="10" stroke-width="3"/>
  </g>
</svg>
