<svg xmlns="http://www.w3.org/2000/svg" width="32.904" height="32.904" viewBox="0 0 32.904 32.904">
  <g id="Group_631" data-name="Group 631" transform="translate(-201 -703.096)">
    <circle id="Ellipse_8" data-name="Ellipse 8" cx="16.452" cy="16.452" r="16.452" transform="translate(201 703.096)" fill="#dcd8cf" opacity="0.379"/>
    <g id="_49093" data-name="49093" transform="translate(206 699.751)">
      <g id="Group_603" data-name="Group 603" transform="translate(0 9.184)">
        <path id="Path_461" data-name="Path 461" d="M17.992,26.841c-.337-.1-.569-.17-.392-.613a2.5,2.5,0,0,0,.007-2.385c-.777-1.11-2.9-1.051-5.343-.03,0,0-.766.335-.57-.273a2.745,2.745,0,0,0-.265-2.8c-1.323-1.324-4.841.05-7.858,3.066C1.312,26.068,0,28.463,0,30.533,0,34.494,5.079,36.9,10.048,36.9c6.514,0,10.846-3.785,10.846-6.789C20.9,28.3,19.366,27.267,17.992,26.841Zm-7.931,8.641c-3.965.391-7.387-1.4-7.645-4s2.749-5.03,6.713-5.422,7.388,1.4,7.645,4S14.027,35.091,10.062,35.483Z" transform="translate(0 -17.501)" fill="#dcd8cf"/>
        <path id="Path_462" data-name="Path 462" d="M69.572,11.277h0a6.338,6.338,0,0,0-6.034-1.953h0a.917.917,0,0,0,.383,1.794,4.509,4.509,0,0,1,5.233,5.8h0a.917.917,0,0,0,1.745.566.022.022,0,0,1,0,0A6.335,6.335,0,0,0,69.572,11.277Z" transform="translate(-47.255 -9.184)" fill="#dcd8cf"/>
        <path id="Path_463" data-name="Path 463" d="M66.591,22.394a.789.789,0,0,0,.329,1.543h0a1.509,1.509,0,0,1,1.753,1.941h0a.789.789,0,1,0,1.5.485,3.087,3.087,0,0,0-3.584-3.97Z" transform="translate(-49.629 -19.071)" fill="#dcd8cf"/>
        <path id="Path_464" data-name="Path 464" d="M80.355,26.435Z" transform="translate(-60.454 -22.163)" fill="#dcd8cf"/>
        <path id="Path_465" data-name="Path 465" d="M26.531,51.422a4.319,4.319,0,0,0-4.839,2.112,2.943,2.943,0,0,0,1.878,4.193,4.281,4.281,0,0,0,5.111-2.169A2.956,2.956,0,0,0,26.531,51.422Zm-1.441,4.33a1.5,1.5,0,0,1-1.823.6,1.051,1.051,0,0,1-.406-1.585,1.508,1.508,0,0,1,1.786-.6A1.057,1.057,0,0,1,25.091,55.753Zm1.263-1.622a.573.573,0,0,1-.686.253.4.4,0,0,1-.176-.6.565.565,0,0,1,.668-.252A.4.4,0,0,1,26.354,54.13Z" transform="translate(-16.073 -40.863)" fill="#dcd8cf"/>
      </g>
    </g>
  </g>
</svg>
