<svg xmlns="http://www.w3.org/2000/svg" width="39" height="39" viewBox="0 0 39 39">
  <g id="Group_537" data-name="Group 537" transform="translate(-263 -703.444)">
    <circle id="Ellipse_9" data-name="Ellipse 9" cx="19.5" cy="19.5" r="19.5" transform="translate(263 703.444)" fill="#97a8af" opacity="0.379"/>
    <g id="more" transform="translate(273.46 721.115)">
      <path id="Path_87" data-name="Path 87" d="M2.529,22a2.529,2.529,0,1,0,2.529,2.529A2.532,2.532,0,0,0,2.529,22Z" transform="translate(0 -22)" fill="#97a8af"/>
      <path id="Path_88" data-name="Path 88" d="M46.529,22a2.529,2.529,0,1,0,2.529,2.529A2.532,2.532,0,0,0,46.529,22Z" transform="translate(-30.092 -22)" fill="#97a8af"/>
      <path id="Path_89" data-name="Path 89" d="M24.529,22a2.529,2.529,0,1,0,2.529,2.529A2.532,2.532,0,0,0,24.529,22Z" transform="translate(-15.046 -22)" fill="#97a8af"/>
    </g>
  </g>
</svg>
