<svg xmlns="http://www.w3.org/2000/svg" width="22" height="21.077" viewBox="0 0 22 21.077">
  <path id="star" d="M21.522,10.6a1.578,1.578,0,0,0-.875-2.691L15.32,7.134a.7.7,0,0,1-.524-.381L12.414,1.926a1.578,1.578,0,0,0-2.829,0L7.2,6.753a.7.7,0,0,1-.525.381l-5.327.774A1.578,1.578,0,0,0,.477,10.6l3.854,3.757a.7.7,0,0,1,.2.617l-.909,5.3a1.545,1.545,0,0,0,.344,1.279,1.594,1.594,0,0,0,1.945.384l4.764-2.5a.713.713,0,0,1,.648,0l4.764,2.5a1.561,1.561,0,0,0,.734.184,1.582,1.582,0,0,0,1.211-.567,1.544,1.544,0,0,0,.344-1.279l-.91-5.3a.7.7,0,0,1,.2-.617Z" transform="translate(0.001 -1.047)" fill="#ddd"/>
</svg>
