<svg xmlns="http://www.w3.org/2000/svg" width="132.359" height="68.521" viewBox="0 0 132.359 68.521">
  <g id="Group_631" data-name="Group 631" transform="translate(-213.567 -707.448)">
    <path id="Path_404" data-name="Path 404" d="M213.73,756.88c.486-2.5,2.208-3.8,4.327-4.542a49.121,49.121,0,0,1,17.987-2.381c2.761.089,5.508.612,8.368.951,1.009-5.556,3.947-10.438,7.035-15.224a48.757,48.757,0,0,1,16.936-15.751,72.748,72.748,0,0,1,23.846-8.563c4.192-.756,8.279-2.079,12.45-2.968,8.056-1.72,16.018-.99,23.894,1.2,1.213.337,2.458.563,3.662.926a11.686,11.686,0,0,1,1.752.854l-.139.57a14.928,14.928,0,0,1-2-.012c-5.806-.79-11.587-1.987-17.416-2.29a50.82,50.82,0,0,0-12.379,1.3,156.66,156.66,0,0,0-29.387,8.831,16.578,16.578,0,0,0-3.481,2.169c5.546.628,10.979,2.634,16.58.223l.191.765a12.757,12.757,0,0,1-1.933,1c-3.605,1.163-7.255.767-10.905.223-1.137-.17-2.279-.35-3.425-.407-4.314-.219-7.1,3.4-5.928,7.65a6.45,6.45,0,0,1,.095.8c-1.927-1.051-2.035-2.645-1.729-4.53-6.755,5.45-10.512,12.842-14.672,20.169a32.114,32.114,0,0,1,3.916,1.692c1.785,1.059,3.409,2.387,5.17,3.489,2.746,1.718,5.553,3.326,8.876,3.689a7.4,7.4,0,0,1,1.519.649,6.4,6.4,0,0,1-5.159.283,68.087,68.087,0,0,1-8.4-4.35c-2.128-1.3-4.017-2.985-6.162-4.614l-1.589,2.786,3.776,1.483-.132.678a52.546,52.546,0,0,1-5.495-.726,56.348,56.348,0,0,0-23.487-.156,8.477,8.477,0,0,0-6.109,3.729A2.223,2.223,0,0,1,213.73,756.88Z" transform="translate(-0.037)" fill="#8699a0"/>
    <path id="Path_405" data-name="Path 405" d="M299.36,775.047c-2.5-3.322-2.031-7.427-2.573-11.41-4.423.428-8.772-1.908-13.107.221l-.33-.317,2.261-1.521-.14-.518c-2.678-.687-5.208-1.61-6.992-4.139l4.842,2.474.246-.309-1.606-2.383.3-.267,2.44,2.051.323-2.719a4.649,4.649,0,0,1-2.746-4.667c1.44,2.039,3,3.662,5.16,3.041,1.834-.526,3.435-1.862,5.192-2.87v1.357l2.194.211,6.385-6.054.486.413a15.08,15.08,0,0,1-.941,1.263c-1.033,1.131-2.154,2.187-3.128,3.364a2.267,2.267,0,0,0-.154,2.955,7.619,7.619,0,0,1,.824,3.929,49.964,49.964,0,0,0,1.518,14.165,8.171,8.171,0,0,1,.1,1.646ZM297.042,762.3a43.037,43.037,0,0,0-.369-5.124c-.372-2.048-3.44-3.42-5.254-2.521-1.561.773-3.114,1.561-4.868,2.441-.1,1.493,1.02,3.623,2.31,3.848C291.52,761.406,294.186,761.83,297.042,762.3Z" transform="translate(-14.811 -9.077)" fill="#8699a0"/>
    <path id="Path_406" data-name="Path 406" d="M306.954,742.34c-4.914,2.331-9.031,1.689-11.937-3-1.2-1.933-1.632-5.706.655-8.1-.149.738-.237,1.165-.32,1.592-.856,4.418,2.018,8.928,6.084,9.074,1.894.068,3.828-.658,5.719-1.128.282-.07.445-.7.626-1.092a4.434,4.434,0,0,1,4.018-2.658c-3.838,2.939-3.186,6.814-2.463,10.719a51.87,51.87,0,0,1,.324,13.757c-.244,3-.474,6.011-.447,9.015.008.857.893,1.737,1.454,2.552.638.928,1.907,1.526,1.472,3.277a8.162,8.162,0,0,1-1.652-1.127,9.987,9.987,0,0,1-2.8-6.736,90.742,90.742,0,0,0-1.247-10.742,3.082,3.082,0,0,1,.03-1.68l1.551,2.837C308.8,753.381,307.389,748.089,306.954,742.34Z" transform="translate(-18.361 -5.428)" fill="#8699a0"/>
    <path id="Path_407" data-name="Path 407" d="M213.567,773.349c1.467,1.993,2.429,3.772,3.822,5.1,3.734,3.553,8.526,4.473,13.418,4.293,8.161-.3,16.31-.96,24.462-1.48a10.758,10.758,0,0,1,6.567,1.57,5.773,5.773,0,0,1-1.289.507c-5.9.324-11.808.664-17.715.918-4.975.214-9.959.52-14.93.408a18.638,18.638,0,0,1-9.69-3.336C215.524,779.569,214.634,776.64,213.567,773.349Z" transform="translate(0 -15.037)" fill="#8699a0"/>
    <path id="Path_408" data-name="Path 408" d="M342.729,781.36c-.157-1.52-.314-3.041-.5-4.812-8.442-.607-16.916-2.048-24.767-5.894l.09-.41a4.881,4.881,0,0,1,.914.083,111.836,111.836,0,0,0,28.167,4.3,116.1,116.1,0,0,0,13.749-.935c1.333-.137,2.593-.989,4.26-1.665a6.537,6.537,0,0,1-.537,1.352,6.388,6.388,0,0,1-4.825,2.474q-6.72.477-13.453.743c-1.07.042-1.593.32-1.737,1.418-.147,1.125-.458,2.229-.7,3.342Z" transform="translate(-23.706 -14.328)" fill="#8699a0"/>
    <path id="Path_409" data-name="Path 409" d="M367.647,784.568a19.421,19.421,0,0,1-2.457,1.078,3.459,3.459,0,0,1-1.792-.007c-4.671-1.266-9.206-.109-13.82.516-7.711,1.044-15.475,1.8-23.185-.117-1.477-.368-2.885-1.013-4.329-1.518-2.132-.746-4.267-1.48-6.584-2.283a8.708,8.708,0,0,1,2.5-.318,30.591,30.591,0,0,1,5.091,1.248c7.331,2.555,14.85,2.525,22.412,1.667,3.421-.387,6.805-1.1,10.213-1.615a13.289,13.289,0,0,1,6.919.819c1.121.431,2.515.165,3.787.182a5.862,5.862,0,0,0,1.032-.168Z" transform="translate(-23.254 -16.985)" fill="#8699a0"/>
    <path id="Path_410" data-name="Path 410" d="M249.618,773.279l-2.137,6.314-.661-.146c.2-2.336.4-4.673.625-7.258a69.642,69.642,0,0,0-7.983-1.919c-2.613-.328-5.3-.071-7.964-.256,3.026-1.541,6.2-2.322,9.506-1.4,4.677,1.3,9.318,2.745,13.93,4.264,2.833.933,5.583,1.916,8.631.971a7.959,7.959,0,0,1,2.448.073c-.824,1.638-5.5,2.761-8.244,2.008C254.987,775.168,252.274,774.154,249.618,773.279Z" transform="translate(-4.091 -13.866)" fill="#8699a0"/>
    <path id="Path_411" data-name="Path 411" d="M321.592,717.712c1.587,0,3.082.125,4.549-.022,5.772-.579,13.362,6.363,9.594,14.91a10.778,10.778,0,0,1-8.147,6.688,6.369,6.369,0,0,1-6.6-2.968,3.554,3.554,0,0,1-.109-1.318c.452.049.9.1,1.356.152a.281.281,0,0,1,.136.09c1.7,1.683,3.622,2.711,6.058,1.794a9.33,9.33,0,0,0,5.661-5.593,8.972,8.972,0,0,0-8.554-12.417C324.048,719.023,322.419,719.326,321.592,717.712Z" transform="translate(-24.483 -2.329)" fill="#8699a0"/>
    <path id="Path_412" data-name="Path 412" d="M276.879,776.152c.5.079,1,.155,1.493.237,2.194.362,4.375.86,6.584,1.055,2.728.242,3.946,1.061,4.6,3.6,2.39,0,4.791-.041,7.189.036.468.015.922.484,1.382.743-.442.364-.9,1.055-1.326,1.04-4.139-.151-8.273-.42-12.409-.655l-.023-.543,3.814-.468a2.882,2.882,0,0,0-3.145-1.783C281.806,779.831,279.191,778.549,276.879,776.152Z" transform="translate(-14.446 -15.676)" fill="#8699a0"/>
    <path id="Path_413" data-name="Path 413" d="M379.438,767.9c.142-1.84.22-3.689.465-5.516.075-.559.526-1.386.952-1.491a1.826,1.826,0,0,1,1.575.807,13.459,13.459,0,0,1,1.273,3.96,14.222,14.222,0,0,1-.245,4.237,13.19,13.19,0,0,0-.032,6.313,5.773,5.773,0,0,1-.156,2l-.844.062a23.45,23.45,0,0,1-.805-4.622c.052-2.5.524-4.987.737-7.486a4.477,4.477,0,0,0-1.18-3.956c-.492,2.015-.951,3.9-1.41,5.786Z" transform="translate(-37.847 -12.191)" fill="#8699a0"/>
    <path id="Path_414" data-name="Path 414" d="M328.12,715.624a47.257,47.257,0,0,1,17.293-3.026l.218.624c-.5.309-.981.817-1.519.895-5.289.755-10.587,1.437-15.883,2.141Z" transform="translate(-26.138 -1.17)" fill="#8699a0"/>
    <path id="Path_415" data-name="Path 415" d="M324.1,728.576l2.176,1.209,2.468-8.232a10.478,10.478,0,0,1,.518,1.669,10.052,10.052,0,0,1-1.751,6.865,34.033,34.033,0,0,1-4.348,5.1l.469-1.814c-2.612-.283-2.81-.387-3.2-1.6a15.786,15.786,0,0,0,3.237-.042C325.323,731.386,324.521,730.086,324.1,728.576Z" transform="translate(-24.382 -3.218)" fill="#8699a0"/>
    <path id="Path_416" data-name="Path 416" d="M311.12,721.606c.326,3.99-.57,5.541-3.482,5.874a10.683,10.683,0,0,0,1.651-1.558,12.664,12.664,0,0,0,.942-2.3l-8.1,1.818-.176-.5Z" transform="translate(-20.168 -3.23)" fill="#8699a0"/>
    <path id="Path_417" data-name="Path 417" d="M361.12,715.22l-8.756-1.554C356.007,711.966,359.843,712.737,361.12,715.22Z" transform="translate(-31.669 -1.211)" fill="#8699a0"/>
    <path id="Path_418" data-name="Path 418" d="M314.763,792.051l-1.807,2.21-3.306-5.316.355-.268,2.649,2.906.233-.209-1.351-3.557.425-.2Z" transform="translate(-21.923 -18.291)" fill="#8699a0"/>
    <path id="Path_419" data-name="Path 419" d="M305.43,784.231l2.556,6.154C305.443,789.9,304.192,786.791,305.43,784.231Z" transform="translate(-20.85 -17.52)" fill="#8699a0"/>
    <path id="Path_420" data-name="Path 420" d="M280.586,749.367l-1.828-6.558.634-.2,2.149,6.459Z" transform="translate(-14.875 -8.022)" fill="#8699a0"/>
    <path id="Path_421" data-name="Path 421" d="M319.553,717.8l-1.614,4.481-1.321-1.859Z" transform="translate(-23.513 -2.361)" fill="#8699a0"/>
    <path id="Path_422" data-name="Path 422" d="M280.909,786.214l-3.278-1.665C279.873,784.114,280.944,784.659,280.909,786.214Z" transform="translate(-14.618 -17.559)" fill="#8699a0"/>
  </g>
</svg>
