<svg xmlns="http://www.w3.org/2000/svg" width="48" height="70.399" viewBox="0 0 48 70.399">
  <g id="Group_655" data-name="Group 655" transform="translate(-30 -236.601)">
    <g id="Group_559" data-name="Group 559" transform="translate(539.634 -800.748)">
      <path id="Path_373" data-name="Path 373" d="M-446.285,1275.526l-2.333.163-2.234,2.342,4.1,3.526,1.654,1.677,11.718-.209-.521-7.5" transform="translate(-47.411 -202.44)" fill="#fff"/>
      <path id="Path_374" data-name="Path 374" d="M-492.506,1080.791c-.382,0-.764,0-1.146,0l-6.6-.069c-.325,0-.65,0-.975,0a4.505,4.505,0,0,1-4.006-2.8,2.416,2.416,0,0,1,.938-3.149,6.992,6.992,0,0,0,.635-.468l-1.294.341c-.4.106-.707-.1-.624-.473.1-.468-.2-.5-.487-.544a.566.566,0,0,1-.529-.4.606.606,0,0,1,.345-.8,3.392,3.392,0,0,1,.491-.125c.076-.4.143-.817.235-1.228a2.793,2.793,0,0,1,.98-1.6.735.735,0,0,1,.638-.092c.149.067.24.347.281.548s-.111.487-.017.593a3.407,3.407,0,0,0,.789.555,5.7,5.7,0,0,0,.541.257,11.535,11.535,0,0,0,2.531-2.981,12.049,12.049,0,0,1,2.3-2.981,1.466,1.466,0,0,0,.418-.717c.232-1.289.418-2.586.619-3.881a10.91,10.91,0,0,0,.2-3.317,10.074,10.074,0,0,1,.252-3.786c.359-1.578,1.551-2.169,2.935-2.538a3.816,3.816,0,0,1,1-.138,4.2,4.2,0,0,0,2.6-1.245,2.031,2.031,0,0,0,.731-2.04,2.066,2.066,0,0,0-.135-.458c-.071-.186-.179-.36-.236-.549a3.258,3.258,0,0,0-.651-1.288,3.645,3.645,0,0,1-.713-2.095.547.547,0,0,1,.326-.615c.077-.034.116-.209.127-.323a19.286,19.286,0,0,1,.221-2.26,2.964,2.964,0,0,1,1.866-2.192,11.629,11.629,0,0,1,1.12-.508,1.978,1.978,0,0,1,.947-.015,11.808,11.808,0,0,1,1.492.483,3.752,3.752,0,0,1,2.075,2.153,8.937,8.937,0,0,1,.406,1.2,1.522,1.522,0,0,1-.051,1.228,3.175,3.175,0,0,1,.254.916,2.7,2.7,0,0,1-.966,2.18c-.062.045-.066.173-.092.264a13.638,13.638,0,0,1-.445,1.542,1.83,1.83,0,0,0,.057,1.552,3.774,3.774,0,0,0,3.314,1.95,3.739,3.739,0,0,1,3.97,3.732c.013,1.337-.069,2.677-.006,4.011.08,1.695.251,3.385.408,5.076a2.41,2.41,0,0,0,.687,1.378c.6.68,1.128,1.427,1.686,2.147.681.878,1.358,1.759,2.047,2.63a2.707,2.707,0,0,0,.44.4.5.5,0,0,0,.622.039,1.606,1.606,0,0,1,.586-.235,2.084,2.084,0,0,0,1.438-.853,3.141,3.141,0,0,1,.544-.513.665.665,0,0,1,1.073.119,2.956,2.956,0,0,1,.438,3c-.1.253-.256.488-.355.743a2.346,2.346,0,0,1-2.325.976,2.717,2.717,0,0,0-1.067-.234c.12.092.241.182.36.275a2.258,2.258,0,0,1,.746,2.895,5.27,5.27,0,0,1-2.965,2.878,20.542,20.542,0,0,1-5.476,1.485,26.7,26.7,0,0,1-3.176-.111c-1.973-.062-3.946-.11-5.947-.164.719-.111,1.415-.231,2.114-.325a6.243,6.243,0,0,0,2.306-1.031c.2-.12.219-.269-.045-.406a.648.648,0,0,1-.326-.4,7.612,7.612,0,0,1,.079-3.739.511.511,0,0,0-.008-.415c-.053-.069-.267-.045-.4-.016a30.671,30.671,0,0,1-5.249.542c-.5.019-1,.034-1.5,0a1.51,1.51,0,0,1-.6-.235c-.346-.2-.664-.447-1.021-.617a1.215,1.215,0,0,0-.722-.123,2.777,2.777,0,0,1-2.256-.7c.48-.182.429-.446.2-.764-.046-.065,0-.209.029-.308a6.693,6.693,0,0,0,.365-1.192,1.16,1.16,0,0,1,.779-1.135c-.051-.166-.1-.317-.143-.47-.076-.283-.047-.521.272-.641.172-.064.2-.167.191-.371a1.011,1.011,0,0,1,.25-.6.984.984,0,0,0,.07-1.327c-.078-.108-.045-.3-.057-.453a10.852,10.852,0,0,0-.086-1.149c-.194-1.055-.421-2.1-.645-3.21-.051.46-.093.88-.146,1.3-.141,1.115-.268,2.232-.437,3.343a4.18,4.18,0,0,1-1.208,2.319,26.892,26.892,0,0,1-5.891,4.777c-.032.018-.064.034-.081.043h4.2c-.311.573-.6,1.139-.922,1.687a.556.556,0,0,0,.276.855,2.056,2.056,0,0,0,.844.043,3.238,3.238,0,0,1,1.836.183c.66.3,1.312.611,1.976.9.226.1.252.229.2.44-.2.8-.412,1.594-.587,2.4a8.413,8.413,0,0,0-.1,1.042Zm-11.5-11.1-.127-.068a5.325,5.325,0,0,0-.466.428,3.572,3.572,0,0,0-.733,2.161c-.03.374-.134.541-.535.516-.124-.008-.259.164-.389.254a2.845,2.845,0,0,0,.335.264,2.977,2.977,0,0,1,.7.394c.1.1.01.385.009.586,0,.018.029.036.089.1l1.69-.6c.147-.052.293-.107.439-.161l.158.462c.284-.164.555-.35.85-.483.576-.261,1.2-.44,1.744-.747a25.5,25.5,0,0,0,5.706-4.644,3.818,3.818,0,0,0,1.1-2.085c.155-.961.269-1.928.407-2.892.178-1.248.4-2.491.536-3.744a11.244,11.244,0,0,1,1.3-4.382,10.32,10.32,0,0,0,.907-4.2c-.131.055-.213.081-.286.122a2.953,2.953,0,0,1-1.417.4,5.031,5.031,0,0,0-2.455.711,2.155,2.155,0,0,0-1.036,1.266,8.621,8.621,0,0,0-.388,4.024,10.636,10.636,0,0,1-.179,3.277c-.2,1.345-.413,2.688-.628,4.03a1.744,1.744,0,0,1-.606,1.042,8.362,8.362,0,0,0-1.929,2.373,12.207,12.207,0,0,1-2.708,3.367c-.271.251-.532.5-.848.054-.03-.043-.115-.042-.166-.075a7.59,7.59,0,0,1-.957-.642.922.922,0,0,1-.168-.554A2.946,2.946,0,0,1-504,1069.688Zm22.692-18.607c.313.858.572,1.774.973,2.624a11.621,11.621,0,0,1,1.092,6.447,14.364,14.364,0,0,0-.073,1.974c.016.748.081,1.5.148,2.243a7.411,7.411,0,0,0,.2,1.254,6.169,6.169,0,0,0,2.564,3.406c1.393.993,2.846,1.9,4.27,2.85a6.668,6.668,0,0,0,2.531.979,8.124,8.124,0,0,1,.988.206,1.931,1.931,0,0,0,1.95-.513,2.851,2.851,0,0,0,.314-3.14c-.331-.649-.592-.713-1.07-.172a3.125,3.125,0,0,1-2.02,1.23.594.594,0,0,0-.174.067c-.727.337-.959.327-1.5-.279-.642-.714-1.256-1.458-1.829-2.229a22.913,22.913,0,0,0-2.306-2.993,1.78,1.78,0,0,1-.47-.995c-.2-1.584-.4-3.173-.479-4.767-.075-1.5.014-3,0-4.5a3.4,3.4,0,0,0-3.25-3.532C-480.055,1051.2-480.654,1051.139-481.31,1051.081Zm-8.783-8.014a4.579,4.579,0,0,0,.691,2.2c.032.05.1.121.137.116.305-.033.3.179.33.381a2.609,2.609,0,0,0,1.058,1.9,7.088,7.088,0,0,1,.938.8,1.241,1.241,0,0,0,1.317.287,2.22,2.22,0,0,0,.691-.278,5.965,5.965,0,0,0,1.361-1.189,4.676,4.676,0,0,0,.466-1.525c.066-.264-.074-.632.412-.633.071,0,.167-.151.207-.249a11,11,0,0,0,.415-1.156,2.5,2.5,0,0,0,.009-.639l-.088-.029-.607.708a3.524,3.524,0,0,1,0-.607,1.335,1.335,0,0,0-.867-1.592c-.493-.241-1-.462-1.468-.742a4.127,4.127,0,0,0-2.243-.59,1,1,0,0,0-.895.407,3.951,3.951,0,0,0-1.012,1.755c-.05.408-.053.822-.081,1.233-.007.1-.029.2-.047.317C-489.8,1043.778-489.48,1043.121-490.093,1043.068Zm1.757,4.689a2.455,2.455,0,0,1-.941,2.365.44.44,0,0,0-.156.306,9.711,9.711,0,0,0,.633,3.4,2.379,2.379,0,0,0,1.126,1.349,4.936,4.936,0,0,0,4.733-.2,1.678,1.678,0,0,0,.754-1.078,6.1,6.1,0,0,0,.039-2.6,1.943,1.943,0,0,0-.684-1.344,2.739,2.739,0,0,1-.9-1.857c-.258.2-.471.368-.693.525a2.15,2.15,0,0,1-3.09-.159C-487.76,1048.244-488.014,1048.032-488.337,1047.756Zm10.215,24.835c.208.237.393.453.585.662.052.057.125.13.191.132.447.015.894.025,1.341.008a.56.56,0,0,0,.356-.17,2.158,2.158,0,0,1,1.362-.723c.757-.091,1.523-.1,2.215-.141-.018-.012-.131-.081-.242-.155-1.554-1.041-3.146-2.033-4.651-3.141a5.925,5.925,0,0,1-2.491-3.87c-.1-.591-.1-1.2-.144-1.795a6.817,6.817,0,0,0,.181,3.428c.216.539.294,1.131.467,1.689.12.388.3.759.448,1.136a4.023,4.023,0,0,1,.411,1.057A16.5,16.5,0,0,1-478.122,1072.591Z" fill="#8699a0"/>
      <path id="Path_375" data-name="Path 375" d="M-412.481,1325.718a6.113,6.113,0,0,1,.692-.1c1.42-.043,2.841-.076,4.262-.11a.641.641,0,0,1,.334.074c-.748.043-1.5.091-2.244.126-.859.04-1.718.073-2.578.1a2.137,2.137,0,0,1-.465-.092Z" transform="translate(-80.026 -244.924)" fill="#8699a0"/>
      <path id="Path_376" data-name="Path 376" d="M-501.842,1146.155a2.949,2.949,0,0,0-.043.559.922.922,0,0,0,.168.554,7.592,7.592,0,0,0,.957.642c.051.033.136.032.166.075.315.444.577.2.848-.053a12.209,12.209,0,0,0,2.708-3.367,8.361,8.361,0,0,1,1.929-2.373,1.745,1.745,0,0,0,.606-1.042c.214-1.343.427-2.686.628-4.03a10.636,10.636,0,0,0,.179-3.277,8.621,8.621,0,0,1,.388-4.024,2.155,2.155,0,0,1,1.036-1.266,5.029,5.029,0,0,1,2.455-.711,2.955,2.955,0,0,0,1.417-.4c.074-.041.155-.067.286-.122a10.32,10.32,0,0,1-.907,4.2,11.244,11.244,0,0,0-1.3,4.382c-.14,1.252-.358,2.5-.536,3.744-.138.964-.251,1.931-.407,2.892a3.819,3.819,0,0,1-1.1,2.085,25.5,25.5,0,0,1-5.706,4.644c-.549.307-1.168.486-1.744.748-.295.134-.566.32-.85.483l-.158-.462c-.146.054-.292.109-.439.161l-1.69.6c-.06-.069-.089-.087-.089-.1,0-.2.09-.482-.009-.586a2.977,2.977,0,0,0-.7-.394,2.858,2.858,0,0,1-.335-.264c.13-.09.265-.262.389-.254.4.025.5-.142.535-.516a3.572,3.572,0,0,1,.733-2.161,5.3,5.3,0,0,1,.466-.428Z" transform="translate(-2.16 -76.466)" fill="#fff"/>
      <path id="Path_377" data-name="Path 377" d="M-337.858,1128.872c.656.058,1.255.115,1.855.163a3.4,3.4,0,0,1,3.25,3.532c.009,1.5-.079,3,0,4.5.08,1.593.281,3.182.479,4.767a1.779,1.779,0,0,0,.47.995,22.914,22.914,0,0,1,2.306,2.993c.573.771,1.187,1.514,1.829,2.229.544.606.777.616,1.5.279a.6.6,0,0,1,.174-.067,3.125,3.125,0,0,0,2.02-1.23c.478-.541.739-.477,1.07.172a2.851,2.851,0,0,1-.314,3.14,1.931,1.931,0,0,1-1.95.513,8.147,8.147,0,0,0-.988-.206,6.666,6.666,0,0,1-2.531-.979c-1.424-.949-2.877-1.857-4.27-2.85a6.169,6.169,0,0,1-2.564-3.406,7.412,7.412,0,0,1-.2-1.254c-.068-.746-.132-1.494-.148-2.243a14.363,14.363,0,0,1,.073-1.974,11.622,11.622,0,0,0-1.092-6.447C-337.286,1130.646-337.545,1129.73-337.858,1128.872Zm14.724,19.573c-.051-.3-.077-.524-.133-.739-.02-.078-.109-.188-.174-.193s-.164.083-.216.153c-.169.226-.319.466-.484.7a.65.65,0,0,0,.044.79.531.531,0,0,0,.7-.094A3.346,3.346,0,0,0-323.134,1148.445Z" transform="translate(-143.452 -77.791)" fill="#fff"/>
      <path id="Path_378" data-name="Path 378" d="M-396.4,1059.4c.614.053.289.711.73.877.018-.119.04-.218.047-.317.028-.411.03-.825.081-1.233a3.951,3.951,0,0,1,1.012-1.755,1,1,0,0,1,.895-.407,4.127,4.127,0,0,1,2.243.59c.47.28.975.5,1.468.742a1.335,1.335,0,0,1,.867,1.592,3.524,3.524,0,0,0,0,.607l.607-.708.088.029a2.5,2.5,0,0,1-.009.639,11.022,11.022,0,0,1-.415,1.157c-.039.1-.136.249-.207.249-.486,0-.346.369-.412.633a4.677,4.677,0,0,1-.466,1.525,5.966,5.966,0,0,1-1.361,1.189,2.223,2.223,0,0,1-.691.278,1.241,1.241,0,0,1-1.317-.287,7.1,7.1,0,0,0-.938-.8,2.609,2.609,0,0,1-1.058-1.9c-.034-.2-.025-.414-.33-.381-.042,0-.1-.067-.137-.116A4.58,4.58,0,0,1-396.4,1059.4Z" transform="translate(-93.696 -16.329)" fill="#fff"/>
      <path id="Path_379" data-name="Path 379" d="M-390.9,1106.711c.322.276.577.487.825.706a2.15,2.15,0,0,0,3.09.159c.223-.157.435-.328.693-.525a2.74,2.74,0,0,0,.9,1.857,1.943,1.943,0,0,1,.684,1.344,6.1,6.1,0,0,1-.039,2.6,1.678,1.678,0,0,1-.754,1.078,4.936,4.936,0,0,1-4.733.2,2.38,2.38,0,0,1-1.126-1.349,9.71,9.71,0,0,1-.633-3.4.44.44,0,0,1,.156-.306A2.455,2.455,0,0,0-390.9,1106.711Z" transform="translate(-97.435 -58.955)" fill="#fff"/>
    </g>
    <text id="正面拍摄" transform="translate(30 285)" fill="#ecede8" font-size="12" font-family="PingFangTC-Medium, PingFang TC" font-weight="500"><tspan x="0" y="13">正面拍摄</tspan></text>
  </g>
</svg>
