<svg xmlns="http://www.w3.org/2000/svg" width="48" height="69.23" viewBox="0 0 48 69.23">
  <g id="Group_652" data-name="Group 652" transform="translate(-25 -192.77)">
    <text id="侧面拍摄" transform="translate(25 240)" fill="#ecede8" font-size="12" font-family="PingFangTC-Medium, PingFang TC" font-weight="500"><tspan x="0" y="13">侧面拍摄</tspan></text>
    <g id="Group_564" data-name="Group 564" transform="translate(1056.583 286.026)">
      <path id="Path_384" data-name="Path 384" d="M-1011.384-50.98a2.291,2.291,0,0,1-1.412.261c-1.715-.041-3.429-.1-5.144-.147-1.276-.031-2.552-.044-3.829-.061a17.983,17.983,0,0,1-4.426-.86c-1.5-.405-2.081-.925-2.331-2.806a2.177,2.177,0,0,1,.438-2.021,4.329,4.329,0,0,1,1.348-.827,10.359,10.359,0,0,1,3.365-.585c2.15-.109,4.3-.164,6.455-.242.07,0,.141-.009.234-.016l-1.082-2.518c-.6.041-1.233.09-1.862.124-.267.015-.536-.009-.8,0s-.347-.1-.293-.354c.164-.76.347-1.518.479-2.284a14.448,14.448,0,0,0-.615-7.265,1.32,1.32,0,0,0-.19-.391,3.907,3.907,0,0,1-.684-2.767,3.549,3.549,0,0,1,1.775-3.115c.867-.516,1.7-1.094,2.542-1.648a4.7,4.7,0,0,0,2.031-2.889,16.038,16.038,0,0,0,.195-3.192c0-.153-.161-.333-.287-.463-.531-.551-1.1-1.068-1.611-1.637a.944.944,0,0,1,.14-1.37c.448-.319.575-.818.867-1.221a.931.931,0,0,1,.386-.344.317.317,0,0,0,.254-.372,1.992,1.992,0,0,1,.008-.4c.032-.224.142-.4.393-.405a11.849,11.849,0,0,1,1.383-.019.742.742,0,0,0,.724-.326,2.54,2.54,0,0,1,1.35-.934,1.694,1.694,0,0,0,.5-.328.845.845,0,0,1,.882-.289c.547.162,1.11.28,1.638.489a.547.547,0,0,0,.684-.147,5.039,5.039,0,0,1,1.058-.756,1.186,1.186,0,0,1,1.541.344c.352.4.684.824,1.012,1.247a46.888,46.888,0,0,1,4.3,6.853,9.166,9.166,0,0,0,1.165,1.623,3.174,3.174,0,0,0,.908.652,2.1,2.1,0,0,1,1.269,1.45,3.351,3.351,0,0,0,.338.765,2.938,2.938,0,0,1,.186,2.326,2.331,2.331,0,0,0,.044.972c.037.3.134.593.167.894a1.175,1.175,0,0,1-.043.635.766.766,0,0,0,0,.676c.539,1.638,1.019,3.3,1.612,4.915a19.7,19.7,0,0,0,1.383,2.963c1.245,2.186,2.553,4.337,3.846,6.5.536.9,1.132,1.76,1.638,2.673a4.145,4.145,0,0,1,.566,3.256,7.059,7.059,0,0,1-.945,1.87,2.1,2.1,0,0,1-1.863.738c-1.059.016-2.119-.029-3.177,0s-2.135.177-3.2.174c-1.848,0-3.7-.029-5.542-.152-1.586-.106-3.164-.355-4.744-.554a3.26,3.26,0,0,0-1.833.36.378.378,0,0,0-.138.3c.035.595-.062.745-.653.82a10.641,10.641,0,0,1-1.541.116A3.154,3.154,0,0,1-1011.384-50.98Zm17.482-6.086a12.436,12.436,0,0,1-1.366-3.39c-.337-1.217-.578-2.461-.939-3.67-.3-1.011-.736-1.982-1.075-2.983a2.409,2.409,0,0,0-1.758-1.773,1.293,1.293,0,0,1-.329-.154,1.24,1.24,0,0,1-.731-1.28,10.714,10.714,0,0,1,.455-1.633c.129-.4.336-.781.444-1.188a11.338,11.338,0,0,0,.127-3.521.4.4,0,0,0-.113-.216q-.771-.869-1.55-1.731a2.416,2.416,0,0,1-.785-1.484,2.826,2.826,0,0,0-.745-1.743c-.4-.47-.835-.917-1.271-1.358s-.871-.837-1.284-1.232a9.092,9.092,0,0,1-.72.843c-.654.6-1.33,1.176-2,1.755a1.027,1.027,0,0,1-.342.2c-.228.073-.3.212-.34.446a2.677,2.677,0,0,1-.591,1.647,1.454,1.454,0,0,0-.443,1.25,17.286,17.286,0,0,1-.021,1.89c-.056,1.051-.734,1.886-1.03,2.857-.076.25-.247.469-.342.715a3.574,3.574,0,0,0-.2.746c-.033.225.077.507-.022.68a4.089,4.089,0,0,0-.263,1.716c-.056.466-.07.937-.095,1.406a3.64,3.64,0,0,0,.491,2.539,2.193,2.193,0,0,1,.191.469,1.99,1.99,0,0,0,.17.353c.271.4.556.781.827,1.176.072.106.082.277.175.343a10.617,10.617,0,0,0,3.1,1.36,2.529,2.529,0,0,0,.285.058,5.058,5.058,0,0,1,3.856,3.012c.042.092.114.211.2.238a26.532,26.532,0,0,0,2.607.806c1.031.223,2.089.317,3.134.476C-995.433-57.321-994.668-57.19-993.9-57.066Zm-2.467-21.716.1-.03c-.092-.343-.162-.694-.282-1.026a8.366,8.366,0,0,1-.432-1,1.685,1.685,0,0,0-.97-1.152,4.8,4.8,0,0,1-.888-.561,7.3,7.3,0,0,1-1.611-2.193,41.825,41.825,0,0,0-4.925-7.569c-.536-.649-.914-.82-1.814-.16a6.736,6.736,0,0,0-2.052,2.7,67.042,67.042,0,0,0-2.618,6.721,3.666,3.666,0,0,1-1.307,1.79,6.2,6.2,0,0,0-2.283,3.587,1.4,1.4,0,0,0,.582,1.565,5.972,5.972,0,0,0,3.481,1.126,1.342,1.342,0,0,0,1.366-.84,4.416,4.416,0,0,0,.408-2.484,1.473,1.473,0,0,1,.416-1.34,1.61,1.61,0,0,0,.5-.944c.069-.395.14-.789.2-1.185a9.372,9.372,0,0,1,.319-1.932c.511-1.31,1.133-2.579,1.736-3.852.275-.579.427-.628.931-.2.982.832,1.941,1.693,2.866,2.588a6.93,6.93,0,0,1,1.765,2.776,8.99,8.99,0,0,0,.662,1.417,5.821,5.821,0,0,1,.8,2.214,1.207,1.207,0,0,0,.147.522,3.214,3.214,0,0,0,.465.476l.122-.075a4.15,4.15,0,0,0,0-.455c-.086-.773-.2-1.544-.259-2.319a.737.737,0,0,1,.211-.6.736.736,0,0,1,.62.126,4.423,4.423,0,0,1,1.6,1.948C-996.478-79.019-996.422-78.9-996.369-78.782Zm3.432,12.835c-.062-.132-.109-.243-.165-.349s-.118-.213-.185-.314a14.068,14.068,0,0,1-1.609-3.655c-.453-1.473-.945-2.935-1.441-4.394-.062-.182-.265-.312-.385-.48a1.547,1.547,0,0,1-.362-.6,1.337,1.337,0,0,0-.38-.9c-.171-.169-.147-.537-.2-.754l-.7-.379c-.127.453-.472.371-.865.262.593.4.554,1,.543,1.559a18.354,18.354,0,0,1-.134,2.685,10.744,10.744,0,0,1-.722,1.969c-.471,1.226-.253,1.732.95,2.2l.1.038a2.069,2.069,0,0,1,1.23,1.125q.267.6.5,1.212c.292.767.57,1.539.867,2.344A7,7,0,0,1-992.937-65.947Zm-23.051-13.393.118.092q.86-.806,1.719-1.613a4.943,4.943,0,0,1,.684-.652,3.249,3.249,0,0,0,1.318-1.859c.4-1.2.855-2.375,1.273-3.566a.5.5,0,0,0-.011-.406c-.16-.176-.279-.473-.644-.3a.567.567,0,0,1-.779-.268.647.647,0,0,1,.125-.883,2.477,2.477,0,0,0,.681-1.416,5.845,5.845,0,0,1,.188-.894,5.757,5.757,0,0,1,.265-.639l-.094-.072a2.438,2.438,0,0,0-1.365.738,1.225,1.225,0,0,1-1.3.633,4.133,4.133,0,0,0-.8-.011c-.474.012-.482.016-.469.5a.586.586,0,0,1-.459.682c-.086.022-.16.126-.221.206-.312.415-.423.96-.917,1.265a.618.618,0,0,0-.08.963,11.576,11.576,0,0,0,1.389,1.39,1.353,1.353,0,0,1,.573,1.216c-.027.74-.115,1.48-.117,2.22a3.472,3.472,0,0,1-.568,1.816C-1015.649-79.914-1015.818-79.626-1015.988-79.34Zm7.251,27.438a.694.694,0,0,0-.427-.871,1.511,1.511,0,0,1-.9-1.182.624.624,0,0,0-.425-.381,2.007,2.007,0,0,1-1.321-.936.781.781,0,0,0-1.292.044,1.49,1.49,0,0,1-1.77.728,15.069,15.069,0,0,1-2.065-.434,1.7,1.7,0,0,0-1.781.574,3.069,3.069,0,0,0-.71,2.788c.045.252.154.324.411.326,1.532.014,3.063.047,4.595.08.668.015,1.337.081,2,.056a2.367,2.367,0,0,0,.946-.3c.22-.113.3-.12.468.085a.84.84,0,0,0,.561.242c.335.019.674-.063,1.012-.065C-1008.738-51.147-1008.734-51.14-1008.736-51.9Zm-8.684-8.94c.416.876.8,1.728,1.223,2.556a2.486,2.486,0,0,0,1.658,1.273,3.006,3.006,0,0,0,3.006-.889c.922-.931,1.754-1.951,2.609-2.946.345-.4.648-.84.98-1.274-.651-.376-1.276-.7-1.86-1.089a.762.762,0,0,0-.822-.052c-1.515.625-3.03,1.251-4.565,1.824C-1015.869-61.185-1016.593-61.058-1017.421-60.841Zm13.432-25.211c-.129.122-.236.22-.339.323a.84.84,0,0,0,.03,1.291c.78.767,1.557,1.538,2.3,2.345a2.676,2.676,0,0,1,.808,1.679c.04,1.076.811,1.625,1.534,2.235a15.212,15.212,0,0,0-.671-2.184c-.353-.864-.8-1.69-1.161-2.549A9.5,9.5,0,0,0-1003.989-86.052Zm6.441,8.216.078-.135c-.017-.082-.032-.164-.052-.245-.08-.318-.173-.634-.235-.956-.016-.081.068-.18.106-.271.071.033.2.057.2.1.106.593.51,1.142.227,1.795a.591.591,0,0,0,.313.848c.623-1.447-.307-3.781-1.7-4.185a8.536,8.536,0,0,0,.632,2.838C-997.927-77.933-997.7-77.9-997.548-77.837Zm1.111,1.178a.788.788,0,0,0-.227,1.03c.046.1.2.147.3.219.046-.113.143-.234.128-.339C-996.274-76.044-996.36-76.334-996.437-76.658Z" transform="translate(0)" fill="#8699a0"/>
      <path id="Path_385" data-name="Path 385" d="M-919.971-76.649c-.053-.119-.108-.237-.157-.358a4.423,4.423,0,0,0-1.6-1.948.736.736,0,0,0-.62-.126.737.737,0,0,0-.211.6c.06.775.172,1.545.259,2.319a4.15,4.15,0,0,1,0,.455l-.122.075a3.216,3.216,0,0,1-.465-.476,1.2,1.2,0,0,1-.147-.522,5.823,5.823,0,0,0-.8-2.214,9,9,0,0,1-.662-1.417,6.93,6.93,0,0,0-1.765-2.776c-.925-.895-1.884-1.756-2.866-2.588-.5-.427-.657-.378-.931.2-.6,1.273-1.225,2.541-1.736,3.852a9.376,9.376,0,0,0-.319,1.932c-.062.4-.133.79-.2,1.185a1.61,1.61,0,0,1-.5.944,1.474,1.474,0,0,0-.416,1.34,4.416,4.416,0,0,1-.408,2.484,1.342,1.342,0,0,1-1.366.84,5.973,5.973,0,0,1-3.481-1.126,1.4,1.4,0,0,1-.582-1.565,6.2,6.2,0,0,1,2.283-3.587,3.666,3.666,0,0,0,1.308-1.79,67.054,67.054,0,0,1,2.618-6.721,6.738,6.738,0,0,1,2.053-2.7c.9-.661,1.279-.489,1.814.16a41.821,41.821,0,0,1,4.925,7.569,7.3,7.3,0,0,0,1.611,2.193,4.8,4.8,0,0,0,.888.561,1.685,1.685,0,0,1,.97,1.152,8.364,8.364,0,0,0,.432,1c.12.333.19.683.282,1.026Z" transform="translate(-76.398 -2.133)" fill="#fff"/>
      <path id="Path_386" data-name="Path 386" d="M-824.531,24.511a6.994,6.994,0,0,0-2.945,1.562c-.3-.8-.576-1.576-.867-2.344q-.233-.613-.5-1.212a2.069,2.069,0,0,0-1.23-1.125l-.1-.038c-1.2-.466-1.421-.972-.95-2.2a10.744,10.744,0,0,0,.722-1.969,18.354,18.354,0,0,0,.134-2.685c.011-.563.049-1.154-.543-1.559.393.108.737.191.864-.262l.7.379c.049.218.025.585.2.754a1.336,1.336,0,0,1,.38.9,1.55,1.55,0,0,0,.362.6c.12.167.323.3.385.48.5,1.459.988,2.921,1.441,4.394a14.063,14.063,0,0,0,1.609,3.655c.067.1.128.207.185.314S-824.593,24.379-824.531,24.511Z" transform="translate(-168.406 -90.458)" fill="#fff"/>
      <path id="Path_387" data-name="Path 387" d="M-947.979-70.945c.17-.287.339-.575.51-.86a3.473,3.473,0,0,0,.568-1.816c0-.74.09-1.479.117-2.22a1.353,1.353,0,0,0-.573-1.216,11.575,11.575,0,0,1-1.389-1.39.618.618,0,0,1,.08-.963c.494-.306.605-.85.917-1.265.06-.081.135-.184.221-.206a.586.586,0,0,0,.459-.682c-.013-.485-.005-.489.469-.5a4.134,4.134,0,0,1,.8.011,1.225,1.225,0,0,0,1.3-.633,2.438,2.438,0,0,1,1.365-.738l.094.072a5.779,5.779,0,0,0-.265.639,5.815,5.815,0,0,0-.188.894,2.478,2.478,0,0,1-.681,1.416.647.647,0,0,0-.125.883.567.567,0,0,0,.779.268c.366-.169.484.129.644.3a.5.5,0,0,1,.011.406c-.419,1.191-.869,2.37-1.273,3.566a3.25,3.25,0,0,1-1.318,1.859,4.943,4.943,0,0,0-.684.652q-.857.809-1.719,1.613Z" transform="translate(-68.009 -8.395)" fill="#fff"/>
      <path id="Path_388" data-name="Path 388" d="M-955.638,168.2c0,.761,0,.754-.7.758-.338,0-.677.083-1.012.065a.84.84,0,0,1-.561-.242c-.164-.206-.248-.2-.468-.085a2.366,2.366,0,0,1-.946.3c-.666.026-1.335-.041-2-.056-1.531-.034-3.063-.066-4.595-.08-.257,0-.366-.074-.411-.326a3.069,3.069,0,0,1,.71-2.788,1.7,1.7,0,0,1,1.781-.574,15.075,15.075,0,0,0,2.065.434,1.49,1.49,0,0,0,1.77-.728.781.781,0,0,1,1.292-.044,2.007,2.007,0,0,0,1.321.936.624.624,0,0,1,.425.381,1.511,1.511,0,0,0,.9,1.182A.694.694,0,0,1-955.638,168.2Z" transform="translate(-53.099 -220.099)" fill="#fff"/>
      <path id="Path_389" data-name="Path 389" d="M-952.19,113.88c.827-.217,1.552-.344,2.229-.6,1.535-.573,3.05-1.2,4.566-1.824a.762.762,0,0,1,.821.052c.583.388,1.209.713,1.86,1.089-.332.435-.635.873-.98,1.274-.855.995-1.687,2.015-2.609,2.946a3.006,3.006,0,0,1-3.006.889,2.486,2.486,0,0,1-1.658-1.273C-951.394,115.609-951.774,114.756-952.19,113.88Z" transform="translate(-65.231 -174.721)" fill="#fff"/>
      <path id="Path_390" data-name="Path 390" d="M-863.937-43.955a9.5,9.5,0,0,1,2.5,3.139c.364.859.808,1.686,1.161,2.549a15.219,15.219,0,0,1,.671,2.184c-.723-.61-1.494-1.159-1.534-2.235A2.677,2.677,0,0,0-861.951-40c-.738-.807-1.515-1.579-2.3-2.345a.84.84,0,0,1-.03-1.291C-864.173-43.734-864.066-43.833-863.937-43.955Z" transform="translate(-140.051 -42.097)" fill="#fff"/>
      <path id="Path_391" data-name="Path 391" d="M-822.4-5.531c-.148-.067-.379-.1-.431-.208a8.54,8.54,0,0,1-.632-2.838c1.4.4,2.327,2.739,1.7,4.185a.591.591,0,0,1-.313-.848c.282-.653-.122-1.2-.227-1.795-.008-.045-.133-.068-.2-.1-.038.091-.121.19-.106.271.062.322.155.637.235.955.02.081.035.163.052.245Z" transform="translate(-175.148 -72.305)" fill="#fff"/>
      <path id="Path_392" data-name="Path 392" d="M-810.5,20.336c.076.324.163.614.2.911.014.1-.082.225-.128.339-.1-.072-.256-.121-.3-.219A.787.787,0,0,1-810.5,20.336Z" transform="translate(-185.938 -96.994)" fill="#fff"/>
    </g>
  </g>
</svg>
