<svg id="圖層_1" data-name="圖層 1" xmlns="http://www.w3.org/2000/svg" viewBox="0 0 31.89 29.47"><defs><style>.cls-1,.cls-2,.cls-3{isolation:isolate;}.cls-2,.cls-3{font-size:7px;}.cls-2,.cls-3,.cls-4{fill:#97a8af;}.cls-2{font-family:PingFangTC-Light-B5pc-H, PingFang TC;}.cls-3{font-family:HelveticaNeue-Light, Helvetica Neue;font-weight:300;}</style></defs><title>7min</title><g id="Group_456" data-name="Group 456"><g id="長度7分鐘" class="cls-1"><text class="cls-2" transform="translate(0 27.34)">長度</text><text class="cls-3" transform="translate(14 27.34)">7</text><text class="cls-2" transform="translate(17.89 27.34)">分鐘</text></g><g id="passage-of-time"><g id="Layer_1" data-name="Layer 1"><g id="Group_89" data-name="Group 89"><path id="Path_74" data-name="Path 74" class="cls-4" d="M449.57,290.7a.41.41,0,0,0-.37-.23H448a9,9,0,1,0-1.05,6.1.81.81,0,0,0-.3-1.11.82.82,0,0,0-1.11.3h0a7.33,7.33,0,1,1,.8-5.3h-1.2a.41.41,0,0,0-.41.41.41.41,0,0,0,.09.26l2,2.44a.4.4,0,0,0,.57.06l.05-.06,2-2.44A.42.42,0,0,0,449.57,290.7Z" transform="translate(-423.73 -283.15)"/><path id="Path_75" data-name="Path 75" class="cls-4" d="M439.18,285.17a.82.82,0,0,0-.81.82v4.94a1.42,1.42,0,0,0,.82,2.59,1.39,1.39,0,0,0,.6-.14l2.83,1.64a.81.81,0,0,0,1.22-.71.79.79,0,0,0-.41-.7L440.6,292a1.44,1.44,0,0,0-.6-1V286A.84.84,0,0,0,439.18,285.17Zm0,7.54a.61.61,0,1,1,0-1.22.6.6,0,0,1,.6.61A.61.61,0,0,1,439.18,292.71Z" transform="translate(-423.73 -283.15)"/></g></g></g></g></svg>