<svg xmlns="http://www.w3.org/2000/svg" width="53.525" height="33.325" viewBox="0 0 53.525 33.325">
  <path id="Path_144" data-name="Path 144" d="M7.028,33.728a25.932,25.932,0,0,1,8.848.69,4.129,4.129,0,0,1,.635.222,2.172,2.172,0,0,1,1.365,2.335c-.011.1-.026.194-.034.291a1.775,1.775,0,0,1-1.005,1.466,7.643,7.643,0,0,1-2.8.873,24.308,24.308,0,0,1-2.8.235c-2.06.054-4.121.063-6.182.085-.828.009-1.657,0-2.485,0l-.025.114c.133.058.264.12.4.172.237.091.479.168.712.268.077.033.132.119.2.181-.068.063-.131.173-.2.181-.427.044-.857.062-1.286.093-.159.011-.317.035-.476.053a1.467,1.467,0,0,1-1.173-.2,1.036,1.036,0,0,0-.8-.294c-.086.009-.206-.107-.275-.194s-.054-.228-.126-.289a.84.84,0,0,0-.4-.188c-.049-.007-.17.161-.179.257a3.1,3.1,0,0,0,.039.543.839.839,0,0,1,.01.379c-.024.053-.245.069-.335.022a.6.6,0,0,1-.286-.313,3.831,3.831,0,0,1-.074-.7c-.653,0-1.3-.032-1.932.012a9.167,9.167,0,0,0-1.206.257.523.523,0,0,1-.192-.036c-.282-.059-.566-.11-.844-.185a.281.281,0,0,1-.163-.174,1.123,1.123,0,0,1,.019-.328c-.275.025-.544.057-.814.072a50.142,50.142,0,0,1-6.44,0c-.9-.064-1.8-.07-2.693-.124a2.454,2.454,0,0,1-.824-.171,3.943,3.943,0,0,0-1.6-.279c-.928,0-1.857.026-2.783-.012-1.326-.055-2.652-.141-3.975-.246a18.243,18.243,0,0,0-4.259.218c-.516.08-1.027.192-1.541.286a1.659,1.659,0,0,1-.29.029q-1.993.008-3.985.012c-.1,0-.218.017-.284-.033s-.139-.222-.109-.258c.168-.2.3-.465.623-.482a.49.49,0,0,0,.211-.09c.489-.3.959-.642,1.468-.907a5.242,5.242,0,0,0,1.821-1.66c.16-.221.332-.434.506-.644a1.133,1.133,0,0,1,.89-.373.584.584,0,0,1,.536.294c.166.252.348.493.527.736a.694.694,0,0,0,.659.3c.813-.083,1.632-.138,2.438-.269,1.627-.265,3.246-.585,4.872-.857a8.631,8.631,0,0,1,2.625.1,16.177,16.177,0,0,0,4.143.2c.956-.114,1.9-.356,2.846-.532A25.64,25.64,0,0,0-6.413,33.4a2.3,2.3,0,0,0,1.132-.833.5.5,0,0,0,.069-.489c-.257-.706-.487-1.421-.75-2.125a2.321,2.321,0,0,1-.087-1.408c.3-1.192.549-2.4.915-3.569.29-.926.763-1.793,1.083-2.711a9.31,9.31,0,0,1,1.886-3.07,2.2,2.2,0,0,0,.447-.643A2.993,2.993,0,0,1-.425,17.093a2.843,2.843,0,0,0,.642-.662c.163-.213.1-.317-.175-.371-.411-.082-.823-.165-1.236-.238a.987.987,0,0,1-.76-.531,1.678,1.678,0,0,0-.165-.213,1.376,1.376,0,0,0-.034.206c.013.686-.552,1.079-1.123.714A3.079,3.079,0,0,1-4.947,13.51a.631.631,0,0,1,.5-.69.889.889,0,0,0,.616-.849c-.18-1.446.715-2.374,1.659-3.239a4.274,4.274,0,0,1,2.2-.96,2.217,2.217,0,0,1,2.323.885.535.535,0,0,0,.493.248c.361-.018.722-.033,1.081-.066.312-.029.44.091.386.4a1.143,1.143,0,0,1-.067.224c-.067.168-.017.273.165.283a.44.44,0,0,1,.442.273c.015.037.093.066.142.066.177,0,.259.063.267.26a.426.426,0,0,0,.191.257.777.777,0,0,1,.166,1.3,3.407,3.407,0,0,1-.586.481,1.308,1.308,0,0,0-.59,1.281c.062.758.042,1.524.113,2.281a7.366,7.366,0,0,0,.3,1.244.362.362,0,0,0,.178.178,8.914,8.914,0,0,1,1.916,1.484q1.389,1.323,2.8,2.622a1.506,1.506,0,0,1,.535,1.674,19.041,19.041,0,0,1-.737,2.06,1.048,1.048,0,0,0-.08.671,5.1,5.1,0,0,1-.295,2.7,1.993,1.993,0,0,1-.153.316,13.2,13.2,0,0,0-1.57,3.7,5.412,5.412,0,0,1-.293.635A4.422,4.422,0,0,0,7.028,33.728ZM-.652,23.482c-.09.075-.11.084-.118.1q-1.285,2.662-2.565,5.326a.482.482,0,0,0-.022.306c.109.415.238.825.354,1.238.062.222.158.347.415.229a2.949,2.949,0,0,1,.525-.173c.193-.048.391-.074.637-.118A.657.657,0,0,1-.9,30.044a.9.9,0,0,0,.5-.41,4.35,4.35,0,0,0,.388-3.671c-.156-.541-.248-1.1-.382-1.648C-.466,24.047-.56,23.785-.652,23.482Z" transform="translate(35.633 -7.726)" fill="#99cba5"/>
</svg>
