<svg xmlns="http://www.w3.org/2000/svg" width="66.095" height="37.351" viewBox="0 0 66.095 37.351">
  <path id="Path_140" data-name="Path 140" d="M-226.14-237.911c1.105-.085,2.146.827,3.332.252-.273-.454-1.057-.666-.656-1.442.623.422,1.247.871,1.9,1.274a1.526,1.526,0,0,0,.857.284c1.974-.207,3.938-.507,5.914-.685,1.189-.107,2.4-.018,3.591-.074a1.452,1.452,0,0,0,1.4-1.926,2.984,2.984,0,0,1,2.408-3.177c.53-.038,1.047.038,1.426-.56a3.3,3.3,0,0,1,1.173-.8,1.374,1.374,0,0,1,1.5.786c.05.328-.154.688-.139,1.029.023.539-.388.476-.69.586a1.66,1.66,0,0,0-.222.132c.537.778,1.105,1.553.781,2.558,1.243.27,4.836.229,6.372.575,1.255.284.452.949,2.021,1.206a24.657,24.657,0,0,0,4.422,0,1.96,1.96,0,0,0,.719-.225,4.738,4.738,0,0,1,4.379.282,4.837,4.837,0,0,0,2.048.678c2.279.025,4.563-.044,6.838-.2a4.305,4.305,0,0,0,1.959-.769,13.834,13.834,0,0,1,4.392-1.788q3.857-.961,7.755-1.753c1.62-.328,1.9.078,1.636,1.749-.124.784-.26,1.567-.39,2.35s-.214,1.581-.41,2.348c-.171.671-.732.74-1.367.617a6.425,6.425,0,0,1,.016-1.344,3.063,3.063,0,0,0-.722-2.426.955.955,0,0,0-.644-.318,3.02,3.02,0,0,0-1.1.068,27.914,27.914,0,0,0-7.9,3.234,11.153,11.153,0,0,1-4.882,1.785c-2.215.29-4.417.678-6.628,1a.639.639,0,0,0-.644.558c-.719,2.984-1.483,5.958-2.195,8.944a5.527,5.527,0,0,0-.168,1.9,25.351,25.351,0,0,1-.456,8,29.186,29.186,0,0,0-.418,3.2,3.958,3.958,0,0,0,.191,1.325.774.774,0,0,1-.643,1.07c-1.89.082-3.783.114-5.676.125a1.759,1.759,0,0,1-.822-.336c-.144-.087-.335-.318-.3-.424a.884.884,0,0,1,.417-.533c1.126-.453,2.316-.775,3.387-1.328a1.934,1.934,0,0,0,.806-1.4c.183-2.863.261-5.732.373-8.6a.444.444,0,0,0-.025-.2c-.718-1.473-.4-3.008-.307-4.537.037-.611-.1-1.23-.1-1.845,0-1.626.023-3.251.042-4.877,0-.225.031-.45.059-.825-1.4-.057-2.736-.125-4.077-.161-.529-.014-1.067.113-1.587.054A2.864,2.864,0,0,0-199.7-232a1.371,1.371,0,0,1-1.052.118,3.6,3.6,0,0,1-2.871-2.216c-.163-.441-.39-.607-.941-.4a14.03,14.03,0,0,1-5.678,1.031c-1.2-.06-2.4,0-3.6-.013a4.614,4.614,0,0,0-3.064.868,2.809,2.809,0,0,1-.587.277l-.112-.155,1.073-.969-1.447.111-.047-.249,1.258-.432-1.491-.269.006-.214,1.432-.159-1.224-.8.073-.2,1.926.563c.052-.533-.24-.882-.656-.884-1.974-.007-3.992-.2-5.807.844-.393.227-.711.577-1.087.838a9.989,9.989,0,0,1-.9.5l-.131-.184,1.168-1.31-.043-.2c-1,0-1.947.872-3.19.286l1.543-.643-.013-.087h-1.809l-.046-.266,2.83-.577-2.009-.925Zm19.972,1.928-.034-.371c-1-.382-1.984.127-2.975.166-1.058.042-2.111.22-3.169.271-1.016.049-2.036.011-3.054.011l-.073.2a4.478,4.478,0,0,0,1.5.687,24.383,24.383,0,0,0,3.236-.2c.664-.06,1.326-.157,1.983-.27C-207.891-235.634-207.031-235.815-206.168-235.983Z" transform="translate(227.027 244.821)" fill="#99cba5"/>
</svg>
