<svg xmlns="http://www.w3.org/2000/svg" width="36.499" height="33.742" viewBox="0 0 36.499 33.742">
  <g id="passage-of-time" transform="translate(0)">
    <g id="Layer_1_65_" transform="translate(0 0)">
      <g id="Group_89" data-name="Group 89">
        <path id="Path_74" data-name="Path 74" d="M36.426,16.021a.768.768,0,0,0-.7-.442H33.457a16.859,16.859,0,1,0-1.974,11.507,1.534,1.534,0,0,0-2.655-1.537,13.818,13.818,0,1,1,1.491-9.97H28.064a.767.767,0,0,0-.59,1.258l3.835,4.6a.767.767,0,0,0,1.178,0l3.835-4.6A.767.767,0,0,0,36.426,16.021Z" transform="translate(0 -1.775)" fill="#99cba5"/>
        <path id="Path_75" data-name="Path 75" d="M20.954,6.713A1.533,1.533,0,0,0,19.42,8.247v9.306a2.681,2.681,0,0,0,1.534,4.882,2.65,2.65,0,0,0,1.132-.259l5.335,3.079a1.517,1.517,0,0,0,.766.207,1.533,1.533,0,0,0,.767-2.862l-5.34-3.084a2.671,2.671,0,0,0-1.125-1.962V8.247A1.537,1.537,0,0,0,20.954,6.713Zm0,14.187a1.15,1.15,0,1,1,1.15-1.149A1.151,1.151,0,0,1,20.954,20.9Z" transform="translate(-4.082 -2.878)" fill="#99cba5"/>
      </g>
    </g>
  </g>
</svg>
