<svg id="圖層_1" data-name="圖層 1" xmlns="http://www.w3.org/2000/svg" viewBox="0 0 83.95673 74.19726"><defs><style>.cls-1{fill:#97a8af;}.cls-2{fill:#fff4d0;}</style></defs><title>yellow baby face 01</title><g id="Group_594" data-name="Group 594"><path id="Path_435" data-name="Path 435" class="cls-1" d="M224.73569,365.39962a15.56,15.56,0,0,0,.566-1.68255,27.45613,27.45613,0,0,1,3.19064-8.1219,25.85049,25.85049,0,0,1,2.70284-3.66267c1.1433-1.34248,2.38287-2.61332,3.63583-3.85734a6.00729,6.00729,0,0,1,1.44988-.86812c.68691-.367,1.40741-.67124,2.07861-1.06949a2.46107,2.46107,0,0,1,1.73844-.44748,1.79007,1.79007,0,0,0,.96208-.09621,25.37754,25.37754,0,0,1,6.22451-1.48788c.32447-.05145.64211-.14319,1.05153-.23492a7.99685,7.99685,0,0,1,2.01374-3.42327,5.52492,5.52492,0,0,1,.82334-.74058,19.03148,19.03148,0,0,1,10.04388-3.383,10.37072,10.37072,0,0,1,6.63842,1.89507,7.406,7.406,0,0,1,2.7744,5.66744c.04479.55936.07156,1.11872.10966,1.743.49217.02909.85693.06265,1.21936.06937a15.70263,15.70263,0,0,1,8.94975,3.06528,11.24525,11.24525,0,0,1,3.25987,3.468,7.10084,7.10084,0,0,0,1.01575,1.22612,6.37692,6.37692,0,0,1,1.4253,2.54173,6.71112,6.71112,0,0,0,1.22169,2.12334,16.57273,16.57273,0,0,1,3.13246,7.92723,14.57688,14.57688,0,0,1,.37814,3.04514,19.72388,19.72388,0,0,1-.49667,4.12807c-.34455,1.40959-.26848,2.82141-.53027,4.30034a13.60411,13.60411,0,0,0,1.53933.3356,6.60933,6.60933,0,0,1,4.92238,3.66492,6.98058,6.98058,0,0,1,.6712,4.97606.86189.86189,0,0,1-.04479.24165,32.16584,32.16584,0,0,1-1.89289,4.23547,8.021,8.021,0,0,1-3.81923,3.01158c-.4878.20808-.96878.44748-1.46777.61975a2.30429,2.30429,0,0,1-.9487.22376c-1.34241-.1253-2.685-.26849-4.02736-.4833-.895-.14318-1.05153-.04028-1.02695.895a5.3695,5.3695,0,0,1-.83,3.289c-.52809.77639-.95088,1.62884-1.50355,2.38734a12.357,12.357,0,0,1-1.696,1.92642,26.20038,26.20038,0,0,1-10.70388,5.63162c-1.78992.49446-3.53956,1.06054-5.31391,1.5774a14.07989,14.07989,0,0,1-5.50182.30429,97.17678,97.17678,0,0,1-11.67935-2.51712c-.80094-.18569-1.59982-.3893-2.39626-.58619a30.41015,30.41015,0,0,1-17.7875-12.44686c-.61753-.92183-1.3424-1.76981-1.98466-2.68492a17.26837,17.26837,0,0,1-2.591-5.96275c-.34455-1.40065-.37145-1.40287-1.72724-1.26415a4.95356,4.95356,0,0,1-4.6184-2.327,11.47822,11.47822,0,0,1-1.52144-10.6681,11.187,11.187,0,0,1,3.88192-5.40118,5.8755,5.8755,0,0,1,4.94915-1.34247C223.673,365.24076,224.15393,365.31013,224.73569,365.39962Zm46.47595-16.61519c-1.17471,1.87049-2.23744,3.52621-3.25319,5.202a1.20592,1.20592,0,0,1-1.06723.68466,15.2152,15.2152,0,0,0-3.04957.24386,22.5968,22.5968,0,0,1-4.52636-.16333.80567.80567,0,0,1-.55717-.22375,14.5583,14.5583,0,0,1-2.96013-3.43669,1.91983,1.91983,0,0,1,.16784-2.11214,10.50245,10.50245,0,0,1,3.4456-2.535c.716-.349,1.29324.06712,1.31564.895a3.68246,3.68246,0,0,1-.11184,1.22387c-.36244,1.10752.77417,2.17926,1.71385,2.30009a3.98491,3.98491,0,0,0,3.65823-1.37157,3.13241,3.13241,0,0,0,.38483-3.374,23.67041,23.67041,0,0,0-.9375-2.40971,15.67335,15.67335,0,0,0-1.8414-2.89525,4.49989,4.49989,0,0,0-1.94437-1.21042,9.16188,9.16188,0,0,0-2.66925-.42737,6.7862,6.7862,0,0,0-4.98944,1.75188c-.80326.75178-.82115,1.31565-.06937,2.09873a.92836.92836,0,0,1,.05367,1.40959,2.16376,2.16376,0,0,1-.85911.67124,37.18745,37.18745,0,0,1-3.63584,1.14555c-1.1478.27743-2.33808.37589-3.4994.59517-.64212.123-1.25965.37142-1.90177.50119a9.04568,9.04568,0,0,0-3.788,1.72283c-1.705,1.34248-3.27558,2.84156-4.8664,4.31824a12.7642,12.7642,0,0,0-1.11872,1.45657c-.27749.3468-.58394.67124-.895,1.00462-.54816.59964-1.1388,1.16569-1.64681,1.78995A49.7507,49.7507,0,0,0,228.819,363.01a2.9321,2.9321,0,0,0-.23939.82562c-.15.59292-.30877,1.18584-.43181,1.78995a33.42069,33.42069,0,0,0-.85474,4.45251,2.88185,2.88185,0,0,1-2.12559,2.75876c-.33335-.349-.6936-.67123-.99336-1.04934a6.3392,6.3392,0,0,0-2.582-1.84813,2.488,2.488,0,0,0-3.06309.8726,15.32652,15.32652,0,0,0-1.41847,3.80363c-.46541,2.7364.6712,4.222,3.46581,4.278a7.95431,7.95431,0,0,0,.86362-.03134,5.56676,5.56676,0,0,1,4.44578,1.72953,3.0785,3.0785,0,0,1,1.00237,1.77428c.18791,1.11872.4654,2.23744.59063,3.35616a12.41834,12.41834,0,0,0,2.98471,5.97173,32.415,32.415,0,0,0,5.84636,5.80167,21.9037,21.9037,0,0,0,9.03482,4.34732c3.61344.78981,7.22018,1.62216,10.85151,2.3247a15.78185,15.78185,0,0,0,4.401.33786,29.16269,29.16269,0,0,0,11.77781-3.35616,12.85841,12.85841,0,0,0,4.33612-3.57991,12.619,12.619,0,0,1,4.50847-3.9334,1.29106,1.29106,0,0,0,.85911-1.31786,2.42981,2.42981,0,0,1,1.90409-2.43658,9.25576,9.25576,0,0,1,2.76771-.44748,10.63623,10.63623,0,0,0,4.10123-.6936,3.74321,3.74321,0,0,0,2.83039-4.21755c-.02909-.36916-.02458-.74058-.04028-1.11872a2.08755,2.08755,0,0,0-2.441-2.11439,5.97417,5.97417,0,0,0-3.56428,1.11872c-.6712.61753-1.253.3356-1.56623-.5862a27.871,27.871,0,0,1-.78537-2.83035,4.67165,4.67165,0,0,1,.1834-2.7252,15.15559,15.15559,0,0,0,.9711-3.80363c.16551-1.87944.06719-3.78128.047-5.67413a4.56487,4.56487,0,0,0-.23488-1.20373c-.29976-1.02473-.62423-2.045-.942-3.06527a15.39927,15.39927,0,0,0-3.74768-6.43489,11.54247,11.54247,0,0,1-.895-1.17242,6.50449,6.50449,0,0,0-.90841-1.11871,35.49932,35.49932,0,0,0-6.59377-4.31155,16.62728,16.62728,0,0,0-1.953-.69585Z" transform="translate(-213.68107 -336.30477)"/><path id="Path_436" data-name="Path 436" class="cls-2" d="M271.2117,348.78441a16.652,16.652,0,0,1,1.969.7048,35.50827,35.50827,0,0,1,6.59377,4.31154,6.50494,6.50494,0,0,1,.90841,1.11872,11.51549,11.51549,0,0,0,.895,1.17242,15.39941,15.39941,0,0,1,3.74768,6.43488c.31778,1.02026.64211,2.0383.942,3.06528a4.56424,4.56424,0,0,1,.23489,1.20373c.02007,1.89285.11854,3.80363-.047,5.67412a15.168,15.168,0,0,1-.97109,3.80364,4.67157,4.67157,0,0,0-.1834,2.7252,29.34042,29.34042,0,0,0,.78537,2.83035c.30876.92183.895,1.20373,1.56623.5862a5.97407,5.97407,0,0,1,3.56427-1.11872,2.0875,2.0875,0,0,1,2.44105,2.11439c.01571.36916.0112.74058.04029,1.11872a3.74322,3.74322,0,0,1-2.83039,4.21755,10.635,10.635,0,0,1-4.10124.6936,9.25359,9.25359,0,0,0-2.76771.44748,2.42979,2.42979,0,0,0-1.90408,2.43658,1.29107,1.29107,0,0,1-.85912,1.31786,12.6189,12.6189,0,0,0-4.50846,3.9334,12.85841,12.85841,0,0,1-4.33612,3.57991,29.165,29.165,0,0,1-11.77781,3.35616,15.7822,15.7822,0,0,1-4.401-.33786c-3.63133-.70254-7.23808-1.53489-10.85151-2.3247a21.90364,21.90364,0,0,1-9.03482-4.34732,32.41214,32.41214,0,0,1-5.84637-5.80168,12.41834,12.41834,0,0,1-2.9847-5.97172c-.12755-1.12992-.405-2.23744-.59063-3.35616a3.07852,3.07852,0,0,0-1.00237-1.77428,5.56676,5.56676,0,0,0-4.44578-1.72953c-.28637.02236-.57507.03581-.86362.03134-2.79461-.05592-3.93122-1.54383-3.46582-4.2802a15.32655,15.32655,0,0,1,1.41848-3.80363,2.488,2.488,0,0,1,3.06309-.8726,6.3392,6.3392,0,0,1,2.582,1.84813c.29975.37367.6712.70032.99335,1.04934a2.88185,2.88185,0,0,0,2.12559-2.75876,33.42231,33.42231,0,0,1,.85475-4.45251c.12536-.59964.28418-1.19031.43181-1.79a2.9321,2.9321,0,0,1,.23939-.82562,49.74975,49.74975,0,0,1,2.94442-5.36984c.50787-.6332,1.09864-1.19925,1.6468-1.79.29976-.32891.60634-.65557.88383-1.00462a12.77388,12.77388,0,0,1,1.11872-1.45657c1.59081-1.47447,3.16155-2.98249,4.8664-4.31824a9.04563,9.04563,0,0,1,3.788-1.72283c.64211-.12977,1.25965-.37814,1.90176-.50119,1.16351-.22375,2.35379-.31771,3.49941-.59517a37.22017,37.22017,0,0,0,3.63583-1.14555,2.1662,2.1662,0,0,0,.85912-.67124.92868.92868,0,0,0-.05367-1.40959c-.75178-.78312-.7317-1.34248.06937-2.09873a6.78628,6.78628,0,0,1,4.98944-1.75192,9.17446,9.17446,0,0,1,2.66924.42734,4.49971,4.49971,0,0,1,1.94438,1.21045,15.68943,15.68943,0,0,1,1.8414,2.89526,23.74154,23.74154,0,0,1,.9375,2.40971,3.13243,3.13243,0,0,1-.38483,3.374,3.98493,3.98493,0,0,1-3.65823,1.37156c-.93968-.12082-2.07629-1.19478-1.71386-2.30008a3.68252,3.68252,0,0,0,.11185-1.22387c-.0224-.82562-.59965-1.244-1.31564-.895a10.50246,10.50246,0,0,0-3.4456,2.535,1.91981,1.91981,0,0,0-.16784,2.11214,14.56529,14.56529,0,0,0,2.96012,3.43669.80566.80566,0,0,0,.55718.22376,22.59821,22.59821,0,0,0,4.52635.16333,15.21527,15.21527,0,0,1,3.04957-.24387,1.20593,1.20593,0,0,0,1.06724-.68465C268.981,352.31062,270.037,350.65491,271.2117,348.78441Zm.839,27.46229c1.57962-.36916,3.081-.7473,4.59573-1.06948A13.03345,13.03345,0,0,0,281.665,372.678a1.18377,1.18377,0,0,0,.51456-1.69375c-.40272-1.0404-.81664-1.41181-1.69378-1.253a16.45327,16.45327,0,0,0-2.71171.754,43.62573,43.62573,0,0,1-4.2333,1.66913,28.1602,28.1602,0,0,1-9.0594.6511,3.48558,3.48558,0,0,1-1.18809-.302,29.83252,29.83252,0,0,1-4.39662-1.84588,1.27305,1.27305,0,0,0-.69811-.22376,8.04321,8.04321,0,0,0-1.24176.25732,28.54736,28.54736,0,0,0,9.42184,4.82392l-.29538.70255c-.12305.29535-.37364.60412-.34687.895a5.88671,5.88671,0,0,0,2.10988,4.28693c.74727.58844,1.07393.5907,1.8817.02908a4.67407,4.67407,0,0,0,2.35378-4.66281C272.06194,376.57114,272.05962,376.37425,272.05074,376.2467Zm-30.1203,16.86356a3.9413,3.9413,0,0,1,1.11872.62426,3.07185,3.07185,0,0,0,1.85479.85918,5.64469,5.64469,0,0,1,2.25314.43181,1.11865,1.11865,0,0,0,.9263-.141,2.29773,2.29773,0,0,1,1.54165-.22375,41.42418,41.42418,0,0,1,7.4507,1.611,18.74322,18.74322,0,0,0,2.51261.59518,1.71172,1.71172,0,0,0,2.009-1.35043l.00478-.02561a1.55055,1.55055,0,0,0-.99635-1.95332l-.02841-.00891c-.77185-.38261-1.51024-.83231-2.28892-1.197a16.43461,16.43461,0,0,0-2.72073-1.11872,48.994,48.994,0,0,0-4.93577-1.01131,14.70149,14.70149,0,0,0-2.81468-.05145c-.65113.02683-1.29775.24386-1.94874.25953a5.39011,5.39011,0,0,0-3.95362,2.51712c-.018.02236.00656.08726.01776.18347Zm1.8369-19.27327c-.29757.22376-.57725.4609-.87263.67124a1.90182,1.90182,0,0,0-.78756,2.17479,11.67307,11.67307,0,0,0,1.08513,2.46119,2.6066,2.6066,0,0,0,2.41646,1.15006,2.66932,2.66932,0,0,0,1.90177-3.07647,3.59322,3.59322,0,0,1,.38483-2.58871c.51457-.07607,1.08062-.15664,1.64681-.24387,1.47664-.22375,1.508-.25731,1.77653-1.93539a4.72335,4.72335,0,0,0-1.49235-.30877,8.09724,8.09724,0,0,1-4.89548-1.36705,5.59267,5.59267,0,0,1-1.31113-1.09636c-1.56624-1.62663-3.08768-3.30023-4.6763-4.90668a3.69185,3.69185,0,0,0-3.2958-.72269c1.55053,4.32489,4.77695,6.98072,8.1219,9.78871Z" transform="translate(-213.68107 -336.30477)"/><path id="Path_437" data-name="Path 437" class="cls-1" d="M272.05293,376.24669a2.84524,2.84524,0,0,0,.03578.51685,4.674,4.674,0,0,1-2.35379,4.66282c-.8077.56159-1.13435.55936-1.88169-.02909a5.88672,5.88672,0,0,1-2.10989-4.28693c-.02908-.28191.22376-.59068.3468-.895l.29532-.70255a28.549,28.549,0,0,1-9.42409-4.82392,8.03416,8.03416,0,0,1,1.24176-.2573,1.273,1.273,0,0,1,.6981.22374,29.82916,29.82916,0,0,0,4.39656,1.84589,3.48558,3.48558,0,0,0,1.18809.302,28.16021,28.16021,0,0,0,9.0594-.65109,43.61245,43.61245,0,0,0,4.23322-1.66913,16.45376,16.45376,0,0,1,2.71179-.754c.87707-.15885,1.291.21032,1.69371,1.253a1.18358,1.18358,0,0,1-.51463,1.69374,13.03558,13.03558,0,0,1-5.0186,2.49921C275.13165,375.49716,273.61916,375.87528,272.05293,376.24669Z" transform="translate(-213.68107 -336.30477)"/><path id="Path_438" data-name="Path 438" class="cls-1" d="M241.94157,393.108c-.0112-.10515-.03578-.16111-.01789-.18122a5.38994,5.38994,0,0,1,3.95355-2.51711c.65106-.01567,1.29549-.22376,1.94881-.25954a14.70333,14.70333,0,0,1,2.81468.05145,48.9946,48.9946,0,0,1,4.93577,1.01131,16.44657,16.44657,0,0,1,2.72073,1.11872c.77861.36469,1.51919.81442,2.28892,1.197a1.55058,1.55058,0,0,1,1.031,1.93532l-.00847.0269a1.71163,1.71163,0,0,1-1.98814,1.38085l-.02554-.00481a18.75174,18.75174,0,0,1-2.51261-.59517,41.41744,41.41744,0,0,0-7.45063-1.611,2.298,2.298,0,0,0-1.54158.22376,1.11864,1.11864,0,0,1-.9263.141,5.64335,5.64335,0,0,0-2.25307-.43181,3.07193,3.07193,0,0,1-1.85486-.85918A3.945,3.945,0,0,0,241.94157,393.108Z" transform="translate(-213.68107 -336.30477)"/><path id="Path_439" data-name="Path 439" class="cls-1" d="M243.76952,373.837c-3.345-2.808-6.57137-5.46382-8.11739-9.77536a3.69183,3.69183,0,0,1,3.29579.7227c1.58863,1.60647,3.10775,3.28008,4.6763,4.9067a5.6058,5.6058,0,0,0,1.31114,1.09634,8.09726,8.09726,0,0,0,4.89548,1.36707,4.72308,4.72308,0,0,1,1.49235.30877c-.26848,1.67584-.30207,1.71164-1.77654,1.93538-.566.085-1.1321.16781-1.6468.24388a3.59318,3.59318,0,0,0-.38483,2.58871,2.66935,2.66935,0,0,1-1.90177,3.07648,2.60665,2.60665,0,0,1-2.42316-1.15676,11.66332,11.66332,0,0,1-1.08512-2.46118,1.89952,1.89952,0,0,1,.78755-2.17479C243.19009,374.30013,243.472,374.06743,243.76952,373.837Z" transform="translate(-213.68107 -336.30477)"/></g></svg>