<svg id="圖層_1" data-name="圖層 1" xmlns="http://www.w3.org/2000/svg" viewBox="0 0 81.55732 73.25884"><defs><style>.cls-1{fill:#97a8af;}.cls-2{fill:#fff;}</style></defs><title>baby face 03</title><g id="Group_595" data-name="Group 595"><path id="Path_440" data-name="Path 440" class="cls-1" d="M283.26814,364.03892c1.602.15213,3.10781.20143,4.57777.45871a20.06581,20.06581,0,0,1,5.41681,2.148,9.70933,9.70933,0,0,1,3.50159,2.56409c.29531.37814.58845.763.91285,1.11872a57.39364,57.39364,0,0,0,3.99158,4.25118,11.9972,11.9972,0,0,1,3.74324,5.14607,14.41543,14.41543,0,0,0,.61528,1.32684A33.83024,33.83024,0,0,1,308.343,390.226a.574.574,0,0,0,.0112.12086,10.6365,10.6365,0,0,1-.13875,6.57137,5.28049,5.28049,0,0,1,3.04288,1.22169,6.21579,6.21579,0,0,1,2.35153,3.59555,23.23379,23.23379,0,0,1,.31546,3.62463,3.3897,3.3897,0,0,1-1.23507,2.30012c-.85467.91292-1.75414,1.78992-2.582,2.71854a7.77246,7.77246,0,0,1-5.27587,2.70953,2.40523,2.40523,0,0,0-2.41641,2.11208,4.89429,4.89429,0,0,1-.85467,1.72054,16.98448,16.98448,0,0,0-1.08512,3.45462,11.25729,11.25729,0,0,1-3.32707,4.57784,5.16772,5.16772,0,0,0-.64211.56386,21.13286,21.13286,0,0,1-8.38144,5.24454,31.57349,31.57349,0,0,1-15.62177,1.423,53.00616,53.00616,0,0,1-6.50869-1.53046c-.19692-.047-.38934-.12085-.58844-.16114a45.89452,45.89452,0,0,1-10.67931-4.07215,26.73041,26.73041,0,0,1-7.039-4.78582,27.40348,27.40348,0,0,1-6.55567-8.85128,12.88959,12.88959,0,0,1-1.29324-5.90236,3.64139,3.64139,0,0,0-.07607-.63761c-.59514-.1834-1.19034-.31327-1.74076-.54365a7.87088,7.87088,0,0,1-4.06539-3.9782,14.76826,14.76826,0,0,1-1.53714-5.94933,6.305,6.305,0,0,1,3.468-6.4639,10.99111,10.99111,0,0,1,3.27558-.82565l2.06291-.376c.07831-.6712.16558-1.27536.22375-1.875a26.0736,26.0736,0,0,1,2.79011-9.14011,14.78884,14.78884,0,0,1,1.9712-2.92653c1.47447-1.78992,2.99372-3.53068,4.57777-5.21763a6.08609,6.08609,0,0,1,3.57991-1.93536,4.22328,4.22328,0,0,0,1.24852-.44752,15.6472,15.6472,0,0,1,4.73216-1.53482,6.94962,6.94962,0,0,1,2.7632.11185,2.02705,2.02705,0,0,0,2.35822-.74727,12.84476,12.84476,0,0,1,4.495-3.68063,11.19806,11.19806,0,0,1,8.61414-.91059,8.303,8.303,0,0,1,4.36521,3.7052A6.00275,6.00275,0,0,1,283.26814,364.03892Zm26.47108,36.45446a15.02682,15.02682,0,0,0-1.56623.9823,11.11109,11.11109,0,0,0-2.83257,2.638c-.54373.88151-1.14781.76748-1.7452-.14544-.4654-.71149-.9375-1.42079-1.3984-2.13679a2.5284,2.5284,0,0,1-.40948-2.29343c.54147-1.56623,1.04709-3.15254,1.62441-4.69856a8.15112,8.15112,0,0,0,.04472-5.48843c-.57055-1.77872-1.18358-3.54406-1.72956-5.3318-.33116-1.08512-.49224-2.22624-.86587-3.29579a15.75792,15.75792,0,0,0-4.5129-7.26047c-.58176-.4878-.97779-1.1926-1.54609-1.70047a12.80059,12.80059,0,0,0-2.40077-1.83021c-1.35811-.72487-2.82813-1.23725-4.22653-1.89057a32.565,32.565,0,0,0-4.30929-.84573,3.02755,3.02755,0,0,0-.15438.37364.67144.67144,0,0,0,0,.2439,6.52889,6.52889,0,0,1-1.8705,6.0187,4.45676,4.45676,0,0,1-2.94667,1.52144,11.79725,11.79725,0,0,1-5.14607-.6981,3.02726,3.02726,0,0,1-2.16363-2.26871c-.1298-.6712-.27517-1.34241-.42737-2.01375a1.34244,1.34244,0,0,1,.40272-1.54383,4.37188,4.37188,0,0,0,1.31339-1.99586c.29757-.6712.69811-1.27986,1.04935-1.91747a1.0247,1.0247,0,0,1,1.16569-.42061c.50569.06486.55485.47878.56161.92411a4.05209,4.05209,0,0,1-.99567,3.23079,3.933,3.933,0,0,0-.65106.88151,2.10313,2.10313,0,0,0,1.72731,3.10775,7.7892,7.7892,0,0,0,3.8305-1.036,2.58829,2.58829,0,0,0,1.27535-1.36481c.3356-1.32451,1.17239-2.64466.42512-4.09454A4.72994,4.72994,0,0,0,278.075,361.799a5.40969,5.40969,0,0,0-3.15923-.61084,9.02148,9.02148,0,0,0-3.57991,1.11872c-1.828,1.06955-3.80367,2.15017-3.76113,4.84632-.34236.04479-.65106.10064-.96208.12086a43.63414,43.63414,0,0,0-5.08346.34,17.18352,17.18352,0,0,0-3.72979,1.41178,1.52348,1.52348,0,0,0-.61979.85474,3.45466,3.45466,0,0,1-1.87049,1.97114,6.13534,6.13534,0,0,0-1.18584.61084,14.86709,14.86709,0,0,0-1.65124,1.56623c-.32441.35575-.51682.82566-.81446,1.20817a41.74369,41.74369,0,0,0-4.42564,6.97191,19.96035,19.96035,0,0,0-2.46119,8.30776c-.02458.933-.12981,1.8638-.22376,2.79229-.123,1.13442-.50569,1.499-1.61321,1.59081a2.97106,2.97106,0,0,1-1.08512.0336,8.05465,8.05465,0,0,0-4.3138.17453,2.12563,2.12563,0,0,0-1.88613,1.92648,3.15472,3.15472,0,0,0,.56387,2.97132,3.65173,3.65173,0,0,0,2.46119,1.17239,14.99245,14.99245,0,0,1,3.1324.29757c1.31782.37814,1.88613,1.71836,2.75876,2.66036.44751.4945-.10515,1.00237-.04029,1.51025.04254.32.03134.6488.06268.97109a19.895,19.895,0,0,0,.26623,2.29561,13.44618,13.44618,0,0,0,1.14555,4.184,27.90266,27.90266,0,0,0,4.42339,5.47724,25.55993,25.55993,0,0,0,10.96342,5.64057c1.28874.36243,2.62.57725,3.92446.895a20.44925,20.44925,0,0,0,6.16858.57274,21.087,21.087,0,0,1,2.685-.11185,31.64675,31.64675,0,0,0,16.68675-4.58453,5.62256,5.62256,0,0,0,2.5574-2.85278c.44751-1.6199,1.65124-2.79229,2.18376-4.33162a.78081.78081,0,0,1,.42287-.42293c.70923-.25059.86812-.895,1.0292-1.46777.895-.10515,1.73851-.14763,2.55071-.311.94419-.18791,1.857-.53246,2.8013-.72488a11.99937,11.99937,0,0,0,7.878-5.86425A3.52618,3.52618,0,0,0,309.73922,400.49338Z" transform="translate(-232.36801 -359.33016)"/><path id="Path_441" data-name="Path 441" class="cls-2" d="M309.72128,400.49342a3.52617,3.52617,0,0,1,.51682,4.524,11.99942,11.99942,0,0,1-7.878,5.86426c-.94419.19241-1.857.53477-2.8013.72487-.81446.16333-1.65124.2058-2.55071.31095-.16108.58394-.32222,1.21718-1.0292,1.46777a.78084.78084,0,0,0-.42287.42293c-.53252,1.53933-1.74519,2.70954-2.18376,4.33162a5.62491,5.62491,0,0,1-2.5574,2.85279,31.647,31.647,0,0,1-16.68675,4.58453,21.03744,21.03744,0,0,0-2.685.11184,20.45757,20.45757,0,0,1-6.16858-.57274c-1.30444-.30877-2.63572-.52126-3.92446-.895a25.55993,25.55993,0,0,1-10.96342-5.64057,27.90543,27.90543,0,0,1-4.42339-5.47723,13.44624,13.44624,0,0,1-1.14555-4.184,19.88149,19.88149,0,0,1-.26623-2.29561c-.03359-.32215-.02239-.65113-.06268-.97109-.06712-.5102.49668-1.01575.04029-1.51024-.87264-.942-1.44094-2.28223-2.75876-2.66037a14.99245,14.99245,0,0,0-3.1324-.29757,3.65173,3.65173,0,0,1-2.46119-1.17239,3.15471,3.15471,0,0,1-.56387-2.97132,2.12563,2.12563,0,0,1,1.88613-1.92648,8.05465,8.05465,0,0,1,4.3138-.17453,2.97127,2.97127,0,0,0,1.08512-.03359c1.11872-.09177,1.4901-.44752,1.61321-1.593.10071-.92849.20587-1.8593.22376-2.79229a19.95976,19.95976,0,0,1,2.43654-8.3434,41.72949,41.72949,0,0,1,4.42564-6.97192c.29532-.38483.49-.85474.81446-1.20816a14.87544,14.87544,0,0,1,1.65349-1.56623,6.13213,6.13213,0,0,1,1.18584-.613,3.45463,3.45463,0,0,0,1.87049-1.97114,1.52348,1.52348,0,0,1,.61979-.85474,17.17494,17.17494,0,0,1,3.72979-1.41178,43.63827,43.63827,0,0,1,5.08346-.34237c.311-.01789.61753-.07606.96208-.12085-.05148-2.685,1.93536-3.77458,3.76113-4.84632a9.02148,9.02148,0,0,1,3.57991-1.11872,5.4096,5.4096,0,0,1,3.15923.61084,4.72994,4.72994,0,0,1,3.18613,4.34514c.74509,1.44988-.08951,2.76989-.42511,4.09454a2.5883,2.5883,0,0,1-1.27536,1.36481,7.7893,7.7893,0,0,1-3.8305,1.036,2.10323,2.10323,0,0,1-1.72731-3.10775,3.92552,3.92552,0,0,1,.65106-.88151,4.05212,4.05212,0,0,0,.99568-3.23079c0-.44751-.05593-.86143-.56162-.92411a1.02256,1.02256,0,0,0-1.16569.42061c-.35349.63761-.75178,1.25514-1.04934,1.91747a4.3718,4.3718,0,0,1-1.31339,1.99585,1.34244,1.34244,0,0,0-.40272,1.54384c.15213.6712.29757,1.34241.42737,2.01375a3.02725,3.02725,0,0,0,2.16362,2.26871,11.79744,11.79744,0,0,0,5.14608.6981,4.45678,4.45678,0,0,0,2.94667-1.52144,6.5289,6.5289,0,0,0,1.87049-6.01871.67144.67144,0,0,1,0-.2439,3.03051,3.03051,0,0,1,.15438-.37363,32.52151,32.52151,0,0,1,4.30929.84573c1.3984.65331,2.86617,1.16788,4.22654,1.89057a12.80642,12.80642,0,0,1,2.40076,1.8302c.5683.50788.96433,1.21268,1.54609,1.70048a15.76316,15.76316,0,0,1,4.5129,7.26046c.37138,1.06956.53253,2.21054.86587,3.2958.54591,1.78992,1.15676,3.55307,1.72957,5.32961a8.15321,8.15321,0,0,1-.04473,5.48844c-.57725,1.56623-1.08512,3.13246-1.62441,4.69856a2.52839,2.52839,0,0,0,.40949,2.29342c.46089.71368.933,1.423,1.39839,2.13679.59739.91292,1.20148,1.02695,1.7452.14544a11.11109,11.11109,0,0,1,2.83257-2.638A15.02187,15.02187,0,0,1,309.72128,400.49342ZM258.842,409.09861l4.82836.18341c.1298.51019.22376.942.35131,1.36261a4.47511,4.47511,0,0,0,1.6199,2.51712,15.75759,15.75759,0,0,0,3.06528,1.72724,6.02118,6.02118,0,0,0,5.0812.08945c.763-.37364,1.60871-.58627,2.365-.97328a11.41035,11.41035,0,0,0,3.94009-2.58431c.481-.58626,1.11872-1.11871.55041-2.01374a10.38848,10.38848,0,0,0,6.68548-2.0808,1.35813,1.35813,0,0,0,.528-.97547c-.02908-.47878-.52358-.54146-.95538-.51019-.16333,0-.32222.05367-.48555.05367h-5.30046a3.58174,3.58174,0,0,1-.22376-.39385.9888.9888,0,0,1-.1298-.34,3.46346,3.46346,0,0,0-2.13228-2.752,5.05366,5.05366,0,0,1-.83235-.499c-1.10527-.98448-2.139-2.08981-3.84388-1.78992-.14544.02458-.311-.094-.46985-.11184a8.61374,8.61374,0,0,0-5.10585.763,8.29158,8.29158,0,0,0-4.47487,5.21995,1.00239,1.00239,0,0,1-1.1433.83454c-.77192,0-1.54609,0-2.318.03127a2.80348,2.80348,0,0,0-2.07185.6712Zm-5.1036-18.54392a9.39811,9.39811,0,0,0,.42955,1.31783,1.39352,1.39352,0,0,0,.631.6712,3.13238,3.13238,0,0,0,3.26889-1.53714,1.6893,1.6893,0,0,1,1.89733-1.31564,5.08131,5.08131,0,0,1,4.10349,1.77435,1.73236,1.73236,0,0,0,.91285.50569,1.85937,1.85937,0,0,0,2.10988-1.02244,2.85719,2.85719,0,0,0-.839-2.81687,18.84327,18.84327,0,0,0-3.98488-1.46108,3.11473,3.11473,0,0,0-2.139.0157,39.89762,39.89762,0,0,0-3.90882,1.67808,5.50664,5.50664,0,0,0-2.46781,2.20152Zm30.315.20143a19.246,19.246,0,0,1,1.93761-.81446,3.05179,3.05179,0,0,1,4.25111,2.39175,11.40411,11.40411,0,0,0,.32441,1.17021,1.0873,1.0873,0,0,0,1.11871.77185,1.1611,1.1611,0,0,0,1.168-.72269,3.656,3.656,0,0,0,.19242-2.82138,5.78161,5.78161,0,0,0-5.19981-3.54406,11.38262,11.38262,0,0,0-2.99147.44751A5.22229,5.22229,0,0,0,281.015,391.49a2.17043,2.17043,0,0,0,.87481,2.07629,1.76531,1.76531,0,0,0,2.32914-1.8526,7.00144,7.00144,0,0,0-.15425-.95758Z" transform="translate(-232.36801 -359.33016)"/><path id="Path_442" data-name="Path 442" class="cls-1" d="M258.85993,409.09633l-.4721-1.58638a2.80349,2.80349,0,0,1,2.07185-.6712c.77192-.0224,1.54384-.03578,2.318-.03134a1.00238,1.00238,0,0,0,1.1433-.83454,8.29163,8.29163,0,0,1,4.47487-5.21995,8.616,8.616,0,0,1,5.10586-.763c.15889.01789.3244.13874.46984.11184,1.70491-.29757,2.73862.81,3.84389,1.78992a5.05569,5.05569,0,0,0,.83234.49893,3.46345,3.46345,0,0,1,2.13229,2.75207.98634.98634,0,0,0,.1298.34011c.05148.10741.1186.20587.22376.39378h5.30045c.16108,0,.32222-.04254.48555-.05367.43181-.02909.9263.03359.95539.51013a1.35817,1.35817,0,0,1-.528.97553,10.38843,10.38843,0,0,1-6.68547,2.0808c.5795.895-.06712,1.432-.55041,2.01368a11.41127,11.41127,0,0,1-3.9401,2.58423c-.75628.38709-1.59976.59965-2.365.97328a6.02313,6.02313,0,0,1-5.08121-.08952,15.74034,15.74034,0,0,1-3.06528-1.7273,4.475,4.475,0,0,1-1.6199-2.51712c-.12529-.42061-.22375-.85249-.3513-1.36262Zm13.91234,2.5462a5.62039,5.62039,0,0,0,4.34958-1.81683,2.26208,2.26208,0,0,0,.49667-2.7632,6.76373,6.76373,0,0,0-3.84839-3.84388,4.17718,4.17718,0,0,0-4.14152.10966c-1.45207.97778-2.50592,2.01368-2.19271,3.9222a1.23321,1.23321,0,0,1,0,.59739c-.44752,1.20373.188,1.92867,1.08068,2.5417a7.818,7.818,0,0,0,4.249,1.25521Z" transform="translate(-232.36801 -359.33016)"/><path id="Path_443" data-name="Path 443" class="cls-1" d="M253.75185,390.557a5.50607,5.50607,0,0,1,2.48134-2.19933,39.9707,39.9707,0,0,1,3.90882-1.67808,3.1147,3.1147,0,0,1,2.139-.0157,18.85786,18.85786,0,0,1,3.98489,1.46108,2.85717,2.85717,0,0,1,.839,2.81687,1.85937,1.85937,0,0,1-2.10988,1.02244,1.7324,1.7324,0,0,1-.91285-.50569,5.08134,5.08134,0,0,0-4.10349-1.77436,1.68932,1.68932,0,0,0-1.89733,1.31564,3.13237,3.13237,0,0,1-3.26889,1.53715,1.3917,1.3917,0,0,1-.631-.6712A9.41074,9.41074,0,0,1,253.75185,390.557Z" transform="translate(-232.36801 -359.33016)"/><path id="Path_444" data-name="Path 444" class="cls-1" d="M284.06464,390.75605c.08507.48111.14543.716.16332.95321a1.76538,1.76538,0,0,1-2.3292,1.8526,2.17017,2.17017,0,0,1-.87482-2.07629,5.22217,5.22217,0,0,1,3.83945-3.85515,11.38167,11.38167,0,0,1,2.99139-.44752,5.78135,5.78135,0,0,1,5.19975,3.54407,3.65571,3.65571,0,0,1-.19242,2.82137,1.16137,1.16137,0,0,1-1.16788.72269,1.08732,1.08732,0,0,1-1.11872-.77185,11.38645,11.38645,0,0,1-.32447-1.1702,3.05186,3.05186,0,0,0-4.25118-2.39175A19.31585,19.31585,0,0,0,284.06464,390.75605Z" transform="translate(-232.36801 -359.33016)"/><path id="Path_445" data-name="Path 445" class="cls-2" d="M272.76555,411.64478a7.81754,7.81754,0,0,1-4.25119-1.253c-.895-.613-1.53933-1.34247-1.08061-2.54169a1.23175,1.23175,0,0,0,0-.59739c-.31328-1.89733.74057-2.94449,2.19264-3.92221a4.1772,4.1772,0,0,1,4.14152-.10966,6.764,6.764,0,0,1,3.84833,3.84389,2.262,2.262,0,0,1-.49668,2.7632A5.61822,5.61822,0,0,1,272.76555,411.64478Zm.4811-7.70573a6.08993,6.08993,0,0,1-1.21936.33786,2.16354,2.16354,0,0,0-1.76083,1.13435c-.17671.273-.39385.51908-.57725.78756a2.53727,2.53727,0,0,0,.99786,3.44669q.04752.02622.09628.05039a7.78046,7.78046,0,0,0,2.74981,0c.37364-.047.716-.48329,1.03815-.77861.6712-.61084.55267-1.4901.7093-2.26877a1.75188,1.75188,0,0,0-1.056-2.09651A10.43251,10.43251,0,0,1,273.24665,403.93905Z" transform="translate(-232.36801 -359.33016)"/><path id="Path_446" data-name="Path 446" class="cls-1" d="M273.24672,403.93905a10.45421,10.45421,0,0,0,.98.61979,1.75188,1.75188,0,0,1,1.056,2.0965c-.15432.77861-.0381,1.65794-.70931,2.26878-.32447.29532-.6712.73163-1.03814.77861a7.77682,7.77682,0,0,1-2.752,0,2.53731,2.53731,0,0,1-1.14453-3.40081q.02416-.04864.05039-.09628c.1834-.26848.40054-.51463.57725-.78755a2.16351,2.16351,0,0,1,1.76083-1.13435A6.09248,6.09248,0,0,0,273.24672,403.93905Z" transform="translate(-232.36801 -359.33016)"/></g></svg>