<svg xmlns="http://www.w3.org/2000/svg" width="107.757" height="52.554" viewBox="0 0 107.757 52.554"><g transform="translate(-66 -2833.103)"><g transform="translate(66 2833.103)"><g transform="translate(0 0)" fill="#007cdc" stroke="#707070" stroke-width="1" opacity="0"><rect width="107.757" height="52.554" stroke="none"/><rect x="0.5" y="0.5" width="106.757" height="51.554" fill="none"/></g><g transform="translate(9.274 11.482)"><g transform="translate(0 0)"><path d="M153.835,52.778c-1.39-.039-2.7.175-4.009.088a6.577,6.577,0,0,1-2.3-.675c-2.234-1.023-4.455-2.072-6.683-3.105-.826-.382-.829-.375-1.182.484a15.578,15.578,0,0,0-.668,2.146c-.056.223-.168.432-.223.647-.113.439-.475.411-.778.464-.216.038-.126-.164-.12-.272a12.234,12.234,0,0,1,.854-3.708,38.521,38.521,0,0,0,1.878-5.562,10.515,10.515,0,0,1,.759-2.078.79.79,0,0,1,.62-.494c.3-.056.338-.009.258.26-.285.963-.559,1.929-.844,2.892a24.389,24.389,0,0,0-.912,3.782c-.024.191.007.3.2.38,2.912,1.213,5.781,2.53,8.766,3.569a2.082,2.082,0,0,0,2.283-.311,12.544,12.544,0,0,1,4.374-2.2.54.54,0,0,0,.443-.629,5.947,5.947,0,0,1,.452-2.8,5.505,5.505,0,0,0,.434-2.162,1.54,1.54,0,0,1,1.071-1.479c-.093.721-.18,1.4-.269,2.071-.168,1.274-.332,2.549-.512,3.821-.034.245.049.287.259.253,1.144-.18,2.271-.444,3.4-.706.186-.044.237-.146.237-.325,0-1.122,0-2.245.023-3.367a.509.509,0,0,0-.278-.455c-.713-.515-.712-.518-.324-1.306a.661.661,0,0,1,1.155-.222,2.25,2.25,0,0,1,.606,1.488c.107,1.159-.019,2.318,0,3.478.006.338.085.413.414.331a34.743,34.743,0,0,1,3.5-.773,5.867,5.867,0,0,1,1.067-.06A1.18,1.18,0,0,1,169,47.37,8.453,8.453,0,0,1,169,49.046a11.27,11.27,0,0,0,.3,3.108,2.337,2.337,0,0,0,.789,1.321.365.365,0,0,0,.476.043,3.426,3.426,0,0,0,1.271-1.346,12.854,12.854,0,0,0,1.078-2.846c.063-.224-.032-.226-.2-.232-.9-.034-1.808-.072-2.712-.11-.455-.019-.45-.02-.341-.442a2.755,2.755,0,0,1,.651-1.234,4.6,4.6,0,0,0,.965-1.846c.071-.232.137-.465.221-.692a.961.961,0,0,1,1.119-.706,5.668,5.668,0,0,1,.676.116c.167.036.446.017.461.173a.666.666,0,0,1-.343.641c-.562.306-1.054.716-1.589,1.06a.807.807,0,0,0-.372.493,4.244,4.244,0,0,1-.681,1.188c-.078.114-.16.226-.287.407a9.11,9.11,0,0,0,5.726-1.657,1.6,1.6,0,0,1-.63,1.614,2.761,2.761,0,0,1-1.373.533.445.445,0,0,0-.452.479,8.6,8.6,0,0,1-2.194,5.146.584.584,0,0,1-.444.244c-.19.007-.381.034-.57.059a1.872,1.872,0,0,1-2.172-1.264,8.8,8.8,0,0,1-.547-3.262c-.006-.88.032-1.759-.014-2.639-.016-.323-.107-.4-.437-.327q-2.063.483-4.139.912c-.294.061-.381.174-.379.475.02,2.806.022,5.613.029,8.419,0,.15,0,.3,0,.488a1.615,1.615,0,0,1-.909-1.407c-.011-1.441-.036-2.882-.035-4.323a11.944,11.944,0,0,0-.223-2.925c-.055-.218-.114-.307-.385-.247-.97.215-1.948.395-2.926.572-.27.049-.384.151-.373.446.013.354-.059.71-.059,1.066,0,.309-.225.406-.428.527-.15.09-.165-.062-.2-.143q-.216-.469-.42-.943c-.05-.115-.081-.19-.245-.118q-1.627.707-3.267,1.388c-.238.1-.312.194-.158.441C153.459,52.013,153.617,52.361,153.835,52.778Z" transform="translate(-87.756 -31.718)" fill="#007cdc"/><path d="M94.8,47.912a1.523,1.523,0,0,0,.863-.417,2.476,2.476,0,0,1,1.057-.5c.2-.054.338-.081.25.237a1.679,1.679,0,0,1-.805,1.1A12.42,12.42,0,0,0,94.3,49.723a.518.518,0,0,0-.215.624c.1.313-.121.589-.293.837q-.6.863-1.232,1.7a.782.782,0,0,0-.017,1.144,2.288,2.288,0,0,1,.355,1.422,12.381,12.381,0,0,1-.283,2.5c-.013.085-.019.172-.03.275a.847.847,0,0,0,.482-.317c.871-.952,1.875-1.762,2.816-2.639.428-.4.444-.775-.067-1.108-.4-.263-.391-.651-.481-1.022-.037-.154.031-.186.188-.175.529.037,1.019.124,1.256.688.089.211.231.216.433.135A2.905,2.905,0,0,0,98.665,52.6a1.868,1.868,0,0,1,1.54-.858c.153-.016.244-.011.208.193a1.632,1.632,0,0,1-.646,1.162c-.531.374-1.013.815-1.539,1.2-.32.233-.261.4-.018.645a7.924,7.924,0,0,0,2.06,1.369,25.029,25.029,0,0,0,3.959,1.6,2.627,2.627,0,0,1,1.246.832,10.126,10.126,0,0,1-2.777-.428,20.1,20.1,0,0,1-4.5-2.152c-1.5-.9-1-.882-2.427.092a11.313,11.313,0,0,0-2.41,2.543c-.282.363-.562.726-.848,1.085a1.942,1.942,0,0,1-.453.471c-.826-1.241-.522-2.569-.364-3.886a7.51,7.51,0,0,0,.1-1.732,1.564,1.564,0,0,0-.964.87,21.07,21.07,0,0,1-2.078,3.6A6.067,6.067,0,0,1,86.91,61c-.078-.044-.052-.087-.034-.134a13.036,13.036,0,0,1,2.1-3.748,14.866,14.866,0,0,0,1.982-3.123c.163-.344.379-.663.571-.993.052-.089.11-.172.155-.264.37-.755.294-.953-.471-1.241l-.925-.347a2.517,2.517,0,0,1,1.3-1.059.444.444,0,0,0,.324-.523,1.024,1.024,0,0,1,0-.305,1.09,1.09,0,0,0-.716-1.382c-.255-.089-.317-.292-.087-.51a1.582,1.582,0,0,0,.515-1.939c-.2-.491.092-.906.656-1.19a8.649,8.649,0,0,0,2.495-2.045,4.981,4.981,0,0,0,1.163-3.083,7.774,7.774,0,0,0-.027-1.68c-.029-.208.052-.219.2-.179.677.176,1.353.359,2.033.526a.319.319,0,0,1,.25.25,1.839,1.839,0,0,1-.235,1.538c-.019.032-.052.089-.065.086-.272-.075-.393-.334-.594-.5-.085-.07-.132-.141-.009-.244.169-.142.221-.4.029-.474a.49.49,0,0,0-.565.269,3.727,3.727,0,0,0-.165.666.146.146,0,0,0,.118.2.787.787,0,0,1,.143.055c.662.332.69.553.152,1.039s-1.044.974-1.577,1.448c-.178.158-.236.291-.107.513a1.4,1.4,0,0,1,.045,1.354c-.068.149-.094.316-.152.471a.593.593,0,0,0,.136.693,2.109,2.109,0,0,1,.433,1.16c.038.18-.112.211-.2.28A2.416,2.416,0,0,0,94.8,47.912Zm-1.861,1.222a1.939,1.939,0,0,0,.708-2.185C92.78,47.455,92.888,48.277,92.938,49.134Zm1.372-5.071c-.98.294-1.484.92-1.3,1.588C93.57,45.242,94.2,44.891,94.31,44.063Z" transform="translate(-76.703 -30.969)" fill="#007cdc"/><path d="M115.556,40.283a4.382,4.382,0,0,1-.573.838,47.6,47.6,0,0,1-3.69,4.133c-.21.207-.226.322-.01.538.53.533,1.033,1.093,1.537,1.65.129.143.221.163.371.031a2.06,2.06,0,0,1,.616-.38c.154-.059.333-.14.458.022a.626.626,0,0,1,.031.652,5.833,5.833,0,0,1-.36.628.248.248,0,0,0-.012.309,4.2,4.2,0,0,1,.233,4.281,9.077,9.077,0,0,1-2.027,2.842c-.413.4-.932.232-1.472.334a2.769,2.769,0,0,1,.747-.876,5.716,5.716,0,0,0,1.935-3.153,2.979,2.979,0,0,0-.017-2.2c-.114-.262-.22-.3-.416-.069a8.768,8.768,0,0,0-1.087,1.613c-.612,1.159-1.208,2.327-1.822,3.485a3.158,3.158,0,0,1-1.12,1.1c-.353.233-.464.122-.406-.3a6.335,6.335,0,0,1,.558-1.855,23.278,23.278,0,0,1,1.993-3.3c.479-.692.934-1.4,1.405-2.1.116-.172.153-.281-.08-.4a8.258,8.258,0,0,1-1.687-1.368c-.18-.167-.291-.193-.49,0a17.1,17.1,0,0,1-2.808,2.353,3.342,3.342,0,0,1-.9.421.5.5,0,0,1-.712-.454,1.973,1.973,0,0,1,.133-1.122c.42-.97.858-1.931,1.275-2.9a.416.416,0,0,1,.4-.284,3.881,3.881,0,0,1,2.445.391c.215.132.306.021.432-.131,1.115-1.359,2.151-2.78,3.349-4.074A2.143,2.143,0,0,1,115.556,40.283Zm-8.9,7.578c-.054.264.009.323.186.286a1.672,1.672,0,0,0,1.01-.56c.264-.327.544-.641.785-.985.16-.229.563-.418.441-.679-.107-.229-.486-.337-.751-.485a.369.369,0,0,0-.487.072A3.722,3.722,0,0,0,106.656,47.861Z" transform="translate(-80.793 -31.63)" fill="#007cdc"/><path d="M162.1,34.375a1.179,1.179,0,0,1,.479-.736,17.367,17.367,0,0,1,5.923-2.753,2.677,2.677,0,0,1,3.613,2.531,16.054,16.054,0,0,0,.3,2.881c.369,1.3.312,1.194,1.393.6a6.363,6.363,0,0,0,2.809-3.593c.262-.7.26-.7-.484-.749a14.655,14.655,0,0,1-2.213-.419c-.127-.03-.2-.084-.18-.236a3.162,3.162,0,0,1,.648-1.863,1.89,1.89,0,0,1,.457,1.028.386.386,0,0,0,.348.359,5.42,5.42,0,0,0,2.01-.061c.439-.072.875-.163,1.31-.251.191-.038.258.005.2.213-.085.3-.089.615-.458.792-.186.09-.288.376-.406.586-.533.945-.918,1.96-1.393,2.932a5.6,5.6,0,0,1-3.782,3.075.651.651,0,0,1-.845-.339,3.108,3.108,0,0,1-.475-1.771,10.2,10.2,0,0,0-.245-3.077,1.972,1.972,0,0,0-2.6-1.614,11.062,11.062,0,0,0-2.833,1.12c-.685.339-1.386.645-2.043,1.038A3.639,3.639,0,0,1,162.1,34.375Z" transform="translate(-93.014 -29.409)" fill="#007cdc"/><path d="M126.492,53.841a15.635,15.635,0,0,1,2.8-1.311,18.012,18.012,0,0,0,2.509-1.622,12.2,12.2,0,0,1-2.219,2.429,20.306,20.306,0,0,1-5.022,2.466c-.534.161-1.088.257-1.632.387-.128.031-.168.013-.182-.139a.647.647,0,0,1,.3-.682,4.141,4.141,0,0,1,1.436-.68,1.478,1.478,0,0,0,1.1-1.053,7.231,7.231,0,0,0,.334-1.873c.049-.775.071-1.552.119-2.327.016-.267-.1-.3-.317-.244a4.484,4.484,0,0,0-1.49.663,2.2,2.2,0,0,1-1.53.345.418.418,0,0,1-.395-.3c-.058-.177.157-.193.255-.274a9.829,9.829,0,0,1,2.847-1.353.971.971,0,0,0,.614-.62c.132-.37.315-.723.462-1.089a.317.317,0,0,1,.413-.222q.842.168,1.692.308c.211.034.222.117.178.312a1.561,1.561,0,0,1-1.161,1.285c-.395.1-.511.323-.511.739a16.494,16.494,0,0,1-.537,4.495C126.537,53.565,126.527,53.652,126.492,53.841Z" transform="translate(-84.386 -32.941)" fill="#007cdc"/><path d="M82.267,36.828a2.816,2.816,0,0,1-1.082,1.048,20.708,20.708,0,0,1-2.438,1.082c-1.335.6-2.579,1.366-3.9,2.094a1.677,1.677,0,0,0,.7.185c.283.051.635.161.651.421.011.186-.371.309-.624.346a3.259,3.259,0,0,1-1.563-.286.178.178,0,0,1-.085-.066,1.5,1.5,0,0,1,.34-1.172A35.486,35.486,0,0,1,77.7,38.653a3.859,3.859,0,0,0,1.136-.829.7.7,0,0,0,.188-.692A4.887,4.887,0,0,0,77.3,34.364c-.262-.223-.537-.432-.791-.663a1.349,1.349,0,0,1-.45-.862c-.043-.374.174-.549.539-.44a1.756,1.756,0,0,1,.8.571,16.494,16.494,0,0,1,2.13,3.344c.159.3.259.715.513.868s.652-.069.987-.131C81.425,36.979,81.824,36.908,82.267,36.828Z" transform="translate(-73.892 -29.914)" fill="#007cdc"/><path d="M80.252,55.374a6.586,6.586,0,0,1-.1,1.555,1.218,1.218,0,0,0-.039.186c-.012.234,0,.517.205.613.157.074.308-.168.447-.3.28-.259.572-.506.869-.745.157-.125.7.06.785.246a3.119,3.119,0,0,1,.053,1.662,1.632,1.632,0,0,1-.543-.88c-.025-.226-.222-.223-.363-.283s-.189.088-.246.177a5.726,5.726,0,0,0-.647,2.856c.373-.4.539-1,1.2-1.054a2.539,2.539,0,0,1-.32,1.4c-.565.9-1,1.888-1.491,2.838-.049.1-.071.273-.179.257a.39.39,0,0,1-.306-.3,4.547,4.547,0,0,1-.142-1.324,17.52,17.52,0,0,0-.216-3.689,3.413,3.413,0,0,1,.86-3.075C80.119,55.478,80.158,55.451,80.252,55.374Z" transform="translate(-75.036 -34.901)" fill="#007cdc"/><path d="M98.688,30.348a3.247,3.247,0,0,1-1.218,1.209,58.611,58.611,0,0,1-7.242,3.319,4.991,4.991,0,0,1-2.736.266c-.192-.042-.482-.052-.515-.243s.219-.316.381-.436a1.791,1.791,0,0,1,.959-.35,12.6,12.6,0,0,0,4.825-1.568,40.824,40.824,0,0,1,4.479-1.935A4.487,4.487,0,0,1,98.688,30.348Z" transform="translate(-76.728 -29.476)" fill="#007cdc"/><path d="M91.924,41.812a1.512,1.512,0,0,1-.916-.573.786.786,0,0,0-.154-.169c-.352-.3-.489-.254-.571.191q-.114.619-.23,1.237c-.045.234.02.32.252.2.279-.146.558-.289.867-.448a1.349,1.349,0,0,1-.431,1.368c-.1.077-.178.182-.274.266-.3.261-.616.512-.5,1.013a1.486,1.486,0,0,0-.91-.511c-.139-.035-.1-.135-.085-.211a46.081,46.081,0,0,0,.163-5.532.719.719,0,0,1,.022-.115c.46.042.6.352.676.743.152.785.159.783.943.785a1,1,0,0,1,1.1,1.024C91.895,41.3,91.907,41.532,91.924,41.812Z" transform="translate(-77.158 -31.249)" fill="#007cdc"/><path d="M123.024,44.811a2.265,2.265,0,0,1,.907-.4,23.511,23.511,0,0,1,4.569-.673,1.983,1.983,0,0,1,.493.053c.14.029.194.162.237.28.054.144-.091.166-.168.206a7.811,7.811,0,0,1-5.273.883A1.634,1.634,0,0,1,123.024,44.811Z" transform="translate(-84.543 -32.379)" fill="#007cdc"/><path d="M159.852,44.167c-.912,1.462-1.771,2.86-2.654,4.241a2.125,2.125,0,0,1-.9.693c-.164.08-.245.04-.31-.139a1.01,1.01,0,0,1,.265-1.2,11.612,11.612,0,0,0,1.711-2.336,2.438,2.438,0,0,1,1.588-1.218C159.629,44.193,159.7,44.187,159.852,44.167Z" transform="translate(-91.67 -32.472)" fill="#007cdc"/><path d="M78.853,50.86c-.117-.054-.385.061-.388-.138,0-.217.025-.535.254-.636A6.511,6.511,0,0,0,80.645,48.5,6.1,6.1,0,0,1,82.506,47c.122-.052.266-.18.378-.078.056.052,0,.235-.016.356a1.56,1.56,0,0,1-.45.9c-.608.6-1.2,1.209-1.818,1.8A2.519,2.519,0,0,1,78.853,50.86Z" transform="translate(-74.883 -33.062)" fill="#007cdc"/><path d="M83.135,43.683c-.081.316-.129.549-.2.776a.652.652,0,0,1-.529.484,4.738,4.738,0,0,0-1.617.643,1.41,1.41,0,0,0-.377.317.756.756,0,0,1-1.08.135c-.135-.1-.168-.16-.067-.3a1.13,1.13,0,0,1,.354-.383C80.731,44.744,81.912,44.275,83.135,43.683Z" transform="translate(-75.044 -32.367)" fill="#007cdc"/><path d="M90.793,29.235a2.855,2.855,0,0,1,2.859,2.222.38.38,0,0,1-.222.492c-.221.133-.3-.047-.4-.162-.291-.335-.407-.793-.765-1.084a1.989,1.989,0,0,0-.55-.408C91.218,30.119,91.033,29.689,90.793,29.235Z" transform="translate(-77.556 -29.235)" fill="#007cdc"/><path d="M78.211,47.174a5.71,5.71,0,0,0-.291.818c-.015.141-.157.184-.3.187a1.643,1.643,0,0,1-.826-.258.217.217,0,0,1-.083-.326,2.472,2.472,0,0,1,.591-.787c.255-.215.41-.168.551.144C77.96,47.173,77.96,47.173,78.211,47.174Z" transform="translate(-74.495 -33.016)" fill="#007cdc"/></g></g></g></g></svg>