<?xml version="1.0" encoding="utf-8"?>
<!-- Generator: Adobe Illustrator 23.0.0, SVG Export Plug-In . SVG Version: 6.00 Build 0)  -->
<svg version="1.1" id="圖層_1" xmlns="http://www.w3.org/2000/svg" xmlns:xlink="http://www.w3.org/1999/xlink" x="0px" y="0px"
	 viewBox="0 0 106 68" style="enable-background:new 0 0 106 68;" xml:space="preserve">
<style type="text/css">
	.st0{fill:#FFFFFF;}
</style>
<g id="Group_608" transform="translate(-2795.716 984.205)">
	<path id="Path_25" class="st0" d="M2895.91-944.29c-3.55-3.06-6.52-6.73-8.77-10.84h8.35v-0.75h-8.98v-3.74h-0.75v3.74h-8.98v0.75
		h8.35c-2.25,4.11-5.22,7.78-8.77,10.84l-0.2,0.18l0.5,0.57l0.2-0.18c3.59-3.08,6.6-6.78,8.89-10.92v9.19h-5.21v0.75h5.21v4.17h0.75
		v-4.17h5.21v-0.75h-5.21v-9.18c2.28,4.15,5.29,7.85,8.89,10.92l0.2,0.18l0.5-0.57L2895.91-944.29z"/>
	<g id="Group_137" transform="translate(2830.196 -982.435)">
		<path id="Path_26" class="st0" d="M-0.82,26.45v0.75h2.84c-0.13,0.27-0.27,0.54-0.43,0.8c-0.74,1.25-1.66,2.39-2.73,3.37
			l-0.19,0.18l0.5,0.57l0.2-0.19c1.15-1.06,2.14-2.28,2.94-3.63v5.67h0.77v-6.06c0.96,1.07,1.73,1.98,2.28,2.7l0.16,0.21l0.6-0.45
			l-0.17-0.22c-0.8-1.01-1.63-2-2.49-2.96H6v-0.75H3.08v-1.77H2.32v1.77H-0.82z"/>
		<path id="Path_27" class="st0" d="M6.59,33.01v7.08H2.35v-5.41H1.59v5.41h-3.54v0.77h17.01v-0.77H7.34v-3.81h6.27v-0.77H7.34v-2.5
			H6.59z"/>
		<path id="Path_28" class="st0" d="M6.49,26.45v0.75h3.17c-1.14,1.9-2.64,3.56-4.4,4.89l-0.22,0.17l0.48,0.61l0.22-0.17
			c1.68-1.3,3.13-2.86,4.3-4.63v5.9h0.75v-5.83c1.05,1.56,2.32,2.95,3.79,4.12l0.22,0.18l0.45-0.59l-0.2-0.16
			c-1.56-1.24-2.88-2.77-3.89-4.49h3.5v-0.75h-3.87v-1.77h-0.75v1.77H6.49z"/>
		<path id="Path_29" class="st0" d="M-3.08,40.93c1.2-3.42,1.76-7.04,1.67-10.66v-3.99v-0.02c0.07-0.86,0.74-1.56,1.6-1.65h14.86
			v-0.75H0.2c-0.3,0.02-0.6,0.1-0.88,0.22l-0.01,0.01c-0.54,0.25-0.98,0.69-1.24,1.23c-0.12,0.26-0.2,0.53-0.23,0.81v0.01v0.01v4.11
			c0.1,3.53-0.45,7.05-1.61,10.38l-0.09,0.24l0.68,0.3L-3.08,40.93z"/>
	</g>
	<path id="Path_30" class="st0" d="M2802.11-941.51c0.74-2.01,1.23-4.11,1.44-6.24l0.38,0.44l0.2-0.13
		c0.61-0.41,1.18-0.87,1.72-1.37v8.07h0.77v-8.83c0.65-0.7,1.22-1.48,1.68-2.32l0.13-0.25l-0.69-0.34l-0.13,0.23
		c-0.95,1.7-2.3,3.14-3.92,4.2l-0.11,0.07c0.14-1.36,0.21-2.73,0.21-4.1l0.3,0.54l0.24-0.15c1.65-0.99,3.05-2.34,4.1-3.95h2.48
		c-0.6,1.74-1.55,3.35-2.79,4.71l-0.18,0.19l0.54,0.54l0.19-0.22c0.26-0.31,0.54-0.65,0.83-1.03v3.93h2.17
		c-0.42,0.55-0.9,1.06-1.43,1.51c-0.6,0.54-1.27,1-1.99,1.38l-0.23,0.12l0.3,0.67l0.25-0.12c0.88-0.44,1.7-1.01,2.42-1.68
		c0.88,0.86,1.87,1.61,2.93,2.24c-1.87,0.83-3.84,1.39-5.87,1.67l-0.25,0.04l0.07,0.77l0.28-0.04c2.27-0.3,4.48-0.97,6.55-1.97
		c1.58,0.86,3.26,1.52,5,1.97l0.28,0.07l0.14-0.76l-0.24-0.06c-1.51-0.41-2.98-0.96-4.38-1.66c1.23-0.68,2.31-1.6,3.17-2.72
		l0.05-0.07v-0.64h-6.6c0.18-0.22,0.35-0.46,0.5-0.7h6.41v-5.34h-8.57c0.18-0.3,0.35-0.61,0.49-0.9h8.91v-0.77h-8.56
		c0.17-0.38,0.31-0.75,0.43-1.11h7.93v-3.37h-14.08l0,0h-0.25h-0.01c-0.27,0.03-0.54,0.1-0.79,0.22l-0.07,0.04
		c-0.5,0.25-0.91,0.66-1.16,1.17l-0.01,0.03c-0.11,0.23-0.18,0.47-0.22,0.72v0.02v4.66c0.1,3.53-0.45,7.05-1.61,10.38l-0.09,0.24
		l0.68,0.3L2802.11-941.51z M2814.68-943.79c-1.12-0.62-2.15-1.38-3.07-2.27h6.01C2816.76-945.15,2815.77-944.38,2814.68-943.79z
		 M2810.25-950.67v-1.43h7.99v1.43H2810.25z M2818.23-949.92v1.66h-7.99v-1.66H2818.23z M2818.86-958.25v1.84h-15.09v-0.32
		c0.1-0.76,0.67-1.37,1.42-1.52L2818.86-958.25z M2803.78-952.24v-3.4h3.72c-0.95,1.33-2.16,2.46-3.56,3.3L2803.78-952.24z"/>
	<g id="Group_138" transform="translate(2864.966 -984.205)">
		<path id="Path_31" class="st0" d="M-7.94,41.06h4.58v-0.75h-4.58v-1.33h3.87v-5.75h-3.87V31.9h4.48v-0.77h-4.48v-1.57h-0.75v1.57
			h-4.5v0.77h4.5v1.33h-3.87v5.75h3.87v1.33h-4.6v0.75h4.6v2.4h0.75V41.06z M-11.78,35.71v-1.74h3.1v1.74H-11.78z M-7.94,35.71
			v-1.74h3.1v1.74H-7.94z M-11.78,38.22v-1.74h3.1v1.74L-11.78,38.22z M-7.94,38.22v-1.74h3.1v1.74L-7.94,38.22z"/>
		<path id="Path_32" class="st0" d="M-2.82,27.44c-0.56,0.92-1.24,1.75-2.03,2.48l-0.21,0.19l0.53,0.53l0.19-0.18
			c0.97-0.93,1.81-2,2.47-3.17h1.73c0.4,0.92,0.79,1.86,1.14,2.8l0.1,0.27l0.68-0.3l-0.09-0.24c-0.33-0.88-0.66-1.72-1-2.52h4.83
			v-0.75h-6.97c0.28-0.55,0.5-1.12,0.68-1.71l0.07-0.24l-0.74-0.27l-0.08,0.28C-1.83,25.61-2.26,26.56-2.82,27.44z"/>
		<path id="Path_33" class="st0" d="M-10.14,27.3h1.47c0.39,0.92,0.77,1.86,1.13,2.8l0.1,0.27l0.68-0.3l-0.09-0.24
			c-0.33-0.88-0.66-1.72-1-2.52h4.4v-0.75h-6.31c0.26-0.55,0.48-1.12,0.66-1.71l0.07-0.25l-0.77-0.26l-0.07,0.28
			c-0.28,1.03-0.71,2.01-1.28,2.92c-0.57,0.95-1.26,1.82-2.04,2.59l-0.21,0.21l0.57,0.5l0.18-0.17
			C-11.66,29.68-10.81,28.54-10.14,27.3z"/>
		<path id="Path_34" class="st0" d="M-2.23,42.82c0.24,0.15,0.82,0.33,3.08,0.33h1.39c0.36,0,0.72-0.04,1.08-0.11
			c0.38-0.07,0.64-0.13,0.78-0.17c0.23-0.09,0.43-0.22,0.6-0.4c0.19-0.17,0.34-0.38,0.43-0.61c0.05-0.16,0.12-0.43,0.21-0.83
			c0.09-0.37,0.15-0.75,0.18-1.14c0.03-0.35,0.06-0.81,0.1-1.38l0.02-0.24l-0.76-0.14l-0.02,0.31c-0.03,0.46-0.05,0.81-0.06,1.06
			c-0.01,0.23-0.05,0.53-0.1,0.88C4.63,40.76,4.6,41,4.59,41.14c-0.03,0.15-0.09,0.29-0.18,0.42c-0.07,0.13-0.15,0.26-0.24,0.38
			c-0.1,0.08-0.21,0.15-0.33,0.21c-0.12,0.08-0.25,0.13-0.39,0.15c-0.14,0-0.38,0.02-0.72,0.05c-0.32,0.03-0.59,0.05-0.8,0.05h-2.41
			c-0.28,0-0.55-0.03-0.83-0.08c-0.18-0.02-0.36-0.07-0.53-0.13c0,0-0.06-0.04-0.15-0.24c-0.06-0.13-0.1-0.27-0.11-0.41V31.17H2.2
			c0.79,0.12,1.41,0.75,1.51,1.54v3.6c0.02,0.3,0,0.6-0.08,0.89c-0.25,0.08-0.52,0.11-0.78,0.08c-0.59,0-1.64-0.03-3.12-0.1
			l-0.28-0.01v0.77l0.26,0.01c1.5,0.07,2.56,0.1,3.15,0.1c0.73,0,1.15-0.1,1.34-0.33c0.13-0.15,0.27-0.44,0.27-1.41v-3.61v-0.01
			c-0.03-0.28-0.1-0.55-0.22-0.81l-0.01-0.02c-0.25-0.53-0.67-0.95-1.19-1.21l-0.03-0.02c-0.26-0.12-0.54-0.2-0.82-0.23L2.12,30.4
			h-4.98v10.39C-2.86,41.92-2.66,42.57-2.23,42.82z"/>
	</g>
</g>
</svg>
