<svg xmlns="http://www.w3.org/2000/svg" width="66.942" height="42.494" viewBox="0 0 66.942 42.494">
  <g id="Group_551" data-name="Group 551" transform="translate(-2570.94 -409.243)">
    <g id="Group_550" data-name="Group 550" transform="translate(2570.94 409.243)">
      <rect id="Rectangle_295" data-name="Rectangle 295" width="50.451" height="24.363" transform="translate(0 0)" fill="#fff" opacity="0"/>
      <g id="Group_151" data-name="Group 151" transform="translate(4.156 5.189)">
        <path id="Path_41" data-name="Path 41" d="M2880.966,562.892c-.657-.018-1.276.083-1.895.042a3.1,3.1,0,0,1-1.087-.319c-1.056-.483-2.105-.979-3.158-1.467-.39-.18-.392-.177-.559.229a7.293,7.293,0,0,0-.315,1.014c-.026.105-.08.2-.106.306-.053.207-.224.194-.368.219-.1.018-.059-.077-.056-.128a5.774,5.774,0,0,1,.4-1.753,18.178,18.178,0,0,0,.888-2.628,4.956,4.956,0,0,1,.358-.982.374.374,0,0,1,.293-.233c.142-.026.16,0,.122.123-.135.455-.264.912-.4,1.367a11.521,11.521,0,0,0-.431,1.787c-.011.09,0,.142.094.18,1.376.573,2.732,1.2,4.142,1.687a.984.984,0,0,0,1.079-.147,5.933,5.933,0,0,1,2.067-1.04.255.255,0,0,0,.21-.293v0a2.8,2.8,0,0,1,.214-1.323,2.6,2.6,0,0,0,.2-1.022.728.728,0,0,1,.506-.7c-.044.341-.085.662-.127.979-.08.6-.157,1.2-.242,1.806-.016.116.023.136.123.12.54-.085,1.072-.21,1.606-.334.088-.021.112-.069.112-.154,0-.53,0-1.061.01-1.591a.239.239,0,0,0-.131-.215c-.337-.243-.336-.245-.153-.617a.312.312,0,0,1,.546-.1,1.064,1.064,0,0,1,.286.7c.051.548-.009,1.1,0,1.644,0,.16.041.2.2.156a16.391,16.391,0,0,1,1.654-.365,2.777,2.777,0,0,1,.5-.028.558.558,0,0,1,.574.533,4.048,4.048,0,0,1,0,.792,5.329,5.329,0,0,0,.141,1.469,1.105,1.105,0,0,0,.374.624.172.172,0,0,0,.225.02,1.624,1.624,0,0,0,.6-.636,6.053,6.053,0,0,0,.509-1.345c.03-.106-.015-.107-.094-.11-.425-.016-.854-.034-1.282-.052-.215-.009-.212-.01-.161-.209a1.3,1.3,0,0,1,.308-.583,2.168,2.168,0,0,0,.456-.872c.033-.11.065-.22.1-.327a.454.454,0,0,1,.529-.334,2.71,2.71,0,0,1,.319.055c.079.017.211.008.218.082a.314.314,0,0,1-.162.3c-.266.145-.5.338-.75.5a.38.38,0,0,0-.176.233,1.986,1.986,0,0,1-.322.561c-.037.054-.075.107-.135.193a4.305,4.305,0,0,0,2.706-.783.756.756,0,0,1-.3.763,1.3,1.3,0,0,1-.648.252.21.21,0,0,0-.214.206c0,.007,0,.013,0,.02a4.064,4.064,0,0,1-1.037,2.432.277.277,0,0,1-.21.115c-.09,0-.18.016-.27.028a.885.885,0,0,1-1.026-.6,4.179,4.179,0,0,1-.259-1.541c0-.416.016-.831-.006-1.247-.008-.153-.051-.189-.207-.154q-.976.228-1.957.431c-.138.029-.18.082-.179.224.009,1.326.01,2.653.014,3.979v.23a.76.76,0,0,1-.429-.665c-.005-.681-.018-1.362-.017-2.043a5.66,5.66,0,0,0-.105-1.382c-.026-.1-.054-.145-.182-.117-.458.1-.921.187-1.383.27-.128.023-.181.071-.176.211.006.167-.028.335-.028.5,0,.146-.106.192-.2.249-.07.042-.078-.029-.094-.068q-.1-.221-.2-.445c-.024-.054-.038-.09-.116-.056q-.769.334-1.544.656c-.112.047-.147.091-.074.208C2880.789,562.53,2880.863,562.695,2880.966,562.892Z" transform="translate(-2849.749 -552.939)" fill="#fff"/>
        <path id="Path_42" data-name="Path 42" d="M2617.677,544.64a.716.716,0,0,0,.408-.2,1.17,1.17,0,0,1,.5-.236c.094-.026.159-.038.118.112a.8.8,0,0,1-.38.52,5.878,5.878,0,0,0-.882.657.245.245,0,0,0-.1.295c.047.148-.058.278-.139.4-.188.272-.383.54-.582.8a.37.37,0,0,0-.026.522l.018.019a1.08,1.08,0,0,1,.168.672,5.9,5.9,0,0,1-.134,1.181c-.006.04-.009.081-.015.13a.4.4,0,0,0,.228-.15c.412-.45.886-.833,1.331-1.247.2-.189.21-.366-.032-.524-.189-.124-.185-.308-.228-.483-.018-.073.015-.088.089-.083.25.018.481.059.593.325.042.1.109.1.2.064a1.375,1.375,0,0,0,.687-.561.883.883,0,0,1,.728-.405c.073-.008.116-.005.1.091a.77.77,0,0,1-.305.549c-.251.177-.479.385-.728.567-.151.11-.123.189-.008.3a3.741,3.741,0,0,0,.974.647,11.83,11.83,0,0,0,1.871.756,1.239,1.239,0,0,1,.589.393,4.785,4.785,0,0,1-1.312-.2,9.5,9.5,0,0,1-2.127-1.017c-.708-.425-.473-.417-1.146.043a5.332,5.332,0,0,0-1.139,1.2c-.133.172-.266.343-.4.513a.931.931,0,0,1-.214.222,2.518,2.518,0,0,1-.172-1.836,3.535,3.535,0,0,0,.047-.818.74.74,0,0,0-.456.411,9.945,9.945,0,0,1-.981,1.7,2.869,2.869,0,0,1-.872.848c-.037-.021-.025-.041-.016-.063a6.165,6.165,0,0,1,.993-1.771,7.035,7.035,0,0,0,.937-1.476c.077-.162.179-.313.27-.469.024-.042.052-.081.074-.125.174-.357.138-.45-.223-.586l-.437-.164a1.19,1.19,0,0,1,.614-.5.209.209,0,0,0,.153-.247.476.476,0,0,1,0-.144.515.515,0,0,0-.329-.65l-.01,0c-.12-.042-.149-.138-.041-.241a.747.747,0,0,0,.244-.916c-.095-.232.043-.428.31-.562a4.089,4.089,0,0,0,1.179-.966,2.351,2.351,0,0,0,.55-1.457,3.689,3.689,0,0,0-.013-.794c-.014-.1.024-.1.094-.085.32.083.64.17.961.249a.151.151,0,0,1,.118.118.87.87,0,0,1-.111.727c-.009.015-.025.042-.031.041-.129-.035-.186-.158-.281-.236-.04-.033-.062-.067,0-.115.08-.067.1-.189.014-.224a.233.233,0,0,0-.268.127,1.828,1.828,0,0,0-.078.315.069.069,0,0,0,.038.09.063.063,0,0,0,.018,0,.4.4,0,0,1,.068.026c.313.157.326.261.071.491s-.493.46-.745.684c-.084.075-.112.138-.05.242a.662.662,0,0,1,.021.64c-.032.07-.044.149-.072.223a.281.281,0,0,0,.064.328.991.991,0,0,1,.2.548c.018.085-.052.1-.094.132A1.144,1.144,0,0,0,2617.677,544.64Zm-.879.578a.917.917,0,0,0,.334-1.033c-.41.239-.359.628-.335,1.033Zm.648-2.4c-.463.139-.7.435-.614.751.264-.193.562-.359.613-.751Z" transform="translate(-2609.135 -536.633)" fill="#fff"/>
        <path id="Path_43" data-name="Path 43" d="M2714.566,555.027a2.092,2.092,0,0,1-.271.4,22.605,22.605,0,0,1-1.744,1.953c-.1.1-.107.152-.005.254.25.252.488.517.727.78.061.068.1.077.175.015a.978.978,0,0,1,.291-.18c.074-.028.158-.066.217.01a.3.3,0,0,1,.015.308,2.849,2.849,0,0,1-.17.3.118.118,0,0,0-.006.146,1.985,1.985,0,0,1,.11,2.023,4.288,4.288,0,0,1-.958,1.343c-.195.189-.44.11-.7.158a1.307,1.307,0,0,1,.353-.414,2.7,2.7,0,0,0,.914-1.49,1.4,1.4,0,0,0-.008-1.04c-.054-.124-.1-.142-.2-.033a4.139,4.139,0,0,0-.514.762c-.289.548-.571,1.1-.861,1.647a1.485,1.485,0,0,1-.529.52c-.167.11-.219.058-.192-.142a2.967,2.967,0,0,1,.264-.877,10.979,10.979,0,0,1,.941-1.56c.227-.327.442-.662.664-.992.055-.081.072-.133-.037-.189a3.868,3.868,0,0,1-.8-.647c-.085-.079-.138-.091-.232,0a8.082,8.082,0,0,1-1.327,1.112,1.588,1.588,0,0,1-.425.2.236.236,0,0,1-.314-.114.247.247,0,0,1-.022-.1.931.931,0,0,1,.063-.53c.2-.458.405-.913.6-1.37a.2.2,0,0,1,.189-.134,1.833,1.833,0,0,1,1.155.185c.1.062.145.01.2-.062.527-.642,1.016-1.314,1.583-1.925A1.011,1.011,0,0,1,2714.566,555.027Zm-4.207,3.581c-.025.125,0,.153.088.135a.791.791,0,0,0,.478-.265c.125-.155.257-.3.371-.466.075-.108.266-.2.208-.321s-.23-.159-.355-.229a.173.173,0,0,0-.229.034A1.758,1.758,0,0,0,2710.36,558.608Z" transform="translate(-2698.147 -550.937)" fill="#fff"/>
        <path id="Path_44" data-name="Path 44" d="M2996.817,505.01a.558.558,0,0,1,.226-.348,8.209,8.209,0,0,1,2.8-1.3,1.265,1.265,0,0,1,1.707,1.2,7.609,7.609,0,0,0,.142,1.361c.174.615.147.564.659.284a3.01,3.01,0,0,0,1.327-1.7c.124-.331.123-.331-.229-.354a6.931,6.931,0,0,1-1.046-.2c-.06-.014-.094-.04-.085-.112a1.5,1.5,0,0,1,.306-.88.893.893,0,0,1,.216.486.182.182,0,0,0,.164.17,2.561,2.561,0,0,0,.95-.029c.208-.034.414-.077.619-.119.09-.018.122,0,.094.1-.04.142-.042.291-.216.374-.088.042-.136.178-.192.277-.251.446-.433.926-.658,1.385a2.646,2.646,0,0,1-1.787,1.453.307.307,0,0,1-.4-.16,1.472,1.472,0,0,1-.225-.837,4.8,4.8,0,0,0-.115-1.454.932.932,0,0,0-1.229-.763,5.234,5.234,0,0,0-1.339.529c-.323.16-.655.3-.965.49A1.717,1.717,0,0,1,2996.817,505.01Z" transform="translate(-2964.178 -502.663)" fill="#fff"/>
        <path id="Path_45" data-name="Path 45" d="M2796.226,589.377a7.394,7.394,0,0,1,1.323-.619,8.494,8.494,0,0,0,1.186-.767,5.756,5.756,0,0,1-1.048,1.148,9.593,9.593,0,0,1-2.374,1.165c-.252.076-.514.121-.771.183-.06.015-.079.006-.086-.066a.306.306,0,0,1,.142-.322,1.96,1.96,0,0,1,.679-.321.7.7,0,0,0,.52-.5,3.431,3.431,0,0,0,.157-.885c.023-.366.034-.733.056-1.1.008-.126-.047-.142-.15-.115a2.119,2.119,0,0,0-.7.313,1.041,1.041,0,0,1-.724.163.2.2,0,0,1-.186-.142c-.028-.083.074-.091.12-.129a4.646,4.646,0,0,1,1.345-.639.458.458,0,0,0,.29-.293c.063-.175.149-.342.219-.515a.15.15,0,0,1,.181-.109l.014,0q.4.079.8.146c.1.016.1.055.084.147a.738.738,0,0,1-.549.607c-.187.047-.241.153-.241.349a7.812,7.812,0,0,1-.254,2.124C2796.248,589.247,2796.243,589.288,2796.226,589.377Z" transform="translate(-2776.338 -579.5)" fill="#fff"/>
        <path id="Path_46" data-name="Path 46" d="M2552.03,516.92a1.331,1.331,0,0,1-.511.5,9.848,9.848,0,0,1-1.152.511c-.631.284-1.219.646-1.843.99a.791.791,0,0,0,.331.087c.134.024.3.076.308.2.005.088-.176.146-.295.164a1.543,1.543,0,0,1-.739-.135.085.085,0,0,1-.04-.031.707.707,0,0,1,.161-.554,16.844,16.844,0,0,1,1.622-.863,1.823,1.823,0,0,0,.537-.392.331.331,0,0,0,.089-.327,2.31,2.31,0,0,0-.815-1.308c-.124-.105-.254-.2-.374-.313a.639.639,0,0,1-.213-.407c-.02-.177.083-.259.255-.208a.836.836,0,0,1,.378.27,7.792,7.792,0,0,1,1.006,1.58c.075.142.122.338.242.41s.309-.033.467-.062Z" transform="translate(-2548.082 -513.652)" fill="#fff"/>
        <path id="Path_47" data-name="Path 47" d="M2575.148,631.891a3.153,3.153,0,0,1-.047.735.518.518,0,0,0-.019.088c-.006.11,0,.244.1.289.074.035.146-.079.212-.142.132-.122.27-.239.41-.352.074-.059.331.028.371.116a1.475,1.475,0,0,1,.025.786.77.77,0,0,1-.256-.416c-.012-.107-.1-.105-.172-.134s-.089.042-.116.084a2.707,2.707,0,0,0-.306,1.35c.176-.189.255-.473.567-.5a1.2,1.2,0,0,1-.151.662c-.267.425-.472.892-.7,1.341-.023.047-.033.129-.084.121a.184.184,0,0,1-.145-.142,2.154,2.154,0,0,1-.067-.626,8.27,8.27,0,0,0-.1-1.743,1.612,1.612,0,0,1,.406-1.453C2575.085,631.94,2575.1,631.927,2575.148,631.891Z" transform="translate(-2572.693 -622.216)" fill="#fff"/>
        <path id="Path_48" data-name="Path 48" d="M2620.059,504.54a1.537,1.537,0,0,1-.576.571,27.721,27.721,0,0,1-3.422,1.568,2.36,2.36,0,0,1-1.293.126c-.091-.02-.228-.025-.243-.115s.1-.149.179-.206a.848.848,0,0,1,.454-.165,5.957,5.957,0,0,0,2.28-.741,19.281,19.281,0,0,1,2.117-.914A2.118,2.118,0,0,1,2620.059,504.54Z" transform="translate(-2609.69 -504.127)" fill="#fff"/>
        <path id="Path_49" data-name="Path 49" d="M2626,547.719a.715.715,0,0,1-.433-.271.375.375,0,0,0-.073-.08c-.167-.142-.231-.12-.27.09q-.054.292-.108.585c-.021.111.009.151.119.094l.41-.212a.639.639,0,0,1-.2.647c-.047.036-.084.086-.13.126-.142.123-.291.242-.236.479a.7.7,0,0,0-.43-.242c-.066-.017-.047-.064-.04-.1a21.782,21.782,0,0,0,.077-2.614.261.261,0,0,1,.01-.054c.217.02.283.166.319.351.072.371.075.37.445.371a.472.472,0,0,1,.517.423.365.365,0,0,1,0,.061C2625.991,547.477,2626,547.587,2626,547.719Z" transform="translate(-2619.036 -542.727)" fill="#fff"/>
        <path id="Path_50" data-name="Path 50" d="M2797.971,573.181a1.067,1.067,0,0,1,.428-.189,11.1,11.1,0,0,1,2.159-.318.942.942,0,0,1,.233.025c.066.014.092.077.112.132s-.043.078-.08.1a3.691,3.691,0,0,1-2.492.417A.77.77,0,0,1,2797.971,573.181Z" transform="translate(-2779.795 -567.305)" fill="#fff"/>
        <path id="Path_51" data-name="Path 51" d="M2967.093,574.859c-.431.691-.837,1.352-1.254,2a1,1,0,0,1-.425.327c-.077.038-.116.019-.146-.066a.477.477,0,0,1,.125-.567,5.5,5.5,0,0,0,.809-1.1,1.15,1.15,0,0,1,.75-.576C2966.988,574.871,2967.021,574.868,2967.093,574.859Z" transform="translate(-2934.881 -569.332)" fill="#fff"/>
        <path id="Path_52" data-name="Path 52" d="M2571.408,590.555c-.055-.026-.182.029-.183-.065s.011-.253.119-.3a3.07,3.07,0,0,0,.91-.749,2.885,2.885,0,0,1,.88-.709c.057-.025.125-.085.178-.037.027.025,0,.111-.008.168a.734.734,0,0,1-.212.425c-.287.283-.567.571-.859.851A1.192,1.192,0,0,1,2571.408,590.555Z" transform="translate(-2569.542 -582.143)" fill="#fff"/>
        <path id="Path_53" data-name="Path 53" d="M2576.851,572.4c-.038.149-.061.259-.095.367a.308.308,0,0,1-.249.229,2.231,2.231,0,0,0-.765.3.662.662,0,0,0-.179.15.357.357,0,0,1-.5.072l-.01-.008c-.063-.047-.079-.076-.031-.142a.526.526,0,0,1,.167-.181C2575.715,572.9,2576.273,572.676,2576.851,572.4Z" transform="translate(-2573.036 -567.048)" fill="#fff"/>
        <path id="Path_54" data-name="Path 54" d="M2633.955,498.868a1.349,1.349,0,0,1,1.351,1.05.18.18,0,0,1-.1.232h0c-.1.063-.142-.022-.189-.077-.138-.158-.192-.375-.362-.512a.933.933,0,0,0-.26-.193C2634.156,499.286,2634.068,499.082,2633.955,498.868Z" transform="translate(-2627.709 -498.867)" fill="#fff"/>
        <path id="Path_55" data-name="Path 55" d="M2562.8,587.86a2.6,2.6,0,0,0-.138.387c-.007.067-.074.087-.142.088a.776.776,0,0,1-.39-.122.1.1,0,0,1-.05-.136.058.058,0,0,1,.011-.018,1.168,1.168,0,0,1,.279-.372c.121-.1.194-.079.26.068C2562.683,587.86,2562.683,587.86,2562.8,587.86Z" transform="translate(-2561.054 -581.169)" fill="#fff"/>
      </g>
    </g>
    <text id="履歷範本" transform="translate(2573.882 446.737)" fill="#fff" font-size="15" font-family="PingFangTC-Regular, PingFang TC" letter-spacing="0.07em"><tspan x="0" y="0">履歷範本</tspan></text>
  </g>
</svg>
